<svg width="50" height="50" viewBox="0 0 50 50" fill="none" xmlns="http://www.w3.org/2000/svg">
<g filter="url(#filter0_d_2001_15626)">
<path d="M21.625 36.25H28.375C34 36.25 36.25 34 36.25 28.375V21.625C36.25 16 34 13.75 28.375 13.75H21.625C16 13.75 13.75 16 13.75 21.625V28.375C13.75 34 16 36.25 21.625 36.25Z" fill="white"/>
<path d="M21.625 36.25H28.375C34 36.25 36.25 34 36.25 28.375V21.625C36.25 16 34 13.75 28.375 13.75H21.625C16 13.75 13.75 16 13.75 21.625V28.375C13.75 34 16 36.25 21.625 36.25Z" fill="url(#paint0_linear_2001_15626)" fill-opacity="0.3"/>
<path d="M21.625 14H28.375C31.1628 14 33.0493 14.5591 34.2451 15.7549C35.4409 16.9507 36 18.8372 36 21.625V28.375C36 31.1628 35.4409 33.0493 34.2451 34.2451C33.0493 35.4409 31.1628 36 28.375 36H21.625C18.8372 36 16.9507 35.4409 15.7549 34.2451C14.5591 33.0493 14 31.1628 14 28.375V21.625C14 18.8372 14.5591 16.9507 15.7549 15.7549C16.9507 14.5591 18.8372 14 21.625 14Z" stroke="white" stroke-opacity="0.3" stroke-width="0.5" stroke-miterlimit="10" stroke-linecap="round" stroke-linejoin="round"/>
</g>
<defs>
<filter id="filter0_d_2001_15626" x="10.75" y="11.75" width="28.5" height="28.5" filterUnits="userSpaceOnUse" color-interpolation-filters="sRGB">
<feFlood flood-opacity="0" result="BackgroundImageFix"/>
<feColorMatrix in="SourceAlpha" type="matrix" values="0 0 0 0 0 0 0 0 0 0 0 0 0 0 0 0 0 0 127 0" result="hardAlpha"/>
<feOffset dy="1"/>
<feGaussianBlur stdDeviation="1.5"/>
<feComposite in2="hardAlpha" operator="out"/>
<feColorMatrix type="matrix" values="0 0 0 0 0 0 0 0 0 0 0 0 0 0 0 0 0 0 0.2 0"/>
<feBlend mode="normal" in2="BackgroundImageFix" result="effect1_dropShadow_2001_15626"/>
<feBlend mode="normal" in="SourceGraphic" in2="effect1_dropShadow_2001_15626" result="shape"/>
</filter>
<linearGradient id="paint0_linear_2001_15626" x1="25" y1="13.75" x2="25" y2="36.25" gradientUnits="userSpaceOnUse">
<stop stop-color="#5D76A9" stop-opacity="0"/>
<stop offset="1" stop-color="#5D76A9"/>
</linearGradient>
</defs>
</svg>
