<svg width="28" height="28" viewBox="0 0 28 28" fill="none" xmlns="http://www.w3.org/2000/svg">
<g filter="url(#filter0_d_787_39595)">
<mask id="path-1-inside-1_787_39595" fill="white">
<path d="M10.9999 14.4999C11.0494 14.4999 11.099 14.5018 11.1483 14.5067L11.1532 14.5077C11.2896 14.5216 11.4207 14.5535 11.5438 14.6014C11.5684 14.611 11.592 14.6228 11.6161 14.6337C11.6414 14.6451 11.6668 14.6561 11.6913 14.6688C11.6983 14.6725 11.7049 14.6768 11.7118 14.6806C11.746 14.6991 11.7798 14.7181 11.8124 14.7391C11.8273 14.7488 11.8417 14.7592 11.8563 14.7694C11.882 14.7873 11.9071 14.8057 11.9315 14.8251C11.9458 14.8364 11.9596 14.8483 11.9735 14.8602C11.996 14.8794 12.0177 14.8993 12.0389 14.9198C12.0459 14.9265 12.0536 14.9325 12.0604 14.9393C12.0663 14.9452 12.0713 14.9519 12.077 14.9579C12.1011 14.9828 12.1241 15.0086 12.1464 15.035C12.1559 15.0464 12.1655 15.0577 12.1747 15.0692C12.1921 15.0911 12.2084 15.1137 12.2245 15.1366C12.236 15.1529 12.2479 15.1688 12.2587 15.1854C12.2759 15.212 12.291 15.2398 12.3065 15.2675C12.3148 15.2823 12.3242 15.2964 12.3319 15.3114C12.3466 15.3397 12.3591 15.369 12.372 15.3983C12.3784 15.413 12.3855 15.4274 12.3915 15.4423C12.3945 15.4497 12.3974 15.4572 12.4003 15.4647C12.4292 15.5406 12.4515 15.6183 12.4677 15.6972C12.4877 15.795 12.4999 15.8961 12.4999 15.9999V19.9999C12.4998 20.8282 11.8282 21.4998 10.9999 21.4999C10.1715 21.4999 9.49995 20.8283 9.49989 19.9999V19.621L6.06043 23.0604C5.47468 23.6462 4.52514 23.6461 3.93934 23.0604C3.35355 22.4746 3.35355 21.5251 3.93934 20.9393L7.37879 17.4999H6.99989C6.1715 17.4999 5.49995 16.8283 5.49989 15.9999C5.49989 15.1715 6.17146 14.4999 6.99989 14.4999H10.9999ZM18.9999 12.5829C19.6899 12.5831 20.2497 13.1428 20.2499 13.8329C20.2499 16.8213 17.8282 19.2499 14.8397 19.2499C14.1496 19.2497 13.5899 18.69 13.5897 17.9999C13.5899 17.3098 14.1496 16.7501 14.8397 16.7499C16.4436 16.7499 17.7499 15.4445 17.7499 13.8329C17.7501 13.1428 18.3098 12.5831 18.9999 12.5829ZM13.16 6.74989C13.8501 6.75018 14.41 7.30971 14.41 7.99989C14.41 8.69006 13.8501 9.24959 13.16 9.24989C11.5562 9.24989 10.2499 10.5553 10.2499 12.1669C10.2497 12.857 9.69008 13.4168 8.99989 13.4169C8.30964 13.4169 7.75006 12.8571 7.74989 12.1669C7.74989 9.17849 10.1716 6.74989 13.16 6.74989ZM21.9393 2.93934C22.5251 2.35355 23.4746 2.35355 24.0604 2.93934C24.6461 3.52514 24.6462 4.47468 24.0604 5.06043L20.621 8.49989H20.9999C21.8283 8.49995 22.4999 9.1715 22.4999 9.99989C22.4998 10.8282 21.8282 11.4998 20.9999 11.4999H16.9999C16.95 11.4999 16.9002 11.497 16.8505 11.4921C16.8268 11.4897 16.8035 11.4848 16.7802 11.4813C16.7564 11.4778 16.7325 11.4752 16.7089 11.4706C16.6805 11.465 16.6526 11.4582 16.6249 11.4511C16.6046 11.4458 16.5844 11.4405 16.5643 11.4345C16.5351 11.4256 16.5068 11.4147 16.4784 11.4042C16.4618 11.398 16.445 11.3924 16.4286 11.3856C16.405 11.3759 16.3823 11.3643 16.3593 11.3534C16.3361 11.3425 16.3126 11.3324 16.2899 11.3202C16.27 11.3095 16.2507 11.2976 16.2313 11.286C16.2108 11.2738 16.1898 11.2622 16.1698 11.2489C16.046 11.1665 15.9349 11.0666 15.8407 10.952C15.8267 10.9351 15.8148 10.9167 15.8016 10.8993C15.784 10.8759 15.7651 10.8534 15.7489 10.829C15.7422 10.8189 15.7368 10.808 15.7304 10.7977C15.6866 10.7284 15.6481 10.6554 15.6161 10.579C15.6037 10.5494 15.5933 10.5193 15.5829 10.4891C15.5767 10.4713 15.5698 10.4536 15.5643 10.4354C15.552 10.3945 15.5419 10.3531 15.5331 10.3114C15.5317 10.3049 15.5295 10.2985 15.5282 10.2919C15.5092 10.1956 15.4999 10.0977 15.4999 9.99989V5.99989C15.4999 5.17146 16.1715 4.49989 16.9999 4.49989C17.8283 4.49995 18.4999 5.1715 18.4999 5.99989V6.37879L21.9393 2.93934Z"/>
</mask>
<path d="M10.9999 14.4999C11.0494 14.4999 11.099 14.5018 11.1483 14.5067L11.1532 14.5077C11.2896 14.5216 11.4207 14.5535 11.5438 14.6014C11.5684 14.611 11.592 14.6228 11.6161 14.6337C11.6414 14.6451 11.6668 14.6561 11.6913 14.6688C11.6983 14.6725 11.7049 14.6768 11.7118 14.6806C11.746 14.6991 11.7798 14.7181 11.8124 14.7391C11.8273 14.7488 11.8417 14.7592 11.8563 14.7694C11.882 14.7873 11.9071 14.8057 11.9315 14.8251C11.9458 14.8364 11.9596 14.8483 11.9735 14.8602C11.996 14.8794 12.0177 14.8993 12.0389 14.9198C12.0459 14.9265 12.0536 14.9325 12.0604 14.9393C12.0663 14.9452 12.0713 14.9519 12.077 14.9579C12.1011 14.9828 12.1241 15.0086 12.1464 15.035C12.1559 15.0464 12.1655 15.0577 12.1747 15.0692C12.1921 15.0911 12.2084 15.1137 12.2245 15.1366C12.236 15.1529 12.2479 15.1688 12.2587 15.1854C12.2759 15.212 12.291 15.2398 12.3065 15.2675C12.3148 15.2823 12.3242 15.2964 12.3319 15.3114C12.3466 15.3397 12.3591 15.369 12.372 15.3983C12.3784 15.413 12.3855 15.4274 12.3915 15.4423C12.3945 15.4497 12.3974 15.4572 12.4003 15.4647C12.4292 15.5406 12.4515 15.6183 12.4677 15.6972C12.4877 15.795 12.4999 15.8961 12.4999 15.9999V19.9999C12.4998 20.8282 11.8282 21.4998 10.9999 21.4999C10.1715 21.4999 9.49995 20.8283 9.49989 19.9999V19.621L6.06043 23.0604C5.47468 23.6462 4.52514 23.6461 3.93934 23.0604C3.35355 22.4746 3.35355 21.5251 3.93934 20.9393L7.37879 17.4999H6.99989C6.1715 17.4999 5.49995 16.8283 5.49989 15.9999C5.49989 15.1715 6.17146 14.4999 6.99989 14.4999H10.9999ZM18.9999 12.5829C19.6899 12.5831 20.2497 13.1428 20.2499 13.8329C20.2499 16.8213 17.8282 19.2499 14.8397 19.2499C14.1496 19.2497 13.5899 18.69 13.5897 17.9999C13.5899 17.3098 14.1496 16.7501 14.8397 16.7499C16.4436 16.7499 17.7499 15.4445 17.7499 13.8329C17.7501 13.1428 18.3098 12.5831 18.9999 12.5829ZM13.16 6.74989C13.8501 6.75018 14.41 7.30971 14.41 7.99989C14.41 8.69006 13.8501 9.24959 13.16 9.24989C11.5562 9.24989 10.2499 10.5553 10.2499 12.1669C10.2497 12.857 9.69008 13.4168 8.99989 13.4169C8.30964 13.4169 7.75006 12.8571 7.74989 12.1669C7.74989 9.17849 10.1716 6.74989 13.16 6.74989ZM21.9393 2.93934C22.5251 2.35355 23.4746 2.35355 24.0604 2.93934C24.6461 3.52514 24.6462 4.47468 24.0604 5.06043L20.621 8.49989H20.9999C21.8283 8.49995 22.4999 9.1715 22.4999 9.99989C22.4998 10.8282 21.8282 11.4998 20.9999 11.4999H16.9999C16.95 11.4999 16.9002 11.497 16.8505 11.4921C16.8268 11.4897 16.8035 11.4848 16.7802 11.4813C16.7564 11.4778 16.7325 11.4752 16.7089 11.4706C16.6805 11.465 16.6526 11.4582 16.6249 11.4511C16.6046 11.4458 16.5844 11.4405 16.5643 11.4345C16.5351 11.4256 16.5068 11.4147 16.4784 11.4042C16.4618 11.398 16.445 11.3924 16.4286 11.3856C16.405 11.3759 16.3823 11.3643 16.3593 11.3534C16.3361 11.3425 16.3126 11.3324 16.2899 11.3202C16.27 11.3095 16.2507 11.2976 16.2313 11.286C16.2108 11.2738 16.1898 11.2622 16.1698 11.2489C16.046 11.1665 15.9349 11.0666 15.8407 10.952C15.8267 10.9351 15.8148 10.9167 15.8016 10.8993C15.784 10.8759 15.7651 10.8534 15.7489 10.829C15.7422 10.8189 15.7368 10.808 15.7304 10.7977C15.6866 10.7284 15.6481 10.6554 15.6161 10.579C15.6037 10.5494 15.5933 10.5193 15.5829 10.4891C15.5767 10.4713 15.5698 10.4536 15.5643 10.4354C15.552 10.3945 15.5419 10.3531 15.5331 10.3114C15.5317 10.3049 15.5295 10.2985 15.5282 10.2919C15.5092 10.1956 15.4999 10.0977 15.4999 9.99989V5.99989C15.4999 5.17146 16.1715 4.49989 16.9999 4.49989C17.8283 4.49995 18.4999 5.1715 18.4999 5.99989V6.37879L21.9393 2.93934Z" fill="white"/>
<path d="M10.9999 14.4999C11.0494 14.4999 11.099 14.5018 11.1483 14.5067L11.1532 14.5077C11.2896 14.5216 11.4207 14.5535 11.5438 14.6014C11.5684 14.611 11.592 14.6228 11.6161 14.6337C11.6414 14.6451 11.6668 14.6561 11.6913 14.6688C11.6983 14.6725 11.7049 14.6768 11.7118 14.6806C11.746 14.6991 11.7798 14.7181 11.8124 14.7391C11.8273 14.7488 11.8417 14.7592 11.8563 14.7694C11.882 14.7873 11.9071 14.8057 11.9315 14.8251C11.9458 14.8364 11.9596 14.8483 11.9735 14.8602C11.996 14.8794 12.0177 14.8993 12.0389 14.9198C12.0459 14.9265 12.0536 14.9325 12.0604 14.9393C12.0663 14.9452 12.0713 14.9519 12.077 14.9579C12.1011 14.9828 12.1241 15.0086 12.1464 15.035C12.1559 15.0464 12.1655 15.0577 12.1747 15.0692C12.1921 15.0911 12.2084 15.1137 12.2245 15.1366C12.236 15.1529 12.2479 15.1688 12.2587 15.1854C12.2759 15.212 12.291 15.2398 12.3065 15.2675C12.3148 15.2823 12.3242 15.2964 12.3319 15.3114C12.3466 15.3397 12.3591 15.369 12.372 15.3983C12.3784 15.413 12.3855 15.4274 12.3915 15.4423C12.3945 15.4497 12.3974 15.4572 12.4003 15.4647C12.4292 15.5406 12.4515 15.6183 12.4677 15.6972C12.4877 15.795 12.4999 15.8961 12.4999 15.9999V19.9999C12.4998 20.8282 11.8282 21.4998 10.9999 21.4999C10.1715 21.4999 9.49995 20.8283 9.49989 19.9999V19.621L6.06043 23.0604C5.47468 23.6462 4.52514 23.6461 3.93934 23.0604C3.35355 22.4746 3.35355 21.5251 3.93934 20.9393L7.37879 17.4999H6.99989C6.1715 17.4999 5.49995 16.8283 5.49989 15.9999C5.49989 15.1715 6.17146 14.4999 6.99989 14.4999H10.9999ZM18.9999 12.5829C19.6899 12.5831 20.2497 13.1428 20.2499 13.8329C20.2499 16.8213 17.8282 19.2499 14.8397 19.2499C14.1496 19.2497 13.5899 18.69 13.5897 17.9999C13.5899 17.3098 14.1496 16.7501 14.8397 16.7499C16.4436 16.7499 17.7499 15.4445 17.7499 13.8329C17.7501 13.1428 18.3098 12.5831 18.9999 12.5829ZM13.16 6.74989C13.8501 6.75018 14.41 7.30971 14.41 7.99989C14.41 8.69006 13.8501 9.24959 13.16 9.24989C11.5562 9.24989 10.2499 10.5553 10.2499 12.1669C10.2497 12.857 9.69008 13.4168 8.99989 13.4169C8.30964 13.4169 7.75006 12.8571 7.74989 12.1669C7.74989 9.17849 10.1716 6.74989 13.16 6.74989ZM21.9393 2.93934C22.5251 2.35355 23.4746 2.35355 24.0604 2.93934C24.6461 3.52514 24.6462 4.47468 24.0604 5.06043L20.621 8.49989H20.9999C21.8283 8.49995 22.4999 9.1715 22.4999 9.99989C22.4998 10.8282 21.8282 11.4998 20.9999 11.4999H16.9999C16.95 11.4999 16.9002 11.497 16.8505 11.4921C16.8268 11.4897 16.8035 11.4848 16.7802 11.4813C16.7564 11.4778 16.7325 11.4752 16.7089 11.4706C16.6805 11.465 16.6526 11.4582 16.6249 11.4511C16.6046 11.4458 16.5844 11.4405 16.5643 11.4345C16.5351 11.4256 16.5068 11.4147 16.4784 11.4042C16.4618 11.398 16.445 11.3924 16.4286 11.3856C16.405 11.3759 16.3823 11.3643 16.3593 11.3534C16.3361 11.3425 16.3126 11.3324 16.2899 11.3202C16.27 11.3095 16.2507 11.2976 16.2313 11.286C16.2108 11.2738 16.1898 11.2622 16.1698 11.2489C16.046 11.1665 15.9349 11.0666 15.8407 10.952C15.8267 10.9351 15.8148 10.9167 15.8016 10.8993C15.784 10.8759 15.7651 10.8534 15.7489 10.829C15.7422 10.8189 15.7368 10.808 15.7304 10.7977C15.6866 10.7284 15.6481 10.6554 15.6161 10.579C15.6037 10.5494 15.5933 10.5193 15.5829 10.4891C15.5767 10.4713 15.5698 10.4536 15.5643 10.4354C15.552 10.3945 15.5419 10.3531 15.5331 10.3114C15.5317 10.3049 15.5295 10.2985 15.5282 10.2919C15.5092 10.1956 15.4999 10.0977 15.4999 9.99989V5.99989C15.4999 5.17146 16.1715 4.49989 16.9999 4.49989C17.8283 4.49995 18.4999 5.1715 18.4999 5.99989V6.37879L21.9393 2.93934Z" fill="url(#paint0_linear_787_39595)" fill-opacity="0.3"/>
<path d="M10.9999 14.4999L10.9999 13.9999H10.9999V14.4999ZM11.1483 14.5067L11.2464 14.0164C11.2302 14.0132 11.2139 14.0108 11.1976 14.0092L11.1483 14.5067ZM11.1532 14.5077L11.0551 14.998C11.0709 15.0011 11.0867 15.0035 11.1027 15.0051L11.1532 14.5077ZM11.5438 14.6014L11.3624 15.0674L11.3628 15.0675L11.5438 14.6014ZM11.6161 14.6337L11.822 14.178L11.8217 14.1779L11.6161 14.6337ZM11.6913 14.6688L11.4604 15.1123L11.4606 15.1124L11.6913 14.6688ZM11.7118 14.6806L11.9496 14.2407L11.9495 14.2407L11.7118 14.6806ZM11.8124 14.7391L12.0837 14.3192L12.0837 14.3191L11.8124 14.7391ZM11.8563 14.7694L11.5702 15.1794L11.5703 15.1795L11.8563 14.7694ZM11.9315 14.8251L12.2427 14.4337L12.2425 14.4335L11.9315 14.8251ZM11.9735 14.8602L11.6483 15.24L11.6485 15.2402L11.9735 14.8602ZM12.0389 14.9198L12.3858 14.5596L12.3857 14.5595L12.0389 14.9198ZM12.0604 14.9393L12.414 14.5858L12.414 14.5858L12.0604 14.9393ZM12.077 14.9579L12.4364 14.6102L12.4363 14.6102L12.077 14.9579ZM12.1464 15.035L11.764 15.3572L11.7642 15.3574L12.1464 15.035ZM12.1747 15.0692L12.5664 14.7585L12.5663 14.7583L12.1747 15.0692ZM12.2245 15.1366L11.8161 15.425L11.8162 15.4252L12.2245 15.1366ZM12.2587 15.1854L12.6782 14.9135L12.6782 14.9134L12.2587 15.1854ZM12.3065 15.2675L12.7426 15.0228L12.7425 15.0226L12.3065 15.2675ZM12.3319 15.3114L11.8878 15.5411L11.8879 15.5413L12.3319 15.3114ZM12.372 15.3983L12.8299 15.1977L12.8298 15.1973L12.372 15.3983ZM12.3915 15.4423L11.9273 15.628L11.9274 15.6284L12.3915 15.4423ZM12.4003 15.4647L12.8674 15.2865L12.8673 15.2862L12.4003 15.4647ZM12.4677 15.6972L12.9575 15.5967L12.9575 15.5966L12.4677 15.6972ZM12.4999 19.9999L12.9999 19.9999V19.9999H12.4999ZM10.9999 21.4999V21.9999H10.9999L10.9999 21.4999ZM9.49989 19.9999H8.99989V19.9999L9.49989 19.9999ZM9.49989 19.621H9.99989C9.99989 19.4187 9.87807 19.2364 9.69123 19.159C9.50439 19.0816 9.28933 19.1244 9.14633 19.2674L9.49989 19.621ZM6.06043 23.0604L6.41399 23.414L6.06043 23.0604ZM3.93934 23.0604L3.58579 23.414L3.58582 23.414L3.93934 23.0604ZM3.93934 20.9393L3.58579 20.5858H3.58579L3.93934 20.9393ZM7.37879 17.4999L7.73235 17.8534C7.87535 17.7104 7.91812 17.4954 7.84073 17.3085C7.76334 17.1217 7.58102 16.9999 7.37879 16.9999V17.4999ZM5.49989 15.9999H4.99989V15.9999L5.49989 15.9999ZM18.9999 12.5829L19.0001 12.0829H18.9998L18.9999 12.5829ZM20.2499 13.8329H20.7499V13.8328L20.2499 13.8329ZM14.8397 19.2499L14.8396 19.7499H14.8397V19.2499ZM13.5897 17.9999L13.0897 17.9998V18L13.5897 17.9999ZM14.8397 16.7499V16.2499H14.8396L14.8397 16.7499ZM17.7499 13.8329L17.2499 13.8328V13.8329H17.7499ZM13.16 6.74989L13.1603 6.24989H13.16V6.74989ZM13.16 9.24989V9.74989H13.1603L13.16 9.24989ZM10.2499 12.1669L10.7499 12.167V12.1669H10.2499ZM8.99989 13.4169V13.9169H8.99993L8.99989 13.4169ZM7.74989 12.1669H7.24989L7.24989 12.167L7.74989 12.1669ZM21.9393 2.93934L21.5858 2.58579V2.58579L21.9393 2.93934ZM24.0604 2.93934L24.414 2.58582L24.414 2.58579L24.0604 2.93934ZM24.0604 5.06043L24.414 5.41399L24.0604 5.06043ZM20.621 8.49989L20.2674 8.14633C20.1244 8.28933 20.0816 8.50439 20.159 8.69123C20.2364 8.87807 20.4187 8.99989 20.621 8.99989V8.49989ZM20.9999 8.49989L20.9999 7.99989H20.9999V8.49989ZM22.4999 9.99989L22.9999 9.99992V9.99989H22.4999ZM20.9999 11.4999V11.9999H20.9999L20.9999 11.4999ZM16.9999 11.4999V10.9999H16.9998L16.9999 11.4999ZM16.8505 11.4921L16.9 10.9945L16.8997 10.9945L16.8505 11.4921ZM16.7802 11.4813L16.7072 11.976L16.7075 11.976L16.7802 11.4813ZM16.7089 11.4706L16.8055 10.98L16.8054 10.98L16.7089 11.4706ZM16.6249 11.4511L16.7496 10.9669L16.7495 10.9668L16.6249 11.4511ZM16.5643 11.4345L16.4193 11.913L16.4195 11.913L16.5643 11.4345ZM16.4784 11.4042L16.6525 10.9355L16.6522 10.9353L16.4784 11.4042ZM16.4286 11.3856L16.2379 11.8478L16.2382 11.848L16.4286 11.3856ZM16.3593 11.3534L16.5734 10.9016L16.5731 10.9015L16.3593 11.3534ZM16.2899 11.3202L16.0528 11.7604L16.053 11.7605L16.2899 11.3202ZM16.2313 11.286L16.4882 10.857L16.4881 10.857L16.2313 11.286ZM16.1698 11.2489L16.447 10.8328L16.4469 10.8327L16.1698 11.2489ZM15.8407 10.952L16.2269 10.6344L16.2267 10.6342L15.8407 10.952ZM15.8016 10.8993L15.402 11.1998L15.4022 11.2L15.8016 10.8993ZM15.7489 10.829L16.1654 10.5523L16.1653 10.5523L15.7489 10.829ZM15.7304 10.7977L15.3073 11.0642L15.3073 11.0642L15.7304 10.7977ZM15.6161 10.579L15.1548 10.7719L15.155 10.7723L15.6161 10.579ZM15.5829 10.4891L16.0556 10.3262L16.0555 10.3259L15.5829 10.4891ZM15.5643 10.4354L15.0858 10.5803L15.0858 10.5805L15.5643 10.4354ZM15.5331 10.3114L15.0439 10.4148L15.0439 10.4149L15.5331 10.3114ZM15.5282 10.2919L16.0187 10.1951L16.0187 10.195L15.5282 10.2919ZM15.4999 9.99989H14.9999V9.99992L15.4999 9.99989ZM16.9999 4.49989L16.9999 3.99989H16.9999V4.49989ZM18.4999 6.37879H17.9999C17.9999 6.58102 18.1217 6.76334 18.3085 6.84073C18.4954 6.91812 18.7104 6.87535 18.8534 6.73235L18.4999 6.37879ZM10.9999 14.4999L10.9998 14.9999C11.0365 14.9999 11.0693 15.0013 11.0991 15.0043L11.1483 14.5067L11.1976 14.0092C11.1287 14.0023 11.0624 13.9999 10.9999 13.9999L10.9999 14.4999ZM11.1483 14.5067L11.0503 14.997L11.0551 14.998L11.1532 14.5077L11.2513 14.0174L11.2464 14.0164L11.1483 14.5067ZM11.1532 14.5077L11.1027 15.0051C11.1941 15.0144 11.2812 15.0358 11.3624 15.0674L11.5438 14.6014L11.7252 14.1355C11.5602 14.0713 11.3851 14.0287 11.2038 14.0103L11.1532 14.5077ZM11.5438 14.6014L11.3628 15.0675C11.3612 15.0669 11.3627 15.0674 11.3714 15.0714C11.3759 15.0735 11.3801 15.0754 11.3872 15.0787C11.3934 15.0817 11.4017 15.0855 11.4105 15.0895L11.6161 14.6337L11.8217 14.1779C11.8096 14.1725 11.8109 14.1728 11.7888 14.1627C11.7736 14.1557 11.751 14.1455 11.7249 14.1354L11.5438 14.6014ZM11.6161 14.6337L11.4102 15.0893C11.446 15.1055 11.452 15.108 11.4604 15.1123L11.6913 14.6688L11.9222 14.2253C11.8815 14.2042 11.8368 14.1847 11.822 14.178L11.6161 14.6337ZM11.6913 14.6688L11.4606 15.1124C11.4549 15.1095 11.4506 15.107 11.4484 15.1058C11.4464 15.1047 11.4452 15.1039 11.4467 15.1048C11.4471 15.1051 11.4512 15.1075 11.4552 15.1098C11.4596 15.1124 11.4662 15.1161 11.4741 15.1204L11.7118 14.6806L11.9495 14.2407C11.954 14.2431 11.9572 14.2449 11.9581 14.2455C11.9587 14.2458 11.9594 14.2462 11.9565 14.2445C11.9545 14.2434 11.9499 14.2406 11.9445 14.2375C11.9389 14.2344 11.9312 14.23 11.922 14.2252L11.6913 14.6688ZM11.7118 14.6806L11.474 15.1204C11.5039 15.1366 11.5246 15.1485 11.5411 15.1592L11.8124 14.7391L12.0837 14.3191C12.0351 14.2877 11.9881 14.2616 11.9496 14.2407L11.7118 14.6806ZM11.8124 14.7391L11.5411 15.1591C11.5459 15.1623 11.5461 15.1626 11.5702 15.1794L11.8563 14.7694L12.1425 14.3594C12.1373 14.3558 12.1086 14.3353 12.0837 14.3192L11.8124 14.7391ZM11.8563 14.7694L11.5703 15.1795C11.5899 15.1932 11.6063 15.2053 11.6206 15.2166L11.9315 14.8251L12.2425 14.4335C12.2079 14.4061 12.174 14.3814 12.1423 14.3593L11.8563 14.7694ZM11.9315 14.8251L11.6203 15.2164C11.6259 15.2209 11.6321 15.2262 11.6483 15.24L11.9735 14.8602L12.2988 14.4805C12.2871 14.4704 12.2656 14.4519 12.2427 14.4337L11.9315 14.8251ZM11.9735 14.8602L11.6485 15.2402C11.6623 15.252 11.6768 15.2652 11.6922 15.2801L12.0389 14.9198L12.3857 14.5595C12.3586 14.5335 12.3296 14.5069 12.2985 14.4802L11.9735 14.8602ZM12.0389 14.9198L11.6921 15.28C11.7 15.2876 11.7069 15.2938 11.7114 15.2978C11.7138 15.2999 11.7158 15.3017 11.7173 15.303C11.7184 15.304 11.7202 15.3055 11.7204 15.3058C11.722 15.3072 11.7208 15.3061 11.7188 15.3043C11.7167 15.3024 11.7124 15.2984 11.7069 15.2929L12.0604 14.9393L12.414 14.5858C12.4051 14.5769 12.3972 14.5696 12.3915 14.5644C12.386 14.5593 12.3811 14.5551 12.379 14.5533C12.3759 14.5505 12.3766 14.5512 12.3771 14.5516C12.378 14.5524 12.3813 14.5554 12.3858 14.5596L12.0389 14.9198ZM12.0604 14.9393L11.7068 15.2929C11.6996 15.2857 11.6943 15.2798 11.6915 15.2766C11.6889 15.2737 11.6871 15.2716 11.6884 15.2731C11.6886 15.2734 11.69 15.275 11.6912 15.2764C11.6926 15.278 11.6945 15.2803 11.6969 15.283C11.7015 15.2882 11.7087 15.2963 11.7177 15.3056L12.077 14.9579L12.4363 14.6102C12.4425 14.6165 12.4469 14.6215 12.4488 14.6237C12.4502 14.6253 12.4516 14.6269 12.4492 14.6241C12.4478 14.6224 12.4433 14.6172 12.4379 14.6112C12.4323 14.6049 12.4242 14.596 12.414 14.5858L12.0604 14.9393ZM12.077 14.9579L11.7177 15.3056C11.7322 15.3206 11.7475 15.3376 11.764 15.3572L12.1464 15.035L12.5288 14.7129C12.5007 14.6795 12.47 14.6449 12.4364 14.6102L12.077 14.9579ZM12.1464 15.035L11.7642 15.3574C11.7756 15.371 11.7796 15.3757 11.7831 15.3802L12.1747 15.0692L12.5663 14.7583C12.5514 14.7396 12.5363 14.7218 12.5286 14.7127L12.1464 15.035ZM12.1747 15.0692L11.783 15.3799C11.7913 15.3905 11.8011 15.4038 11.8161 15.425L12.2245 15.1366L12.6329 14.8482C12.6156 14.8236 12.5928 14.7917 12.5664 14.7585L12.1747 15.0692ZM12.2245 15.1366L11.8162 15.4252C11.8202 15.4309 11.824 15.4362 11.827 15.4403C11.8303 15.4449 11.8324 15.4478 11.8345 15.4508C11.8386 15.4566 11.8395 15.458 11.8391 15.4574L12.2587 15.1854L12.6782 14.9134C12.6603 14.8858 12.634 14.8497 12.6328 14.8481L12.2245 15.1366ZM12.2587 15.1854L11.8391 15.4574C11.8453 15.4669 11.85 15.4756 11.8706 15.5123L12.3065 15.2675L12.7425 15.0226C12.732 15.004 12.7065 14.9571 12.6782 14.9135L12.2587 15.1854ZM12.3065 15.2675L11.8705 15.5122C11.8754 15.5209 11.8798 15.5284 11.8831 15.5339C11.8847 15.5366 11.8862 15.5391 11.8874 15.5411C11.8887 15.5432 11.8894 15.5445 11.8902 15.5459C11.8918 15.5485 11.892 15.5489 11.8917 15.5483C11.8913 15.5477 11.8898 15.5451 11.8878 15.5411L12.3319 15.3114L12.776 15.0817C12.7647 15.0597 12.7537 15.0414 12.7486 15.0328C12.7447 15.0263 12.7448 15.0264 12.7428 15.0231C12.7417 15.0212 12.7418 15.0215 12.7426 15.0228L12.3065 15.2675ZM12.3319 15.3114L11.8879 15.5413C11.8933 15.5518 11.8981 15.5627 11.9141 15.5993L12.372 15.3983L12.8298 15.1973C12.8201 15.1753 12.7998 15.1277 12.7759 15.0815L12.3319 15.3114ZM12.372 15.3983L11.914 15.599C11.9171 15.6062 11.92 15.6126 11.9222 15.6173C11.9233 15.6196 11.9243 15.6219 11.9251 15.6237C11.926 15.6255 11.9266 15.6269 11.9272 15.6282C11.9298 15.6339 11.9289 15.6322 11.9273 15.628L12.3915 15.4423L12.8557 15.2565C12.8481 15.2375 12.8407 15.2212 12.8366 15.2123C12.8355 15.2099 12.8345 15.2076 12.8337 15.2059C12.8328 15.204 12.8322 15.2026 12.8316 15.2013C12.8304 15.1988 12.83 15.1978 12.8299 15.1977L12.372 15.3983ZM12.3915 15.4423L11.9274 15.6284C11.9293 15.6331 11.9312 15.638 11.9332 15.6433L12.4003 15.4647L12.8673 15.2862C12.8636 15.2764 12.8597 15.2664 12.8556 15.2562L12.3915 15.4423ZM12.4003 15.4647L11.9331 15.6429C11.952 15.6923 11.9668 15.7439 11.9779 15.7977L12.4677 15.6972L12.9575 15.5966C12.9361 15.4927 12.9065 15.3889 12.8674 15.2865L12.4003 15.4647ZM12.4677 15.6972L11.9779 15.7976C11.9923 15.8681 11.9999 15.9352 11.9999 15.9999H12.4999H12.9999C12.9999 15.857 12.9831 15.7219 12.9575 15.5967L12.4677 15.6972ZM12.4999 15.9999H11.9999V19.9999H12.4999H12.9999V15.9999H12.4999ZM12.4999 19.9999L11.9999 19.9998C11.9998 20.5521 11.5521 20.9998 10.9998 20.9999L10.9999 21.4999L10.9999 21.9999C12.1044 21.9998 12.9998 21.1044 12.9999 19.9999L12.4999 19.9999ZM10.9999 21.4999V20.9999C10.4477 20.9999 9.99993 20.5521 9.99989 19.9998L9.49989 19.9999L8.99989 19.9999C8.99997 21.1044 9.89532 21.9999 10.9999 21.9999V21.4999ZM9.49989 19.9999H9.99989V19.621H9.49989H8.99989V19.9999H9.49989ZM9.49989 19.621L9.14633 19.2674L5.70688 22.7069L6.06043 23.0604L6.41399 23.414L9.85344 19.9745L9.49989 19.621ZM6.06043 23.0604L5.70688 22.7069C5.31643 23.0973 4.68343 23.0973 4.29286 22.7068L3.93934 23.0604L3.58582 23.414C4.36684 24.1949 5.63294 24.195 6.41399 23.414L6.06043 23.0604ZM3.93934 23.0604L4.29289 22.7069C3.90237 22.3164 3.90237 21.6834 4.29289 21.2929L3.93934 20.9393L3.58579 20.5858C2.80474 21.3668 2.80474 22.6329 3.58579 23.414L3.93934 23.0604ZM3.93934 20.9393L4.29289 21.2929L7.73235 17.8534L7.37879 17.4999L7.02524 17.1463L3.58579 20.5858L3.93934 20.9393ZM7.37879 17.4999V16.9999H6.99989V17.4999V17.9999H7.37879V17.4999ZM6.99989 17.4999V16.9999C6.44768 16.9999 5.99993 16.5521 5.99989 15.9998L5.49989 15.9999L4.99989 15.9999C4.99997 17.1044 5.89532 17.9999 6.99989 17.9999V17.4999ZM5.49989 15.9999H5.99989C5.99989 15.4476 6.4476 14.9999 6.99989 14.9999V14.4999V13.9999C5.89532 13.9999 4.99989 14.8953 4.99989 15.9999H5.49989ZM6.99989 14.4999V14.9999H10.9999V14.4999V13.9999H6.99989V14.4999ZM18.9999 12.5829L18.9997 13.0829C19.4138 13.083 19.7498 13.419 19.7499 13.833L20.2499 13.8329L20.7499 13.8328C20.7496 12.8666 19.9661 12.0832 19.0001 12.0829L18.9999 12.5829ZM20.2499 13.8329H19.7499C19.7499 16.546 17.5512 18.7499 14.8397 18.7499V19.2499V19.7499C18.1052 19.7499 20.7499 17.0966 20.7499 13.8329H20.2499ZM14.8397 19.2499L14.8399 18.7499C14.4258 18.7498 14.0898 18.4138 14.0897 17.9998L13.5897 17.9999L13.0897 18C13.09 18.9662 13.8734 19.7497 14.8396 19.7499L14.8397 19.2499ZM13.5897 17.9999L14.0897 18C14.0898 17.5859 14.4258 17.25 14.8399 17.2499L14.8397 16.7499L14.8396 16.2499C13.8734 16.2501 13.09 17.0336 13.0897 17.9998L13.5897 17.9999ZM14.8397 16.7499V17.2499C16.7204 17.2499 18.2499 15.72 18.2499 13.8329H17.7499H17.2499C17.2499 15.169 16.1668 16.2499 14.8397 16.2499V16.7499ZM17.7499 13.8329L18.2499 13.833C18.25 13.419 18.586 13.083 19 13.0829L18.9999 12.5829L18.9998 12.0829C18.0336 12.0831 17.2501 12.8666 17.2499 13.8328L17.7499 13.8329ZM13.16 6.74989L13.1598 7.24989C13.5742 7.25007 13.91 7.58607 13.91 7.99989H14.41H14.91C14.91 7.03336 14.1261 6.2503 13.1603 6.24989L13.16 6.74989ZM14.41 7.99989H13.91C13.91 8.4137 13.5742 8.74971 13.1598 8.74989L13.16 9.24989L13.1603 9.74989C14.1261 9.74947 14.91 8.96642 14.91 7.99989H14.41ZM13.16 9.24989V8.74989C11.2794 8.74989 9.74989 10.2798 9.74989 12.1669H10.2499H10.7499C10.7499 10.8308 11.833 9.74989 13.16 9.74989V9.24989ZM10.2499 12.1669L9.74989 12.1668C9.74978 12.581 9.41385 12.9168 8.99984 12.9169L8.99989 13.4169L8.99993 13.9169C9.96631 13.9168 10.7496 13.1331 10.7499 12.167L10.2499 12.1669ZM8.99989 13.4169V12.9169C8.58591 12.9169 8.24999 12.581 8.24989 12.1668L7.74989 12.1669L7.24989 12.167C7.25013 13.1331 8.03337 13.9169 8.99989 13.9169V13.4169ZM7.74989 12.1669H8.24989C8.24989 9.4538 10.4485 7.24989 13.16 7.24989V6.74989V6.24989C9.89458 6.24989 7.24989 8.90317 7.24989 12.1669H7.74989ZM21.9393 2.93934L22.2929 3.29289C22.6834 2.90237 23.3164 2.90237 23.7069 3.29289L24.0604 2.93934L24.414 2.58579C23.6329 1.80474 22.3668 1.80474 21.5858 2.58579L21.9393 2.93934ZM24.0604 2.93934L23.7068 3.29286C24.0973 3.68343 24.0973 4.31643 23.7069 4.70688L24.0604 5.06043L24.414 5.41399C25.195 4.63294 25.1949 3.36684 24.414 2.58582L24.0604 2.93934ZM24.0604 5.06043L23.7069 4.70688L20.2674 8.14633L20.621 8.49989L20.9745 8.85344L24.414 5.41399L24.0604 5.06043ZM20.621 8.49989V8.99989H20.9999V8.49989V7.99989H20.621V8.49989ZM20.9999 8.49989L20.9998 8.99989C21.5521 8.99993 21.9999 9.44768 21.9999 9.99989H22.4999H22.9999C22.9999 8.89532 22.1044 7.99997 20.9999 7.99989L20.9999 8.49989ZM22.4999 9.99989L21.9999 9.99985C21.9998 10.5521 21.5521 10.9998 20.9998 10.9999L20.9999 11.4999L20.9999 11.9999C22.1044 11.9998 22.9998 11.1044 22.9999 9.99992L22.4999 9.99989ZM20.9999 11.4999V10.9999H16.9999V11.4999V11.9999H20.9999V11.4999ZM16.9999 11.4999L16.9998 10.9999C16.9691 10.9999 16.936 10.9981 16.9 10.9945L16.8505 11.4921L16.801 11.9896C16.8643 11.9959 16.9309 11.9999 16.9999 11.9999L16.9999 11.4999ZM16.8505 11.4921L16.8997 10.9945C16.9051 10.995 16.9069 10.9955 16.898 10.994C16.8959 10.9937 16.8937 10.9933 16.8908 10.9928C16.8881 10.9923 16.8845 10.9917 16.8809 10.9911C16.8736 10.9899 16.8638 10.9883 16.8529 10.9866L16.7802 11.4813L16.7075 11.976C16.7124 11.9767 16.7128 11.9769 16.7324 11.9802C16.7469 11.9826 16.7721 11.9868 16.8013 11.9896L16.8505 11.4921ZM16.7802 11.4813L16.8531 10.9867C16.8442 10.9854 16.8359 10.9842 16.8296 10.9834C16.8224 10.9824 16.8184 10.9819 16.8138 10.9812C16.8051 10.98 16.8038 10.9797 16.8055 10.98L16.7089 11.4706L16.6123 11.9612C16.6375 11.9661 16.66 11.9694 16.6751 11.9716C16.6965 11.9746 16.6961 11.9743 16.7072 11.976L16.7802 11.4813ZM16.7089 11.4706L16.8054 10.98C16.791 10.9772 16.774 10.9731 16.7496 10.9669L16.6249 11.4511L16.5002 11.9353C16.5313 11.9433 16.57 11.9529 16.6124 11.9612L16.7089 11.4706ZM16.6249 11.4511L16.7495 10.9668C16.73 10.9618 16.7184 10.9587 16.7092 10.9559L16.5643 11.4345L16.4195 11.913C16.4504 11.9224 16.4793 11.9299 16.5003 11.9353L16.6249 11.4511ZM16.5643 11.4345L16.7094 10.956C16.6987 10.9527 16.6886 10.9489 16.6525 10.9355L16.4784 11.4042L16.3043 11.8729C16.325 11.8806 16.3716 11.8985 16.4193 11.913L16.5643 11.4345ZM16.4784 11.4042L16.6522 10.9353C16.6458 10.933 16.6398 10.9308 16.6353 10.9292C16.6302 10.9274 16.6275 10.9264 16.6242 10.9252C16.6181 10.923 16.6175 10.9227 16.619 10.9233L16.4286 11.3856L16.2382 11.848C16.2561 11.8553 16.2721 11.8612 16.2827 11.8651C16.2974 11.8704 16.2975 11.8704 16.3047 11.873L16.4784 11.4042ZM16.4286 11.3856L16.6193 10.9234C16.6195 10.9235 16.6188 10.9232 16.617 10.9224C16.6151 10.9215 16.6125 10.9203 16.6086 10.9185C16.6045 10.9165 16.6002 10.9145 16.5941 10.9115C16.5885 10.9088 16.5811 10.9052 16.5734 10.9016L16.3593 11.3534L16.1451 11.8052C16.1508 11.8079 16.1985 11.8316 16.2379 11.8478L16.4286 11.3856ZM16.3593 11.3534L16.5731 10.9015C16.5647 10.8975 16.5568 10.8938 16.5507 10.891C16.544 10.8879 16.5399 10.886 16.5355 10.884C16.5272 10.8802 16.5257 10.8793 16.5269 10.8799L16.2899 11.3202L16.053 11.7605C16.0768 11.7733 16.0984 11.7836 16.1133 11.7905C16.1352 11.8007 16.1332 11.7996 16.1454 11.8054L16.3593 11.3534ZM16.2899 11.3202L16.5271 10.88C16.52 10.8762 16.5144 10.8727 16.4882 10.857L16.2313 11.286L15.9745 11.715C15.9871 11.7225 16.02 11.7427 16.0528 11.7604L16.2899 11.3202ZM16.2313 11.286L16.4881 10.857C16.4804 10.8524 16.4733 10.8482 16.4678 10.845C16.4616 10.8414 16.4581 10.8394 16.4542 10.8371C16.4467 10.8327 16.4456 10.8319 16.447 10.8328L16.1698 11.2489L15.8926 11.6651C15.914 11.6793 15.9334 11.6909 15.9466 11.6987C15.9654 11.7098 15.9648 11.7092 15.9746 11.715L16.2313 11.286ZM16.1698 11.2489L16.4469 10.8327C16.3634 10.7771 16.2892 10.7102 16.2269 10.6344L15.8407 10.952L15.4546 11.2697C15.5806 11.4229 15.7287 11.5559 15.8927 11.6651L16.1698 11.2489ZM15.8407 10.952L16.2267 10.6342C16.2306 10.6389 16.232 10.6411 16.227 10.6342C16.2259 10.6326 16.2247 10.631 16.223 10.6287C16.2215 10.6265 16.2195 10.6237 16.2174 10.6208C16.2133 10.6151 16.2076 10.6072 16.2011 10.5986L15.8016 10.8993L15.4022 11.2C15.4021 11.2 15.4024 11.2002 15.4029 11.201C15.4034 11.2017 15.4041 11.2027 15.4052 11.2042C15.4063 11.2057 15.4075 11.2074 15.4091 11.2097C15.4107 11.2118 15.4126 11.2146 15.4147 11.2175C15.4225 11.2283 15.4369 11.2482 15.4548 11.2699L15.8407 10.952ZM15.8016 10.8993L16.2013 10.5988C16.1943 10.5895 16.1877 10.5811 16.1828 10.5747C16.1769 10.5672 16.1742 10.5637 16.1705 10.559C16.1639 10.5504 16.1637 10.5497 16.1654 10.5523L15.7489 10.829L15.3324 11.1056C15.3504 11.1327 15.3677 11.1555 15.379 11.1701C15.3945 11.1901 15.3952 11.1908 15.402 11.1998L15.8016 10.8993ZM15.7489 10.829L16.1653 10.5523C16.1695 10.5584 16.1723 10.5632 16.1737 10.5655C16.1749 10.5675 16.1755 10.5686 16.1743 10.5665C16.174 10.566 16.1737 10.5655 16.1733 10.5648C16.1729 10.5641 16.1724 10.5632 16.1719 10.5623C16.1709 10.5604 16.1694 10.5578 16.1677 10.555C16.1644 10.5493 16.1595 10.5409 16.1534 10.5312L15.7304 10.7977L15.3073 11.0642C15.3044 11.0597 15.3026 11.0565 15.3023 11.0561C15.3022 11.0558 15.3022 11.0559 15.3027 11.0566C15.3036 11.0582 15.3033 11.0577 15.3048 11.0604C15.3066 11.0635 15.3102 11.0699 15.3145 11.0771C15.3189 11.0846 15.325 11.0945 15.3325 11.1057L15.7489 10.829ZM15.7304 10.7977L16.1534 10.5312C16.1233 10.4835 16.0979 10.4349 16.0772 10.3857L15.6161 10.579L15.155 10.7723C15.1984 10.8759 15.25 10.9732 15.3073 11.0642L15.7304 10.7977ZM15.6161 10.579L16.0774 10.3861C16.0721 10.3735 16.0665 10.358 16.0556 10.3262L15.5829 10.4891L15.1102 10.6521C15.12 10.6806 15.1354 10.7254 15.1548 10.7719L15.6161 10.579ZM15.5829 10.4891L16.0555 10.3259C16.053 10.3186 16.0506 10.3119 16.0488 10.3069C16.0466 10.3008 16.0457 10.2984 16.0444 10.2946C16.042 10.288 16.0421 10.2879 16.0428 10.2904L15.5643 10.4354L15.0858 10.5805C15.0921 10.6011 15.0984 10.6189 15.1024 10.6302C15.1078 10.6455 15.1081 10.6461 15.1103 10.6524L15.5829 10.4891ZM15.5643 10.4354L16.0429 10.2906C16.0358 10.2672 16.0291 10.2402 16.0223 10.2079L15.5331 10.3114L15.0439 10.4149C15.0547 10.4659 15.0681 10.5219 15.0858 10.5803L15.5643 10.4354ZM15.5331 10.3114L16.0223 10.208C16.0198 10.1965 16.0175 10.1871 16.0159 10.181C16.0151 10.1779 16.0144 10.1753 16.0139 10.1735C16.0135 10.1719 16.013 10.1702 16.0129 10.1699C16.0125 10.1683 16.0132 10.1709 16.0141 10.1745C16.0151 10.1785 16.0169 10.1857 16.0187 10.1951L15.5282 10.2919L15.0377 10.3887C15.0402 10.4013 15.0427 10.4118 15.0445 10.419C15.0462 10.4259 15.0478 10.4318 15.0483 10.4334C15.0491 10.4364 15.0485 10.4343 15.0479 10.4321C15.0472 10.4292 15.0456 10.423 15.0439 10.4148L15.5331 10.3114ZM15.5282 10.2919L16.0187 10.195C16.0062 10.1315 15.9999 10.0661 15.9999 9.99985L15.4999 9.99989L14.9999 9.99992C14.9999 10.1293 15.0122 10.2597 15.0377 10.3888L15.5282 10.2919ZM15.4999 9.99989H15.9999V5.99989H15.4999H14.9999V9.99989H15.4999ZM15.4999 5.99989H15.9999C15.9999 5.4476 16.4476 4.99989 16.9999 4.99989V4.49989V3.99989C15.8953 3.99989 14.9999 4.89532 14.9999 5.99989H15.4999ZM16.9999 4.49989L16.9998 4.99989C17.5521 4.99993 17.9999 5.44768 17.9999 5.99989H18.4999H18.9999C18.9999 4.89532 18.1044 3.99997 16.9999 3.99989L16.9999 4.49989ZM18.4999 5.99989H17.9999V6.37879H18.4999H18.9999V5.99989H18.4999ZM18.4999 6.37879L18.8534 6.73235L22.2929 3.29289L21.9393 2.93934L21.5858 2.58579L18.1463 6.02524L18.4999 6.37879Z" fill="white" fill-opacity="0.3" mask="url(#path-1-inside-1_787_39595)"/>
</g>
<defs>
<filter id="filter0_d_787_39595" x="0.5" y="0.5" width="26.9998" height="27" filterUnits="userSpaceOnUse" color-interpolation-filters="sRGB">
<feFlood flood-opacity="0" result="BackgroundImageFix"/>
<feColorMatrix in="SourceAlpha" type="matrix" values="0 0 0 0 0 0 0 0 0 0 0 0 0 0 0 0 0 0 127 0" result="hardAlpha"/>
<feOffset dy="1"/>
<feGaussianBlur stdDeviation="1.5"/>
<feComposite in2="hardAlpha" operator="out"/>
<feColorMatrix type="matrix" values="0 0 0 0 0 0 0 0 0 0 0 0 0 0 0 0 0 0 0.2 0"/>
<feBlend mode="normal" in2="BackgroundImageFix" result="effect1_dropShadow_787_39595"/>
<feBlend mode="normal" in="SourceGraphic" in2="effect1_dropShadow_787_39595" result="shape"/>
</filter>
<linearGradient id="paint0_linear_787_39595" x1="13.9999" y1="1.75" x2="13.9999" y2="24.25" gradientUnits="userSpaceOnUse">
<stop stop-color="#5D76A9" stop-opacity="0"/>
<stop offset="1" stop-color="#5D76A9"/>
</linearGradient>
</defs>
</svg>
