<svg width="40" height="41" viewBox="0 0 40 41" fill="none" xmlns="http://www.w3.org/2000/svg">
<g filter="url(#filter0_d_385_41755)">
<path d="M17.3242 21.8074C16.3047 21.2339 16.3047 19.7661 17.3242 19.1926L28.7646 12.7574C29.7645 12.195 31 12.9175 31 14.0648L31 26.9352C31 28.0825 29.7645 28.805 28.7646 28.2426L17.3242 21.8074Z" fill="white" fill-opacity="0.6" shape-rendering="crispEdges"/>
<path d="M17.3242 21.8074C16.3047 21.2339 16.3047 19.7661 17.3242 19.1926L28.7646 12.7574C29.7645 12.195 31 12.9175 31 14.0648L31 26.9352C31 28.0825 29.7645 28.805 28.7646 28.2426L17.3242 21.8074Z" fill="url(#paint0_linear_385_41755)" fill-opacity="0.3" shape-rendering="crispEdges"/>
<path d="M17.4463 21.5898C16.597 21.1119 16.597 19.8881 17.4463 19.4102L28.8867 12.9756C29.7199 12.5069 30.7498 13.1086 30.75 14.0645L30.75 26.9355C30.7498 27.8914 29.7199 28.4931 28.8867 28.0244L17.4463 21.5898Z" stroke="white" stroke-opacity="0.3" stroke-width="0.5" stroke-miterlimit="10" stroke-linecap="round" stroke-linejoin="round" shape-rendering="crispEdges"/>
</g>
<g filter="url(#filter1_d_385_41755)">
<path d="M9 17.9504V23.0521C9 25.6029 10.0769 26.8783 12.2308 26.8783H13.7708C14.1692 26.8783 14.5677 27.0186 14.9123 27.2609L18.0569 29.5949C20.7708 31.6101 23 30.1433 23 26.3554V14.6471C23 10.8464 20.7708 9.39242 18.0569 11.4076L14.9123 13.7416C14.5677 13.9839 14.1692 14.1242 13.7708 14.1242H12.2308C10.0769 14.1242 9 15.3996 9 17.9504Z" fill="white"/>
<path d="M9 17.9504V23.0521C9 25.6029 10.0769 26.8783 12.2308 26.8783H13.7708C14.1692 26.8783 14.5677 27.0186 14.9123 27.2609L18.0569 29.5949C20.7708 31.6101 23 30.1433 23 26.3554V14.6471C23 10.8464 20.7708 9.39242 18.0569 11.4076L14.9123 13.7416C14.5677 13.9839 14.1692 14.1242 13.7708 14.1242H12.2308C10.0769 14.1242 9 15.3996 9 17.9504Z" fill="url(#paint1_linear_385_41755)" fill-opacity="0.3"/>
<path d="M18.2061 11.6084C19.5204 10.6324 20.6369 10.5503 21.4092 11.0557C22.2012 11.5739 22.75 12.7806 22.75 14.6475V26.3555C22.75 28.2155 22.2015 29.4224 21.4092 29.9424C20.6367 30.4493 19.5199 30.37 18.2061 29.3945L15.0615 27.0605L15.0557 27.0566L14.9102 26.9609C14.5633 26.751 14.1703 26.6279 13.7705 26.6279H12.2305C11.2046 26.6279 10.4769 26.3265 9.99902 25.7607C9.51428 25.1867 9.25 24.298 9.25 23.0518V17.9502C9.25003 16.7041 9.5143 15.8162 9.99902 15.2422C10.4769 14.6763 11.2044 14.3741 12.2305 14.374H13.7705C14.2274 14.374 14.6752 14.2137 15.0557 13.9463H15.0566L15.0615 13.9424L18.2061 11.6084Z" stroke="white" stroke-opacity="0.3" stroke-width="0.5" stroke-miterlimit="10" stroke-linecap="round" stroke-linejoin="round"/>
</g>
<defs>
<filter id="filter0_d_385_41755" x="13.5596" y="10.5625" width="20.4404" height="21.875" filterUnits="userSpaceOnUse" color-interpolation-filters="sRGB">
<feFlood flood-opacity="0" result="BackgroundImageFix"/>
<feColorMatrix in="SourceAlpha" type="matrix" values="0 0 0 0 0 0 0 0 0 0 0 0 0 0 0 0 0 0 127 0" result="hardAlpha"/>
<feOffset dy="1"/>
<feGaussianBlur stdDeviation="1.5"/>
<feComposite in2="hardAlpha" operator="out"/>
<feColorMatrix type="matrix" values="0 0 0 0 0 0 0 0 0 0 0 0 0 0 0 0 0 0 0.2 0"/>
<feBlend mode="normal" in2="BackgroundImageFix" result="effect1_dropShadow_385_41755"/>
<feBlend mode="normal" in="SourceGraphic" in2="effect1_dropShadow_385_41755" result="shape"/>
</filter>
<filter id="filter1_d_385_41755" x="6" y="8.5" width="20" height="26" filterUnits="userSpaceOnUse" color-interpolation-filters="sRGB">
<feFlood flood-opacity="0" result="BackgroundImageFix"/>
<feColorMatrix in="SourceAlpha" type="matrix" values="0 0 0 0 0 0 0 0 0 0 0 0 0 0 0 0 0 0 127 0" result="hardAlpha"/>
<feOffset dy="1"/>
<feGaussianBlur stdDeviation="1.5"/>
<feComposite in2="hardAlpha" operator="out"/>
<feColorMatrix type="matrix" values="0 0 0 0 0 0 0 0 0 0 0 0 0 0 0 0 0 0 0.2 0"/>
<feBlend mode="normal" in2="BackgroundImageFix" result="effect1_dropShadow_385_41755"/>
<feBlend mode="normal" in="SourceGraphic" in2="effect1_dropShadow_385_41755" result="shape"/>
</filter>
<linearGradient id="paint0_linear_385_41755" x1="15" y1="20.5" x2="31" y2="20.5" gradientUnits="userSpaceOnUse">
<stop stop-color="#5D76A9" stop-opacity="0"/>
<stop offset="1" stop-color="white"/>
</linearGradient>
<linearGradient id="paint1_linear_385_41755" x1="16" y1="10.5" x2="16" y2="30.5" gradientUnits="userSpaceOnUse">
<stop stop-color="#5D76A9" stop-opacity="0"/>
<stop offset="1" stop-color="#5D76A9"/>
</linearGradient>
</defs>
</svg>
