<svg width="30" height="29" viewBox="0 0 30 29" fill="none" xmlns="http://www.w3.org/2000/svg">
<g filter="url(#filter0_d_432_15235)">
<mask id="path-1-inside-1_432_15235" fill="white">
<path d="M24.5889 12.2744C25.2658 12.1393 25.9243 12.5781 26.0596 13.2549C26.1831 13.8737 26.25 14.5147 26.25 15.167C26.2498 20.4552 21.9652 24.7499 16.6807 24.75C16.0227 24.75 15.3748 24.6828 14.7549 24.5586C14.078 24.423 13.6389 23.7648 13.7744 23.0879C13.91 22.4111 14.5684 21.9721 15.2451 22.1074C15.7067 22.1999 16.1907 22.25 16.6807 22.25C20.5805 22.2499 23.7498 19.0784 23.75 15.167C23.75 14.6861 23.7001 14.2096 23.6074 13.7451C23.4722 13.0681 23.9119 12.4096 24.5889 12.2744ZM10.9395 15.4395C11.5252 14.8537 12.4748 14.8537 13.0605 15.4395C13.6463 16.0252 13.6463 16.9748 13.0605 17.5605L9.62109 21H10C10.8284 21 11.5 21.6716 11.5 22.5C11.5 23.3284 10.8284 24 10 24H6C5.95012 24 5.90027 23.9971 5.85059 23.9922C5.82687 23.9898 5.80365 23.9849 5.78027 23.9814C5.7565 23.9779 5.7326 23.9754 5.70898 23.9707C5.68064 23.9651 5.65275 23.9583 5.625 23.9512C5.60474 23.946 5.58452 23.9406 5.56445 23.9346C5.53525 23.9257 5.50693 23.9149 5.47852 23.9043C5.46191 23.8981 5.44513 23.8925 5.42871 23.8857C5.39504 23.8718 5.36246 23.8561 5.33008 23.8398C5.3198 23.8347 5.30901 23.8306 5.29883 23.8252C5.26548 23.8075 5.23297 23.7886 5.20117 23.7686C5.19118 23.7622 5.18077 23.7566 5.1709 23.75C5.00374 23.6389 4.85997 23.4954 4.74902 23.3281C4.74247 23.3182 4.73677 23.3078 4.73047 23.2979C4.68515 23.2259 4.64602 23.1498 4.61328 23.0703C4.59886 23.0352 4.58586 22.9997 4.57422 22.9639C4.57104 22.9541 4.56744 22.9444 4.56445 22.9346C4.5584 22.9145 4.55305 22.8943 4.54785 22.874C4.51713 22.7544 4.5 22.6292 4.5 22.5V18.5C4.5 17.6716 5.17157 17 6 17C6.82843 17 7.5 17.6716 7.5 18.5V18.8789L10.9395 15.4395ZM13.3193 2.25C13.9773 2.25 14.6252 2.31725 15.2451 2.44141C15.922 2.57701 16.3611 3.23523 16.2256 3.91211C16.0984 4.54677 15.5115 4.97228 14.8809 4.91113L14.7549 4.89258L14.4043 4.83105C14.0507 4.77804 13.6868 4.75 13.3193 4.75C9.41948 4.75006 6.25018 7.92159 6.25 11.833C6.25 12.3236 6.29983 12.7994 6.3916 13.252C6.52854 13.9283 6.09133 14.5873 5.41504 14.7246C4.73845 14.8618 4.07861 14.4246 3.94141 13.748C3.81691 13.134 3.75 12.4923 3.75 11.833C3.75018 6.54481 8.03484 2.25006 13.3193 2.25ZM24 3C24.0495 3 24.0991 3.00196 24.1484 3.00684L24.1533 3.00781C24.2278 3.01537 24.3003 3.02981 24.3711 3.04785C24.4012 3.05552 24.4312 3.06367 24.4609 3.07324C24.5409 3.09904 24.618 3.13073 24.6914 3.16895C24.6984 3.17257 24.705 3.17692 24.7119 3.18066C24.7461 3.19917 24.7799 3.21823 24.8125 3.23926C24.8258 3.24786 24.8385 3.25753 24.8516 3.2666C24.9213 3.31481 24.9864 3.36871 25.0469 3.42773C25.0512 3.43191 25.0563 3.43521 25.0605 3.43945C25.0653 3.44418 25.0696 3.44933 25.0742 3.4541C25.0995 3.48005 25.1231 3.50744 25.1465 3.53516C25.1561 3.54651 25.1656 3.55777 25.1748 3.56934C25.1922 3.59123 25.2085 3.61386 25.2246 3.63672C25.2375 3.65494 25.2507 3.67276 25.2627 3.69141C25.2785 3.71607 25.2922 3.74196 25.3066 3.76758C25.3149 3.78237 25.3243 3.79652 25.332 3.81152C25.3467 3.83982 25.3592 3.86913 25.3721 3.89844C25.3785 3.91315 25.3856 3.92751 25.3916 3.94238C25.4608 4.11488 25.5 4.30276 25.5 4.5V8.5C25.5 9.32843 24.8284 10 24 10C23.1716 10 22.5 9.32843 22.5 8.5V8.12109L19.0605 11.5605C18.4748 12.1463 17.5252 12.1463 16.9395 11.5605C16.3537 10.9748 16.3537 10.0252 16.9395 9.43945L20.3789 6H20C19.1716 6 18.5 5.32843 18.5 4.5C18.5 3.67157 19.1716 3 20 3H24Z"/>
</mask>
<path d="M24.5889 12.2744C25.2658 12.1393 25.9243 12.5781 26.0596 13.2549C26.1831 13.8737 26.25 14.5147 26.25 15.167C26.2498 20.4552 21.9652 24.7499 16.6807 24.75C16.0227 24.75 15.3748 24.6828 14.7549 24.5586C14.078 24.423 13.6389 23.7648 13.7744 23.0879C13.91 22.4111 14.5684 21.9721 15.2451 22.1074C15.7067 22.1999 16.1907 22.25 16.6807 22.25C20.5805 22.2499 23.7498 19.0784 23.75 15.167C23.75 14.6861 23.7001 14.2096 23.6074 13.7451C23.4722 13.0681 23.9119 12.4096 24.5889 12.2744ZM10.9395 15.4395C11.5252 14.8537 12.4748 14.8537 13.0605 15.4395C13.6463 16.0252 13.6463 16.9748 13.0605 17.5605L9.62109 21H10C10.8284 21 11.5 21.6716 11.5 22.5C11.5 23.3284 10.8284 24 10 24H6C5.95012 24 5.90027 23.9971 5.85059 23.9922C5.82687 23.9898 5.80365 23.9849 5.78027 23.9814C5.7565 23.9779 5.7326 23.9754 5.70898 23.9707C5.68064 23.9651 5.65275 23.9583 5.625 23.9512C5.60474 23.946 5.58452 23.9406 5.56445 23.9346C5.53525 23.9257 5.50693 23.9149 5.47852 23.9043C5.46191 23.8981 5.44513 23.8925 5.42871 23.8857C5.39504 23.8718 5.36246 23.8561 5.33008 23.8398C5.3198 23.8347 5.30901 23.8306 5.29883 23.8252C5.26548 23.8075 5.23297 23.7886 5.20117 23.7686C5.19118 23.7622 5.18077 23.7566 5.1709 23.75C5.00374 23.6389 4.85997 23.4954 4.74902 23.3281C4.74247 23.3182 4.73677 23.3078 4.73047 23.2979C4.68515 23.2259 4.64602 23.1498 4.61328 23.0703C4.59886 23.0352 4.58586 22.9997 4.57422 22.9639C4.57104 22.9541 4.56744 22.9444 4.56445 22.9346C4.5584 22.9145 4.55305 22.8943 4.54785 22.874C4.51713 22.7544 4.5 22.6292 4.5 22.5V18.5C4.5 17.6716 5.17157 17 6 17C6.82843 17 7.5 17.6716 7.5 18.5V18.8789L10.9395 15.4395ZM13.3193 2.25C13.9773 2.25 14.6252 2.31725 15.2451 2.44141C15.922 2.57701 16.3611 3.23523 16.2256 3.91211C16.0984 4.54677 15.5115 4.97228 14.8809 4.91113L14.7549 4.89258L14.4043 4.83105C14.0507 4.77804 13.6868 4.75 13.3193 4.75C9.41948 4.75006 6.25018 7.92159 6.25 11.833C6.25 12.3236 6.29983 12.7994 6.3916 13.252C6.52854 13.9283 6.09133 14.5873 5.41504 14.7246C4.73845 14.8618 4.07861 14.4246 3.94141 13.748C3.81691 13.134 3.75 12.4923 3.75 11.833C3.75018 6.54481 8.03484 2.25006 13.3193 2.25ZM24 3C24.0495 3 24.0991 3.00196 24.1484 3.00684L24.1533 3.00781C24.2278 3.01537 24.3003 3.02981 24.3711 3.04785C24.4012 3.05552 24.4312 3.06367 24.4609 3.07324C24.5409 3.09904 24.618 3.13073 24.6914 3.16895C24.6984 3.17257 24.705 3.17692 24.7119 3.18066C24.7461 3.19917 24.7799 3.21823 24.8125 3.23926C24.8258 3.24786 24.8385 3.25753 24.8516 3.2666C24.9213 3.31481 24.9864 3.36871 25.0469 3.42773C25.0512 3.43191 25.0563 3.43521 25.0605 3.43945C25.0653 3.44418 25.0696 3.44933 25.0742 3.4541C25.0995 3.48005 25.1231 3.50744 25.1465 3.53516C25.1561 3.54651 25.1656 3.55777 25.1748 3.56934C25.1922 3.59123 25.2085 3.61386 25.2246 3.63672C25.2375 3.65494 25.2507 3.67276 25.2627 3.69141C25.2785 3.71607 25.2922 3.74196 25.3066 3.76758C25.3149 3.78237 25.3243 3.79652 25.332 3.81152C25.3467 3.83982 25.3592 3.86913 25.3721 3.89844C25.3785 3.91315 25.3856 3.92751 25.3916 3.94238C25.4608 4.11488 25.5 4.30276 25.5 4.5V8.5C25.5 9.32843 24.8284 10 24 10C23.1716 10 22.5 9.32843 22.5 8.5V8.12109L19.0605 11.5605C18.4748 12.1463 17.5252 12.1463 16.9395 11.5605C16.3537 10.9748 16.3537 10.0252 16.9395 9.43945L20.3789 6H20C19.1716 6 18.5 5.32843 18.5 4.5C18.5 3.67157 19.1716 3 20 3H24Z" fill="white"/>
<path d="M24.5889 12.2744C25.2658 12.1393 25.9243 12.5781 26.0596 13.2549C26.1831 13.8737 26.25 14.5147 26.25 15.167C26.2498 20.4552 21.9652 24.7499 16.6807 24.75C16.0227 24.75 15.3748 24.6828 14.7549 24.5586C14.078 24.423 13.6389 23.7648 13.7744 23.0879C13.91 22.4111 14.5684 21.9721 15.2451 22.1074C15.7067 22.1999 16.1907 22.25 16.6807 22.25C20.5805 22.2499 23.7498 19.0784 23.75 15.167C23.75 14.6861 23.7001 14.2096 23.6074 13.7451C23.4722 13.0681 23.9119 12.4096 24.5889 12.2744ZM10.9395 15.4395C11.5252 14.8537 12.4748 14.8537 13.0605 15.4395C13.6463 16.0252 13.6463 16.9748 13.0605 17.5605L9.62109 21H10C10.8284 21 11.5 21.6716 11.5 22.5C11.5 23.3284 10.8284 24 10 24H6C5.95012 24 5.90027 23.9971 5.85059 23.9922C5.82687 23.9898 5.80365 23.9849 5.78027 23.9814C5.7565 23.9779 5.7326 23.9754 5.70898 23.9707C5.68064 23.9651 5.65275 23.9583 5.625 23.9512C5.60474 23.946 5.58452 23.9406 5.56445 23.9346C5.53525 23.9257 5.50693 23.9149 5.47852 23.9043C5.46191 23.8981 5.44513 23.8925 5.42871 23.8857C5.39504 23.8718 5.36246 23.8561 5.33008 23.8398C5.3198 23.8347 5.30901 23.8306 5.29883 23.8252C5.26548 23.8075 5.23297 23.7886 5.20117 23.7686C5.19118 23.7622 5.18077 23.7566 5.1709 23.75C5.00374 23.6389 4.85997 23.4954 4.74902 23.3281C4.74247 23.3182 4.73677 23.3078 4.73047 23.2979C4.68515 23.2259 4.64602 23.1498 4.61328 23.0703C4.59886 23.0352 4.58586 22.9997 4.57422 22.9639C4.57104 22.9541 4.56744 22.9444 4.56445 22.9346C4.5584 22.9145 4.55305 22.8943 4.54785 22.874C4.51713 22.7544 4.5 22.6292 4.5 22.5V18.5C4.5 17.6716 5.17157 17 6 17C6.82843 17 7.5 17.6716 7.5 18.5V18.8789L10.9395 15.4395ZM13.3193 2.25C13.9773 2.25 14.6252 2.31725 15.2451 2.44141C15.922 2.57701 16.3611 3.23523 16.2256 3.91211C16.0984 4.54677 15.5115 4.97228 14.8809 4.91113L14.7549 4.89258L14.4043 4.83105C14.0507 4.77804 13.6868 4.75 13.3193 4.75C9.41948 4.75006 6.25018 7.92159 6.25 11.833C6.25 12.3236 6.29983 12.7994 6.3916 13.252C6.52854 13.9283 6.09133 14.5873 5.41504 14.7246C4.73845 14.8618 4.07861 14.4246 3.94141 13.748C3.81691 13.134 3.75 12.4923 3.75 11.833C3.75018 6.54481 8.03484 2.25006 13.3193 2.25ZM24 3C24.0495 3 24.0991 3.00196 24.1484 3.00684L24.1533 3.00781C24.2278 3.01537 24.3003 3.02981 24.3711 3.04785C24.4012 3.05552 24.4312 3.06367 24.4609 3.07324C24.5409 3.09904 24.618 3.13073 24.6914 3.16895C24.6984 3.17257 24.705 3.17692 24.7119 3.18066C24.7461 3.19917 24.7799 3.21823 24.8125 3.23926C24.8258 3.24786 24.8385 3.25753 24.8516 3.2666C24.9213 3.31481 24.9864 3.36871 25.0469 3.42773C25.0512 3.43191 25.0563 3.43521 25.0605 3.43945C25.0653 3.44418 25.0696 3.44933 25.0742 3.4541C25.0995 3.48005 25.1231 3.50744 25.1465 3.53516C25.1561 3.54651 25.1656 3.55777 25.1748 3.56934C25.1922 3.59123 25.2085 3.61386 25.2246 3.63672C25.2375 3.65494 25.2507 3.67276 25.2627 3.69141C25.2785 3.71607 25.2922 3.74196 25.3066 3.76758C25.3149 3.78237 25.3243 3.79652 25.332 3.81152C25.3467 3.83982 25.3592 3.86913 25.3721 3.89844C25.3785 3.91315 25.3856 3.92751 25.3916 3.94238C25.4608 4.11488 25.5 4.30276 25.5 4.5V8.5C25.5 9.32843 24.8284 10 24 10C23.1716 10 22.5 9.32843 22.5 8.5V8.12109L19.0605 11.5605C18.4748 12.1463 17.5252 12.1463 16.9395 11.5605C16.3537 10.9748 16.3537 10.0252 16.9395 9.43945L20.3789 6H20C19.1716 6 18.5 5.32843 18.5 4.5C18.5 3.67157 19.1716 3 20 3H24Z" fill="url(#paint0_linear_432_15235)" fill-opacity="0.3"/>
<path d="M24.5889 12.2744L24.491 11.7841L24.491 11.7841L24.5889 12.2744ZM26.0596 13.2549L26.5499 13.157L26.5499 13.1569L26.0596 13.2549ZM26.25 15.167L26.75 15.167V15.167H26.25ZM16.6807 24.75V25.25H16.6807L16.6807 24.75ZM14.7549 24.5586L14.6567 25.0489L14.6567 25.0489L14.7549 24.5586ZM13.7744 23.0879L13.2842 22.9897L13.2841 22.9897L13.7744 23.0879ZM15.2451 22.1074L15.3433 21.6172L15.3432 21.6171L15.2451 22.1074ZM16.6807 22.25V22.75H16.6807L16.6807 22.25ZM23.75 15.167L24.25 15.167V15.167H23.75ZM23.6074 13.7451L24.0977 13.6472L24.0977 13.6472L23.6074 13.7451ZM10.9395 15.4395L10.5859 15.0859L10.9395 15.4395ZM13.0605 15.4395L13.4141 15.0859L13.0605 15.4395ZM13.0605 17.5605L13.4141 17.9141L13.0605 17.5605ZM9.62109 21L9.26754 20.6464C9.12454 20.7894 9.08176 21.0045 9.15915 21.1913C9.23654 21.3782 9.41886 21.5 9.62109 21.5V21ZM5.85059 23.9922L5.90012 23.4946L5.89981 23.4946L5.85059 23.9922ZM5.78027 23.9814L5.70729 24.4761L5.70754 24.4761L5.78027 23.9814ZM5.70898 23.9707L5.80561 23.4801L5.80551 23.4801L5.70898 23.9707ZM5.625 23.9512L5.74976 23.467L5.74966 23.467L5.625 23.9512ZM5.56445 23.9346L5.41937 24.4131L5.41959 24.4131L5.56445 23.9346ZM5.47852 23.9043L5.65264 23.4356L5.65231 23.4355L5.47852 23.9043ZM5.42871 23.8857L5.23796 24.3479L5.2383 24.3481L5.42871 23.8857ZM5.33008 23.8398L5.55403 23.3928L5.55378 23.3927L5.33008 23.8398ZM5.29883 23.8252L5.06461 24.2669L5.06482 24.2671L5.29883 23.8252ZM5.20117 23.7686L4.93433 24.1914L4.93434 24.1914L5.20117 23.7686ZM5.1709 23.75L5.44773 23.3336L5.44766 23.3336L5.1709 23.75ZM4.74902 23.3281L5.16569 23.0517L5.16564 23.0517L4.74902 23.3281ZM4.73047 23.2979L4.30738 23.5643L4.30739 23.5643L4.73047 23.2979ZM4.61328 23.0703L4.15079 23.2603L4.15093 23.2607L4.61328 23.0703ZM4.57422 22.9639L5.0498 22.8095L5.04972 22.8093L4.57422 22.9639ZM4.56445 22.9346L4.08578 23.079L4.08585 23.0793L4.56445 22.9346ZM4.54785 22.874L5.03216 22.7497L5.03214 22.7497L4.54785 22.874ZM7.5 18.8789H7C7 19.0811 7.12182 19.2635 7.30866 19.3408C7.4955 19.4182 7.71055 19.3755 7.85355 19.2325L7.5 18.8789ZM13.3193 2.25V1.75H13.3193L13.3193 2.25ZM15.2451 2.44141L15.3433 1.95115L15.3433 1.95114L15.2451 2.44141ZM16.2256 3.91211L16.7158 4.01032L16.7159 4.01029L16.2256 3.91211ZM14.8809 4.91113L14.808 5.4058C14.8162 5.407 14.8244 5.408 14.8326 5.4088L14.8809 4.91113ZM14.7549 4.89258L14.6684 5.38524L14.682 5.38724L14.7549 4.89258ZM14.4043 4.83105L14.4907 4.33843L14.4784 4.33658L14.4043 4.83105ZM13.3193 4.75V4.25H13.3193L13.3193 4.75ZM6.25 11.833L5.75 11.833V11.833H6.25ZM6.3916 13.252L6.88166 13.1527L6.88163 13.1526L6.3916 13.252ZM5.41504 14.7246L5.51441 15.2146L5.51452 15.2146L5.41504 14.7246ZM3.94141 13.748L3.45138 13.8474L3.45138 13.8474L3.94141 13.748ZM3.75 11.833L3.25 11.833V11.833H3.75ZM24.1484 3.00684L24.2465 2.51655C24.2303 2.51331 24.214 2.51088 24.1976 2.50926L24.1484 3.00684ZM24.1533 3.00781L24.0553 3.4981C24.071 3.50125 24.0869 3.50364 24.1028 3.50526L24.1533 3.00781ZM24.3711 3.04785L24.2477 3.53238L24.2477 3.53239L24.3711 3.04785ZM24.4609 3.07324L24.6145 2.59742L24.6143 2.59734L24.4609 3.07324ZM24.6914 3.16895L24.4606 3.61247L24.4608 3.61258L24.6914 3.16895ZM24.7119 3.18066L24.9497 2.74084L24.9496 2.74075L24.7119 3.18066ZM24.8125 3.23926L25.0838 2.81926L25.0837 2.81922L24.8125 3.23926ZM24.8516 3.2666L24.567 3.67772L24.5671 3.67782L24.8516 3.2666ZM25.0469 3.42773L25.3963 3.07006L25.3962 3.06998L25.0469 3.42773ZM25.0605 3.43945L24.707 3.79301L25.0605 3.43945ZM25.0742 3.4541L25.4324 3.10525L25.4324 3.1052L25.0742 3.4541ZM25.1465 3.53516L24.7641 3.85732L24.7643 3.85755L25.1465 3.53516ZM25.1748 3.56934L25.5665 3.25858L25.5663 3.25836L25.1748 3.56934ZM25.2246 3.63672L24.8162 3.92518L24.8163 3.92531L25.2246 3.63672ZM25.2627 3.69141L25.6835 3.42135L25.6835 3.42134L25.2627 3.69141ZM25.3066 3.76758L25.7426 3.52284L25.7426 3.52268L25.3066 3.76758ZM25.332 3.81152L24.8879 4.04124L24.8881 4.04148L25.332 3.81152ZM25.3721 3.89844L25.83 3.69776L25.8299 3.69741L25.3721 3.89844ZM25.3916 3.94238L24.9274 4.12817L24.9275 4.12852L25.3916 3.94238ZM22.5 8.12109H23C23 7.91886 22.8782 7.73654 22.6913 7.65915C22.5045 7.58176 22.2894 7.62454 22.1464 7.76754L22.5 8.12109ZM19.0605 11.5605L19.4141 11.9141L19.0605 11.5605ZM16.9395 11.5605L16.5859 11.9141L16.9395 11.5605ZM16.9395 9.43945L16.5859 9.0859L16.9395 9.43945ZM20.3789 6L20.7325 6.35355C20.8755 6.21055 20.9182 5.9955 20.8408 5.80866C20.7635 5.62182 20.5811 5.5 20.3789 5.5V6ZM24.5889 12.2744L24.6868 12.7647C25.0931 12.6836 25.4881 12.9471 25.5693 13.3529L26.0596 13.2549L26.5499 13.1569C26.3604 12.2091 25.4384 11.5949 24.491 11.7841L24.5889 12.2744ZM26.0596 13.2549L25.5692 13.3528C25.6866 13.9406 25.75 14.5488 25.75 15.167H26.25H26.75C26.75 14.4806 26.6796 13.8068 26.5499 13.157L26.0596 13.2549ZM26.25 15.167L25.75 15.167C25.7498 20.1799 21.6882 24.2499 16.6807 24.25L16.6807 24.75L16.6807 25.25C22.2421 25.2499 26.7498 20.7305 26.75 15.167L26.25 15.167ZM16.6807 24.75V24.25C16.0565 24.25 15.4415 24.1862 14.8531 24.0683L14.7549 24.5586L14.6567 25.0489C15.308 25.1793 15.9888 25.25 16.6807 25.25V24.75ZM14.7549 24.5586L14.8531 24.0683C14.4466 23.9869 14.1834 23.5918 14.2647 23.1861L13.7744 23.0879L13.2841 22.9897C13.0943 23.9377 13.7094 24.8591 14.6567 25.0489L14.7549 24.5586ZM13.7744 23.0879L14.2647 23.1861C14.3461 22.7799 14.7412 22.5166 15.1471 22.5977L15.2451 22.1074L15.3432 21.6171C14.3955 21.4276 13.4739 22.0424 13.2842 22.9897L13.7744 23.0879ZM15.2451 22.1074L15.1469 22.5977C15.64 22.6965 16.1569 22.75 16.6807 22.75V22.25V21.75C16.2245 21.75 15.7733 21.7033 15.3433 21.6172L15.2451 22.1074ZM16.6807 22.25L16.6807 22.75C20.8574 22.7499 24.2498 19.3538 24.25 15.167L23.75 15.167L23.25 15.167C23.2498 18.803 20.3036 21.7499 16.6807 21.75L16.6807 22.25ZM23.75 15.167H24.25C24.25 14.6515 24.1966 14.1422 24.0977 13.6472L23.6074 13.7451L23.1171 13.843C23.2037 14.2769 23.25 14.7206 23.25 15.167H23.75ZM23.6074 13.7451L24.0977 13.6472C24.0167 13.2412 24.2804 12.8459 24.6868 12.7647L24.5889 12.2744L24.491 11.7841C23.5434 11.9733 22.9278 12.895 23.1171 13.843L23.6074 13.7451ZM10.9395 15.4395L11.293 15.793C11.6835 15.4025 12.3165 15.4025 12.707 15.793L13.0605 15.4395L13.4141 15.0859C12.6331 14.3049 11.3669 14.3049 10.5859 15.0859L10.9395 15.4395ZM13.0605 15.4395L12.707 15.793C13.0975 16.1835 13.0975 16.8165 12.707 17.207L13.0605 17.5605L13.4141 17.9141C14.1951 17.1331 14.1951 15.8669 13.4141 15.0859L13.0605 15.4395ZM13.0605 17.5605L12.707 17.207L9.26754 20.6464L9.62109 21L9.97465 21.3536L13.4141 17.9141L13.0605 17.5605ZM9.62109 21V21.5H10V21V20.5H9.62109V21ZM10 21V21.5C10.5523 21.5 11 21.9477 11 22.5H11.5H12C12 21.3954 11.1046 20.5 10 20.5V21ZM11.5 22.5H11C11 23.0523 10.5523 23.5 10 23.5V24V24.5C11.1046 24.5 12 23.6046 12 22.5H11.5ZM10 24V23.5H6V24V24.5H10V24ZM6 24V23.5C5.96917 23.5 5.93605 23.4982 5.90012 23.4946L5.85059 23.9922L5.80105 24.4897C5.86449 24.496 5.93106 24.5 6 24.5V24ZM5.85059 23.9922L5.89981 23.4946C5.90527 23.4952 5.90699 23.4956 5.89808 23.4941C5.89604 23.4938 5.89384 23.4934 5.8909 23.4929C5.88819 23.4924 5.88462 23.4918 5.88101 23.4912C5.87375 23.49 5.86395 23.4884 5.85301 23.4868L5.78027 23.9814L5.70754 24.4761C5.71255 24.4769 5.71293 24.477 5.73253 24.4803C5.747 24.4828 5.77219 24.4869 5.80137 24.4898L5.85059 23.9922ZM5.78027 23.9814L5.85326 23.4868C5.84433 23.4855 5.83603 23.4843 5.82968 23.4835C5.8225 23.4825 5.81847 23.482 5.81389 23.4813C5.80523 23.4801 5.80396 23.4798 5.80561 23.4801L5.70898 23.9707L5.61236 24.4613C5.63762 24.4663 5.66011 24.4696 5.67525 24.4717C5.69662 24.4747 5.69631 24.4745 5.70729 24.4761L5.78027 23.9814ZM5.70898 23.9707L5.80551 23.4801C5.79113 23.4773 5.77402 23.4732 5.74976 23.467L5.625 23.9512L5.50024 24.4354C5.53148 24.4434 5.57014 24.453 5.61246 24.4613L5.70898 23.9707ZM5.625 23.9512L5.74966 23.467C5.72999 23.4619 5.71855 23.4588 5.70932 23.456L5.56445 23.9346L5.41959 24.4131C5.4505 24.4225 5.47949 24.43 5.50034 24.4354L5.625 23.9512ZM5.56445 23.9346L5.70954 23.4561C5.69883 23.4528 5.68861 23.449 5.65264 23.4356L5.47852 23.9043L5.3044 24.373C5.32525 24.3807 5.37168 24.3986 5.41937 24.4131L5.56445 23.9346ZM5.47852 23.9043L5.65231 23.4355C5.6459 23.4331 5.63996 23.431 5.63544 23.4293C5.63025 23.4275 5.62755 23.4265 5.62428 23.4253C5.61823 23.4231 5.61763 23.4228 5.61912 23.4234L5.42871 23.8857L5.2383 24.3481C5.25622 24.3554 5.27222 24.3613 5.28281 24.3652C5.29752 24.3705 5.29768 24.3705 5.30472 24.3731L5.47852 23.9043ZM5.42871 23.8857L5.61946 23.4236C5.60301 23.4168 5.58346 23.4075 5.55403 23.3928L5.33008 23.8398L5.10612 24.2869C5.14146 24.3046 5.18707 24.3269 5.23796 24.3479L5.42871 23.8857ZM5.33008 23.8398L5.55378 23.3927C5.54396 23.3878 5.53551 23.3838 5.52976 23.3812C5.52684 23.3799 5.52426 23.3787 5.52239 23.3779C5.52128 23.3774 5.51825 23.376 5.51819 23.376C5.51608 23.3751 5.51721 23.3756 5.51931 23.3766C5.52164 23.3777 5.52649 23.38 5.53284 23.3833L5.29883 23.8252L5.06482 24.2671C5.07626 24.2731 5.08628 24.278 5.09381 24.2815C5.10112 24.285 5.1075 24.2878 5.11064 24.2892C5.11321 24.2904 5.11281 24.2902 5.11432 24.2908C5.11508 24.2912 5.11513 24.2912 5.11482 24.2911C5.11431 24.2908 5.11105 24.2893 5.10638 24.287L5.33008 23.8398ZM5.29883 23.8252L5.53305 23.3834C5.51114 23.3718 5.4895 23.3593 5.46801 23.3457L5.20117 23.7686L4.93434 24.1914C4.97644 24.218 5.01982 24.2432 5.06461 24.2669L5.29883 23.8252ZM5.20117 23.7686L5.46801 23.3457C5.4612 23.3414 5.45522 23.3378 5.451 23.3353C5.44887 23.334 5.44692 23.3328 5.44546 23.3319C5.44364 23.3309 5.44307 23.3305 5.44192 23.3298C5.44003 23.3287 5.4401 23.3287 5.44088 23.3292C5.44178 23.3298 5.44427 23.3313 5.44773 23.3336L5.1709 23.75L4.89406 24.1664C4.91007 24.177 4.92428 24.1855 4.93006 24.1889C4.93439 24.1915 4.93459 24.1916 4.93623 24.1926C4.93708 24.1931 4.93615 24.1925 4.93433 24.1914L5.20117 23.7686ZM5.1709 23.75L5.44766 23.3336C5.33562 23.2591 5.23955 23.1631 5.16569 23.0517L4.74902 23.3281L4.33235 23.6045C4.48039 23.8277 4.67186 24.0187 4.89414 24.1664L5.1709 23.75ZM4.74902 23.3281L5.16564 23.0517C5.16782 23.055 5.16928 23.0573 5.16977 23.0581C5.1702 23.0588 5.17019 23.0588 5.16907 23.0569C5.16842 23.0558 5.16802 23.0551 5.16698 23.0534C5.16613 23.052 5.16499 23.0501 5.16374 23.048C5.16126 23.0438 5.15773 23.038 5.15355 23.0314L4.73047 23.2979L4.30739 23.5643C4.30636 23.5627 4.3059 23.5619 4.30647 23.5628C4.30753 23.5646 4.30763 23.5648 4.31023 23.5692C4.31371 23.575 4.322 23.5889 4.3324 23.6046L4.74902 23.3281ZM4.73047 23.2979L5.15356 23.0314C5.12376 22.9841 5.09769 22.9335 5.07563 22.88L4.61328 23.0703L4.15093 23.2607C4.19435 23.3661 4.24653 23.4677 4.30738 23.5643L4.73047 23.2979ZM4.61328 23.0703L5.07577 22.8803C5.06622 22.857 5.05758 22.8335 5.0498 22.8095L4.57422 22.9639L4.09863 23.1182C4.11415 23.166 4.13151 23.2134 4.15079 23.2603L4.61328 23.0703ZM4.57422 22.9639L5.04972 22.8093C5.04785 22.8035 5.04615 22.7985 5.04492 22.7949C5.0443 22.7931 5.04372 22.7914 5.04328 22.7901C5.04278 22.7887 5.04249 22.7878 5.04218 22.7869C5.04081 22.7829 5.04171 22.7854 5.04306 22.7899L4.56445 22.9346L4.08585 23.0793C4.09018 23.0936 4.09437 23.1058 4.09635 23.1116C4.09787 23.116 4.09782 23.1158 4.09862 23.1182C4.09905 23.1195 4.09899 23.1193 4.09872 23.1185L4.57422 22.9639ZM4.56445 22.9346L5.04312 22.7901C5.04019 22.7804 5.03694 22.7684 5.03216 22.7497L4.54785 22.874L4.06354 22.9983C4.06916 23.0202 4.0766 23.0486 4.08578 23.079L4.56445 22.9346ZM4.54785 22.874L5.03214 22.7497C5.01121 22.6682 5 22.5848 5 22.5H4.5H4C4 22.6736 4.02305 22.8406 4.06357 22.9984L4.54785 22.874ZM4.5 22.5H5V18.5H4.5H4V22.5H4.5ZM4.5 18.5H5C5 17.9477 5.44772 17.5 6 17.5V17V16.5C4.89543 16.5 4 17.3954 4 18.5H4.5ZM6 17V17.5C6.55228 17.5 7 17.9477 7 18.5H7.5H8C8 17.3954 7.10457 16.5 6 16.5V17ZM7.5 18.5H7V18.8789H7.5H8V18.5H7.5ZM7.5 18.8789L7.85355 19.2325L11.293 15.793L10.9395 15.4395L10.5859 15.0859L7.14645 18.5254L7.5 18.8789ZM13.3193 2.25V2.75C13.9435 2.75 14.5585 2.81381 15.1469 2.93167L15.2451 2.44141L15.3433 1.95114C14.692 1.82068 14.0112 1.75 13.3193 1.75V2.25ZM15.2451 2.44141L15.1469 2.93167C15.5534 3.0131 15.8166 3.40817 15.7353 3.81393L16.2256 3.91211L16.7159 4.01029C16.9057 3.0623 16.2906 2.14092 15.3433 1.95115L15.2451 2.44141ZM16.2256 3.91211L15.7353 3.81389C15.6591 4.1945 15.3069 4.45009 14.9291 4.41347L14.8809 4.91113L14.8326 5.4088C15.7162 5.49447 16.5378 4.89903 16.7158 4.01032L16.2256 3.91211ZM14.8809 4.91113L14.9537 4.41647L14.8277 4.39791L14.7549 4.89258L14.682 5.38724L14.808 5.4058L14.8809 4.91113ZM14.7549 4.89258L14.8413 4.4001L14.4907 4.33858L14.4043 4.83105L14.3179 5.32353L14.6685 5.38505L14.7549 4.89258ZM14.4043 4.83105L14.4784 4.33658C14.1008 4.27996 13.7121 4.25 13.3193 4.25V4.75V5.25C13.6614 5.25 14.0006 5.27611 14.3302 5.32553L14.4043 4.83105ZM13.3193 4.75L13.3193 4.25C9.1426 4.25007 5.75019 7.64618 5.75 11.833L6.25 11.833L6.75 11.833C6.75016 8.197 9.69636 5.25006 13.3193 5.25L13.3193 4.75ZM6.25 11.833H5.75C5.75 12.3574 5.80326 12.8665 5.90158 13.3513L6.3916 13.252L6.88163 13.1526C6.79641 12.7323 6.75 12.2898 6.75 11.833H6.25ZM6.3916 13.252L5.90154 13.3512C5.98366 13.7567 5.72156 14.1522 5.31555 14.2346L5.41504 14.7246L5.51452 15.2146C6.46109 15.0224 7.07342 14.0999 6.88166 13.1527L6.3916 13.252ZM5.41504 14.7246L5.31567 14.2346C4.90962 14.3169 4.51373 14.0545 4.43143 13.6487L3.94141 13.748L3.45138 13.8474C3.64348 14.7947 4.56729 15.4067 5.51441 15.2146L5.41504 14.7246ZM3.94141 13.748L4.43144 13.6487C4.31348 13.0669 4.25 12.4585 4.25 11.833H3.75H3.25C3.25 12.5261 3.32034 13.2011 3.45138 13.8474L3.94141 13.748ZM3.75 11.833L4.25 11.833C4.25017 6.82014 8.3118 2.75006 13.3193 2.75L13.3193 2.25L13.3193 1.75C7.75788 1.75007 3.25018 6.26947 3.25 11.833L3.75 11.833ZM24 3V3.5C24.0365 3.5 24.0693 3.50145 24.0993 3.50441L24.1484 3.00684L24.1976 2.50926C24.1289 2.50246 24.0625 2.5 24 2.5V3ZM24.1484 3.00684L24.0504 3.49713L24.0553 3.4981L24.1533 3.00781L24.2514 2.51752L24.2465 2.51655L24.1484 3.00684ZM24.1533 3.00781L24.1028 3.50526C24.1464 3.50968 24.1937 3.51864 24.2477 3.53238L24.3711 3.04785L24.4945 2.56333C24.4068 2.54098 24.3092 2.52107 24.2038 2.51037L24.1533 3.00781ZM24.3711 3.04785L24.2477 3.53239C24.2733 3.53891 24.2921 3.54414 24.3076 3.54915L24.4609 3.07324L24.6143 2.59734C24.5704 2.5832 24.5291 2.57213 24.4945 2.56331L24.3711 3.04785ZM24.4609 3.07324L24.3073 3.54907C24.3629 3.56699 24.4139 3.58819 24.4606 3.61247L24.6914 3.16895L24.9222 2.72542C24.822 2.67327 24.7188 2.63109 24.6145 2.59742L24.4609 3.07324ZM24.6914 3.16895L24.4608 3.61258C24.455 3.60958 24.4507 3.60715 24.4485 3.6059C24.4465 3.60476 24.4453 3.60403 24.4467 3.60489C24.4472 3.60518 24.4513 3.60762 24.4553 3.60991C24.4597 3.61247 24.4663 3.61627 24.4743 3.62058L24.7119 3.18066L24.9496 2.74075C24.9541 2.74318 24.9573 2.74504 24.9583 2.74562C24.9588 2.74592 24.9595 2.74635 24.9566 2.74463C24.9547 2.74349 24.9501 2.74075 24.9447 2.73766C24.9391 2.73446 24.9313 2.73012 24.922 2.72531L24.6914 3.16895ZM24.7119 3.18066L24.4741 3.62049C24.5039 3.63663 24.5247 3.64859 24.5413 3.6593L24.8125 3.23926L25.0837 2.81922C25.0352 2.78787 24.9883 2.76171 24.9497 2.74084L24.7119 3.18066ZM24.8125 3.23926L24.5412 3.65926C24.5374 3.65683 24.536 3.6557 24.5411 3.65931C24.5422 3.66013 24.5434 3.661 24.5451 3.66221C24.5466 3.66332 24.5487 3.66477 24.5507 3.66627C24.5549 3.66926 24.5606 3.67329 24.567 3.67772L24.8516 3.2666L25.1361 2.85548C25.136 2.85538 25.1352 2.8548 25.1329 2.85316C25.1317 2.85234 25.1305 2.85147 25.1288 2.85026C25.1273 2.84915 25.1253 2.8477 25.1232 2.8462C25.1153 2.84055 25.1009 2.83029 25.0838 2.81926L24.8125 3.23926ZM24.8516 3.2666L24.5671 3.67782C24.6133 3.70973 24.6568 3.74568 24.6976 3.78549L25.0469 3.42773L25.3962 3.06998C25.3161 2.99175 25.2292 2.91988 25.136 2.85538L24.8516 3.2666ZM25.0469 3.42773L24.6975 3.78541C24.7107 3.79827 24.7221 3.80812 24.7293 3.81418C24.733 3.81727 24.7361 3.81979 24.7382 3.82143C24.74 3.8229 24.7418 3.82434 24.7419 3.82443C24.7425 3.82489 24.7417 3.82424 24.7405 3.82331C24.7393 3.8223 24.737 3.82042 24.7341 3.81795C24.7284 3.81313 24.7186 3.80458 24.707 3.79301L25.0605 3.43945L25.4141 3.0859C25.4004 3.0722 25.3884 3.06165 25.3804 3.05489C25.3763 3.05145 25.3729 3.04861 25.3704 3.04665C25.3681 3.04478 25.3661 3.04319 25.3655 3.04271C25.3645 3.04186 25.3651 3.04237 25.3658 3.0429C25.3666 3.04359 25.3686 3.04516 25.3711 3.04729C25.376 3.05142 25.3852 3.05929 25.3963 3.07006L25.0469 3.42773ZM25.0605 3.43945L24.707 3.79301C24.703 3.78896 24.7 3.78579 24.6984 3.78415C24.697 3.78266 24.6962 3.78171 24.6972 3.78278C24.6975 3.78314 24.7003 3.78621 24.703 3.78913C24.706 3.79241 24.7105 3.7973 24.7161 3.803L25.0742 3.4541L25.4324 3.1052C25.4356 3.10851 25.4379 3.11098 25.4386 3.11179C25.439 3.11226 25.4396 3.11285 25.4377 3.11074C25.4364 3.10934 25.4333 3.10591 25.4296 3.10198C25.4258 3.0979 25.4205 3.09231 25.4141 3.0859L25.0605 3.43945ZM25.0742 3.4541L24.716 3.80295C24.7283 3.81551 24.7425 3.83162 24.7641 3.85732L25.1465 3.53516L25.5289 3.21299C25.5038 3.18325 25.4707 3.14459 25.4324 3.10525L25.0742 3.4541ZM25.1465 3.53516L24.7643 3.85755C24.7757 3.87103 24.7797 3.87584 24.7833 3.88031L25.1748 3.56934L25.5663 3.25836C25.5515 3.2397 25.5364 3.22198 25.5287 3.21277L25.1465 3.53516ZM25.1748 3.56934L24.7831 3.88009C24.7914 3.89061 24.8012 3.90389 24.8162 3.92518L25.2246 3.63672L25.633 3.34826C25.6158 3.32383 25.5929 3.29184 25.5665 3.25858L25.1748 3.56934ZM25.2246 3.63672L24.8163 3.92531C24.8205 3.93129 24.8246 3.93701 24.8278 3.9414C24.8312 3.94619 24.8336 3.94956 24.8359 3.95278C24.8381 3.95587 24.8395 3.95797 24.8406 3.95949C24.8416 3.96099 24.842 3.96157 24.8419 3.96147L25.2627 3.69141L25.6835 3.42134C25.6635 3.39016 25.6366 3.35339 25.6329 3.34813L25.2246 3.63672ZM25.2627 3.69141L24.8419 3.96146C24.8472 3.9697 24.8483 3.9726 24.8707 4.01247L25.3066 3.76758L25.7426 3.52268C25.7362 3.51131 25.7099 3.46243 25.6835 3.42135L25.2627 3.69141ZM25.3066 3.76758L24.8706 4.01232C24.8755 4.02101 24.8799 4.02855 24.8832 4.03397C24.8848 4.03669 24.8863 4.03922 24.8875 4.04115C24.8888 4.04334 24.8895 4.04457 24.8903 4.04596C24.8919 4.0486 24.8921 4.04899 24.8918 4.04845C24.8914 4.04779 24.89 4.0452 24.8879 4.04124L25.332 3.81152L25.7761 3.58181C25.7648 3.55985 25.7538 3.54152 25.7487 3.53298C25.7448 3.52643 25.7449 3.52658 25.7429 3.52318C25.7418 3.52132 25.7419 3.52154 25.7426 3.52284L25.3066 3.76758ZM25.332 3.81152L24.8881 4.04148C24.8934 4.05188 24.8981 4.06275 24.9143 4.09946L25.3721 3.89844L25.8299 3.69741C25.8203 3.67551 25.7999 3.62775 25.776 3.58156L25.332 3.81152ZM25.3721 3.89844L24.9141 4.09912C24.9173 4.1063 24.9202 4.11267 24.9223 4.11738C24.9234 4.11973 24.9244 4.12201 24.9252 4.12375C24.9261 4.12564 24.9267 4.127 24.9273 4.12829C24.9299 4.13394 24.9291 4.13233 24.9274 4.12817L25.3916 3.94238L25.8558 3.7566C25.8482 3.73756 25.8408 3.72133 25.8367 3.71241C25.8357 3.71005 25.8346 3.70778 25.8338 3.70603C25.8329 3.70413 25.8323 3.70276 25.8317 3.70146C25.8305 3.69887 25.8301 3.69794 25.83 3.69776L25.3721 3.89844ZM25.3916 3.94238L24.9275 4.12852C24.9742 4.24486 25 4.36971 25 4.5H25.5H26C26 4.23581 25.9474 3.98491 25.8557 3.75625L25.3916 3.94238ZM25.5 4.5H25V8.5H25.5H26V4.5H25.5ZM25.5 8.5H25C25 9.05228 24.5523 9.5 24 9.5V10V10.5C25.1046 10.5 26 9.60457 26 8.5H25.5ZM24 10V9.5C23.4477 9.5 23 9.05228 23 8.5H22.5H22C22 9.60457 22.8954 10.5 24 10.5V10ZM22.5 8.5H23V8.12109H22.5H22V8.5H22.5ZM22.5 8.12109L22.1464 7.76754L18.707 11.207L19.0605 11.5605L19.4141 11.9141L22.8536 8.47465L22.5 8.12109ZM19.0605 11.5605L18.707 11.207C18.3165 11.5975 17.6835 11.5975 17.293 11.207L16.9395 11.5605L16.5859 11.9141C17.3669 12.6951 18.6331 12.6951 19.4141 11.9141L19.0605 11.5605ZM16.9395 11.5605L17.293 11.207C16.9025 10.8165 16.9025 10.1835 17.293 9.79301L16.9395 9.43945L16.5859 9.0859C15.8049 9.86695 15.8049 11.1331 16.5859 11.9141L16.9395 11.5605ZM16.9395 9.43945L17.293 9.79301L20.7325 6.35355L20.3789 6L20.0254 5.64645L16.5859 9.0859L16.9395 9.43945ZM20.3789 6V5.5H20V6V6.5H20.3789V6ZM20 6V5.5C19.4477 5.5 19 5.05228 19 4.5H18.5H18C18 5.60457 18.8954 6.5 20 6.5V6ZM18.5 4.5H19C19 3.94772 19.4477 3.5 20 3.5V3V2.5C18.8954 2.5 18 3.39543 18 4.5H18.5ZM20 3V3.5H24V3V2.5H20V3Z" fill="white" fill-opacity="0.3" mask="url(#path-1-inside-1_432_15235)"/>
</g>
<defs>
<filter id="filter0_d_432_15235" x="0.75" y="0.25" width="28.5" height="28.5" filterUnits="userSpaceOnUse" color-interpolation-filters="sRGB">
<feFlood flood-opacity="0" result="BackgroundImageFix"/>
<feColorMatrix in="SourceAlpha" type="matrix" values="0 0 0 0 0 0 0 0 0 0 0 0 0 0 0 0 0 0 127 0" result="hardAlpha"/>
<feOffset dy="1"/>
<feGaussianBlur stdDeviation="1.5"/>
<feComposite in2="hardAlpha" operator="out"/>
<feColorMatrix type="matrix" values="0 0 0 0 0 0 0 0 0 0 0 0 0 0 0 0 0 0 0.2 0"/>
<feBlend mode="normal" in2="BackgroundImageFix" result="effect1_dropShadow_432_15235"/>
<feBlend mode="normal" in="SourceGraphic" in2="effect1_dropShadow_432_15235" result="shape"/>
</filter>
<linearGradient id="paint0_linear_432_15235" x1="15" y1="2.25" x2="15" y2="24.75" gradientUnits="userSpaceOnUse">
<stop stop-color="#5D76A9" stop-opacity="0"/>
<stop offset="1" stop-color="#5D76A9"/>
</linearGradient>
</defs>
</svg>
