<svg width="80" height="80" viewBox="0 0 80 80" fill="none" xmlns="http://www.w3.org/2000/svg">
<path d="M61.3655 46.314V51.9256M55.7311 43.5082V50.5227M43.0215 73.001V70.1314C43.0215 68.9198 39.0198 65.4763 38.0273 63.9459C37.4191 62.9894 33.1292 49.3749 33.1292 49.3749C33.1292 48.0039 36.5867 46.2821 38.8277 49.3749L42.5093 55.0503L44.3981 53.2647V32.1894C44.3981 30.6271 45.6467 29.3836 47.2154 29.3836C48.7841 29.3836 50.0326 30.6271 50.0326 32.1894V50.459V42.0734H52.8498C53.7462 42.0734 55.1228 42.0734 55.6671 43.4763H58.4843C59.7968 43.4763 61.3015 44.8792 61.3015 46.2821H64.1187C65.4313 46.2821 66.936 47.4618 66.936 49.0242V64.4879C66.936 67.3256 64.1187 69.685 64.1187 71.5662V72.9691M35.9785 11.1778H44.4301M34.5699 63.1807H17.6345V15.4184H61.3655V40.7024M40.2043 71.5981H17.6345C14.5291 71.5981 12 69.0792 12 65.9865V12.6126C12 9.51982 14.5291 7.00098 17.6345 7.00098H61.3655C64.4709 7.00098 67 9.51982 67 12.6126V43.5082" stroke="white" stroke-width="2" stroke-miterlimit="10"/>
</svg>
