<svg width="80" height="80" viewBox="0 0 80 80" fill="none" xmlns="http://www.w3.org/2000/svg">
<path d="M48.9165 64.9966C52.3502 65.5728 56.26 61.539 52.6902 57.8103M45.0748 49.7427L53.7102 58.5899C57.1779 62.1492 64.1814 56.895 59.7957 52.3867L51.3303 43.675M50.3784 30.3872L65.8133 46.5224C69.2471 50.1155 64.1474 56.9289 59.7617 52.3867L51.9083 44.2852M11.4851 40.1158L10.3972 39.031C-4.05178 24.6585 20.9705 -0.0528184 35.6234 14.1841M69.2471 41.6751L69.825 41.0988C77.3045 33.6413 73.5987 23.5738 67.5812 17.0993C65.6093 14.9638 63.3315 13.1333 60.9856 11.8113C57.9259 10.0825 48.3385 7.60802 42.049 13.6757L29.0279 26.5906C25.5261 30.0821 34.3995 33.4718 38.8872 29.0313L42.185 25.811C47.0466 21.4382 53.1322 30.2177 60.7137 24.2517" stroke="white" stroke-width="2" stroke-linecap="round" stroke-linejoin="round"/>
<path d="M43.1704 59.8784L43.6464 60.3191C45.2103 61.8784 45.2103 64.4207 43.6464 65.98L39.6347 69.9799C38.0708 71.5392 35.521 71.5392 33.9571 69.9799L33.4811 69.5053C31.9172 67.946 31.9172 65.4037 33.4811 63.8444L37.4929 59.8445C39.0567 58.2852 41.6066 58.2852 43.1704 59.8445V59.8784ZM38.9888 51.404L39.4647 51.8786C41.0286 53.4379 41.0286 55.9802 39.4647 57.5395L32.9372 64.0478C31.3733 65.6071 28.8235 65.6071 27.2596 64.0478L26.8176 63.5732C25.2537 62.014 25.2537 59.4716 26.8176 57.9124L33.3451 51.404C34.909 49.8447 37.4589 49.8447 39.0228 51.404H38.9888ZM35.113 42.5229L35.589 42.9635C37.1529 44.5228 37.1529 47.0651 35.589 48.6244L26.0697 58.1157C24.5058 59.675 21.956 59.675 20.3921 58.1157L19.9161 57.6751C18.3522 56.1158 18.3522 53.5735 19.9161 52.0142L29.4354 42.5229C30.9993 40.9636 33.5491 40.9636 35.113 42.5229ZM25.0497 39.8111L25.4917 40.2856C27.0556 41.8449 27.0556 44.3872 25.4917 45.9465L19.5081 51.9125C17.9442 53.4718 15.3944 53.4718 13.8305 51.9125L13.3546 51.4379C11.7907 49.8786 11.7907 47.3363 13.3546 45.777L19.3381 39.8111C20.902 38.2518 23.4518 38.2518 25.0157 39.8111H25.0497Z" stroke="white" stroke-width="2" stroke-miterlimit="22.93"/>
</svg>
