<svg width="80" height="80" viewBox="0 0 80 80" fill="none" xmlns="http://www.w3.org/2000/svg">
<path d="M75.968 49.433V76.0919M58.1863 55.5051V76.0919M40.4372 64.1425V76.0595M4.61328 76.0919H22.6555L22.5252 67.0974L40.4372 67.1948L40.3069 58.2002L58.2188 58.2976L58.0886 49.3031L76.0005 49.4005M34.8031 3.9082C38.6786 3.9082 41.805 7.02545 41.805 10.8895C41.805 14.7536 38.6786 17.8709 34.8031 17.8709C30.9276 17.8709 27.8011 14.7536 27.8011 10.8895C27.8011 7.02545 30.9276 3.9082 34.8031 3.9082ZM34.5099 42.0945V48.816L31.6114 58.6548C29.8528 64.662 22.7206 63.0385 23.0789 58.0704L26.6938 49.0433L26.7915 41.0554L26.9218 29.4956L22.1344 38.6525C20.0176 44.2376 15.393 40.6008 16.37 38.068L22.167 24.7873C23.6325 19.1697 29.1689 22.1896 31.8069 22.3194C37.9946 23.7482 43.6613 18.6826 48.2533 16.1174C52.3893 13.812 55.874 19.2671 51.282 21.9947L40.2743 28.9436L40.3395 33.6195L48.2207 34.0091C50.0119 34.1065 51.6077 36.3795 51.6077 38.1654V50.5045C51.6077 55.3752 43.6287 54.466 43.6287 50.5045L43.759 42.614L34.4774 42.1269L34.5099 42.0945Z" stroke="white" stroke-width="2" stroke-linecap="round" stroke-linejoin="round"/>
</svg>
