<svg width="80" height="80" viewBox="0 0 80 80" fill="none" xmlns="http://www.w3.org/2000/svg">
<g clip-path="url(#clip0_584_40288)">
<path d="M55.6528 50.0589C49.924 55.4111 49.3918 59.7558 49.3605 59.9447V60.0076V60.0706C49.3605 60.8892 48.7031 61.5503 47.8891 61.5503H41.409C41.8472 60.7003 42.2229 59.8187 42.5359 58.9687C43.2873 56.7019 43.5377 54.9703 43.5377 54.9703C43.6942 53.8684 43.7255 52.7979 43.6629 51.696C43.6003 50.6256 43.4438 49.5551 43.162 48.4847C45.6038 41.5269 45.3534 35.9228 42.4107 31.8929C41.1898 30.2243 39.5306 28.8391 37.4645 27.7686C35.8366 26.9186 33.9583 26.2574 31.8609 25.8166C28.3234 25.061 25.4433 25.1555 25.3181 25.1555C24.9737 25.1555 24.6607 25.3759 24.5041 25.7222C24.4728 25.7852 23.7215 27.6112 23.3772 30.2243C23.158 31.767 23.1267 33.3097 23.2832 34.7579C23.4711 36.584 23.9093 38.347 24.6607 39.9212C26.6955 44.3919 30.8278 47.6661 36.8697 49.6181C37.3393 49.7755 37.8715 49.4922 38.028 49.0199C38.1845 48.5477 37.9341 48.0125 37.4332 47.855C31.8922 46.0605 28.1355 43.1325 26.3198 39.1341C24.8798 35.9543 24.9111 32.68 25.1929 30.4762C25.412 28.8705 25.7877 27.6112 26.0068 26.9186C27.0086 26.9186 29.106 27.013 31.4852 27.5482C34.4905 28.1779 38.5915 29.6261 40.9707 32.9004C43.2247 35.9858 43.6316 40.2361 42.1916 45.5253C41.8785 44.8326 41.5342 44.14 41.1272 43.4474C38.4976 39.0397 34.8975 36.5525 34.7409 36.458C34.334 36.1747 33.7705 36.3006 33.4887 36.7099C33.207 37.1192 33.3009 37.6859 33.7392 37.9692C33.7705 37.9692 37.1827 40.3305 39.5932 44.3919C40.4072 45.7457 41.002 47.0994 41.3776 48.5162C41.3776 48.5792 41.409 48.6736 41.4403 48.7366C42.2229 51.696 42.0977 54.7499 41.0646 57.8353C40.6889 59.0002 40.1567 60.1336 39.4993 61.2985C39.4993 61.33 39.468 61.3929 39.4367 61.4244H32.4557C31.6417 61.4244 31.0156 60.7633 30.9843 59.9762C30.9843 59.7558 30.953 58.7798 30.1704 57.1112C29.1373 54.9073 27.2903 52.5146 24.692 49.9644C20.8414 45.8716 18.7127 40.5824 18.7127 34.9783C18.7127 23.0461 28.3547 13.3492 40.2194 13.3492C52.084 13.3492 61.726 23.0461 61.726 34.9783C61.726 40.5824 59.5973 45.9031 55.7467 49.9644M47.983 66.021H45.7917C45.2282 66.021 44.7899 66.4618 44.7899 67.0285C44.7899 67.5952 45.2282 68.0359 45.7917 68.0359H47.983V69.7045H46.136C45.6038 69.7045 45.1343 70.1453 45.1343 70.712C45.1343 71.2787 45.5725 71.7195 46.136 71.7195H47.983V72.9788C47.983 73.577 47.4822 74.0807 46.8874 74.0807H44.4769C43.9447 74.0807 43.4751 74.5215 43.4751 75.0882C43.4751 75.6549 43.9134 76.0957 44.4769 76.0957H44.5395L41.8785 78.0791H38.4037L35.7427 76.0957H40.8455C41.3776 76.0957 41.8472 75.6549 41.8472 75.0882C41.8472 74.5215 41.409 74.0807 40.8455 74.0807H33.3948C32.8 74.0807 32.2991 73.6085 32.2991 72.9788V71.7195H41.7846C42.3168 71.7195 42.7864 71.2787 42.7864 70.712C42.7864 70.1453 42.3481 69.7045 41.7846 69.7045H32.2991V68.0359H42.0037C42.5672 68.0359 43.0055 67.5952 43.0055 67.0285C43.0055 66.4618 42.5672 66.021 42.0037 66.021H32.2991V63.5023H47.9517V66.021H47.983ZM61.7886 25.8796C60.599 23.0776 58.9086 20.5274 56.7485 18.3551C54.5884 16.1827 52.084 14.4826 49.2666 13.2862C46.3865 12.0584 43.2873 11.4287 40.1254 11.4287C36.9636 11.4287 33.8644 12.0584 30.9843 13.2862C28.1982 14.4826 25.6624 16.1827 23.5024 18.3551C21.3423 20.5274 19.6518 23.0461 18.4622 25.8796C17.2413 28.8076 16.6152 31.8929 16.6152 35.0728C16.6152 41.1806 18.9318 47.005 23.1893 51.4442C26.132 54.3091 27.5094 56.4815 28.1669 57.8353C28.8556 59.2206 28.8869 59.9762 28.8869 60.0391C28.8869 61.204 29.4504 62.2115 30.2956 62.8412V72.9473C30.2956 74.1752 31.0156 75.2456 32.08 75.7494C32.1426 75.8123 32.2052 75.8753 32.2678 75.9383L37.4958 79.8107C37.6523 79.9367 37.8715 79.9996 38.0906 79.9996H42.2229C42.442 79.9996 42.6299 79.9367 42.8177 79.8107L48.0457 75.9383C48.0457 75.9383 48.2022 75.8123 48.2648 75.7179C49.2979 75.2141 49.9866 74.1752 49.9866 72.9473V62.8412C50.8005 62.2115 51.364 61.2355 51.3953 60.1336C51.4266 59.9447 51.6144 59.0317 52.2719 57.6779C52.9606 56.2611 54.3693 54.0258 57.0616 51.5071H57.0929C61.3191 47.0365 63.6669 41.212 63.6669 35.1043C63.6669 31.9244 63.0408 28.8076 61.8199 25.9111" fill="white"/>
<path d="M55.6528 50.0589C49.924 55.4111 49.3918 59.7558 49.3605 59.9447V60.0076V60.0706C49.3605 60.8892 48.7031 61.5503 47.8891 61.5503H41.409C41.8472 60.7003 42.2229 59.8187 42.5359 58.9687C43.2873 56.7019 43.5377 54.9703 43.5377 54.9703C43.6942 53.8684 43.7255 52.7979 43.6629 51.696C43.6003 50.6256 43.4438 49.5552 43.162 48.4847C45.6038 41.5269 45.3534 35.9228 42.4107 31.8929C41.1898 30.2243 39.5306 28.8391 37.4645 27.7686C35.8366 26.9186 33.9583 26.2574 31.8609 25.8166C28.3234 25.061 25.4433 25.1555 25.3181 25.1555C24.9737 25.1555 24.6607 25.3759 24.5041 25.7222C24.4728 25.7852 23.7215 27.6112 23.3772 30.2243C23.158 31.767 23.1267 33.3097 23.2832 34.7579C23.4711 36.584 23.9093 38.347 24.6607 39.9212C26.6955 44.3919 30.8278 47.6661 36.8697 49.6181C37.3393 49.7755 37.8715 49.4922 38.028 49.0199C38.1845 48.5477 37.9341 48.0125 37.4332 47.855C31.8922 46.0605 28.1355 43.1325 26.3198 39.1341C24.8798 35.9543 24.9111 32.68 25.1929 30.4762C25.412 28.8705 25.7877 27.6112 26.0068 26.9186C27.0086 26.9186 29.106 27.013 31.4852 27.5482C34.4905 28.1779 38.5915 29.6261 40.9707 32.9004C43.2247 35.9858 43.6316 40.2361 42.1916 45.5253C41.8785 44.8326 41.5342 44.14 41.1272 43.4474C38.4976 39.0397 34.8975 36.5525 34.7409 36.458C34.334 36.1747 33.7705 36.3006 33.4887 36.7099C33.207 37.1192 33.3009 37.6859 33.7392 37.9692C33.7705 37.9692 37.1827 40.3305 39.5932 44.3919C40.4072 45.7457 41.002 47.0994 41.3776 48.5162C41.3776 48.5792 41.409 48.6736 41.4403 48.7366C42.2229 51.696 42.0977 54.7499 41.0646 57.8353C40.6889 59.0002 40.1567 60.1336 39.4993 61.2985C39.4993 61.33 39.468 61.3929 39.4367 61.4244H32.4557C31.6417 61.4244 31.0156 60.7633 30.9843 59.9762C30.9843 59.7558 30.953 58.7798 30.1704 57.1112C29.1373 54.9073 27.2903 52.5146 24.692 49.9644C20.8414 45.8716 18.7127 40.5824 18.7127 34.9783C18.7127 23.0461 28.3547 13.3492 40.2194 13.3492C52.084 13.3492 61.726 23.0461 61.726 34.9783C61.726 40.5824 59.5973 45.9031 55.7467 49.9644L55.6528 50.0589ZM47.983 66.021H45.7917C45.2282 66.021 44.7899 66.4618 44.7899 67.0285C44.7899 67.5952 45.2282 68.0359 45.7917 68.0359H47.983V69.7045H46.136C45.6038 69.7045 45.1343 70.1453 45.1343 70.712C45.1343 71.2787 45.5725 71.7195 46.136 71.7195H47.983V72.9788C47.983 73.577 47.4822 74.0807 46.8874 74.0807H44.4769C43.9447 74.0807 43.4751 74.5215 43.4751 75.0882C43.4751 75.6549 43.9134 76.0957 44.4769 76.0957H44.5395L41.8785 78.0791H38.4037L35.7427 76.0957H40.8455C41.3776 76.0957 41.8472 75.6549 41.8472 75.0882C41.8472 74.5215 41.409 74.0807 40.8455 74.0807H33.3948C32.8 74.0807 32.2991 73.6085 32.2991 72.9788V71.7195H41.7846C42.3168 71.7195 42.7864 71.2787 42.7864 70.712C42.7864 70.1453 42.3481 69.7045 41.7846 69.7045H32.2991V68.0359H42.0038C42.5672 68.0359 43.0055 67.5952 43.0055 67.0285C43.0055 66.4618 42.5672 66.021 42.0038 66.021H32.2991V63.5023H47.9517V66.021H47.983ZM61.7886 25.8796C60.599 23.0776 58.9086 20.5274 56.7485 18.3551C54.5884 16.1827 52.084 14.4826 49.2666 13.2862C46.3865 12.0584 43.2873 11.4287 40.1254 11.4287C36.9636 11.4287 33.8644 12.0584 30.9843 13.2862C28.1982 14.4826 25.6624 16.1827 23.5024 18.3551C21.3423 20.5274 19.6518 23.0461 18.4622 25.8796C17.2413 28.8076 16.6152 31.8929 16.6152 35.0728C16.6152 41.1806 18.9318 47.005 23.1893 51.4442C26.132 54.3091 27.5094 56.4815 28.1669 57.8353C28.8556 59.2206 28.8869 59.9762 28.8869 60.0391C28.8869 61.204 29.4504 62.2115 30.2956 62.8412V72.9473C30.2956 74.1752 31.0156 75.2456 32.08 75.7494C32.1426 75.8123 32.2052 75.8753 32.2678 75.9383L37.4958 79.8107C37.6523 79.9367 37.8715 79.9996 38.0906 79.9996H42.2229C42.442 79.9996 42.6299 79.9367 42.8177 79.8107L48.0457 75.9383C48.0457 75.9383 48.2022 75.8123 48.2648 75.7179C49.2979 75.2141 49.9866 74.1752 49.9866 72.9473V62.8412C50.8005 62.2115 51.364 61.2355 51.3953 60.1336C51.4266 59.9447 51.6144 59.0317 52.2719 57.6779C52.9606 56.2611 54.3693 54.0258 57.0616 51.5071H57.0929C61.3191 47.0365 63.6669 41.212 63.6669 35.1043C63.6669 31.9244 63.0408 28.8076 61.8199 25.9111L61.7886 25.8796Z" stroke="white" stroke-width="0.3" stroke-miterlimit="10"/>
<path d="M60.8174 54.7189C60.4418 54.3411 59.7844 54.3411 59.4087 54.7189C59.033 55.0967 59.033 55.7578 59.4087 56.1356L63.5723 60.3229C63.7601 60.5118 64.0106 60.6063 64.2923 60.6063C64.5741 60.6063 64.7932 60.5118 64.981 60.3229C65.3567 59.9451 65.3567 59.284 64.981 58.9062L60.8174 54.7189Z" fill="white"/>
<path d="M60.8174 54.7189C60.4418 54.3411 59.7844 54.3411 59.4087 54.7189C59.033 55.0967 59.033 55.7578 59.4087 56.1356L63.5723 60.3229C63.7601 60.5118 64.0106 60.6063 64.2923 60.6063C64.5741 60.6063 64.7932 60.5118 64.981 60.3229C65.3567 59.9451 65.3567 59.284 64.981 58.9062L60.8174 54.7189Z" stroke="white" stroke-width="0.3" stroke-miterlimit="10"/>
<path d="M19.4651 15.9636C19.6529 16.1525 19.9033 16.2469 20.1538 16.2469C20.4042 16.2469 20.6547 16.1525 20.8425 15.9636C21.2182 15.5858 21.2182 14.9561 20.8425 14.5468L16.6789 10.3595C16.3032 9.98172 15.6771 9.98172 15.2702 10.3595C14.8632 10.7373 14.8945 11.3985 15.2702 11.7763L19.4338 15.9636H19.4651Z" fill="white"/>
<path d="M19.4651 15.9636C19.6529 16.1525 19.9033 16.2469 20.1538 16.2469C20.4042 16.2469 20.6547 16.1525 20.8425 15.9636C21.2182 15.5858 21.2182 14.9561 20.8425 14.5468L16.6789 10.3595C16.3032 9.98172 15.6771 9.98172 15.2702 10.3595C14.8632 10.7373 14.8945 11.3985 15.2702 11.7763L19.4338 15.9636H19.4651Z" stroke="white" stroke-width="0.3" stroke-miterlimit="10"/>
<path d="M19.4649 54.7189L15.3013 58.9062C14.9256 59.284 14.9256 59.9451 15.3013 60.3229C15.4891 60.5118 15.7396 60.6063 15.99 60.6063C16.2404 60.6063 16.4909 60.5118 16.71 60.3229L20.8736 56.1356C21.2493 55.7578 21.2493 55.0967 20.8736 54.7189C20.4979 54.3411 19.8718 54.3411 19.4649 54.7189Z" fill="white"/>
<path d="M19.4649 54.7189L15.3013 58.9062C14.9256 59.284 14.9256 59.9451 15.3013 60.3229C15.4891 60.5118 15.7396 60.6063 15.99 60.6063C16.2404 60.6063 16.4909 60.5118 16.71 60.3229L20.8736 56.1356C21.2493 55.7578 21.2493 55.0967 20.8736 54.7189C20.4979 54.3411 19.8718 54.3411 19.4649 54.7189Z" stroke="white" stroke-width="0.3" stroke-miterlimit="10"/>
<path d="M60.1287 16.2469C60.3792 16.2469 60.6296 16.1525 60.8174 15.9636L64.981 11.7763C65.3567 11.3985 65.3567 10.7373 64.981 10.3595C64.6054 9.98172 63.948 9.98172 63.5723 10.3595L59.4087 14.5468C59.033 14.9246 59.033 15.5858 59.4087 15.9636C59.5965 16.1525 59.847 16.2469 60.1287 16.2469Z" fill="white"/>
<path d="M60.1287 16.2469C60.3792 16.2469 60.6296 16.1525 60.8174 15.9636L64.981 11.7763C65.3567 11.3985 65.3567 10.7373 64.981 10.3595C64.6054 9.98172 63.948 9.98172 63.5723 10.3595L59.4087 14.5468C59.033 14.9246 59.033 15.5858 59.4087 15.9636C59.5965 16.1525 59.847 16.2469 60.1287 16.2469Z" stroke="white" stroke-width="0.3" stroke-miterlimit="10"/>
<path d="M40.1248 7.93383C40.6883 7.93383 41.1266 7.49306 41.1266 6.92635V1.00747C41.1266 0.472251 40.6883 0 40.1248 0C39.5613 0 39.123 0.440768 39.123 1.00747V6.92635C39.123 7.49306 39.5613 7.93383 40.1248 7.93383Z" fill="white"/>
<path d="M40.1248 7.93383C40.6883 7.93383 41.1266 7.49306 41.1266 6.92635V1.00747C41.1266 0.472251 40.6883 0 40.1248 0C39.5613 0 39.123 0.440768 39.123 1.00747V6.92635C39.123 7.49306 39.5613 7.93383 40.1248 7.93383Z" stroke="white" stroke-width="0.3" stroke-miterlimit="10"/>
<path d="M11.8871 34.3486H6.00177C5.46958 34.3486 5 34.7894 5 35.3561C5 35.9228 5.43827 36.3636 6.00177 36.3636H11.8871C12.4506 36.3636 12.8889 35.9228 12.8889 35.3561C12.8889 34.7894 12.4506 34.3486 11.8871 34.3486Z" fill="white"/>
<path d="M11.8871 34.3486H6.00177C5.46958 34.3486 5 34.7894 5 35.3561C5 35.9228 5.43827 36.3636 6.00177 36.3636H11.8871C12.4506 36.3636 12.8889 35.9228 12.8889 35.3561C12.8889 34.7894 12.4506 34.3486 11.8871 34.3486Z" stroke="white" stroke-width="0.3" stroke-miterlimit="10"/>
<path d="M75.2815 35.3249C75.2815 34.7581 74.8432 34.3174 74.2797 34.3174H68.3943C67.8622 34.3174 67.3926 34.7581 67.3926 35.3249C67.3926 35.8916 67.8308 36.3323 68.3943 36.3323H74.2797C74.8432 36.3323 75.2815 35.8916 75.2815 35.3249Z" fill="white"/>
<path d="M75.2815 35.3249C75.2815 34.7581 74.8432 34.3174 74.2797 34.3174H68.3943C67.8622 34.3174 67.3926 34.7581 67.3926 35.3249C67.3926 35.8916 67.8308 36.3323 68.3943 36.3323H74.2797C74.8432 36.3323 75.2815 35.8916 75.2815 35.3249Z" stroke="white" stroke-width="0.3" stroke-miterlimit="10"/>
<path d="M45.3217 32.5214C44.8834 32.7733 44.7269 33.3085 44.946 33.7807C45.1964 34.2215 45.7286 34.3789 46.1669 34.1585C48.8591 32.7103 51.3323 32.7733 53.5549 34.3474C54.7132 35.166 55.5272 36.205 55.9341 36.8031C55.2141 37.6532 54.588 38.6607 53.8993 39.7311C52.0523 42.6276 49.9861 45.9018 45.9165 47.2556C45.4469 47.4131 45.1651 47.9168 45.3217 48.4205C45.4469 48.7983 45.7912 49.0502 46.1982 49.0502C46.2921 49.0502 46.386 49.0502 46.48 48.9872C51.1757 47.4445 53.5549 43.7295 55.4645 40.7386C56.2472 39.5107 56.9672 38.3458 57.7498 37.5587C58.0316 37.2754 58.0942 36.8346 57.9063 36.4883C57.8124 36.3309 55.8402 32.7103 52.1149 31.6084C49.9548 30.9472 47.6695 31.2621 45.3217 32.5529" fill="white"/>
<path d="M45.3217 32.5214C44.8834 32.7733 44.7269 33.3085 44.946 33.7807C45.1964 34.2215 45.7286 34.3789 46.1669 34.1585C48.8591 32.7103 51.3323 32.7733 53.5549 34.3474C54.7132 35.166 55.5272 36.205 55.9341 36.8031C55.2141 37.6532 54.588 38.6607 53.8993 39.7311C52.0523 42.6276 49.9861 45.9018 45.9165 47.2556C45.4469 47.4131 45.1651 47.9168 45.3217 48.4205C45.4469 48.7983 45.7912 49.0502 46.1982 49.0502C46.2921 49.0502 46.386 49.0502 46.48 48.9872C51.1757 47.4445 53.5549 43.7295 55.4645 40.7386C56.2472 39.5107 56.9672 38.3458 57.7498 37.5587C58.0316 37.2754 58.0942 36.8346 57.9063 36.4883C57.8124 36.3309 55.8402 32.7103 52.1149 31.6084C49.9548 30.9472 47.6695 31.2621 45.3217 32.5529V32.5214Z" stroke="white" stroke-width="0.3" stroke-miterlimit="10"/>
<path d="M46.1371 39.0696C45.8867 39.5104 46.0432 40.0771 46.4815 40.3289C46.6067 40.3919 46.7632 40.4549 46.9197 40.4549C47.2328 40.4549 47.5458 40.2975 47.7337 39.9826C48.3911 38.7548 49.8311 38.7548 49.8937 38.7548L49.9563 36.9287C49.9563 36.9287 47.358 36.8973 46.1371 39.1011" fill="white"/>
<path d="M46.1371 39.0696C45.8867 39.5104 46.0432 40.0771 46.4815 40.3289C46.6067 40.3919 46.7632 40.4549 46.9197 40.4549C47.2328 40.4549 47.5458 40.2975 47.7337 39.9826C48.3911 38.7548 49.8311 38.7548 49.8937 38.7548L49.9563 36.9287C49.9563 36.9287 47.358 36.8973 46.1371 39.1011V39.0696Z" stroke="white" stroke-width="0.3" stroke-miterlimit="10"/>
</g>
<defs>
<clipPath id="clip0_584_40288">
<rect width="80" height="80" fill="white"/>
</clipPath>
</defs>
</svg>
