<svg width="80" height="80" viewBox="0 0 80 80" fill="none" xmlns="http://www.w3.org/2000/svg">
<path d="M6.44812 62.2085C6.44812 62.2085 6.63862 62.2356 6.72026 62.2085C9.03349 62.0457 11.3195 61.6387 13.5239 60.9603C16.3269 60.092 18.8851 58.8167 21.035 56.7545C21.661 56.1847 22.423 55.9405 23.2938 56.0761C24.6001 56.2932 25.8792 56.5374 27.1855 56.7274C30.2335 57.1615 33.2543 57.053 36.3023 56.646C38.7516 56.2932 41.1465 55.6691 43.4597 54.7466C46.671 53.4441 49.583 51.7075 52.0595 49.2926C54.8898 46.552 56.822 43.323 57.4479 39.3885C58.1283 35.2641 57.203 31.4653 54.9442 27.965C52.7398 24.5461 49.6918 22.0769 46.0995 20.2046C42.0174 18.061 37.6358 17.0299 33.0638 16.7857C29.3082 16.5686 25.6071 17.0027 22.0148 18.061C17.606 19.3634 13.6599 21.4799 10.4214 24.7632C7.50948 27.7208 5.60447 31.194 5.19625 35.3727C4.84247 38.9001 5.6589 42.1562 7.45505 45.1953C8.38034 46.7419 9.52334 48.0715 10.7752 49.3468C11.4828 50.0523 11.7277 50.9478 11.4828 51.9246C10.9385 54.1496 9.98599 56.1847 8.89741 58.1655C8.16262 59.4951 7.31898 60.7975 6.47533 62.1542M32.1929 59.2237C28.6823 59.2237 26.0425 58.9524 23.4571 58.3554C23.0217 58.2469 22.6679 58.3012 22.2869 58.6268C19.9193 60.8789 17.0345 62.2628 13.9321 63.1853C11.0746 64.0536 8.16262 64.4607 5.16904 64.5421C4.27096 64.5421 3.67225 64.135 3.45453 63.3481C3.29124 62.7783 3.53617 62.2899 3.83553 61.8015C4.84247 60.3091 5.8494 58.8438 6.77469 57.2972C7.78162 55.6149 8.54363 53.824 9.14234 51.9517C9.33284 51.3819 9.22399 51.002 8.81577 50.5679C6.6114 48.37 4.92411 45.8465 3.88996 42.916C2.88303 40.0126 2.58367 37.055 3.10074 33.9617C3.91718 28.9418 6.52976 25.0074 10.3398 21.7784C13.9865 18.6851 18.232 16.7585 22.8584 15.5918C26.3146 14.7235 29.8253 14.3707 33.3632 14.5878C39.6497 14.9677 45.4736 16.7857 50.6715 20.4217C54.0733 22.8095 56.8492 25.7671 58.4821 29.6745C59.1896 31.3568 59.6251 33.1205 59.8428 34.9657C60.251 38.6559 59.5706 42.1291 57.8561 45.4124C56.0872 48.8042 53.5018 51.4633 50.3722 53.6069C47.2425 55.7505 43.7863 57.1887 40.1123 58.1384C37.2276 58.8981 34.2885 59.2509 32.1929 59.2237Z" fill="white"/>
<path d="M66.8927 62.2353C66.3211 60.9871 65.7769 59.956 65.3414 58.8435C64.9604 57.8395 64.6339 56.8084 64.3889 55.7502C64.144 54.7191 64.7427 53.6066 65.6952 52.9825C66.9471 52.1956 68.2534 51.463 69.4236 50.5675C71.7912 48.7495 73.4785 46.3889 74.295 43.5126C75.193 40.2565 74.7304 37.1089 72.9887 34.2056C71.0837 31.0037 68.2534 28.8601 64.906 27.3677C62.9466 26.4723 60.9055 25.9296 58.7828 25.604C58.048 25.4954 57.6125 25.007 57.6942 24.3829C57.7758 23.7046 58.2929 23.2976 59.0005 23.4061C65.287 24.3829 70.6482 26.9336 74.4038 32.2519C76.3633 35.0196 77.2613 38.1672 76.9348 41.559C76.6082 45.0864 75.1114 48.0712 72.6893 50.6489C71.1653 52.277 69.4236 53.5795 67.4642 54.6106C66.5116 55.1261 66.5116 55.1261 66.7838 56.1572C67.3553 58.2737 68.2806 60.2002 69.4508 62.0454C69.7502 62.5066 69.859 62.9951 69.6957 63.5106C69.478 64.2161 68.8521 64.6774 68.0901 64.5689C64.3889 64.1347 60.8783 63.1307 57.9663 60.6886C57.1227 59.9832 56.4151 59.0335 55.7347 58.1652C55.4626 57.8124 55.1905 57.6496 54.755 57.6225C53.5848 57.5682 52.3874 57.4868 51.2172 57.3511C50.5368 57.2697 50.1558 56.7813 50.2102 56.1029C50.2646 55.5331 50.7817 55.1261 51.4349 55.1804C52.7684 55.2618 54.1291 55.3432 55.4626 55.4517C56.3607 55.5331 57.041 55.9944 57.5037 56.7542C58.8372 58.952 60.9055 60.2816 63.2459 61.1499C64.3889 61.5841 65.6136 61.8554 66.9199 62.2353" fill="white"/>
<path d="M46.6719 35.2123C45.8011 35.2123 45.0935 35.9178 45.1207 36.7861C45.1207 37.6544 45.8555 38.3599 46.6991 38.3599C47.5428 38.3599 48.2776 37.6001 48.2776 36.759C48.2776 35.8907 47.57 35.2123 46.6719 35.2123ZM42.9163 36.8132C42.8891 34.6968 44.5492 33.0144 46.6991 32.9873C48.7402 32.9873 50.482 34.6696 50.5364 36.7047C50.5636 38.7398 48.8491 40.5306 46.7808 40.5849C44.6581 40.612 42.9436 38.9569 42.9163 36.8132Z" fill="white"/>
<path d="M16.0567 36.7862C16.0567 35.9179 15.3764 35.2124 14.5055 35.2124C13.6347 35.2124 12.9271 35.9179 12.9271 36.7591C12.9271 37.6002 13.6619 38.36 14.5055 38.36C15.3764 38.36 16.084 37.6545 16.084 36.7862M18.2611 36.7862C18.2339 38.9027 16.5194 40.585 14.4511 40.5579C12.3556 40.5579 10.6411 38.7942 10.6683 36.7319C10.6683 34.6426 12.4372 32.9331 14.5055 32.9603C16.6555 32.9603 18.2883 34.6426 18.2611 36.7591" fill="white"/>
<path d="M35.948 35.2126C35.0772 35.2126 34.3968 35.8909 34.3696 36.7864C34.3696 37.6546 35.0772 38.3601 35.9208 38.3601C36.7917 38.3601 37.4992 37.6275 37.4992 36.7864C37.4992 35.8909 36.8189 35.2126 35.9208 35.2126M36.0841 32.9875C38.2612 33.1232 39.8941 34.8598 39.7853 36.922C39.6492 39.0656 37.8258 40.6937 35.7303 40.558C33.7164 40.4223 32.0564 38.6315 32.1652 36.6778C32.2741 34.5071 34.0158 32.879 36.1113 32.9875" fill="white"/>
<path d="M26.7804 36.7554C26.7804 35.8871 26.0728 35.2088 25.202 35.2088C24.3311 35.2088 23.6235 35.9142 23.6508 36.7825C23.6508 37.6508 24.3856 38.3563 25.2292 38.3563C26.1001 38.3563 26.7804 37.6508 26.7804 36.7554ZM25.3381 32.9837C27.3791 32.9837 29.0664 34.6932 29.0392 36.8097C29.012 38.9804 27.2431 40.6085 25.0931 40.5542C23.0248 40.4999 21.3375 38.6819 21.4464 36.6197C21.528 34.5575 23.297 32.9295 25.3653 32.9837" fill="white"/>
</svg>
