<svg width="80" height="80" viewBox="0 0 80 80" fill="none" xmlns="http://www.w3.org/2000/svg">
<path d="M49.4999 34.8614C49.4999 34.8614 49.4024 34.9264 49.3699 34.9589L46.2496 38.0792C45.9896 36.9091 45.567 35.544 44.982 34.6664C44.3644 33.7888 43.7144 32.9437 43.2268 32.3586L44.982 30.6035L60.5835 15.652L64.2889 19.3573L49.4674 34.8289L49.4999 34.8614ZM48.2648 51.9256C47.3547 52.8357 46.2496 53.5833 44.982 54.1358C42.5442 55.1759 41.0166 57.6137 41.0816 60.3114C41.1791 64.3743 39.814 68.0472 37.2137 70.6475C34.6134 73.2477 31.2331 74.5153 27.2677 74.5153C21.9372 74.5153 16.4116 72.0776 12.1862 67.8197C4.45045 60.1489 3.18282 48.9028 9.32593 42.7922C9.68347 42.4346 10.0735 42.1096 10.431 41.8171C12.8363 39.9319 15.8591 38.9243 19.2394 38.9243C19.4019 38.9243 19.5644 38.9243 19.727 38.9243H19.922C22.4897 38.9243 24.8625 37.3641 25.8701 35.0239C26.3901 33.7888 27.1377 32.6837 28.0803 31.7411C30.0955 29.7259 32.9233 28.5883 35.9786 28.5883C38.0263 28.5883 40.1065 29.0758 42.0892 30.0184L40.6916 31.416C40.2365 31.8711 40.204 32.6512 40.659 33.1062C40.659 33.1062 41.8942 34.4714 42.9668 36.0315C43.6168 36.9741 44.1044 39.4118 44.2344 40.7445C44.2994 41.1995 44.5919 41.6221 45.047 41.7846C45.177 41.8171 45.307 41.8496 45.437 41.8496C45.7621 41.8496 46.0871 41.7196 46.3146 41.4921L49.9225 37.8842C52.3277 42.9547 51.7426 48.4477 48.2323 51.9256M68.4818 5.60848L74.3649 11.4916L66.1416 17.7322L62.2412 13.8318L68.4818 5.60848ZM76.9977 11.6216C76.9977 11.0365 76.8026 10.419 76.3801 9.99642L69.977 3.59328C69.5544 3.17074 68.9369 2.94322 68.3518 2.97572C67.7667 2.97572 67.1817 3.30075 66.7591 3.7883L66.1091 4.63338L63.8663 3.23575C63.2813 2.87821 62.5337 3.04073 62.1762 3.62578C61.8186 4.21084 61.9812 4.95842 62.5662 5.31595L64.6139 6.58358L62.8262 8.95632L60.356 7.42866C59.7709 7.07113 59.0234 7.23364 58.6658 7.8187C58.3083 8.40376 58.4708 9.15133 59.0559 9.50887L61.3311 10.939L59.6734 13.1167L43.9094 28.1982C41.3741 26.8331 38.6438 26.1505 35.9461 26.1505C32.2082 26.1505 28.7954 27.5157 26.2926 30.0184C25.1225 31.1885 24.2124 32.5212 23.5623 34.0488C22.9448 35.479 21.4821 36.4541 19.8895 36.4541H19.7595C15.5991 36.324 11.8287 37.5267 8.87089 39.8669C8.41584 40.2244 7.9608 40.6145 7.53826 41.037C0.452552 48.1227 1.72018 60.929 10.366 69.6074C15.079 74.3203 21.2221 77.0181 27.2027 77.0181C31.7857 77.0181 35.9461 75.3929 38.9039 72.4026C41.8617 69.4123 43.6168 65.0244 43.5193 60.2464C43.4868 58.5563 44.4294 57.0286 45.9246 56.3785C47.4522 55.696 48.8174 54.7859 49.955 53.6483C54.4079 49.2278 55.058 42.2396 51.7426 36.0315L66.8241 20.2674L69.0019 18.6098L70.432 20.885C70.6595 21.2425 71.0821 21.4701 71.4721 21.4701C71.6996 21.4701 71.9272 21.4051 72.1222 21.275C72.7072 20.9175 72.8697 20.1374 72.5122 19.5849L70.9846 17.1146L73.3573 15.3269L74.6249 17.3747C74.8524 17.7322 75.275 17.9597 75.665 17.9597C75.8925 17.9597 76.1201 17.8947 76.3151 17.7647C76.9001 17.4072 77.0627 16.6271 76.7051 16.0745L75.3075 13.8318L76.1851 13.1492C76.6401 12.7592 76.9326 12.2066 76.9652 11.5891" fill="white"/>
<path d="M27.5932 42.1769C27.2356 42.5345 26.9431 42.892 26.6831 43.3145C26.3256 43.8671 26.4556 44.6472 27.0406 45.0372C27.6257 45.3947 28.3733 45.2647 28.7633 44.6797C28.9258 44.4196 29.1533 44.1596 29.3809 43.9321C31.2335 42.0794 34.2563 42.0794 36.109 43.9321C37.0191 44.8422 37.5067 46.0123 37.5067 47.3124C37.5067 48.6126 37.0191 49.7827 36.109 50.6928C35.1989 51.6029 34.0288 52.0904 32.7287 52.0904C31.4286 52.0904 30.2584 51.6029 29.3484 50.6928C28.4383 49.7827 27.9507 48.6126 27.9507 47.3449C27.9507 46.6624 27.3982 46.1098 26.7156 46.1098C26.033 46.1098 25.4805 46.6624 25.4805 47.3449C25.4805 49.2951 26.228 51.0828 27.5932 52.4479C28.9583 53.8131 30.7785 54.5607 32.6962 54.5607C34.6139 54.5607 36.4341 53.8131 37.7992 52.4479C39.1643 51.0828 39.9119 49.2626 39.9119 47.3449C39.9119 45.4272 39.1643 43.6071 37.7992 42.2419C34.9714 39.4141 30.3885 39.4141 27.5607 42.2419" fill="white"/>
<path d="M23.3038 58.0369L18.3958 53.1289L16.6406 54.8841L21.5486 59.7921C21.7761 60.0196 22.1012 60.1496 22.4262 60.1496C22.7512 60.1496 23.0438 60.0196 23.3038 59.7921C23.7913 59.3045 23.7913 58.5244 23.3038 58.0369Z" fill="white"/>
<path d="M25.7107 60.4428C25.2231 59.9553 24.4431 59.9553 23.9555 60.4428C23.468 60.9304 23.468 61.7104 23.9555 62.198L25.1256 63.3681C25.3531 63.5956 25.6782 63.7256 26.0032 63.7256C26.3282 63.7256 26.6208 63.5956 26.8808 63.3681C27.3683 62.8806 27.3683 62.1005 26.8808 61.6129L25.7432 60.4428H25.7107Z" fill="white"/>
<path d="M23.8244 20.6602C22.8493 20.6602 22.1668 20.0752 22.1668 19.5876C22.1668 19.1001 22.8493 18.515 23.8244 18.515C24.7995 18.515 25.4821 19.1001 25.4821 19.5876C25.4821 20.0752 24.7995 20.6602 23.8244 20.6602ZM17.4213 12.3069V11.1693L25.4821 7.52894V8.66655L17.4213 12.3069ZM13.2934 25.4382C12.3183 25.4382 11.6357 24.8532 11.6357 24.3656C11.6357 23.8781 12.3183 23.293 13.2934 23.293C14.2685 23.293 14.951 23.8781 14.951 24.3656C14.951 24.8532 14.2685 25.4382 13.2934 25.4382ZM27.9198 5.48123C27.9198 5.48123 27.9198 5.41623 27.9198 5.38372V5.31872C27.9198 5.25371 27.9198 5.22121 27.8548 5.1562C27.8548 5.1562 27.8548 5.1237 27.8223 5.09119C27.8223 5.05869 27.7573 4.99368 27.7573 4.96118C27.7573 4.96118 27.7248 4.89617 27.6923 4.86367C27.6923 4.86367 27.6273 4.79867 27.5948 4.76616C27.5948 4.76616 27.5298 4.70116 27.4973 4.70116C27.4648 4.70116 27.4323 4.63615 27.3998 4.63615C27.3673 4.63615 27.3348 4.60365 27.3023 4.57114C27.2698 4.57114 27.2373 4.53864 27.2048 4.50614C27.1723 4.50614 27.1397 4.50614 27.0747 4.47363C27.0422 4.47363 27.0097 4.47363 26.9772 4.47363C26.9122 4.47363 26.8797 4.47363 26.8147 4.47363C26.8147 4.47363 26.7822 4.47363 26.7497 4.47363C26.6847 4.47363 26.6197 4.47363 26.5872 4.47363C26.5872 4.47363 26.5547 4.47363 26.5222 4.47363C26.4897 4.47363 26.4572 4.47363 26.3922 4.50614C26.3597 4.50614 26.2947 4.50614 26.2622 4.53864L15.7311 9.31661C15.7311 9.31661 15.6661 9.31661 15.6661 9.34912C15.6336 9.34912 15.5686 9.38162 15.5361 9.41412C15.5036 9.41412 15.4711 9.47913 15.4386 9.47913C15.4386 9.47913 15.3736 9.54414 15.3411 9.54414C15.3411 9.54414 15.2761 9.60914 15.2436 9.64165C15.2436 9.64165 15.2111 9.70665 15.1786 9.73916C15.1786 9.73916 15.1461 9.80416 15.1136 9.83667C15.1136 9.86917 15.081 9.90167 15.0485 9.93418C15.0485 9.96668 15.0485 9.99918 15.016 10.0317C15.016 10.0642 15.016 10.0967 15.016 10.1617C15.016 10.1942 15.016 10.2592 15.016 10.2917C15.016 10.2917 15.016 10.3567 15.016 10.3892V21.0828C14.496 20.8878 13.9434 20.7903 13.3584 20.7903C11.0832 20.7903 9.23047 22.3829 9.23047 24.3331C9.23047 26.2833 11.0832 27.876 13.3584 27.876C15.6336 27.876 17.4863 26.2833 17.4863 24.3331C17.4863 24.2681 17.4863 24.2031 17.4863 24.1056C17.4863 24.0406 17.4863 23.9431 17.4863 23.8456V14.9722L25.5471 11.3318V16.3048C25.0595 16.1098 24.4745 16.0123 23.8894 16.0123C21.6142 16.0123 19.7615 17.6049 19.7615 19.5551C19.7615 21.5053 21.6142 23.098 23.8894 23.098C26.1646 23.098 28.0173 21.5053 28.0173 19.5551C28.0173 19.4901 28.0173 19.4251 28.0173 19.3276C28.0173 19.2626 28.0173 19.1651 28.0173 19.0676V5.61125C28.0173 5.57874 28.0173 5.51374 28.0173 5.48123" fill="white"/>
<path d="M62.7295 53.0006C61.7544 53.0006 61.0718 52.4155 61.0718 51.928C61.0718 51.4404 61.7544 50.8228 62.7295 50.8228C63.7046 50.8228 64.3871 51.4079 64.3871 51.928C64.3871 52.448 63.7046 53.0006 62.7295 53.0006ZM69.0026 39.1867L65.1022 40.9419C65.1022 40.9419 65.0697 40.9419 65.0372 40.9744C65.0047 40.9744 64.9397 41.0069 64.9072 41.0394C64.9072 41.0394 64.8422 41.0719 64.8097 41.1044C64.7772 41.1369 64.7447 41.1694 64.7122 41.1694C64.7122 41.1694 64.6472 41.2344 64.6472 41.2669C64.6472 41.2994 64.5822 41.3319 64.5822 41.3644C64.5822 41.3969 64.5497 41.4294 64.5171 41.4619C64.5171 41.4944 64.4846 41.5269 64.4521 41.5594C64.4521 41.5919 64.4521 41.6244 64.4196 41.6894C64.4196 41.7219 64.4196 41.7544 64.3871 41.8194C64.3871 41.852 64.3871 41.917 64.3871 41.9495C64.3871 41.9495 64.3871 42.0145 64.3871 42.047V48.6451C63.8671 48.4501 63.3145 48.3526 62.7295 48.3526C60.4542 48.3526 58.6016 49.9453 58.6016 51.8955C58.6016 53.8456 60.4542 55.4383 62.7295 55.4383C65.0047 55.4383 66.8574 53.8456 66.8574 51.8955C66.8574 51.8304 66.8574 51.7654 66.8574 51.6679C66.8574 51.6029 66.8574 51.5054 66.8574 51.4079V42.827L70.0102 41.3969C70.6278 41.1044 70.9203 40.3893 70.6278 39.7717C70.3352 39.1542 69.6202 38.8617 69.0026 39.1542" fill="white"/>
</svg>
