<svg width="78" height="79" viewBox="0 0 78 79" fill="none" xmlns="http://www.w3.org/2000/svg">
<g filter="url(#filter0_di_335_11306)">
<mask id="path-1-inside-1_335_11306" fill="white">
<path d="M38.833 6.31641C56.5873 6.31657 71.0828 20.5817 71.083 38.3047C71.0829 56.0278 56.5874 70.2928 38.833 70.293C21.0787 70.2927 6.5821 56.0278 6.58203 38.3047C6.58222 20.5817 21.0788 6.31663 38.833 6.31641ZM38.833 18.3164C27.5922 18.3166 18.5822 27.3225 18.582 38.3047C18.5821 49.2869 27.5921 58.2927 38.833 58.293C50.074 58.2928 59.0829 49.287 59.083 38.3047C59.0828 27.3225 50.0739 18.3166 38.833 18.3164Z"/>
</mask>
<path d="M38.833 6.31641C56.5873 6.31657 71.0828 20.5817 71.083 38.3047C71.0829 56.0278 56.5874 70.2928 38.833 70.293C21.0787 70.2927 6.5821 56.0278 6.58203 38.3047C6.58222 20.5817 21.0788 6.31663 38.833 6.31641ZM38.833 18.3164C27.5922 18.3166 18.5822 27.3225 18.582 38.3047C18.5821 49.2869 27.5921 58.2927 38.833 58.293C50.074 58.2928 59.0829 49.287 59.083 38.3047C59.0828 27.3225 50.0739 18.3166 38.833 18.3164Z" fill="#73ACFF"/>
<path d="M38.833 6.31641C56.5873 6.31657 71.0828 20.5817 71.083 38.3047C71.0829 56.0278 56.5874 70.2928 38.833 70.293C21.0787 70.2927 6.5821 56.0278 6.58203 38.3047C6.58222 20.5817 21.0788 6.31663 38.833 6.31641ZM38.833 18.3164C27.5922 18.3166 18.5822 27.3225 18.582 38.3047C18.5821 49.2869 27.5921 58.2927 38.833 58.293C50.074 58.2928 59.0829 49.287 59.083 38.3047C59.0828 27.3225 50.0739 18.3166 38.833 18.3164Z" fill="url(#paint0_linear_335_11306)" fill-opacity="0.1" style="mix-blend-mode:plus-darker"/>
<path d="M38.833 6.31641L38.833 5.31641H38.833L38.833 6.31641ZM71.083 38.3047L72.083 38.3047V38.3047L71.083 38.3047ZM38.833 70.293L38.833 71.293H38.833L38.833 70.293ZM6.58203 38.3047L5.58203 38.3047V38.3047L6.58203 38.3047ZM38.833 18.3164L38.833 17.3164H38.833L38.833 18.3164ZM18.582 38.3047L17.582 38.3047V38.3047L18.582 38.3047ZM38.833 58.293L38.833 59.293H38.833L38.833 58.293ZM59.083 38.3047L60.083 38.3047V38.3047L59.083 38.3047ZM38.833 6.31641L38.833 7.31641C56.045 7.31657 70.0828 21.1439 70.083 38.3047L71.083 38.3047L72.083 38.3047C72.0828 20.0194 57.1296 5.31658 38.833 5.31641L38.833 6.31641ZM71.083 38.3047L70.083 38.3047C70.0829 55.4656 56.0451 69.2928 38.833 69.293L38.833 70.293L38.833 71.293C57.1297 71.2928 72.0829 56.5901 72.083 38.3047L71.083 38.3047ZM38.833 70.293L38.833 69.293C21.6209 69.2928 7.58209 55.4655 7.58203 38.3047L6.58203 38.3047L5.58203 38.3047C5.5821 56.5901 20.5364 71.2927 38.833 71.293L38.833 70.293ZM6.58203 38.3047L7.58203 38.3047C7.58221 21.144 21.621 7.31662 38.833 7.31641L38.833 6.31641L38.833 5.31641C20.5365 5.31664 5.58222 20.0194 5.58203 38.3047L6.58203 38.3047ZM38.833 18.3164L38.833 17.3164C27.0486 17.3166 17.5822 26.7616 17.582 38.3047L18.582 38.3047L19.582 38.3047C19.5822 27.8834 28.1358 19.3166 38.833 19.3164L38.833 18.3164ZM18.582 38.3047L17.582 38.3047C17.5821 49.8479 27.0485 59.2927 38.833 59.293L38.833 58.293L38.833 57.293C28.1357 57.2928 19.5821 48.726 19.582 38.3047L18.582 38.3047ZM38.833 58.293L38.833 59.293C50.6176 59.2928 60.0829 49.8478 60.083 38.3047L59.083 38.3047L58.083 38.3047C58.0829 48.7261 49.5303 57.2928 38.833 57.293L38.833 58.293ZM59.083 38.3047L60.083 38.3047C60.0828 26.7617 50.6176 17.3166 38.833 17.3164L38.833 18.3164L38.833 19.3164C49.5302 19.3166 58.0828 27.8833 58.083 38.3047L59.083 38.3047Z" fill="url(#paint1_linear_335_11306)" mask="url(#path-1-inside-1_335_11306)"/>
<path d="M38.833 6.31641L38.833 5.31641H38.833L38.833 6.31641ZM71.083 38.3047L72.083 38.3047V38.3047L71.083 38.3047ZM38.833 70.293L38.833 71.293H38.833L38.833 70.293ZM6.58203 38.3047L5.58203 38.3047V38.3047L6.58203 38.3047ZM38.833 18.3164L38.833 17.3164H38.833L38.833 18.3164ZM18.582 38.3047L17.582 38.3047V38.3047L18.582 38.3047ZM38.833 58.293L38.833 59.293H38.833L38.833 58.293ZM59.083 38.3047L60.083 38.3047V38.3047L59.083 38.3047ZM38.833 6.31641L38.833 7.31641C56.045 7.31657 70.0828 21.1439 70.083 38.3047L71.083 38.3047L72.083 38.3047C72.0828 20.0194 57.1296 5.31658 38.833 5.31641L38.833 6.31641ZM71.083 38.3047L70.083 38.3047C70.0829 55.4656 56.0451 69.2928 38.833 69.293L38.833 70.293L38.833 71.293C57.1297 71.2928 72.0829 56.5901 72.083 38.3047L71.083 38.3047ZM38.833 70.293L38.833 69.293C21.6209 69.2928 7.58209 55.4655 7.58203 38.3047L6.58203 38.3047L5.58203 38.3047C5.5821 56.5901 20.5364 71.2927 38.833 71.293L38.833 70.293ZM6.58203 38.3047L7.58203 38.3047C7.58221 21.144 21.621 7.31662 38.833 7.31641L38.833 6.31641L38.833 5.31641C20.5365 5.31664 5.58222 20.0194 5.58203 38.3047L6.58203 38.3047ZM38.833 18.3164L38.833 17.3164C27.0486 17.3166 17.5822 26.7616 17.582 38.3047L18.582 38.3047L19.582 38.3047C19.5822 27.8834 28.1358 19.3166 38.833 19.3164L38.833 18.3164ZM18.582 38.3047L17.582 38.3047C17.5821 49.8479 27.0485 59.2927 38.833 59.293L38.833 58.293L38.833 57.293C28.1357 57.2928 19.5821 48.726 19.582 38.3047L18.582 38.3047ZM38.833 58.293L38.833 59.293C50.6176 59.2928 60.0829 49.8478 60.083 38.3047L59.083 38.3047L58.083 38.3047C58.0829 48.7261 49.5303 57.2928 38.833 57.293L38.833 58.293ZM59.083 38.3047L60.083 38.3047C60.0828 26.7617 50.6176 17.3166 38.833 17.3164L38.833 18.3164L38.833 19.3164C49.5302 19.3166 58.0828 27.8833 58.083 38.3047L59.083 38.3047Z" fill="url(#paint2_linear_335_11306)" fill-opacity="0.2" style="mix-blend-mode:plus-darker" mask="url(#path-1-inside-1_335_11306)"/>
</g>
<defs>
<filter id="filter0_di_335_11306" x="6.58203" y="6.31641" width="66.501" height="65.9766" filterUnits="userSpaceOnUse" color-interpolation-filters="sRGB">
<feFlood flood-opacity="0" result="BackgroundImageFix"/>
<feColorMatrix in="SourceAlpha" type="matrix" values="0 0 0 0 0 0 0 0 0 0 0 0 0 0 0 0 0 0 127 0" result="hardAlpha"/>
<feOffset dx="1" dy="2"/>
<feComposite in2="hardAlpha" operator="out"/>
<feColorMatrix type="matrix" values="0 0 0 0 0.254902 0 0 0 0 0.478431 0 0 0 0 0.803922 0 0 0 1 0"/>
<feBlend mode="normal" in2="BackgroundImageFix" result="effect1_dropShadow_335_11306"/>
<feBlend mode="normal" in="SourceGraphic" in2="effect1_dropShadow_335_11306" result="shape"/>
<feColorMatrix in="SourceAlpha" type="matrix" values="0 0 0 0 0 0 0 0 0 0 0 0 0 0 0 0 0 0 127 0" result="hardAlpha"/>
<feOffset dx="2" dy="4"/>
<feGaussianBlur stdDeviation="1"/>
<feComposite in2="hardAlpha" operator="arithmetic" k2="-1" k3="1"/>
<feColorMatrix type="matrix" values="0 0 0 0 1 0 0 0 0 1 0 0 0 0 1 0 0 0 0.2 0"/>
<feBlend mode="plus-lighter" in2="shape" result="effect2_innerShadow_335_11306"/>
</filter>
<linearGradient id="paint0_linear_335_11306" x1="22.4484" y1="9.13511" x2="38.8382" y2="70.2914" gradientUnits="userSpaceOnUse">
<stop stop-opacity="0"/>
<stop offset="1"/>
</linearGradient>
<linearGradient id="paint1_linear_335_11306" x1="22.332" y1="8.70048" x2="38.8383" y2="70.2914" gradientUnits="userSpaceOnUse">
<stop stop-color="#73ACFF"/>
<stop offset="1" stop-color="#73ACFF"/>
</linearGradient>
<linearGradient id="paint2_linear_335_11306" x1="22.332" y1="8.70048" x2="38.8383" y2="70.2914" gradientUnits="userSpaceOnUse">
<stop stop-color="white" stop-opacity="0.2"/>
<stop offset="1"/>
</linearGradient>
</defs>
</svg>
