<svg width="22" height="19" viewBox="0 0 22 19" fill="none" xmlns="http://www.w3.org/2000/svg">
<path d="M5.66699 1C6.59258 1 7.31411 0.999245 7.89258 1.04199C8.4757 1.08511 8.95547 1.17476 9.38965 1.375C10.0633 1.6857 10.624 2.17551 11 2.78516C11.3761 2.17549 11.9371 1.68561 12.6104 1.375C13.0445 1.17477 13.5244 1.08512 14.1074 1.04199C14.6858 0.999233 15.4073 1 16.333 1H19.2217C19.5251 1 19.7803 0.9993 19.9883 1.01465C20.2008 1.03036 20.4061 1.06471 20.6025 1.15527C20.9007 1.2928 21.153 1.51704 21.3145 1.80371C21.4236 1.99754 21.4641 2.20068 21.4824 2.40332C21.5 2.59842 21.5 2.83554 21.5 3.10742V12.875C21.5 13.147 21.5 13.3849 21.4824 13.5801C21.4641 13.7825 21.4235 13.985 21.3145 14.1787C21.153 14.4655 20.9008 14.6896 20.6025 14.8271C20.4062 14.9177 20.2016 14.952 19.9893 14.9678C19.7814 14.9832 19.5261 14.9824 19.2227 14.9824H16.0762C15.0043 14.9824 14.563 14.9867 14.1699 15.0947C13.8087 15.194 13.4756 15.3567 13.1885 15.5703C12.8798 15.7999 12.6383 16.1191 12.042 16.9287L11.4023 17.7969C11.3081 17.9246 11.1588 18 11 18C10.8412 18 10.6919 17.9246 10.5977 17.7969L9.95801 16.9287L9.95703 16.9268C9.36157 16.1183 9.11983 15.7997 8.81152 15.5703C8.52435 15.3567 8.19127 15.194 7.83008 15.0947C7.43696 14.9867 6.99573 14.9824 5.92383 14.9824H2.77832C2.47464 14.9824 2.2188 14.9832 2.01074 14.9678C1.79839 14.952 1.5938 14.9177 1.39746 14.8271C1.0989 14.6895 0.846835 14.4652 0.685547 14.1787C0.576415 13.9848 0.535884 13.7819 0.517578 13.5791C0.499953 13.3838 0.5 13.1464 0.5 12.874V3.10938C0.5 2.83685 0.499941 2.5987 0.517578 2.40332C0.535906 2.20057 0.576423 1.99756 0.685547 1.80371C0.84681 1.51733 1.09891 1.29296 1.39746 1.15527C1.59377 1.06481 1.79844 1.03036 2.01074 1.01465C2.2188 0.999267 2.47465 1 2.77832 1H5.66699Z" fill="white"/>
<path d="M5.66699 1C6.59258 1 7.31411 0.999245 7.89258 1.04199C8.4757 1.08511 8.95547 1.17476 9.38965 1.375C10.0633 1.6857 10.624 2.17551 11 2.78516C11.3761 2.17549 11.9371 1.68561 12.6104 1.375C13.0445 1.17477 13.5244 1.08512 14.1074 1.04199C14.6858 0.999233 15.4073 1 16.333 1H19.2217C19.5251 1 19.7803 0.9993 19.9883 1.01465C20.2008 1.03036 20.4061 1.06471 20.6025 1.15527C20.9007 1.2928 21.153 1.51704 21.3145 1.80371C21.4236 1.99754 21.4641 2.20068 21.4824 2.40332C21.5 2.59842 21.5 2.83554 21.5 3.10742V12.875C21.5 13.147 21.5 13.3849 21.4824 13.5801C21.4641 13.7825 21.4235 13.985 21.3145 14.1787C21.153 14.4655 20.9008 14.6896 20.6025 14.8271C20.4062 14.9177 20.2016 14.952 19.9893 14.9678C19.7814 14.9832 19.5261 14.9824 19.2227 14.9824H16.0762C15.0043 14.9824 14.563 14.9867 14.1699 15.0947C13.8087 15.194 13.4756 15.3567 13.1885 15.5703C12.8798 15.7999 12.6383 16.1191 12.042 16.9287L11.4023 17.7969C11.3081 17.9246 11.1588 18 11 18C10.8412 18 10.6919 17.9246 10.5977 17.7969L9.95801 16.9287L9.95703 16.9268C9.36157 16.1183 9.11983 15.7997 8.81152 15.5703C8.52435 15.3567 8.19127 15.194 7.83008 15.0947C7.43696 14.9867 6.99573 14.9824 5.92383 14.9824H2.77832C2.47464 14.9824 2.2188 14.9832 2.01074 14.9678C1.79839 14.952 1.5938 14.9177 1.39746 14.8271C1.0989 14.6895 0.846835 14.4652 0.685547 14.1787C0.576415 13.9848 0.535884 13.7819 0.517578 13.5791C0.499953 13.3838 0.5 13.1464 0.5 12.874V3.10938C0.5 2.83685 0.499941 2.5987 0.517578 2.40332C0.535906 2.20057 0.576423 1.99756 0.685547 1.80371C0.84681 1.51733 1.09891 1.29296 1.39746 1.15527C1.59377 1.06481 1.79844 1.03036 2.01074 1.01465C2.2188 0.999267 2.47465 1 2.77832 1H5.66699Z" fill="#0D69A4"/>
<path d="M5.66699 1C6.59258 1 7.31411 0.999245 7.89258 1.04199C8.4757 1.08511 8.95547 1.17476 9.38965 1.375C10.0633 1.6857 10.624 2.17551 11 2.78516C11.3761 2.17549 11.9371 1.68561 12.6104 1.375C13.0445 1.17477 13.5244 1.08512 14.1074 1.04199C14.6858 0.999233 15.4073 1 16.333 1H19.2217C19.5251 1 19.7803 0.9993 19.9883 1.01465C20.2008 1.03036 20.4061 1.06471 20.6025 1.15527C20.9007 1.2928 21.153 1.51704 21.3145 1.80371C21.4236 1.99754 21.4641 2.20068 21.4824 2.40332C21.5 2.59842 21.5 2.83554 21.5 3.10742V12.875C21.5 13.147 21.5 13.3849 21.4824 13.5801C21.4641 13.7825 21.4235 13.985 21.3145 14.1787C21.153 14.4655 20.9008 14.6896 20.6025 14.8271C20.4062 14.9177 20.2016 14.952 19.9893 14.9678C19.7814 14.9832 19.5261 14.9824 19.2227 14.9824H16.0762C15.0043 14.9824 14.563 14.9867 14.1699 15.0947C13.8087 15.194 13.4756 15.3567 13.1885 15.5703C12.8798 15.7999 12.6383 16.1191 12.042 16.9287L11.4023 17.7969C11.3081 17.9246 11.1588 18 11 18C10.8412 18 10.6919 17.9246 10.5977 17.7969L9.95801 16.9287L9.95703 16.9268C9.36157 16.1183 9.11983 15.7997 8.81152 15.5703C8.52435 15.3567 8.19127 15.194 7.83008 15.0947C7.43696 14.9867 6.99573 14.9824 5.92383 14.9824H2.77832C2.47464 14.9824 2.2188 14.9832 2.01074 14.9678C1.79839 14.952 1.5938 14.9177 1.39746 14.8271C1.0989 14.6895 0.846835 14.4652 0.685547 14.1787C0.576415 13.9848 0.535884 13.7819 0.517578 13.5791C0.499953 13.3838 0.5 13.1464 0.5 12.874V3.10938C0.5 2.83685 0.499941 2.5987 0.517578 2.40332C0.535906 2.20057 0.576423 1.99756 0.685547 1.80371C0.84681 1.51733 1.09891 1.29296 1.39746 1.15527C1.59377 1.06481 1.79844 1.03036 2.01074 1.01465C2.2188 0.999267 2.47465 1 2.77832 1H5.66699Z" fill="#0C72B3"/>
<path d="M5.66699 1C6.59258 1 7.31411 0.999245 7.89258 1.04199C8.4757 1.08511 8.95547 1.17476 9.38965 1.375C10.0633 1.6857 10.624 2.17551 11 2.78516C11.3761 2.17549 11.9371 1.68561 12.6104 1.375C13.0445 1.17477 13.5244 1.08512 14.1074 1.04199C14.6858 0.999233 15.4073 1 16.333 1H19.2217C19.5251 1 19.7803 0.9993 19.9883 1.01465C20.2008 1.03036 20.4061 1.06471 20.6025 1.15527C20.9007 1.2928 21.153 1.51704 21.3145 1.80371C21.4236 1.99754 21.4641 2.20068 21.4824 2.40332C21.5 2.59842 21.5 2.83554 21.5 3.10742V12.875C21.5 13.147 21.5 13.3849 21.4824 13.5801C21.4641 13.7825 21.4235 13.985 21.3145 14.1787C21.153 14.4655 20.9008 14.6896 20.6025 14.8271C20.4062 14.9177 20.2016 14.952 19.9893 14.9678C19.7814 14.9832 19.5261 14.9824 19.2227 14.9824H16.0762C15.0043 14.9824 14.563 14.9867 14.1699 15.0947C13.8087 15.194 13.4756 15.3567 13.1885 15.5703C12.8798 15.7999 12.6383 16.1191 12.042 16.9287L11.4023 17.7969C11.3081 17.9246 11.1588 18 11 18C10.8412 18 10.6919 17.9246 10.5977 17.7969L9.95801 16.9287L9.95703 16.9268C9.36157 16.1183 9.11983 15.7997 8.81152 15.5703C8.52435 15.3567 8.19127 15.194 7.83008 15.0947C7.43696 14.9867 6.99573 14.9824 5.92383 14.9824H2.77832C2.47464 14.9824 2.2188 14.9832 2.01074 14.9678C1.79839 14.952 1.5938 14.9177 1.39746 14.8271C1.0989 14.6895 0.846835 14.4652 0.685547 14.1787C0.576415 13.9848 0.535884 13.7819 0.517578 13.5791C0.499953 13.3838 0.5 13.1464 0.5 12.874V3.10938C0.5 2.83685 0.499941 2.5987 0.517578 2.40332C0.535906 2.20057 0.576423 1.99756 0.685547 1.80371C0.84681 1.51733 1.09891 1.29296 1.39746 1.15527C1.59377 1.06481 1.79844 1.03036 2.01074 1.01465C2.2188 0.999267 2.47465 1 2.77832 1H5.66699Z" stroke="white" stroke-linecap="round" stroke-linejoin="round"/>
<path d="M5.66699 1C6.59258 1 7.31411 0.999245 7.89258 1.04199C8.4757 1.08511 8.95547 1.17476 9.38965 1.375C10.0633 1.6857 10.624 2.17551 11 2.78516C11.3761 2.17549 11.9371 1.68561 12.6104 1.375C13.0445 1.17477 13.5244 1.08512 14.1074 1.04199C14.6858 0.999233 15.4073 1 16.333 1H19.2217C19.5251 1 19.7803 0.9993 19.9883 1.01465C20.2008 1.03036 20.4061 1.06471 20.6025 1.15527C20.9007 1.2928 21.153 1.51704 21.3145 1.80371C21.4236 1.99754 21.4641 2.20068 21.4824 2.40332C21.5 2.59842 21.5 2.83554 21.5 3.10742V12.875C21.5 13.147 21.5 13.3849 21.4824 13.5801C21.4641 13.7825 21.4235 13.985 21.3145 14.1787C21.153 14.4655 20.9008 14.6896 20.6025 14.8271C20.4062 14.9177 20.2016 14.952 19.9893 14.9678C19.7814 14.9832 19.5261 14.9824 19.2227 14.9824H16.0762C15.0043 14.9824 14.563 14.9867 14.1699 15.0947C13.8087 15.194 13.4756 15.3567 13.1885 15.5703C12.8798 15.7999 12.6383 16.1191 12.042 16.9287L11.4023 17.7969C11.3081 17.9246 11.1588 18 11 18C10.8412 18 10.6919 17.9246 10.5977 17.7969L9.95801 16.9287L9.95703 16.9268C9.36157 16.1183 9.11983 15.7997 8.81152 15.5703C8.52435 15.3567 8.19127 15.194 7.83008 15.0947C7.43696 14.9867 6.99573 14.9824 5.92383 14.9824H2.77832C2.47464 14.9824 2.2188 14.9832 2.01074 14.9678C1.79839 14.952 1.5938 14.9177 1.39746 14.8271C1.0989 14.6895 0.846835 14.4652 0.685547 14.1787C0.576415 13.9848 0.535884 13.7819 0.517578 13.5791C0.499953 13.3838 0.5 13.1464 0.5 12.874V3.10938C0.5 2.83685 0.499941 2.5987 0.517578 2.40332C0.535906 2.20057 0.576423 1.99756 0.685547 1.80371C0.84681 1.51733 1.09891 1.29296 1.39746 1.15527C1.59377 1.06481 1.79844 1.03036 2.01074 1.01465C2.2188 0.999267 2.47465 1 2.77832 1H5.66699Z" stroke="#0D69A4" stroke-linecap="round" stroke-linejoin="round"/>
<path d="M5.66699 1C6.59258 1 7.31411 0.999245 7.89258 1.04199C8.4757 1.08511 8.95547 1.17476 9.38965 1.375C10.0633 1.6857 10.624 2.17551 11 2.78516C11.3761 2.17549 11.9371 1.68561 12.6104 1.375C13.0445 1.17477 13.5244 1.08512 14.1074 1.04199C14.6858 0.999233 15.4073 1 16.333 1H19.2217C19.5251 1 19.7803 0.9993 19.9883 1.01465C20.2008 1.03036 20.4061 1.06471 20.6025 1.15527C20.9007 1.2928 21.153 1.51704 21.3145 1.80371C21.4236 1.99754 21.4641 2.20068 21.4824 2.40332C21.5 2.59842 21.5 2.83554 21.5 3.10742V12.875C21.5 13.147 21.5 13.3849 21.4824 13.5801C21.4641 13.7825 21.4235 13.985 21.3145 14.1787C21.153 14.4655 20.9008 14.6896 20.6025 14.8271C20.4062 14.9177 20.2016 14.952 19.9893 14.9678C19.7814 14.9832 19.5261 14.9824 19.2227 14.9824H16.0762C15.0043 14.9824 14.563 14.9867 14.1699 15.0947C13.8087 15.194 13.4756 15.3567 13.1885 15.5703C12.8798 15.7999 12.6383 16.1191 12.042 16.9287L11.4023 17.7969C11.3081 17.9246 11.1588 18 11 18C10.8412 18 10.6919 17.9246 10.5977 17.7969L9.95801 16.9287L9.95703 16.9268C9.36157 16.1183 9.11983 15.7997 8.81152 15.5703C8.52435 15.3567 8.19127 15.194 7.83008 15.0947C7.43696 14.9867 6.99573 14.9824 5.92383 14.9824H2.77832C2.47464 14.9824 2.2188 14.9832 2.01074 14.9678C1.79839 14.952 1.5938 14.9177 1.39746 14.8271C1.0989 14.6895 0.846835 14.4652 0.685547 14.1787C0.576415 13.9848 0.535884 13.7819 0.517578 13.5791C0.499953 13.3838 0.5 13.1464 0.5 12.874V3.10938C0.5 2.83685 0.499941 2.5987 0.517578 2.40332C0.535906 2.20057 0.576423 1.99756 0.685547 1.80371C0.84681 1.51733 1.09891 1.29296 1.39746 1.15527C1.59377 1.06481 1.79844 1.03036 2.01074 1.01465C2.2188 0.999267 2.47465 1 2.77832 1H5.66699Z" stroke="#0C72B3" stroke-linecap="round" stroke-linejoin="round"/>
<path d="M14 3.50002C14 2.94773 14.4477 2.5 15 2.5H19C19.5523 2.5 20 2.9477 20 3.49998L20.0001 8.692C20.0002 9.2511 19.377 9.58458 18.9119 9.27445L17.0002 8L15.0884 9.27449C14.6233 9.58462 14.0002 9.25115 14.0001 8.69207L14 3.50002Z" fill="#FFB200"/>
<path d="M14 3.50002C14 2.94773 14.4477 2.5 15 2.5H19C19.5523 2.5 20 2.9477 20 3.49998L20.0001 8.692C20.0002 9.2511 19.377 9.58458 18.9119 9.27445L17.0002 8L15.0884 9.27449C14.6233 9.58462 14.0002 9.25115 14.0001 8.69207L14 3.50002Z" fill="#FFD852"/>
</svg>
