<svg width="24" height="25" viewBox="0 0 24 25" fill="none" xmlns="http://www.w3.org/2000/svg">
<g filter="url(#filter0_d_432_18161)">
<path d="M9.3 20.5H14.7C19.2 20.5 21 18.7 21 14.2V8.8C21 4.3 19.2 2.5 14.7 2.5H9.3C4.8 2.5 3 4.3 3 8.8V14.2C3 18.7 4.8 20.5 9.3 20.5Z" fill="white"/>
<path d="M9.3 20.5H14.7C19.2 20.5 21 18.7 21 14.2V8.8C21 4.3 19.2 2.5 14.7 2.5H9.3C4.8 2.5 3 4.3 3 8.8V14.2C3 18.7 4.8 20.5 9.3 20.5Z" fill="url(#paint0_linear_432_18161)" fill-opacity="0.3"/>
<path d="M9.2998 2.75H14.7002C16.9254 2.75003 18.4177 3.197 19.3604 4.13965C20.303 5.0823 20.75 6.57457 20.75 8.7998V14.2002C20.75 16.4254 20.303 17.9177 19.3604 18.8604C18.4177 19.803 16.9254 20.25 14.7002 20.25H9.2998C7.07457 20.25 5.5823 19.803 4.63965 18.8604C3.697 17.9177 3.25003 16.4254 3.25 14.2002V8.7998C3.25003 6.57457 3.697 5.0823 4.63965 4.13965C5.5823 3.197 7.07457 2.75003 9.2998 2.75Z" stroke="white" stroke-opacity="0.3" stroke-width="0.5" stroke-miterlimit="10" stroke-linecap="round" stroke-linejoin="round"/>
</g>
<defs>
<filter id="filter0_d_432_18161" x="0" y="0.5" width="24" height="24" filterUnits="userSpaceOnUse" color-interpolation-filters="sRGB">
<feFlood flood-opacity="0" result="BackgroundImageFix"/>
<feColorMatrix in="SourceAlpha" type="matrix" values="0 0 0 0 0 0 0 0 0 0 0 0 0 0 0 0 0 0 127 0" result="hardAlpha"/>
<feOffset dy="1"/>
<feGaussianBlur stdDeviation="1.5"/>
<feComposite in2="hardAlpha" operator="out"/>
<feColorMatrix type="matrix" values="0 0 0 0 0 0 0 0 0 0 0 0 0 0 0 0 0 0 0.2 0"/>
<feBlend mode="normal" in2="BackgroundImageFix" result="effect1_dropShadow_432_18161"/>
<feBlend mode="normal" in="SourceGraphic" in2="effect1_dropShadow_432_18161" result="shape"/>
</filter>
<linearGradient id="paint0_linear_432_18161" x1="12" y1="2.5" x2="12" y2="20.5" gradientUnits="userSpaceOnUse">
<stop stop-color="#5D76A9" stop-opacity="0"/>
<stop offset="1" stop-color="#5D76A9"/>
</linearGradient>
</defs>
</svg>
