<svg width="78" height="79" viewBox="0 0 78 79" fill="none" xmlns="http://www.w3.org/2000/svg">
<g clip-path="url(#clip0_335_11310)">
<g filter="url(#filter0_di_335_11310)">
<mask id="path-1-inside-1_335_11310" fill="white">
<path d="M64.8069 13.0392C67.15 15.3823 67.15 19.1813 64.8069 21.5245L47.663 38.6684L64.8159 55.8212C67.1587 58.1644 67.1589 61.9635 64.8159 64.3065C62.4728 66.6492 58.6737 66.6492 56.3306 64.3065L39.1777 47.1537L22.0249 64.3065C19.6817 66.6495 15.8827 66.6496 13.5396 64.3065C11.1968 61.9634 11.1967 58.1643 13.5396 55.8212L30.6925 38.6684L13.5486 21.5245C11.2056 19.1814 11.2058 15.3823 13.5486 13.0392C15.8917 10.6961 19.6907 10.6961 22.0338 13.0392L39.1777 30.1831L56.3216 13.0392C58.6647 10.6962 62.4637 10.6964 64.8069 13.0392Z"/>
</mask>
<path d="M64.8069 13.0392C67.15 15.3823 67.15 19.1813 64.8069 21.5245L47.663 38.6684L64.8159 55.8212C67.1587 58.1644 67.1589 61.9635 64.8159 64.3065C62.4728 66.6492 58.6737 66.6492 56.3306 64.3065L39.1777 47.1537L22.0249 64.3065C19.6817 66.6495 15.8827 66.6496 13.5396 64.3065C11.1968 61.9634 11.1967 58.1643 13.5396 55.8212L30.6925 38.6684L13.5486 21.5245C11.2056 19.1814 11.2058 15.3823 13.5486 13.0392C15.8917 10.6961 19.6907 10.6961 22.0338 13.0392L39.1777 30.1831L56.3216 13.0392C58.6647 10.6962 62.4637 10.6964 64.8069 13.0392Z" fill="#FF7777"/>
<path d="M64.8069 13.0392C67.15 15.3823 67.15 19.1813 64.8069 21.5245L47.663 38.6684L64.8159 55.8212C67.1587 58.1644 67.1589 61.9635 64.8159 64.3065C62.4728 66.6492 58.6737 66.6492 56.3306 64.3065L39.1777 47.1537L22.0249 64.3065C19.6817 66.6495 15.8827 66.6496 13.5396 64.3065C11.1968 61.9634 11.1967 58.1643 13.5396 55.8212L30.6925 38.6684L13.5486 21.5245C11.2056 19.1814 11.2058 15.3823 13.5486 13.0392C15.8917 10.6961 19.6907 10.6961 22.0338 13.0392L39.1777 30.1831L56.3216 13.0392C58.6647 10.6962 62.4637 10.6964 64.8069 13.0392Z" fill="url(#paint0_linear_335_11310)" fill-opacity="0.1" style="mix-blend-mode:plus-darker"/>
<path d="M64.8069 13.0392L65.514 12.3321L65.514 12.332L64.8069 13.0392ZM47.663 38.6684L46.9559 37.9613L46.2488 38.6684L46.9559 39.3755L47.663 38.6684ZM64.8159 55.8212L65.523 55.1142L65.523 55.1141L64.8159 55.8212ZM64.8159 64.3065L65.5229 65.0137L65.523 65.0136L64.8159 64.3065ZM56.3306 64.3065L55.6235 65.0136L55.6235 65.0137L56.3306 64.3065ZM39.1777 47.1537L39.8848 46.4465L39.1777 45.7394L38.4706 46.4465L39.1777 47.1537ZM22.0249 64.3065L22.7319 65.0137L22.732 65.0136L22.0249 64.3065ZM13.5396 64.3065L12.8324 65.0136L12.8325 65.0136L13.5396 64.3065ZM13.5396 55.8212L12.8325 55.1141L12.8325 55.1142L13.5396 55.8212ZM30.6925 38.6684L31.3996 39.3755L32.1067 38.6684L31.3996 37.9613L30.6925 38.6684ZM13.5486 21.5245L12.8414 22.2316L12.8415 22.2316L13.5486 21.5245ZM13.5486 13.0392L12.8415 12.3321L12.8414 12.3321L13.5486 13.0392ZM22.0338 13.0392L22.741 12.3321L22.7409 12.3321L22.0338 13.0392ZM39.1777 30.1831L38.4706 30.8902L39.1777 31.5973L39.8848 30.8902L39.1777 30.1831ZM64.8069 13.0392L64.0998 13.7463C66.0524 15.6989 66.0524 18.8648 64.0998 20.8174L64.8069 21.5245L65.514 22.2316C68.2477 19.4979 68.2477 15.0658 65.514 12.3321L64.8069 13.0392ZM64.8069 21.5245L64.0998 20.8174L46.9559 37.9613L47.663 38.6684L48.3701 39.3755L65.514 22.2316L64.8069 21.5245ZM47.663 38.6684L46.9559 39.3755L64.1088 56.5283L64.8159 55.8212L65.523 55.1141L48.3701 37.9613L47.663 38.6684ZM64.8159 55.8212L64.1087 56.5283C66.0611 58.481 66.0612 61.647 64.1088 63.5994L64.8159 64.3065L65.523 65.0136C68.2566 62.28 68.2562 57.8478 65.523 55.1142L64.8159 55.8212ZM64.8159 64.3065L64.1088 63.5994C62.1563 65.5516 58.9902 65.5516 57.0377 63.5994L56.3306 64.3065L55.6235 65.0137C58.3571 67.7468 62.7894 67.7468 65.5229 65.0137L64.8159 64.3065ZM56.3306 64.3065L57.0377 63.5994L39.8848 46.4465L39.1777 47.1537L38.4706 47.8608L55.6235 65.0136L56.3306 64.3065ZM39.1777 47.1537L38.4706 46.4465L21.3178 63.5994L22.0249 64.3065L22.732 65.0136L39.8848 47.8608L39.1777 47.1537ZM22.0249 64.3065L21.3178 63.5994C19.3651 65.5519 16.1992 65.5519 14.2467 63.5994L13.5396 64.3065L12.8325 65.0136C15.5661 67.7473 19.9983 67.7471 22.7319 65.0137L22.0249 64.3065ZM13.5396 64.3065L14.2467 63.5995C12.2944 61.6468 12.2944 58.4808 14.2467 56.5283L13.5396 55.8212L12.8325 55.1142C10.0991 57.8478 10.0992 62.28 12.8324 65.0136L13.5396 64.3065ZM13.5396 55.8212L14.2467 56.5283L31.3996 39.3755L30.6925 38.6684L29.9853 37.9613L12.8325 55.1141L13.5396 55.8212ZM30.6925 38.6684L31.3996 37.9613L14.2557 20.8174L13.5486 21.5245L12.8415 22.2316L29.9853 39.3755L30.6925 38.6684ZM13.5486 21.5245L14.2557 20.8174C12.3033 18.8649 12.3033 15.6989 14.2557 13.7463L13.5486 13.0392L12.8414 12.3321C10.1082 15.0658 10.1079 19.498 12.8414 22.2316L13.5486 21.5245ZM13.5486 13.0392L14.2557 13.7463C16.2083 11.7937 19.3741 11.7938 21.3268 13.7463L22.0338 13.0392L22.7409 12.3321C20.0073 9.59852 15.5751 9.59844 12.8415 12.3321L13.5486 13.0392ZM22.0338 13.0392L21.3267 13.7463L38.4706 30.8902L39.1777 30.1831L39.8848 29.476L22.741 12.3321L22.0338 13.0392ZM39.1777 30.1831L39.8848 30.8902L57.0287 13.7463L56.3216 13.0392L55.6145 12.3321L38.4706 29.476L39.1777 30.1831ZM56.3216 13.0392L57.0287 13.7463C58.9812 11.7938 62.1471 11.7939 64.0998 13.7464L64.8069 13.0392L65.514 12.332C62.7803 9.59879 58.3481 9.59848 55.6145 12.3321L56.3216 13.0392Z" fill="url(#paint1_linear_335_11310)" mask="url(#path-1-inside-1_335_11310)"/>
<path d="M64.8069 13.0392L65.514 12.3321L65.514 12.332L64.8069 13.0392ZM47.663 38.6684L46.9559 37.9613L46.2488 38.6684L46.9559 39.3755L47.663 38.6684ZM64.8159 55.8212L65.523 55.1142L65.523 55.1141L64.8159 55.8212ZM64.8159 64.3065L65.5229 65.0137L65.523 65.0136L64.8159 64.3065ZM56.3306 64.3065L55.6235 65.0136L55.6235 65.0137L56.3306 64.3065ZM39.1777 47.1537L39.8848 46.4465L39.1777 45.7394L38.4706 46.4465L39.1777 47.1537ZM22.0249 64.3065L22.7319 65.0137L22.732 65.0136L22.0249 64.3065ZM13.5396 64.3065L12.8324 65.0136L12.8325 65.0136L13.5396 64.3065ZM13.5396 55.8212L12.8325 55.1141L12.8325 55.1142L13.5396 55.8212ZM30.6925 38.6684L31.3996 39.3755L32.1067 38.6684L31.3996 37.9613L30.6925 38.6684ZM13.5486 21.5245L12.8414 22.2316L12.8415 22.2316L13.5486 21.5245ZM13.5486 13.0392L12.8415 12.3321L12.8414 12.3321L13.5486 13.0392ZM22.0338 13.0392L22.741 12.3321L22.7409 12.3321L22.0338 13.0392ZM39.1777 30.1831L38.4706 30.8902L39.1777 31.5973L39.8848 30.8902L39.1777 30.1831ZM64.8069 13.0392L64.0998 13.7463C66.0524 15.6989 66.0524 18.8648 64.0998 20.8174L64.8069 21.5245L65.514 22.2316C68.2477 19.4979 68.2477 15.0658 65.514 12.3321L64.8069 13.0392ZM64.8069 21.5245L64.0998 20.8174L46.9559 37.9613L47.663 38.6684L48.3701 39.3755L65.514 22.2316L64.8069 21.5245ZM47.663 38.6684L46.9559 39.3755L64.1088 56.5283L64.8159 55.8212L65.523 55.1141L48.3701 37.9613L47.663 38.6684ZM64.8159 55.8212L64.1087 56.5283C66.0611 58.481 66.0612 61.647 64.1088 63.5994L64.8159 64.3065L65.523 65.0136C68.2566 62.28 68.2562 57.8478 65.523 55.1142L64.8159 55.8212ZM64.8159 64.3065L64.1088 63.5994C62.1563 65.5516 58.9902 65.5516 57.0377 63.5994L56.3306 64.3065L55.6235 65.0137C58.3571 67.7468 62.7894 67.7468 65.5229 65.0137L64.8159 64.3065ZM56.3306 64.3065L57.0377 63.5994L39.8848 46.4465L39.1777 47.1537L38.4706 47.8608L55.6235 65.0136L56.3306 64.3065ZM39.1777 47.1537L38.4706 46.4465L21.3178 63.5994L22.0249 64.3065L22.732 65.0136L39.8848 47.8608L39.1777 47.1537ZM22.0249 64.3065L21.3178 63.5994C19.3651 65.5519 16.1992 65.5519 14.2467 63.5994L13.5396 64.3065L12.8325 65.0136C15.5661 67.7473 19.9983 67.7471 22.7319 65.0137L22.0249 64.3065ZM13.5396 64.3065L14.2467 63.5995C12.2944 61.6468 12.2944 58.4808 14.2467 56.5283L13.5396 55.8212L12.8325 55.1142C10.0991 57.8478 10.0992 62.28 12.8324 65.0136L13.5396 64.3065ZM13.5396 55.8212L14.2467 56.5283L31.3996 39.3755L30.6925 38.6684L29.9853 37.9613L12.8325 55.1141L13.5396 55.8212ZM30.6925 38.6684L31.3996 37.9613L14.2557 20.8174L13.5486 21.5245L12.8415 22.2316L29.9853 39.3755L30.6925 38.6684ZM13.5486 21.5245L14.2557 20.8174C12.3033 18.8649 12.3033 15.6989 14.2557 13.7463L13.5486 13.0392L12.8414 12.3321C10.1082 15.0658 10.1079 19.498 12.8414 22.2316L13.5486 21.5245ZM13.5486 13.0392L14.2557 13.7463C16.2083 11.7937 19.3741 11.7938 21.3268 13.7463L22.0338 13.0392L22.7409 12.3321C20.0073 9.59852 15.5751 9.59844 12.8415 12.3321L13.5486 13.0392ZM22.0338 13.0392L21.3267 13.7463L38.4706 30.8902L39.1777 30.1831L39.8848 29.476L22.741 12.3321L22.0338 13.0392ZM39.1777 30.1831L39.8848 30.8902L57.0287 13.7463L56.3216 13.0392L55.6145 12.3321L38.4706 29.476L39.1777 30.1831ZM56.3216 13.0392L57.0287 13.7463C58.9812 11.7938 62.1471 11.7939 64.0998 13.7464L64.8069 13.0392L65.514 12.332C62.7803 9.59879 58.3481 9.59848 55.6145 12.3321L56.3216 13.0392Z" fill="url(#paint2_linear_335_11310)" fill-opacity="0.2" style="mix-blend-mode:plus-darker" mask="url(#path-1-inside-1_335_11310)"/>
</g>
</g>
<defs>
<filter id="filter0_di_335_11310" x="11.7827" y="11.2819" width="56.7905" height="56.7819" filterUnits="userSpaceOnUse" color-interpolation-filters="sRGB">
<feFlood flood-opacity="0" result="BackgroundImageFix"/>
<feColorMatrix in="SourceAlpha" type="matrix" values="0 0 0 0 0 0 0 0 0 0 0 0 0 0 0 0 0 0 127 0" result="hardAlpha"/>
<feOffset dx="1" dy="2"/>
<feComposite in2="hardAlpha" operator="out"/>
<feColorMatrix type="matrix" values="0 0 0 0 0.784314 0 0 0 0 0.305882 0 0 0 0 0.290196 0 0 0 1 0"/>
<feBlend mode="normal" in2="BackgroundImageFix" result="effect1_dropShadow_335_11310"/>
<feBlend mode="normal" in="SourceGraphic" in2="effect1_dropShadow_335_11310" result="shape"/>
<feColorMatrix in="SourceAlpha" type="matrix" values="0 0 0 0 0 0 0 0 0 0 0 0 0 0 0 0 0 0 127 0" result="hardAlpha"/>
<feOffset dx="2" dy="4"/>
<feGaussianBlur stdDeviation="1"/>
<feComposite in2="hardAlpha" operator="arithmetic" k2="-1" k3="1"/>
<feColorMatrix type="matrix" values="0 0 0 0 1 0 0 0 0 1 0 0 0 0 1 0 0 0 0.4 0"/>
<feBlend mode="plus-lighter" in2="shape" result="effect2_innerShadow_335_11310"/>
</filter>
<linearGradient id="paint0_linear_335_11310" x1="49.53" y1="2.27984" x2="13.8037" y2="64.4602" gradientUnits="userSpaceOnUse">
<stop stop-opacity="0"/>
<stop offset="1"/>
</linearGradient>
<linearGradient id="paint1_linear_335_11310" x1="25.58" y1="10.6308" x2="67.2317" y2="65.9127" gradientUnits="userSpaceOnUse">
<stop stop-color="#FF7777"/>
<stop offset="1" stop-color="#FA807C"/>
</linearGradient>
<linearGradient id="paint2_linear_335_11310" x1="27.2535" y1="9.37567" x2="51.9754" y2="68.2659" gradientUnits="userSpaceOnUse">
<stop stop-color="white" stop-opacity="0.2"/>
<stop offset="1"/>
</linearGradient>
<clipPath id="clip0_335_11310">
<rect width="78" height="78" fill="white" transform="translate(0 0.5)"/>
</clipPath>
</defs>
</svg>
