<svg width="60" height="61" viewBox="0 0 60 61" fill="none" xmlns="http://www.w3.org/2000/svg">
<g filter="url(#filter0_i_385_43169)">
<path d="M0 30.5C0 13.9315 13.4315 0.5 30 0.5H32C47.464 0.5 60 13.036 60 28.5V30.5C60 47.0685 46.5685 60.5 30 60.5C13.4315 60.5 0 47.0685 0 30.5Z" fill="#D7DBDF"/>
<path d="M0 30.5C0 13.9315 13.4315 0.5 30 0.5H32C47.464 0.5 60 13.036 60 28.5V30.5C60 47.0685 46.5685 60.5 30 60.5C13.4315 60.5 0 47.0685 0 30.5Z" fill="url(#paint0_linear_385_43169)" fill-opacity="0.15" style="mix-blend-mode:plus-lighter"/>
</g>
<path d="M30 1.5H32C46.9117 1.5 59 13.5883 59 28.5V30.5C59 46.5163 46.0163 59.5 30 59.5C13.9837 59.5 1 46.5163 1 30.5C1 14.4837 13.9837 1.5 30 1.5Z" stroke="black" stroke-opacity="0.03" stroke-width="2"/>
<path d="M42.8322 17.3312C44.0033 18.5027 44.0033 20.4024 42.8322 21.5739L34.2433 30.1627L42.8356 38.755C44.0072 39.9266 44.0072 41.8261 42.8356 42.9977C41.664 44.1689 39.7645 44.1691 38.593 42.9977L30.0007 34.4054L21.4077 42.9984C20.2362 44.1698 18.3366 44.1696 17.165 42.9984C15.9935 41.8268 15.9935 39.9273 17.165 38.7557L25.758 30.1627L17.1685 21.5732C15.9974 20.4017 15.9974 18.502 17.1685 17.3305C18.34 16.1591 20.2395 16.1593 21.4111 17.3305L30.0007 25.9201L38.5896 17.3312C39.7612 16.16 41.6607 16.1598 42.8322 17.3312Z" fill="#B7C1CA"/>
<defs>
<filter id="filter0_i_385_43169" x="0" y="-0.5" width="60" height="61" filterUnits="userSpaceOnUse" color-interpolation-filters="sRGB">
<feFlood flood-opacity="0" result="BackgroundImageFix"/>
<feBlend mode="normal" in="SourceGraphic" in2="BackgroundImageFix" result="shape"/>
<feColorMatrix in="SourceAlpha" type="matrix" values="0 0 0 0 0 0 0 0 0 0 0 0 0 0 0 0 0 0 127 0" result="hardAlpha"/>
<feOffset dy="-4"/>
<feGaussianBlur stdDeviation="0.5"/>
<feComposite in2="hardAlpha" operator="arithmetic" k2="-1" k3="1"/>
<feColorMatrix type="matrix" values="0 0 0 0 0 0 0 0 0 0 0 0 0 0 0 0 0 0 0.03 0"/>
<feBlend mode="plus-darker" in2="shape" result="effect1_innerShadow_385_43169"/>
</filter>
<linearGradient id="paint0_linear_385_43169" x1="30" y1="60.5" x2="30" y2="0.5" gradientUnits="userSpaceOnUse">
<stop stop-color="white" stop-opacity="0"/>
<stop offset="1" stop-color="white"/>
</linearGradient>
</defs>
</svg>
