<svg width="43" height="44" viewBox="0 0 43 44" fill="none" xmlns="http://www.w3.org/2000/svg">
<path d="M21.5 0.5C24.1385 0.500006 26.2771 2.63885 26.2773 5.27734C26.2773 8.21262 24.5783 10.9271 23.4912 14.833C22.9421 16.8062 22.9177 19.0694 22.9805 20.5156C24.4265 20.5786 26.692 20.5565 28.667 20.0068C32.573 18.9198 35.2873 17.2197 38.2227 17.2197C40.8611 17.22 42.9999 19.3586 43 21.9971C43 24.6356 40.8611 26.7752 38.2227 26.7754C35.2874 26.7754 32.573 25.0753 28.667 23.9883C26.4305 23.3659 24.325 23.3424 22.9824 23.4258C22.9165 24.8689 22.9346 27.167 23.4912 29.167C24.5783 33.0729 26.2773 35.7874 26.2773 38.7227C26.2771 41.3611 24.1385 43.5 21.5 43.5C18.8615 43.5 16.7229 41.3611 16.7227 38.7227C16.7227 35.7874 18.4217 33.073 19.5088 29.167C20.1396 26.9004 20.1538 24.7684 20.0664 23.4287C18.7264 23.3417 16.5968 23.3583 14.333 23.9883C10.427 25.0753 7.71264 26.7754 4.77734 26.7754C2.13885 26.7752 1.15335e-07 24.6356 0 21.9971C0.00014238 19.3586 2.13894 17.22 4.77734 17.2197C7.71267 17.2197 10.427 18.9198 14.333 20.0068C16.3313 20.5629 18.627 20.5794 20.0703 20.5137C20.1534 19.1709 20.1306 17.0674 19.5088 14.833C18.4217 10.927 16.7227 8.21262 16.7227 5.27734C16.7229 2.63885 18.8615 0.5 21.5 0.5Z" fill="#7C007C"/>
</svg>
