<svg width="42" height="58" viewBox="0 0 42 58" fill="none" xmlns="http://www.w3.org/2000/svg">
<path d="M39.6813 23.3386C40.3268 22.5679 40.9947 21.7706 40.9947 20.7836C40.9947 19.7965 40.3268 19.0005 39.6813 18.2298C39.247 17.7103 38.7969 17.1747 38.69 16.6979C38.5765 16.1903 38.7547 15.4891 38.9276 14.812C39.1718 13.8517 39.4252 12.858 39.0174 12.0018C38.6016 11.1297 37.6657 10.7076 36.7615 10.3003C36.1384 10.0198 35.4943 9.72994 35.1841 9.33593C34.8699 8.93792 34.7326 8.23404 34.5993 7.55421C34.4079 6.5752 34.2086 5.5628 33.4668 4.9631C32.7276 4.36608 31.7112 4.39413 30.7278 4.42218C30.04 4.44087 29.3286 4.46091 28.8718 4.23786C28.4296 4.02149 28.0099 3.45518 27.6033 2.90624C27.0067 2.10086 26.3889 1.26743 25.4477 1.05106C24.5422 0.842706 23.6473 1.31017 22.7827 1.76295C22.1623 2.08751 21.5221 2.42275 20.998 2.42275C20.474 2.42275 19.8338 2.08751 19.2134 1.76295C18.3488 1.31017 17.4538 0.842706 16.5483 1.05106C15.6071 1.26743 14.9894 2.09953 14.3927 2.90624C13.9862 3.45518 13.5664 4.02149 13.1242 4.23786C12.6662 4.46091 11.956 4.44087 11.2683 4.42218C10.2849 4.39413 9.26717 4.36608 8.52797 4.9631C7.78481 5.56413 7.58681 6.5752 7.39541 7.55421C7.26209 8.23404 7.12481 8.93792 6.81065 9.33593C6.50045 9.72994 5.85628 10.0198 5.23324 10.3003C4.32904 10.7076 3.39316 11.1297 2.97736 12.0018C2.56816 12.858 2.8216 13.8517 3.06712 14.812C3.24004 15.4891 3.41824 16.1903 3.30472 16.6979C3.1978 17.1747 2.74768 17.7116 2.3134 18.2298C1.66792 19.0005 1 19.7979 1 20.7836C1 21.7692 1.66792 22.5679 2.3134 23.3386C2.74768 23.8582 3.1978 24.3937 3.30472 24.8719C3.41824 25.3794 3.24004 26.0806 3.06712 26.7578C2.82292 27.7181 2.56948 28.7118 2.97736 29.5666C3.39316 30.4388 4.32904 30.8608 5.23324 31.2682C5.85628 31.5487 6.50045 31.8385 6.81065 32.2325C7.12481 32.6305 7.26209 33.3344 7.39541 34.0142C7.58681 34.9932 7.78481 36.0056 8.52797 36.6053C9.12065 37.0848 9.91793 37.1596 10.6901 37.1583V56.4514C10.6901 56.6544 10.7997 56.84 10.9766 56.9349C11.1535 57.031 11.3673 57.0203 11.5336 56.9081L20.9993 50.5225L30.4651 56.9081C30.5562 56.9696 30.6604 57.0003 30.766 57.0003C30.8531 57.0003 30.9416 56.9789 31.0221 56.9349C31.199 56.8387 31.3085 56.653 31.3085 56.4514V37.1583C32.0794 37.1596 32.8754 37.0848 33.4694 36.6053C34.2126 36.0056 34.4106 34.9932 34.6033 34.0142C34.7366 33.3344 34.8752 32.6305 35.1894 32.2325C35.4996 31.8398 36.1437 31.5487 36.7668 31.2682C37.6723 30.8608 38.6068 30.4388 39.0226 29.5666C39.4305 28.7105 39.1771 27.7181 38.9329 26.7578C38.76 26.0806 38.5818 25.3794 38.6953 24.8719C38.8022 24.3951 39.2523 23.8582 39.6866 23.3386H39.6813ZM11.7712 37.1369C12.286 37.1329 12.7757 37.1636 13.1203 37.3306C13.5625 37.547 13.9822 38.1133 14.3888 38.6622C14.9854 39.4676 15.6032 40.301 16.5443 40.5174C16.6975 40.5521 16.8493 40.5681 17.0011 40.5681C17.7508 40.5681 18.49 40.1808 19.2094 39.8042C19.6279 39.5851 20.0542 39.3621 20.4515 39.2392V49.5676L11.7699 55.4243V37.1343L11.7712 37.1369ZM21.5379 49.5702V39.2405C21.9339 39.3634 22.3616 39.5865 22.78 39.8055C23.6446 40.2583 24.5396 40.7271 25.4451 40.5174C26.3863 40.301 27.004 39.4676 27.6007 38.6622C28.0072 38.1133 28.427 37.547 28.8692 37.3306C29.215 37.1623 29.7047 37.1329 30.2195 37.1356V55.4256L21.5379 49.5689V49.5702ZM37.6314 24.6288C37.4598 25.3955 37.671 26.2276 37.8769 27.0316C38.0815 27.8356 38.2755 28.5956 38.0406 29.0898C37.7977 29.6 37.0466 29.9379 36.3206 30.2651C35.5788 30.5991 34.8118 30.945 34.3366 31.5473C33.8575 32.1537 33.6938 32.9912 33.5354 33.8005C33.381 34.5859 33.2226 35.3979 32.7896 35.7479C32.3619 36.0938 31.5567 36.0724 30.7792 36.0511H30.7634C29.9437 36.027 29.0962 36.003 28.3993 36.3422C27.7195 36.6748 27.2192 37.3506 26.7347 38.0037C26.2556 38.6502 25.7593 39.3193 25.2062 39.4476C24.6874 39.5664 24.0037 39.2098 23.2803 38.8305C22.549 38.4485 21.7927 38.0518 21.0099 38.0478H20.9967C20.2087 38.0478 19.4483 38.4458 18.7131 38.8305C17.9897 39.2098 17.306 39.5664 16.7872 39.4476C16.2341 39.3207 15.7378 38.6515 15.2587 38.0037C14.7742 37.3506 14.2739 36.6748 13.5928 36.3422C13.0741 36.0898 12.4721 36.039 11.8597 36.039C11.6498 36.039 11.4386 36.0444 11.23 36.0511H11.2155C10.4367 36.0724 9.63149 36.0938 9.20249 35.7479C8.76953 35.3993 8.61113 34.5872 8.45801 33.8019C8.29961 32.9925 8.13593 32.1551 7.65677 31.5487C7.18157 30.9463 6.41465 30.6004 5.6728 30.2665C4.9468 29.9393 4.19572 29.6013 3.95284 29.0911C3.71656 28.597 3.9106 27.8383 4.1152 27.0343C4.3198 26.2302 4.53232 25.3981 4.3594 24.6315C4.19308 23.8929 3.65716 23.2518 3.1384 22.6321C2.61964 22.0123 2.0824 21.3712 2.0824 20.7876C2.0824 20.2039 2.61964 19.5628 3.1384 18.9431C3.65716 18.3233 4.1944 17.6822 4.3594 16.9436C4.53232 16.1757 4.3198 15.3449 4.1152 14.5409C3.9106 13.7368 3.71656 12.9768 3.95284 12.4813C4.19572 11.9711 4.9468 11.6332 5.6728 11.306C6.41465 10.9721 7.18157 10.6261 7.65677 10.0238C8.13593 9.41741 8.29961 8.57997 8.45801 7.77058C8.61113 6.98524 8.77085 6.17318 9.20249 5.82324C9.63149 5.47598 10.4472 5.50002 11.2366 5.52139C12.0537 5.5441 12.8985 5.56814 13.5941 5.22889C14.2739 4.89632 14.7755 4.2205 15.26 3.56738C15.7391 2.92094 16.2355 2.25179 16.7885 2.1249C17.3073 2.00603 17.9911 2.36265 18.7157 2.74196C19.451 3.12662 20.2113 3.5233 20.9993 3.5233C21.7874 3.5233 22.5477 3.12529 23.2829 2.74196C24.0063 2.36398 24.6901 2.00603 25.2101 2.1249C25.7632 2.25179 26.2582 2.92094 26.7374 3.56738C27.2218 4.2205 27.7221 4.89632 28.4032 5.22889C29.0989 5.56814 29.9437 5.5441 30.7608 5.52139C31.5488 5.50002 32.3646 5.47598 32.7936 5.82324C33.2265 6.17318 33.3862 6.98524 33.5394 7.77058C33.6978 8.57997 33.8628 9.41741 34.3406 10.0238C34.8158 10.6261 35.5827 10.9721 36.3246 11.306C37.0506 11.6332 37.8016 11.9711 38.0445 12.4813C38.2795 12.9755 38.0868 13.7355 37.8808 14.5409C37.6762 15.3449 37.4637 16.1757 37.6353 16.9436C37.8016 17.6822 38.3376 18.3233 38.8563 18.9431C39.3751 19.5628 39.9123 20.2039 39.9123 20.7876C39.9123 21.3712 39.3751 22.0123 38.8563 22.6321C38.3376 23.2518 37.8003 23.8929 37.6353 24.6315L37.6314 24.6288Z" fill="black" stroke="black" stroke-width="0.4"/>
<path d="M20.9949 8.6875C14.1138 8.6875 8.51562 14.3519 8.51562 21.3145C8.51562 28.2771 14.1138 33.9415 20.9949 33.9415C27.8761 33.9415 33.4742 28.2771 33.4742 21.3145C33.4742 14.3519 27.8761 8.6875 20.9949 8.6875ZM20.9949 32.8449C14.7117 32.8449 9.60067 27.6734 9.60067 21.3158C9.60067 14.9583 14.7117 9.78672 20.9949 9.78672C27.2781 9.78672 32.3892 14.9583 32.3892 21.3158C32.3892 27.6734 27.2781 32.8449 20.9949 32.8449Z" fill="black" stroke="black" stroke-width="0.4"/>
<path d="M27.9972 18.4938L23.4946 17.8314L21.4816 13.7043C21.3906 13.5173 21.2018 13.3984 20.9946 13.3984C20.7886 13.3984 20.5999 13.5173 20.5075 13.7043L18.4932 17.8314L13.9919 18.4938C13.7873 18.5246 13.6184 18.6688 13.5537 18.8678C13.4903 19.0668 13.5431 19.2845 13.691 19.4301L16.9488 22.6423L16.1792 27.1794C16.1449 27.3851 16.228 27.5934 16.3957 27.7163C16.5633 27.8392 16.7838 27.8552 16.9672 27.7577L20.9932 25.6154L25.0192 27.7577C25.0984 27.8005 25.1856 27.8205 25.2714 27.8205C25.3836 27.8205 25.4958 27.7844 25.5908 27.715C25.7584 27.5921 25.8416 27.3837 25.8073 27.1781L25.0377 22.6409L28.2955 19.4288C28.4433 19.2832 28.4961 19.0642 28.4328 18.8665C28.3694 18.6675 28.1991 18.5232 27.9945 18.4925L27.9972 18.4938ZM24.0781 22.0573C23.95 22.1828 23.892 22.3658 23.9223 22.5434L24.5533 26.2685L21.248 24.5095C21.1688 24.4681 21.0817 24.4467 20.9959 24.4467C20.9101 24.4467 20.823 24.4681 20.7438 24.5095L17.4385 26.2685L18.0694 22.5434C18.0998 22.3658 18.0417 22.1842 17.9137 22.0573L15.2394 19.4194L18.9354 18.8758C19.1122 18.8491 19.2654 18.7369 19.3432 18.5753L20.9972 15.1868L22.6498 18.5753C22.729 18.7369 22.8822 18.8491 23.0577 18.8758L26.755 19.4194L24.0807 22.0573H24.0781Z" fill="#DB0032" stroke="#DB0032" stroke-width="0.4"/>
</svg>
