<svg width="40" height="59" viewBox="0 0 40 59" fill="none" xmlns="http://www.w3.org/2000/svg">
<g clip-path="url(#clip0_413_13006)">
<path d="M19.9999 57.8129C22.1272 57.8129 23.8522 56.0986 23.8522 53.9844H16.1465C16.1465 56.0986 17.8715 57.8129 19.9988 57.8129H19.9999Z" fill="white" stroke="black" stroke-width="1.6" stroke-miterlimit="10"/>
<path d="M20.1866 1.18838C9.85791 1.08897 1.30419 9.41102 1.19638 19.6772C1.1408 24.9273 3.26479 29.6849 6.72473 33.1124C10.8171 37.1663 13.19 40.8126 13.19 46.5543V46.8371H26.8098V46.5532C26.8098 40.849 29.1093 37.1917 33.1973 33.1886C36.6583 29.7997 38.8045 25.0875 38.8045 19.876C38.8045 9.61648 30.4864 1.2878 20.1866 1.18838Z" stroke="black" stroke-width="1.6" stroke-miterlimit="10"/>
<path d="M33.0935 20.7919C33.0935 13.5082 27.1872 7.59413 19.875 7.52344" stroke="black" stroke-width="1.6" stroke-miterlimit="10" stroke-linecap="round"/>
<path d="M25.8473 49.4529H14.1526C12.8934 49.4529 11.873 48.4389 11.873 47.1874C11.873 45.9359 12.8934 44.9219 14.1526 44.9219H25.8473C27.1066 44.9219 28.1269 45.9359 28.1269 47.1874C28.1269 48.4389 27.1066 49.4529 25.8473 49.4529Z" fill="white" stroke="black" stroke-width="1.6" stroke-miterlimit="10"/>
<path d="M24.2056 49.4531H15.7952C14.5362 49.4531 13.5156 50.4674 13.5156 51.7187V51.7198C13.5156 52.971 14.5362 53.9853 15.7952 53.9853H24.2056C25.4645 53.9853 26.4851 52.971 26.4851 51.7198V51.7187C26.4851 50.4674 25.4645 49.4531 24.2056 49.4531Z" fill="white" stroke="black" stroke-width="1.6" stroke-miterlimit="10"/>
<path d="M22.659 44.9252L22.5345 28.0138C22.5345 26.1337 24.0683 24.6094 25.96 24.6094C27.8517 24.6094 29.3855 26.1337 29.3855 28.0138V28.5119C29.3855 30.392 27.8517 31.9163 25.96 31.9163H13.7907C11.899 31.9163 10.3652 30.392 10.3652 28.5119V28.0138C10.3652 26.1337 11.899 24.6094 13.7907 24.6094C15.6824 24.6094 17.2162 26.1337 17.2162 28.0138L17.3407 44.9252" stroke="#DB0032" stroke-width="1.6" stroke-miterlimit="10"/>
</g>
<defs>
<clipPath id="clip0_413_13006">
<rect width="40" height="59" fill="white"/>
</clipPath>
</defs>
</svg>
