<svg width="16" height="67" viewBox="0 0 16 67" fill="none" xmlns="http://www.w3.org/2000/svg">
<path d="M8.71101 0.797776C8.32049 0.407252 7.68732 0.407252 7.2968 0.797776L0.932838 7.16174C0.542314 7.55226 0.542314 8.18543 0.932838 8.57595C1.32336 8.96647 1.95653 8.96647 2.34705 8.57595L8.00391 2.9191L13.6608 8.57595C14.0513 8.96648 14.6844 8.96648 15.075 8.57595C15.4655 8.18543 15.4655 7.55226 15.075 7.16174L8.71101 0.797776ZM7.2968 66.212C7.68732 66.6025 8.32049 66.6025 8.71101 66.212L15.075 59.848C15.4655 59.4575 15.4655 58.8243 15.075 58.4338C14.6844 58.0433 14.0513 58.0433 13.6608 58.4338L8.0039 64.0907L2.34705 58.4338C1.95653 58.0433 1.32336 58.0433 0.932836 58.4338C0.542312 58.8243 0.542312 59.4575 0.932836 59.848L7.2968 66.212ZM7.00391 3.50488C7.00391 4.05717 7.45162 4.50488 8.00391 4.50488C8.55619 4.50488 9.00391 4.05717 9.00391 3.50488L7.00391 3.50488ZM9.00391 7.50488C9.00391 6.9526 8.55619 6.50488 8.00391 6.50488C7.45162 6.50488 7.00391 6.9526 7.00391 7.50488L9.00391 7.50488ZM7.00391 11.5049C7.00391 12.0572 7.45162 12.5049 8.00391 12.5049C8.55619 12.5049 9.00391 12.0572 9.00391 11.5049L7.00391 11.5049ZM9.00391 15.5049C9.00391 14.9526 8.55619 14.5049 8.00391 14.5049C7.45162 14.5049 7.00391 14.9526 7.00391 15.5049L9.00391 15.5049ZM7.00391 19.5049C7.00391 20.0572 7.45162 20.5049 8.00391 20.5049C8.55619 20.5049 9.00391 20.0572 9.00391 19.5049L7.00391 19.5049ZM9.00391 23.5049C9.00391 22.9526 8.55619 22.5049 8.00391 22.5049C7.45162 22.5049 7.00391 22.9526 7.00391 23.5049L9.00391 23.5049ZM7.00391 27.5049C7.00391 28.0572 7.45162 28.5049 8.00391 28.5049C8.55619 28.5049 9.00391 28.0572 9.00391 27.5049L7.00391 27.5049ZM9.0039 31.5049C9.0039 30.9526 8.55619 30.5049 8.0039 30.5049C7.45162 30.5049 7.0039 30.9526 7.0039 31.5049L9.0039 31.5049ZM7.0039 35.5049C7.0039 36.0572 7.45162 36.5049 8.0039 36.5049C8.55619 36.5049 9.0039 36.0572 9.0039 35.5049L7.0039 35.5049ZM9.0039 39.5049C9.0039 38.9526 8.55619 38.5049 8.0039 38.5049C7.45162 38.5049 7.0039 38.9526 7.0039 39.5049L9.0039 39.5049ZM7.0039 43.5049C7.0039 44.0572 7.45162 44.5049 8.0039 44.5049C8.55619 44.5049 9.0039 44.0572 9.0039 43.5049L7.0039 43.5049ZM9.0039 47.5049C9.0039 46.9526 8.55619 46.5049 8.0039 46.5049C7.45162 46.5049 7.0039 46.9526 7.0039 47.5049L9.0039 47.5049ZM7.0039 51.5049C7.0039 52.0572 7.45162 52.5049 8.0039 52.5049C8.55619 52.5049 9.0039 52.0572 9.0039 51.5049L7.0039 51.5049ZM9.0039 55.5049C9.0039 54.9526 8.55619 54.5049 8.0039 54.5049C7.45162 54.5049 7.0039 54.9526 7.0039 55.5049L9.0039 55.5049ZM7.0039 59.5049C7.0039 60.0572 7.45162 60.5049 8.0039 60.5049C8.55619 60.5049 9.0039 60.0572 9.0039 59.5049L7.0039 59.5049ZM9.0039 63.5049C9.0039 62.9526 8.55619 62.5049 8.0039 62.5049C7.45162 62.5049 7.0039 62.9526 7.0039 63.5049L9.0039 63.5049ZM8.00391 1.50488L7.00391 1.50488L7.00391 3.50488L8.00391 3.50488L9.00391 3.50488L9.00391 1.50488L8.00391 1.50488ZM8.00391 7.50488L7.00391 7.50488L7.00391 11.5049L8.00391 11.5049L9.00391 11.5049L9.00391 7.50488L8.00391 7.50488ZM8.00391 15.5049L7.00391 15.5049L7.00391 19.5049L8.00391 19.5049L9.00391 19.5049L9.00391 15.5049L8.00391 15.5049ZM8.00391 23.5049L7.00391 23.5049L7.00391 27.5049L8.00391 27.5049L9.00391 27.5049L9.00391 23.5049L8.00391 23.5049ZM8.0039 31.5049L7.0039 31.5049L7.0039 35.5049L8.0039 35.5049L9.0039 35.5049L9.0039 31.5049L8.0039 31.5049ZM8.0039 39.5049L7.0039 39.5049L7.0039 43.5049L8.0039 43.5049L9.0039 43.5049L9.0039 39.5049L8.0039 39.5049ZM8.0039 47.5049L7.0039 47.5049L7.0039 51.5049L8.0039 51.5049L9.0039 51.5049L9.0039 47.5049L8.0039 47.5049ZM8.0039 55.5049L7.0039 55.5049L7.0039 59.5049L8.0039 59.5049L9.0039 59.5049L9.0039 55.5049L8.0039 55.5049ZM8.0039 63.5049L7.0039 63.5049L7.0039 65.5049L8.0039 65.5049L9.0039 65.5049L9.0039 63.5049L8.0039 63.5049Z" fill="#DB0032"/>
</svg>
