<svg width="162" height="15" viewBox="0 0 162 15" fill="none" xmlns="http://www.w3.org/2000/svg">
<path d="M0.292893 6.79289C-0.0976311 7.18342 -0.0976311 7.81658 0.292893 8.20711L6.65685 14.5711C7.04738 14.9616 7.68054 14.9616 8.07107 14.5711C8.46159 14.1805 8.46159 13.5474 8.07107 13.1569L2.41421 7.5L8.07107 1.84315C8.46159 1.45262 8.46159 0.819457 8.07107 0.428932C7.68054 0.0384078 7.04738 0.0384078 6.65685 0.428932L0.292893 6.79289ZM161.707 8.20711C162.098 7.81658 162.098 7.18342 161.707 6.79289L155.343 0.428932C154.953 0.0384078 154.319 0.0384078 153.929 0.428932C153.538 0.819457 153.538 1.45262 153.929 1.84315L159.586 7.5L153.929 13.1569C153.538 13.5474 153.538 14.1805 153.929 14.5711C154.319 14.9616 154.953 14.9616 155.343 14.5711L161.707 8.20711ZM3 8.5C3.55228 8.5 4 8.05228 4 7.5C4 6.94772 3.55228 6.5 3 6.5V8.5ZM7 6.5C6.44772 6.5 6 6.94772 6 7.5C6 8.05228 6.44772 8.5 7 8.5V6.5ZM11 8.5C11.5523 8.5 12 8.05228 12 7.5C12 6.94772 11.5523 6.5 11 6.5V8.5ZM15 6.5C14.4477 6.5 14 6.94772 14 7.5C14 8.05228 14.4477 8.5 15 8.5V6.5ZM19 8.5C19.5523 8.5 20 8.05228 20 7.5C20 6.94772 19.5523 6.5 19 6.5V8.5ZM23 6.5C22.4477 6.5 22 6.94772 22 7.5C22 8.05228 22.4477 8.5 23 8.5V6.5ZM27 8.5C27.5523 8.5 28 8.05228 28 7.5C28 6.94772 27.5523 6.5 27 6.5V8.5ZM31 6.5C30.4477 6.5 30 6.94772 30 7.5C30 8.05228 30.4477 8.5 31 8.5V6.5ZM35 8.5C35.5523 8.5 36 8.05228 36 7.5C36 6.94772 35.5523 6.5 35 6.5V8.5ZM39 6.5C38.4477 6.5 38 6.94772 38 7.5C38 8.05228 38.4477 8.5 39 8.5V6.5ZM43 8.5C43.5523 8.5 44 8.05228 44 7.5C44 6.94772 43.5523 6.5 43 6.5V8.5ZM47 6.5C46.4477 6.5 46 6.94772 46 7.5C46 8.05228 46.4477 8.5 47 8.5V6.5ZM51 8.5C51.5523 8.5 52 8.05228 52 7.5C52 6.94772 51.5523 6.5 51 6.5V8.5ZM55 6.5C54.4477 6.5 54 6.94772 54 7.5C54 8.05228 54.4477 8.5 55 8.5V6.5ZM59 8.5C59.5523 8.5 60 8.05228 60 7.5C60 6.94772 59.5523 6.5 59 6.5V8.5ZM63 6.5C62.4477 6.5 62 6.94772 62 7.5C62 8.05228 62.4477 8.5 63 8.5V6.5ZM67 8.5C67.5523 8.5 68 8.05228 68 7.5C68 6.94772 67.5523 6.5 67 6.5V8.5ZM71 6.5C70.4477 6.5 70 6.94772 70 7.5C70 8.05228 70.4477 8.5 71 8.5V6.5ZM75 8.5C75.5523 8.5 76 8.05228 76 7.5C76 6.94772 75.5523 6.5 75 6.5V8.5ZM79 6.5C78.4477 6.5 78 6.94772 78 7.5C78 8.05228 78.4477 8.5 79 8.5V6.5ZM83 8.5C83.5523 8.5 84 8.05228 84 7.5C84 6.94772 83.5523 6.5 83 6.5V8.5ZM87 6.5C86.4477 6.5 86 6.94772 86 7.5C86 8.05228 86.4477 8.5 87 8.5V6.5ZM91 8.5C91.5523 8.5 92 8.05228 92 7.5C92 6.94772 91.5523 6.5 91 6.5V8.5ZM95 6.5C94.4477 6.5 94 6.94772 94 7.5C94 8.05228 94.4477 8.5 95 8.5V6.5ZM99 8.5C99.5523 8.5 100 8.05228 100 7.5C100 6.94772 99.5523 6.5 99 6.5V8.5ZM103 6.5C102.448 6.5 102 6.94772 102 7.5C102 8.05228 102.448 8.5 103 8.5V6.5ZM107 8.5C107.552 8.5 108 8.05228 108 7.5C108 6.94772 107.552 6.5 107 6.5V8.5ZM111 6.5C110.448 6.5 110 6.94772 110 7.5C110 8.05228 110.448 8.5 111 8.5V6.5ZM115 8.5C115.552 8.5 116 8.05228 116 7.5C116 6.94772 115.552 6.5 115 6.5V8.5ZM119 6.5C118.448 6.5 118 6.94772 118 7.5C118 8.05228 118.448 8.5 119 8.5V6.5ZM123 8.5C123.552 8.5 124 8.05228 124 7.5C124 6.94772 123.552 6.5 123 6.5V8.5ZM127 6.5C126.448 6.5 126 6.94772 126 7.5C126 8.05228 126.448 8.5 127 8.5V6.5ZM131 8.5C131.552 8.5 132 8.05228 132 7.5C132 6.94772 131.552 6.5 131 6.5V8.5ZM135 6.5C134.448 6.5 134 6.94772 134 7.5C134 8.05228 134.448 8.5 135 8.5V6.5ZM139 8.5C139.552 8.5 140 8.05228 140 7.5C140 6.94772 139.552 6.5 139 6.5V8.5ZM143 6.5C142.448 6.5 142 6.94772 142 7.5C142 8.05228 142.448 8.5 143 8.5V6.5ZM147 8.5C147.552 8.5 148 8.05228 148 7.5C148 6.94772 147.552 6.5 147 6.5V8.5ZM151 6.5C150.448 6.5 150 6.94772 150 7.5C150 8.05228 150.448 8.5 151 8.5V6.5ZM155 8.5C155.552 8.5 156 8.05228 156 7.5C156 6.94772 155.552 6.5 155 6.5V8.5ZM159 6.5C158.448 6.5 158 6.94772 158 7.5C158 8.05228 158.448 8.5 159 8.5V6.5ZM1 7.5V8.5H3V7.5V6.5H1V7.5ZM7 7.5V8.5H11V7.5V6.5H7V7.5ZM15 7.5V8.5H19V7.5V6.5H15V7.5ZM23 7.5V8.5H27V7.5V6.5H23V7.5ZM31 7.5V8.5H35V7.5V6.5H31V7.5ZM39 7.5V8.5H43V7.5V6.5H39V7.5ZM47 7.5V8.5H51V7.5V6.5H47V7.5ZM55 7.5V8.5H59V7.5V6.5H55V7.5ZM63 7.5V8.5H67V7.5V6.5H63V7.5ZM71 7.5V8.5H75V7.5V6.5H71V7.5ZM79 7.5V8.5H83V7.5V6.5H79V7.5ZM87 7.5V8.5H91V7.5V6.5H87V7.5ZM95 7.5V8.5H99V7.5V6.5H95V7.5ZM103 7.5V8.5H107V7.5V6.5H103V7.5ZM111 7.5V8.5H115V7.5V6.5H111V7.5ZM119 7.5V8.5H123V7.5V6.5H119V7.5ZM127 7.5V8.5H131V7.5V6.5H127V7.5ZM135 7.5V8.5H139V7.5V6.5H135V7.5ZM143 7.5V8.5H147V7.5V6.5H143V7.5ZM151 7.5V8.5H155V7.5V6.5H151V7.5ZM159 7.5V8.5H161V7.5V6.5H159V7.5Z" fill="#DB0032"/>
</svg>
