<svg width="48" height="65" viewBox="0 0 48 65" fill="none" xmlns="http://www.w3.org/2000/svg">
<path d="M22.2002 63.65C23.2668 64.45 24.7335 64.45 25.8002 63.65L40.8001 52.4C43.1065 50.6702 41.8831 47 39.0001 47L9.00005 47C6.11701 47 4.89362 50.6702 7.20006 52.4L22.2002 63.65Z" fill="#666666"/>
<path d="M11 47L11 18L37 18L37 47L11 47Z" fill="#666666"/>
<path d="M22.2002 1.35C23.2668 0.550001 24.7335 0.550006 25.8002 1.35001L40.8001 12.6C43.1065 14.3298 41.8831 18 39.0001 18L9.00005 18C6.11701 18 4.89362 14.3298 7.20006 12.6L22.2002 1.35Z" fill="#666666"/>
</svg>
