<svg width="20" height="20" viewBox="0 0 20 20" fill="none" xmlns="http://www.w3.org/2000/svg">
<path fill-rule="evenodd" clip-rule="evenodd" d="M16.0216 2.32204C16.0297 2.52335 16.0363 2.75216 16.0395 3.00456C16.2906 3.0326 16.52 3.0609 16.7279 3.08861C17.9202 3.24755 18.8398 4.15279 19.0108 5.34615C19.1846 6.55915 19.375 8.47399 19.375 11.0422C19.375 13.6103 19.1846 15.5252 19.0108 16.7382C18.8398 17.9315 17.9202 18.8367 16.7279 18.9957C15.3951 19.1734 13.1799 19.3755 10 19.3755C6.82008 19.3755 4.60488 19.1734 3.27213 18.9957C2.07974 18.8367 1.16025 17.9315 0.989229 16.7382C0.815392 15.5252 0.625 13.6103 0.625 11.0422C0.625 8.47399 0.815392 6.55915 0.989229 5.34615C1.16025 4.15279 2.07974 3.24755 3.27213 3.08861C3.48001 3.0609 3.70935 3.0326 3.96048 3.00456C3.96372 2.75216 3.97032 2.52335 3.97843 2.32204C4.01213 1.48447 4.58596 0.709913 5.54021 0.652388C5.74129 0.640267 5.97617 0.632812 6.25 0.632812C6.52383 0.632812 6.75871 0.640267 6.95979 0.652388C7.91404 0.709913 8.48787 1.48447 8.52158 2.32204C8.52654 2.44582 8.53096 2.58001 8.53437 2.72368C8.998 2.71409 9.48642 2.70882 10 2.70882C10.5136 2.70882 11.002 2.71409 11.4656 2.72368C11.469 2.58001 11.4735 2.44582 11.4784 2.32204C11.5121 1.48447 12.086 0.709913 13.0402 0.652388C13.2413 0.640267 13.4762 0.632812 13.75 0.632812C14.0238 0.632812 14.2587 0.640267 14.4598 0.652388C15.414 0.709913 15.9879 1.48447 16.0216 2.32204ZM14.2941 10.3996C14.4807 11.161 14.3411 11.9799 13.9121 12.6409C13.1987 13.742 12.07 14.6114 10.9462 15.3968C10.3792 15.7931 9.62083 15.7931 9.05379 15.3968C7.93 14.6114 6.80129 13.742 6.08787 12.6409C5.65892 11.9799 5.51938 11.161 5.70592 10.3996C6.10458 8.66507 8.31208 7.95632 9.68708 9.11865C9.76433 9.18353 9.8355 9.2554 9.90858 9.32924C9.93854 9.35949 9.96883 9.39007 10 9.42065C10.0312 9.39007 10.0615 9.35949 10.0914 9.32924C10.1645 9.2554 10.2357 9.18353 10.3129 9.11865C11.6879 7.95632 13.8954 8.66507 14.2941 10.3996Z" fill="#DB0032"/>
</svg>
