<svg width="18" height="18" viewBox="0 0 18 18" fill="none" xmlns="http://www.w3.org/2000/svg">
<path fill-rule="evenodd" clip-rule="evenodd" d="M9.04317 0.046876H8.9565C8.20775 0.046851 7.58342 0.0468344 7.08777 0.113468C6.56461 0.183809 6.09228 0.338534 5.71272 0.718093C5.33316 1.09765 5.17844 1.56998 5.1081 2.09314C5.04146 2.58879 5.04148 3.21313 5.0415 3.96187V4.02664C3.35719 4.08175 2.34576 4.27857 1.64281 4.98152C0.666504 5.95783 0.666504 7.52921 0.666504 10.6719C0.666504 13.8145 0.666504 15.386 1.64281 16.3622C2.61913 17.3385 4.19047 17.3385 7.33317 17.3385H10.6665C13.8092 17.3385 15.3806 17.3385 16.3568 16.3622C17.3332 15.386 17.3332 13.8145 17.3332 10.6719C17.3332 7.52921 17.3332 5.95783 16.3568 4.98152C15.6539 4.27857 14.6425 4.08175 12.9582 4.02664V3.96188C12.9582 3.21316 12.9583 2.58879 12.8916 2.09314C12.8213 1.56998 12.6665 1.09765 12.2869 0.718093C11.9074 0.338534 11.4351 0.183809 10.9119 0.113468C10.4163 0.0468344 9.79192 0.046851 9.04317 0.046876ZM11.7082 4.00678V4.00521C11.7082 3.20187 11.7068 2.66223 11.6528 2.25971C11.601 1.87515 11.5117 1.71058 11.4031 1.60198C11.2945 1.49338 11.1299 1.40403 10.7453 1.35233C10.3428 1.29821 9.80317 1.29688 8.99984 1.29688C8.1965 1.29688 7.65684 1.29821 7.25433 1.35233C6.86978 1.40403 6.7052 1.49338 6.5966 1.60198C6.488 1.71058 6.39865 1.87515 6.34695 2.25971C6.29284 2.66223 6.2915 3.20187 6.2915 4.00521V4.00678C6.6182 4.00521 6.9649 4.00521 7.33317 4.00521H10.6665C11.0348 4.00521 11.3815 4.00521 11.7082 4.00678ZM13.1665 6.50521C13.1665 6.96545 12.7934 7.33854 12.3332 7.33854C11.8729 7.33854 11.4998 6.96545 11.4998 6.50521C11.4998 6.04498 11.8729 5.67188 12.3332 5.67188C12.7934 5.67188 13.1665 6.04498 13.1665 6.50521ZM5.6665 7.33854C6.12674 7.33854 6.49984 6.96545 6.49984 6.50521C6.49984 6.04498 6.12674 5.67188 5.6665 5.67188C5.20627 5.67188 4.83317 6.04498 4.83317 6.50521C4.83317 6.96545 5.20627 7.33854 5.6665 7.33854Z" fill="#2CA7FF"/>
</svg>
