<svg width="17" height="19" viewBox="0 0 17 19" fill="none" xmlns="http://www.w3.org/2000/svg">
<path fill-rule="evenodd" clip-rule="evenodd" d="M0.737092 9.38321C0.626026 7.71718 0.570492 6.88417 1.06449 6.35615C1.55849 5.82812 2.39334 5.82812 4.06304 5.82812H8.60383C10.2735 5.82812 11.1083 5.82812 11.6023 6.35615C11.7378 6.50084 11.8318 6.66843 11.8948 6.86979H12.1668C14.2718 6.86979 16.1251 8.37971 16.1251 10.4115C16.1251 12.4432 14.2718 13.9531 12.1668 13.9531H11.625C11.6153 14.097 11.6058 14.2357 11.5963 14.3698H1.07051C1.05468 14.147 1.03894 13.9109 1.02227 13.6607L0.737092 9.38321ZM11.7084 12.7031H12.1668C13.7435 12.7031 14.8751 11.6013 14.8751 10.4115C14.8751 9.22163 13.7435 8.11979 12.1668 8.11979H12.0007C11.9901 8.47821 11.9623 8.89496 11.9298 9.38321L11.7084 12.7031Z" fill="#DB0032"/>
<path d="M1.18252 15.6211H11.4842C11.3643 16.6016 11.1688 17.2187 10.7024 17.655C9.98158 18.3294 8.87292 18.3294 6.65558 18.3294H6.01111C3.79378 18.3294 2.6851 18.3294 1.96427 17.655C1.49788 17.2187 1.30237 16.6016 1.18252 15.6211Z" fill="#DB0032"/>
<path fill-rule="evenodd" clip-rule="evenodd" d="M3.81426 1.1006C4.09527 1.30105 4.16059 1.69135 3.96014 1.97237L3.63842 2.42341C4.15993 2.81863 4.27552 3.55967 3.89304 4.09589L3.55086 4.57562C3.35042 4.85663 2.96011 4.92194 2.6791 4.7215C2.39808 4.52105 2.33277 4.13075 2.53322 3.84974L2.85494 3.3987C2.33342 3.00348 2.21783 2.26243 2.60032 1.72621L2.9425 1.24648C3.14295 0.965467 3.53325 0.900159 3.81426 1.1006ZM7.14757 1.1006C7.42865 1.30105 7.4939 1.69135 7.29348 1.97237L6.97173 2.42341C7.49323 2.81863 7.6089 3.55967 7.2264 4.09589L6.88423 4.57562C6.68373 4.85663 6.29344 4.92194 6.01243 4.7215C5.73142 4.52105 5.6661 4.13075 5.86655 3.84974L6.18827 3.39869C5.66676 3.00348 5.55117 2.26243 5.93365 1.72621L6.27583 1.24648C6.47632 0.965467 6.86657 0.900159 7.14757 1.1006ZM10.4809 1.1006C10.762 1.30105 10.8272 1.69135 10.6268 1.97237L10.3051 2.42341C10.8266 2.81863 10.9422 3.55967 10.5597 4.09589L10.2176 4.57562C10.0171 4.85663 9.62682 4.92194 9.34573 4.7215C9.06473 4.52105 8.9994 4.13075 9.1999 3.84974L9.52157 3.3987C9.00007 3.00348 8.88448 2.26243 9.26698 1.72621L9.60915 1.24648C9.80965 0.965467 10.1999 0.900159 10.4809 1.1006Z" fill="#DB0032"/>
</svg>
