<svg width="18" height="15" viewBox="0 0 18 15" fill="none" xmlns="http://www.w3.org/2000/svg">
<path d="M0.666016 11.4522V2.164C0.666016 1.24886 1.4046 0.505436 2.31802 0.561578C3.13166 0.611586 4.09392 0.710428 4.83268 0.905369C5.70702 1.13609 6.74611 1.62751 7.56793 2.06205C7.82377 2.19735 8.09585 2.2912 8.37435 2.34412V14.993C8.12193 14.9373 7.8756 14.8475 7.64302 14.7235C6.81012 14.2796 5.73389 13.7648 4.83268 13.527C4.10209 13.3342 3.15292 13.2354 2.34507 13.1848C1.42106 13.1271 0.666016 12.378 0.666016 11.4522Z" fill="#2CA7FF"/>
<path d="M9.62451 14.9956C9.87693 14.94 10.1233 14.8501 10.3558 14.7261C11.1888 14.2822 12.2649 13.7674 13.1662 13.5296C13.8968 13.3368 14.8459 13.238 15.6538 13.1875C16.5778 13.1297 17.3328 12.3806 17.3328 11.4548V2.11278C17.3328 1.21908 16.6277 0.485463 15.7345 0.51658C14.794 0.549338 13.6219 0.646813 12.7495 0.907988C11.9932 1.13442 11.1123 1.5886 10.3943 2.00408C10.1515 2.14466 9.89185 2.24791 9.62451 2.31338V14.9956Z" fill="#2CA7FF"/>
</svg>
