<svg width="18" height="10" viewBox="0 0 18 10" fill="none" xmlns="http://www.w3.org/2000/svg">
<path d="M17.3327 6.66146V3.32812C17.3327 2.55156 17.3327 2.16327 17.2058 1.85698C17.0367 1.44861 16.7122 1.12415 16.3038 0.954991C15.9975 0.828125 15.6093 0.828125 14.8327 0.828125C14.0561 0.828125 13.6678 0.828125 13.3615 0.954991C12.9532 1.12415 12.6287 1.44861 12.4595 1.85698C12.3327 2.16327 12.3327 2.96822 12.3327 3.74479H5.66602C5.66602 2.96822 5.66602 2.16327 5.53915 1.85698C5.36999 1.44861 5.04553 1.12415 4.63716 0.954991C4.33087 0.828125 3.94258 0.828125 3.16602 0.828125C2.38945 0.828125 2.00117 0.828125 1.69487 0.954991C1.2865 1.12415 0.962041 1.44861 0.792882 1.85698C0.666016 2.16327 0.666016 2.55156 0.666016 3.32812V6.66146C0.666016 7.43804 0.666016 7.82629 0.792882 8.13263C0.962041 8.54096 1.2865 8.86546 1.69487 9.03462C2.00117 9.16146 2.38945 9.16146 3.16602 9.16146C3.94258 9.16146 4.33087 9.16146 4.63716 9.03462C5.04553 8.86546 5.36999 8.54096 5.53915 8.13263C5.66602 7.82629 5.66602 7.02137 5.66602 6.24479H12.3327C12.3327 7.02137 12.3327 7.82629 12.4595 8.13263C12.6287 8.54096 12.9532 8.86546 13.3615 9.03462C13.6678 9.16146 14.0561 9.16146 14.8327 9.16146C15.6093 9.16146 15.9975 9.16146 16.3038 9.03462C16.7122 8.86546 17.0367 8.54096 17.2058 8.13263C17.3327 7.82629 17.3327 7.43804 17.3327 6.66146Z" fill="#DB0032"/>
</svg>
