<svg width="14" height="14" viewBox="0 0 14 14" fill="none" xmlns="http://www.w3.org/2000/svg">
<path fill-rule="evenodd" clip-rule="evenodd" d="M8.3335 13.6615H5.66683C3.15267 13.6615 1.8956 13.6615 1.11454 12.8804C0.333496 12.0994 0.333496 10.8423 0.333496 8.32812V5.66146C0.333496 3.1473 0.333496 1.89022 1.11454 1.10917C1.8956 0.328125 3.15929 0.328125 5.6867 0.328125C6.0907 0.328125 6.41443 0.328125 6.68683 0.339232C6.6779 0.392518 6.67316 0.446878 6.67296 0.501838L6.66683 2.39144C6.66676 3.12284 6.6667 3.76922 6.73676 4.29023C6.8127 4.85498 6.98703 5.41963 7.4479 5.88046C7.9087 6.34132 8.47336 6.51566 9.0381 6.59159C9.55916 6.66166 10.2055 6.66159 10.9369 6.66152H13.6384C13.6668 7.01772 13.6668 7.45486 13.6668 8.03672V8.32812C13.6668 10.8423 13.6668 12.0994 12.8858 12.8804C12.1048 13.6615 10.8476 13.6615 8.3335 13.6615Z" fill="#DB0032"/>
<path d="M11.901 4.07517L9.26177 1.6999C8.5099 1.02319 8.13397 0.684826 7.67264 0.507812L7.6665 2.33081C7.6665 3.90215 7.6665 4.68783 8.15464 5.17598C8.64284 5.66413 9.4285 5.66413 10.9998 5.66413H13.3866C13.1448 5.19465 12.7121 4.80516 11.901 4.07517Z" fill="#DB0032"/>
</svg>
