<svg width="12" height="18" viewBox="0 0 12 18" fill="none" xmlns="http://www.w3.org/2000/svg">
<path fill-rule="evenodd" clip-rule="evenodd" d="M5.99935 12.3385C9.22102 12.3385 11.8327 9.72688 11.8327 6.50521C11.8327 3.28355 9.22102 0.671875 5.99935 0.671875C2.77769 0.671875 0.166016 3.28355 0.166016 6.50521C0.166016 9.72688 2.77769 12.3385 5.99935 12.3385ZM5.99935 4.00521C5.7626 4.00521 5.60427 4.28924 5.2876 4.8573L5.20568 5.00427C5.11577 5.16569 5.07077 5.24641 5.0006 5.29966C4.93043 5.35292 4.8431 5.37268 4.66835 5.41222L4.50927 5.44822C3.89432 5.58735 3.58686 5.65692 3.51371 5.89214C3.44056 6.12737 3.65016 6.37248 4.06937 6.86269L4.17783 6.98952C4.29696 7.12882 4.35652 7.19847 4.38335 7.28463C4.4101 7.37079 4.4011 7.46371 4.3831 7.64963L4.36668 7.81879C4.30332 8.47288 4.27163 8.79988 4.4631 8.94529C4.65468 9.09062 4.94252 8.95813 5.51827 8.69304L5.66718 8.62446C5.83085 8.54913 5.9126 8.51146 5.99935 8.51146C6.0861 8.51146 6.16785 8.54913 6.33152 8.62446L6.48043 8.69304C7.05618 8.95813 7.34402 9.09062 7.5356 8.94529C7.7271 8.79988 7.69535 8.47288 7.63202 7.81879L7.6156 7.64963C7.5976 7.46371 7.5886 7.37079 7.61535 7.28463C7.64218 7.19847 7.70177 7.12882 7.82085 6.98953L7.92935 6.86269C8.34852 6.37248 8.55818 6.12737 8.48502 5.89214C8.41185 5.65692 8.10435 5.58735 7.48943 5.44822L7.33035 5.41222C7.1556 5.37268 7.06827 5.35292 6.9981 5.29966C6.92793 5.24641 6.88293 5.16569 6.79302 5.00427L6.7111 4.8573C6.39443 4.28924 6.2361 4.00521 5.99935 4.00521Z" fill="#DB0032"/>
<path d="M1.91035 12.2891L1.59471 13.4404C1.07109 15.3502 0.809286 16.3051 1.15865 16.828C1.28109 17.0111 1.44534 17.1582 1.63594 17.2552C2.17979 17.5321 3.01951 17.0946 4.69893 16.2196C5.25776 15.9284 5.53718 15.7828 5.83401 15.7511C5.94409 15.7394 6.05493 15.7394 6.16501 15.7511C6.46184 15.7828 6.74126 15.9284 7.30009 16.2196C8.97951 17.0946 9.81926 17.5321 10.3631 17.2552C10.5537 17.1582 10.7179 17.0111 10.8403 16.828C11.1898 16.3051 10.9279 15.3502 10.4043 13.4404L10.0887 12.2891C8.93351 13.1071 7.52268 13.5879 5.99951 13.5879C4.47634 13.5879 3.06547 13.1071 1.91035 12.2891Z" fill="#DB0032"/>
</svg>
