<svg width="18" height="18" viewBox="0 0 18 18" fill="none" xmlns="http://www.w3.org/2000/svg">
<path d="M5.45836 1.07812C5.45836 0.73295 5.17854 0.453125 4.83336 0.453125C4.48819 0.453125 4.20836 0.73295 4.20836 1.07812V2.39417C3.00892 2.49022 2.22151 2.72593 1.64301 3.30443C1.06451 3.88293 0.828789 4.67035 0.732747 5.86979H17.2673C17.1713 4.67035 16.9355 3.88293 16.357 3.30443C15.7785 2.72593 14.9911 2.49022 13.7917 2.39417V1.07812C13.7917 0.73295 13.5119 0.453125 13.1667 0.453125C12.8215 0.453125 12.5417 0.73295 12.5417 1.07812V2.33887C11.9873 2.32812 11.3659 2.32812 10.6667 2.32812H7.33336C6.63417 2.32812 6.01276 2.32812 5.45836 2.33887V1.07812Z" fill="#DB0032"/>
<path fill-rule="evenodd" clip-rule="evenodd" d="M17.3332 8.99609V10.6628C17.3332 13.8054 17.3332 15.3768 16.3568 16.3531C15.3806 17.3294 13.8092 17.3294 10.6665 17.3294H7.33317C4.19047 17.3294 2.61913 17.3294 1.64281 16.3531C0.666504 15.3768 0.666504 13.8054 0.666504 10.6628V8.99609C0.666504 8.29693 0.666504 7.67551 0.677254 7.12109H17.3224C17.3332 7.67551 17.3332 8.29693 17.3332 8.99609ZM12.7498 13.9961C13.4402 13.9961 13.9998 13.4364 13.9998 12.7461C13.9998 12.0558 13.4402 11.4961 12.7498 11.4961C12.0595 11.4961 11.4998 12.0558 11.4998 12.7461C11.4998 13.4364 12.0595 13.9961 12.7498 13.9961Z" fill="#DB0032"/>
</svg>
