<svg width="18" height="14" viewBox="0 0 18 14" fill="none" xmlns="http://www.w3.org/2000/svg">
<path fill-rule="evenodd" clip-rule="evenodd" d="M0.666504 7.41146V6.57812C0.666504 3.83856 0.666504 2.46877 1.42314 1.54682C1.56165 1.37803 1.71641 1.22328 1.8852 1.08476C2.80715 0.328125 4.17694 0.328125 6.9165 0.328125C9.65609 0.328125 11.0258 0.328125 11.9478 1.08476C12.1166 1.22328 12.2713 1.37803 12.4098 1.54682C12.9945 2.25921 13.1274 3.23898 13.1576 4.91148L13.7152 4.63714C15.3367 3.82636 16.1475 3.42096 16.7403 3.78735C17.3332 4.15375 17.3332 5.06023 17.3332 6.87321V7.11637C17.3332 8.92937 17.3332 9.83588 16.7403 10.2022C16.1475 10.5686 15.3367 10.1632 13.7152 9.35246L13.1576 9.07812C13.1274 10.7506 12.9945 11.7304 12.4098 12.4428C12.2713 12.6115 12.1166 12.7663 11.9478 12.9048C11.0258 13.6615 9.65609 13.6615 6.9165 13.6615C4.17694 13.6615 2.80715 13.6615 1.8852 12.9048C1.71641 12.7663 1.56165 12.6115 1.42314 12.4428C0.666504 11.5208 0.666504 10.151 0.666504 7.41146ZM10.3004 4.96201C10.7885 4.47385 10.7885 3.6824 10.3004 3.19424C9.81225 2.70608 9.02075 2.70608 8.53259 3.19424C8.0445 3.6824 8.0445 4.47385 8.53259 4.96201C9.02075 5.45013 9.81225 5.45013 10.3004 4.96201Z" fill="#DB0032"/>
</svg>
