<svg width="18" height="18" viewBox="0 0 18 18" fill="none" xmlns="http://www.w3.org/2000/svg">
<path fill-rule="evenodd" clip-rule="evenodd" d="M1.09917 5.52416C0.666504 6.31461 0.666504 7.26812 0.666504 9.17513V10.4427C0.666504 13.6934 0.666504 15.3188 1.64281 16.3286C2.61913 17.3385 4.19047 17.3385 7.33317 17.3385H10.6665C13.8092 17.3385 15.3806 17.3385 16.3568 16.3286C17.3332 15.3188 17.3332 13.6934 17.3332 10.4427V9.17513C17.3332 7.26812 17.3332 6.31461 16.9005 5.52416C16.4678 4.73372 15.6774 4.24313 14.0965 3.26198L12.4298 2.2276C10.7587 1.19045 9.92309 0.671875 8.99984 0.671875C8.07659 0.671875 7.241 1.19045 5.56986 2.2276L3.9032 3.26198C2.3223 4.24313 1.53184 4.73372 1.09917 5.52416ZM6.87201 11.8365C6.59471 11.6309 6.20328 11.689 5.99773 11.9664C5.79219 12.2437 5.85035 12.6351 6.12766 12.8406C6.938 13.4413 7.929 13.7969 8.99984 13.7969C10.0707 13.7969 11.0617 13.4413 11.872 12.8406C12.1493 12.6351 12.2075 12.2437 12.0019 11.9664C11.7964 11.689 11.405 11.6309 11.1277 11.8365C10.5207 12.2863 9.78809 12.5469 8.99984 12.5469C8.21159 12.5469 7.479 12.2863 6.87201 11.8365Z" fill="#DB0032"/>
</svg>
