<svg width="18" height="14" viewBox="0 0 18 14" fill="none" xmlns="http://www.w3.org/2000/svg">
<path fill-rule="evenodd" clip-rule="evenodd" d="M7.3296 0.328125H10.6691C13.8176 0.328125 15.3919 0.328125 16.37 1.30443C17.1022 2.03528 17.2863 3.09956 17.3325 4.90683C17.3385 5.13853 17.1484 5.32368 16.9237 5.38246C16.2071 5.56988 15.6784 6.22071 15.6784 6.99479C15.6784 7.76888 16.2071 8.41971 16.9237 8.60713C17.1484 8.66588 17.3385 8.85104 17.3325 9.08279C17.2863 10.89 17.1022 11.9543 16.37 12.6851C15.3919 13.6615 13.8176 13.6615 10.6691 13.6615H7.3296C4.18109 13.6615 2.60684 13.6615 1.62873 12.6851C0.896526 11.9543 0.712434 10.89 0.666151 9.08279C0.660218 8.85104 0.850359 8.66588 1.07498 8.60713C1.79163 8.41971 2.32036 7.76888 2.32036 6.99479C2.32036 6.22071 1.79163 5.56988 1.07498 5.38246C0.850359 5.32368 0.660218 5.13853 0.666151 4.90683C0.712434 3.09956 0.896526 2.03528 1.62873 1.30443C2.60684 0.328125 4.18109 0.328125 7.3296 0.328125ZM9.79443 5.49388L9.71235 5.34688C9.3951 4.77883 9.23652 4.49479 8.99935 4.49479C8.76218 4.49479 8.6036 4.77883 8.28635 5.34688L8.20427 5.49388C8.1141 5.65529 8.06902 5.73596 7.99877 5.78921C7.92843 5.84246 7.84093 5.86229 7.66585 5.90179L7.50652 5.93779C6.89042 6.07696 6.58239 6.14646 6.50911 6.38171C6.43583 6.61696 6.64582 6.86204 7.06581 7.35229L7.17446 7.47913C7.29381 7.61837 7.35352 7.68804 7.38035 7.77421C7.40718 7.86038 7.39818 7.95329 7.3801 8.13921L7.36368 8.30838C7.30018 8.96246 7.26843 9.28946 7.46027 9.43488C7.65218 9.58021 7.9406 9.44771 8.51735 9.18263L8.6666 9.11404C8.83052 9.03871 8.91252 9.00104 8.99935 9.00104C9.08618 9.00104 9.16818 9.03871 9.3321 9.11404L9.48135 9.18263C10.0581 9.44771 10.3465 9.58021 10.5384 9.43488C10.7303 9.28946 10.6985 8.96246 10.635 8.30838L10.6186 8.13921C10.6005 7.95329 10.5915 7.86038 10.6184 7.77421C10.6452 7.68804 10.7049 7.61837 10.8243 7.47913L10.9329 7.35229C11.3529 6.86204 11.5628 6.61696 11.4896 6.38171C11.4163 6.14646 11.1083 6.07696 10.4922 5.93779L10.3329 5.90179C10.1578 5.86229 10.0703 5.84246 9.99993 5.78921C9.92968 5.73596 9.8846 5.65529 9.79443 5.49388Z" fill="#DB0032"/>
</svg>
