<svg width="18" height="12" viewBox="0 0 18 12" fill="none" xmlns="http://www.w3.org/2000/svg">
<path d="M5.87484 0.171875C3.94365 0.1763 2.91028 0.2238 2.14794 0.733183C1.78397 0.976383 1.47147 1.28888 1.22827 1.65285C0.666504 2.49359 0.666504 3.66398 0.666504 6.00475C0.666504 8.3455 0.666504 9.51592 1.22827 10.3567C1.47147 10.7206 1.78397 11.0331 2.14794 11.2763C2.91028 11.7857 3.94365 11.8332 5.87484 11.8377V8.426C4.79657 8.1485 3.99984 7.16967 3.99984 6.00475C3.99984 4.83983 4.79657 3.86104 5.87484 3.58351V0.171875Z" fill="#2CA7FF"/>
<path d="M7.125 11.8385H10.875V0.171875H7.125V11.8385Z" fill="#2CA7FF"/>
<path d="M12.125 0.171875V3.58351C13.2033 3.86104 14 4.83983 14 6.00475C14 7.16967 13.2033 8.1485 12.125 8.426V11.8377C14.0562 11.8332 15.0896 11.7857 15.8519 11.2763C16.2158 11.0331 16.5283 10.7206 16.7716 10.3567C17.3333 9.51592 17.3333 8.3455 17.3333 6.00475C17.3333 3.66397 17.3333 2.49359 16.7716 1.65285C16.5283 1.28888 16.2158 0.976375 15.8519 0.733183C15.0896 0.2238 14.0562 0.1763 12.125 0.171875Z" fill="#2CA7FF"/>
</svg>
