<svg width="20" height="20" viewBox="0 0 20 20" fill="none" xmlns="http://www.w3.org/2000/svg">
<path d="M9 12.0002V20H5C4.20435 20 3.44129 19.6839 2.87868 19.1213C2.31607 18.5588 2 17.7957 2 17.0001V13.0002C2 12.735 2.10536 12.4806 2.29289 12.2931C2.48043 12.1056 2.73478 12.0002 3 12.0002H9ZM17 12.0002C17.2652 12.0002 17.5196 12.1056 17.7071 12.2931C17.8946 12.4806 18 12.735 18 13.0002V17.0001C18 17.7957 17.6839 18.5588 17.1213 19.1213C16.5587 19.6839 15.7956 20 15 20H11V12.0002H17ZM14.5 0.000586877C15.0905 0.000465003 15.6715 0.149749 16.1888 0.434542C16.706 0.719335 17.1429 1.13038 17.4586 1.62941C17.7743 2.12843 17.9586 2.69922 17.9943 3.28863C18.03 3.87805 17.9161 4.46692 17.663 5.00044H18C18.5304 5.00044 19.0391 5.21115 19.4142 5.58621C19.7893 5.96127 20 6.46996 20 7.00038V8.00035C20 8.53077 19.7893 9.03946 19.4142 9.41452C19.0391 9.78959 18.5304 10.0003 18 10.0003H11V5.00044H9V10.0003H2C1.46957 10.0003 0.960859 9.78959 0.585786 9.41452C0.210714 9.03946 0 8.53077 0 8.00035V7.00038C0 6.46996 0.210714 5.96127 0.585786 5.58621C0.960859 5.21115 1.46957 5.00044 2 5.00044H2.337C2.11444 4.53176 1.99931 4.01932 2 3.50048C2 1.56754 3.567 0.000586877 5.483 0.000586877C7.238 -0.0294122 8.795 1.09255 9.864 2.9345L10 3.17749C11.033 1.26355 12.56 0.0635849 14.291 0.00258667L14.5 0.000586877ZM5.5 2.00053C5.10217 2.00053 4.72064 2.15856 4.43934 2.43985C4.15803 2.72115 4 3.10267 4 3.50048C4 3.8983 4.15803 4.27982 4.43934 4.56111C4.72064 4.84241 5.10217 5.00044 5.5 5.00044H8.643C7.902 3.0955 6.694 1.98053 5.5 2.00053ZM14.483 2.00053C13.303 1.98053 12.098 3.0965 11.357 5.00044H14.5C14.8978 4.99819 15.2785 4.83799 15.5582 4.5551C15.8379 4.27221 15.9938 3.8898 15.9915 3.49198C15.9892 3.09417 15.829 2.71355 15.5461 2.43384C15.2633 2.15414 14.8808 1.99827 14.483 2.00053Z" fill="#DB0032"/>
</svg>
