<svg width="25" height="25" viewBox="0 0 25 25" fill="none" xmlns="http://www.w3.org/2000/svg">
<g id="ic/24/check">
<mask id="mask0_225_25264" style="mask-type:alpha" maskUnits="userSpaceOnUse" x="0" y="0" width="25" height="25">
<rect id="Bounding box" x="0.203125" y="0.525391" width="24" height="24" fill="#fff"/>
</mask>
<g mask="url(#mask0_225_25264)">
<path id="check" d="M9.75401 15.1957L17.9748 6.97517C18.2406 6.70917 18.5539 6.57617 18.9148 6.57617C19.2758 6.57617 19.5892 6.70917 19.855 6.97517C20.121 7.24101 20.254 7.55617 20.254 7.92067C20.254 8.28517 20.121 8.60042 19.855 8.86642L10.6943 18.0382C10.4283 18.3042 10.1148 18.4372 9.75401 18.4372C9.39318 18.4372 9.07976 18.3042 8.81376 18.0382L4.54201 13.7664C4.27601 13.5004 4.14485 13.1852 4.14851 12.8207C4.15218 12.4562 4.28701 12.141 4.55301 11.8752C4.81885 11.6092 5.13401 11.4762 5.49851 11.4762C5.86301 11.4762 6.17826 11.6092 6.44426 11.8752L9.75401 15.1957Z" fill="#fff"/>
</g>
</g>
</svg>
