<svg width="20" height="20" viewBox="0 0 20 20" fill="none" xmlns="http://www.w3.org/2000/svg">
<path d="M17.2656 8.04688C16.5418 4.48086 13.3891 1.79688 9.60938 1.79688C5.29453 1.79688 1.79688 5.29453 1.79688 9.60938C1.79688 11.0922 2.21016 12.4785 2.92734 13.6598C2.5793 14.4945 2.225 15.4812 1.99844 16.3883C1.87148 16.8973 2.31797 17.3262 2.82344 17.1859C3.69961 16.9426 4.66367 16.5883 5.49453 16.2516C6.2783 16.7386 7.1426 17.0819 8.04688 17.2656" stroke="white" stroke-width="1.25" stroke-linecap="round" stroke-linejoin="round"/>
<path d="M8.82812 13.5156C8.82812 10.927 10.927 8.82812 13.5156 8.82812C16.1043 8.82812 18.2031 10.927 18.2031 13.5156C18.2031 14.4152 17.95 15.2555 17.5105 15.9688C17.6789 16.325 17.8465 16.7348 17.9793 17.1742C18.1305 17.6766 17.6805 18.1082 17.182 17.9453C16.784 17.8129 16.3936 17.6588 16.0125 17.4836C15.2651 17.955 14.3993 18.2046 13.5156 18.2031C10.927 18.2031 8.82812 16.1043 8.82812 13.5156Z" stroke="white" stroke-width="1.25" stroke-linejoin="round"/>
</svg>
