<svg width="16" height="17" viewBox="0 0 16 17" fill="none" xmlns="http://www.w3.org/2000/svg">
<mask id="mask0_405_6795" style="mask-type:alpha" maskUnits="userSpaceOnUse" x="0" y="0" width="16" height="17">
<rect y="0.5" width="16" height="16" fill="#D9D9D9"/>
</mask>
<g mask="url(#mask0_405_6795)">
<path d="M8 11.8359C8.18889 11.8359 8.34722 11.772 8.475 11.6443C8.60278 11.5165 8.66667 11.3582 8.66667 11.1693C8.66667 10.9804 8.60278 10.822 8.475 10.6943C8.34722 10.5665 8.18889 10.5026 8 10.5026C7.81111 10.5026 7.65278 10.5665 7.525 10.6943C7.39722 10.822 7.33333 10.9804 7.33333 11.1693C7.33333 11.3582 7.39722 11.5165 7.525 11.6443C7.65278 11.772 7.81111 11.8359 8 11.8359ZM7.33333 9.16927H8.66667V5.16927H7.33333V9.16927ZM8 15.1693C7.07778 15.1693 6.21111 14.9943 5.4 14.6443C4.58889 14.2943 3.88333 13.8193 3.28333 13.2193C2.68333 12.6193 2.20833 11.9137 1.85833 11.1026C1.50833 10.2915 1.33333 9.42483 1.33333 8.5026C1.33333 7.58038 1.50833 6.71372 1.85833 5.9026C2.20833 5.09149 2.68333 4.38594 3.28333 3.78594C3.88333 3.18594 4.58889 2.71094 5.4 2.36094C6.21111 2.01094 7.07778 1.83594 8 1.83594C8.92222 1.83594 9.78889 2.01094 10.6 2.36094C11.4111 2.71094 12.1167 3.18594 12.7167 3.78594C13.3167 4.38594 13.7917 5.09149 14.1417 5.9026C14.4917 6.71372 14.6667 7.58038 14.6667 8.5026C14.6667 9.42483 14.4917 10.2915 14.1417 11.1026C13.7917 11.9137 13.3167 12.6193 12.7167 13.2193C12.1167 13.8193 11.4111 14.2943 10.6 14.6443C9.78889 14.9943 8.92222 15.1693 8 15.1693ZM8 13.8359C9.48889 13.8359 10.75 13.3193 11.7833 12.2859C12.8167 11.2526 13.3333 9.99149 13.3333 8.5026C13.3333 7.01371 12.8167 5.7526 11.7833 4.71927C10.75 3.68594 9.48889 3.16927 8 3.16927C6.51111 3.16927 5.25 3.68594 4.21667 4.71927C3.18333 5.7526 2.66667 7.01371 2.66667 8.5026C2.66667 9.99149 3.18333 11.2526 4.21667 12.2859C5.25 13.3193 6.51111 13.8359 8 13.8359Z" fill="#888888"/>
</g>
</svg>
