<svg width="467" height="284" viewBox="0 0 467 284" fill="none" xmlns="http://www.w3.org/2000/svg">
<path d="M173.193 78.5379V108.205L188.379 109.651C190.427 119.592 194.353 128.842 199.704 137.05L189.947 148.894L210.809 169.87L222.6 160.059C230.763 165.453 239.963 169.388 249.85 171.447L251.275 186.716H280.779L282.204 171.447C292.091 169.388 301.291 165.44 309.454 160.059L321.245 169.87L342.107 148.894L332.35 137.037C337.714 128.829 341.627 119.579 343.674 109.638L358.861 108.192V78.5248L343.674 77.0786C341.627 67.1376 337.701 57.8871 332.35 49.679L342.107 37.8227L321.245 16.8463L309.454 26.657C301.291 21.2761 292.091 17.3284 282.204 15.2698L280.779 0H251.275L249.85 15.2698C239.963 17.3284 230.763 21.2761 222.6 26.657L210.809 16.8463L189.947 37.8227L199.704 49.679C194.34 57.8871 190.427 67.1376 188.379 77.0786L173.193 78.5248V78.5379ZM266.021 53.2098C288.074 53.2098 305.955 71.1896 305.955 93.3647C305.955 115.54 288.074 133.52 266.021 133.52C243.967 133.52 226.086 115.54 226.086 93.3647C226.086 71.1896 243.967 53.2098 266.021 53.2098Z" fill="#EEE5DF"/>
<path d="M430.586 264.848L439.047 271.896L454.039 256.822L447.029 248.314C450.878 242.412 453.689 235.767 455.166 228.628L466.077 227.598V206.283L455.166 205.254C453.689 198.114 450.878 191.469 447.029 185.567L454.039 177.046L439.047 161.972L430.586 169.021C424.716 165.151 418.108 162.324 411.007 160.838L409.984 149.868H388.785L387.762 160.838C380.661 162.324 374.053 165.151 368.183 169.021L359.709 161.972L344.717 177.046L351.727 185.567C347.879 191.469 345.054 198.101 343.59 205.254L332.68 206.283V227.598L343.59 228.628C345.067 235.767 347.879 242.412 351.727 248.314L344.717 256.822L359.709 271.896L368.183 264.848C374.053 268.717 380.661 271.545 387.762 273.03L388.785 284H409.984L411.007 273.03C418.108 271.545 424.716 268.717 430.586 264.848ZM370.684 216.928C370.684 200.993 383.525 188.082 399.385 188.082C415.245 188.082 428.072 200.993 428.072 216.928C428.072 232.862 415.219 245.787 399.385 245.787C383.551 245.787 370.684 232.875 370.684 216.928Z" fill="#EEE5DF"/>
<g clip-path="url(#clip0_1547_41350)">
<path d="M5.34642 274.139H47.94C52.0588 274.139 54.633 269.613 52.5736 265.992L31.2669 228.535C29.2075 224.914 24.0591 224.914 21.9997 228.535L0.732617 266.012C-1.32677 269.633 1.24746 274.159 5.36623 274.159L5.34642 274.139ZM29.5046 238.754L28.5541 257.422H24.6729L23.6828 238.754H29.4848H29.5046ZM23.5046 263.839C23.5046 262.129 24.7917 260.762 26.6135 260.762C28.4353 260.762 29.8016 262.109 29.8016 263.839C29.8016 265.569 28.4749 266.957 26.6135 266.957C24.7521 266.957 23.5046 265.569 23.5046 263.839Z" fill="#DB0032"/>
</g>
<path d="M266.84 273.42V225.82H287.444C291.705 225.82 295.377 226.523 298.46 227.928C301.542 229.288 303.922 231.26 305.6 233.844C307.277 236.428 308.116 239.511 308.116 243.092C308.116 246.628 307.277 249.688 305.6 252.272C303.922 254.811 301.542 256.76 298.46 258.12C295.377 259.48 291.705 260.16 287.444 260.16H272.96L277.856 255.332V273.42H266.84ZM297.1 273.42L285.2 256.148H296.964L309 273.42H297.1ZM277.856 256.556L272.96 251.388H286.832C290.232 251.388 292.77 250.663 294.448 249.212C296.125 247.716 296.964 245.676 296.964 243.092C296.964 240.463 296.125 238.423 294.448 236.972C292.77 235.521 290.232 234.796 286.832 234.796H272.96L277.856 229.56V256.556Z" fill="#DB0032"/>
<path d="M234.627 274.236C230.865 274.236 227.374 273.624 224.156 272.4C220.982 271.176 218.217 269.453 215.86 267.232C213.548 265.011 211.734 262.404 210.42 259.412C209.15 256.42 208.516 253.156 208.516 249.62C208.516 246.084 209.15 242.82 210.42 239.828C211.734 236.836 213.57 234.229 215.928 232.008C218.285 229.787 221.05 228.064 224.224 226.84C227.397 225.616 230.842 225.004 234.559 225.004C238.322 225.004 241.767 225.616 244.895 226.84C248.069 228.064 250.811 229.787 253.123 232.008C255.481 234.229 257.317 236.836 258.631 239.828C259.946 242.775 260.603 246.039 260.603 249.62C260.603 253.156 259.946 256.443 258.631 259.48C257.317 262.472 255.481 265.079 253.123 267.3C250.811 269.476 248.069 271.176 244.895 272.4C241.767 273.624 238.345 274.236 234.627 274.236ZM234.559 264.852C236.69 264.852 238.639 264.489 240.407 263.764C242.221 263.039 243.807 261.996 245.167 260.636C246.527 259.276 247.57 257.667 248.295 255.808C249.066 253.949 249.451 251.887 249.451 249.62C249.451 247.353 249.066 245.291 248.295 243.432C247.57 241.573 246.527 239.964 245.167 238.604C243.853 237.244 242.289 236.201 240.475 235.476C238.662 234.751 236.69 234.388 234.559 234.388C232.429 234.388 230.457 234.751 228.643 235.476C226.875 236.201 225.311 237.244 223.952 238.604C222.592 239.964 221.526 241.573 220.756 243.432C220.03 245.291 219.668 247.353 219.668 249.62C219.668 251.841 220.03 253.904 220.756 255.808C221.526 257.667 222.569 259.276 223.884 260.636C225.243 261.996 226.83 263.039 228.643 263.764C230.457 264.489 232.429 264.852 234.559 264.852Z" fill="#DB0032"/>
<path d="M163.547 273.42V225.82H184.151C188.412 225.82 192.084 226.523 195.167 227.928C198.249 229.288 200.629 231.26 202.307 233.844C203.984 236.428 204.823 239.511 204.823 243.092C204.823 246.628 203.984 249.688 202.307 252.272C200.629 254.811 198.249 256.76 195.167 258.12C192.084 259.48 188.412 260.16 184.151 260.16H169.667L174.563 255.332V273.42H163.547ZM193.807 273.42L181.907 256.148H193.671L205.707 273.42H193.807ZM174.563 256.556L169.667 251.388H183.539C186.939 251.388 189.477 250.663 191.155 249.212C192.832 247.716 193.671 245.676 193.671 243.092C193.671 240.463 192.832 238.423 191.155 236.972C189.477 235.521 186.939 234.796 183.539 234.796H169.667L174.563 229.56V256.556Z" fill="#DB0032"/>
<path d="M115.582 273.42V225.82H136.186C140.447 225.82 144.119 226.523 147.202 227.928C150.284 229.288 152.664 231.26 154.342 233.844C156.019 236.428 156.858 239.511 156.858 243.092C156.858 246.628 156.019 249.688 154.342 252.272C152.664 254.811 150.284 256.76 147.202 258.12C144.119 259.48 140.447 260.16 136.186 260.16H121.702L126.598 255.332V273.42H115.582ZM145.842 273.42L133.942 256.148H145.706L157.742 273.42H145.842ZM126.598 256.556L121.702 251.388H135.574C138.974 251.388 141.512 250.663 143.19 249.212C144.867 247.716 145.706 245.676 145.706 243.092C145.706 240.463 144.867 238.423 143.19 236.972C141.512 235.521 138.974 234.796 135.574 234.796H121.702L126.598 229.56V256.556Z" fill="#DB0032"/>
<path d="M82.1319 244.996H105.048V253.564H82.1319V244.996ZM82.9479 264.58H108.856V273.42H72V225.82H107.972V234.66H82.9479V264.58Z" fill="#DB0032"/>
<defs>
<clipPath id="clip0_1547_41350">
<rect width="53.2865" height="48.3194" fill="white" transform="translate(0 225.819)"/>
</clipPath>
</defs>
</svg>
