<svg width="20" height="20" viewBox="0 0 20 20" fill="none" xmlns="http://www.w3.org/2000/svg">
<g clip-path="url(#clip0_545_37559)">
<path d="M2.025 9.16797H0.833333C0.61232 9.16797 0.400358 9.25577 0.244078 9.41205C0.0877974 9.56833 0 9.78029 0 10.0013C0 10.2223 0.0877974 10.4343 0.244078 10.5906C0.400358 10.7468 0.61232 10.8346 0.833333 10.8346H2.025C2.24601 10.8346 2.45798 10.7468 2.61426 10.5906C2.77054 10.4343 2.85833 10.2223 2.85833 10.0013C2.85833 9.78029 2.77054 9.56833 2.61426 9.41205C2.45798 9.25577 2.24601 9.16797 2.025 9.16797Z" fill="#DB0032"/>
<path d="M2.025 13.332H0.833333C0.61232 13.332 0.400358 13.4198 0.244078 13.5761C0.0877974 13.7324 0 13.9444 0 14.1654C0 14.3864 0.0877974 14.5983 0.244078 14.7546C0.400358 14.9109 0.61232 14.9987 0.833333 14.9987H2.025C2.24601 14.9987 2.45798 14.9109 2.61426 14.7546C2.77054 14.5983 2.85833 14.3864 2.85833 14.1654C2.85833 13.9444 2.77054 13.7324 2.61426 13.5761C2.45798 13.4198 2.24601 13.332 2.025 13.332Z" fill="#DB0032"/>
<path d="M2.025 5.41797H0.833333C0.61232 5.41797 0.400358 5.50577 0.244078 5.66205C0.0877974 5.81833 0 6.03029 0 6.2513C0 6.47232 0.0877974 6.68428 0.244078 6.84056C0.400358 6.99684 0.61232 7.08464 0.833333 7.08464H2.025C2.24601 7.08464 2.45798 6.99684 2.61426 6.84056C2.77054 6.68428 2.85833 6.47232 2.85833 6.2513C2.85833 6.03029 2.77054 5.81833 2.61426 5.66205C2.45798 5.50577 2.24601 5.41797 2.025 5.41797Z" fill="#DB0032"/>
<path d="M19.1656 9.16797H17.974C17.7529 9.16797 17.541 9.25577 17.3847 9.41205C17.2284 9.56833 17.1406 9.78029 17.1406 10.0013C17.1406 10.2223 17.2284 10.4343 17.3847 10.5906C17.541 10.7468 17.7529 10.8346 17.974 10.8346H19.1656C19.3866 10.8346 19.5986 10.7468 19.7549 10.5906C19.9112 10.4343 19.999 10.2223 19.999 10.0013C19.999 9.78029 19.9112 9.56833 19.7549 9.41205C19.5986 9.25577 19.3866 9.16797 19.1656 9.16797Z" fill="#DB0032"/>
<path d="M17.974 7.08464H19.1656C19.3866 7.08464 19.5986 6.99684 19.7549 6.84056C19.9112 6.68428 19.999 6.47232 19.999 6.2513C19.999 6.03029 19.9112 5.81833 19.7549 5.66205C19.5986 5.50577 19.3866 5.41797 19.1656 5.41797H17.974C17.7529 5.41797 17.541 5.50577 17.3847 5.66205C17.2284 5.81833 17.1406 6.03029 17.1406 6.2513C17.1406 6.47232 17.2284 6.68428 17.3847 6.84056C17.541 6.99684 17.7529 7.08464 17.974 7.08464Z" fill="#DB0032"/>
<path d="M19.999 14.1654C19.999 13.9444 19.9112 13.7324 19.7549 13.5761C19.5986 13.4198 19.3866 13.332 19.1656 13.332H17.974C17.7529 13.332 17.541 13.4198 17.3847 13.5761C17.2284 13.7324 17.1406 13.9444 17.1406 14.1654C17.1406 14.3864 17.2284 14.5983 17.3847 14.7546C17.541 14.9109 17.7529 14.9987 17.974 14.9987H19.1656C19.3866 14.9987 19.5986 14.9109 19.7549 14.7546C19.9112 14.5983 19.999 14.3864 19.999 14.1654Z" fill="#DB0032"/>
<path d="M10.0013 2.86667C10.2223 2.86667 10.4343 2.77887 10.5906 2.62259C10.7468 2.46631 10.8346 2.25435 10.8346 2.03333V0.833333C10.8346 0.61232 10.7468 0.400358 10.5906 0.244078C10.4343 0.0877974 10.2223 0 10.0013 0C9.78029 0 9.56833 0.0877974 9.41205 0.244078C9.25577 0.400358 9.16797 0.61232 9.16797 0.833333V2.03333C9.16797 2.25435 9.25577 2.46631 9.41205 2.62259C9.56833 2.77887 9.78029 2.86667 10.0013 2.86667Z" fill="#DB0032"/>
<path d="M6.2513 2.86667C6.47232 2.86667 6.68428 2.77887 6.84056 2.62259C6.99684 2.46631 7.08464 2.25435 7.08464 2.03333V0.833333C7.08464 0.61232 6.99684 0.400358 6.84056 0.244078C6.68428 0.0877974 6.47232 0 6.2513 0C6.03029 0 5.81833 0.0877974 5.66205 0.244078C5.50577 0.400358 5.41797 0.61232 5.41797 0.833333V2.03333C5.41797 2.25435 5.50577 2.46631 5.66205 2.62259C5.81833 2.77887 6.03029 2.86667 6.2513 2.86667Z" fill="#DB0032"/>
<path d="M13.7513 2.86667C13.9723 2.86667 14.1843 2.77887 14.3406 2.62259C14.4968 2.46631 14.5846 2.25435 14.5846 2.03333V0.833333C14.5846 0.61232 14.4968 0.400358 14.3406 0.244078C14.1843 0.0877974 13.9723 0 13.7513 0C13.5303 0 13.3183 0.0877974 13.162 0.244078C13.0058 0.400358 12.918 0.61232 12.918 0.833333V2.03333C12.918 2.25435 13.0058 2.46631 13.162 2.62259C13.3183 2.77887 13.5303 2.86667 13.7513 2.86667Z" fill="#DB0032"/>
<path d="M10.0013 17.1406C9.78029 17.1406 9.56833 17.2284 9.41205 17.3847C9.25577 17.541 9.16797 17.7529 9.16797 17.974V19.1656C9.16797 19.3866 9.25577 19.5986 9.41205 19.7549C9.56833 19.9112 9.78029 19.999 10.0013 19.999C10.2223 19.999 10.4343 19.9112 10.5906 19.7549C10.7468 19.5986 10.8346 19.3866 10.8346 19.1656V17.974C10.8346 17.7529 10.7468 17.541 10.5906 17.3847C10.4343 17.2284 10.2223 17.1406 10.0013 17.1406Z" fill="#DB0032"/>
<path d="M13.7513 17.1406C13.5303 17.1406 13.3183 17.2284 13.162 17.3847C13.0058 17.541 12.918 17.7529 12.918 17.974V19.1656C12.918 19.3866 13.0058 19.5986 13.162 19.7549C13.3183 19.9112 13.5303 19.999 13.7513 19.999C13.9723 19.999 14.1843 19.9112 14.3406 19.7549C14.4968 19.5986 14.5846 19.3866 14.5846 19.1656V17.974C14.5846 17.7529 14.4968 17.541 14.3406 17.3847C14.1843 17.2284 13.9723 17.1406 13.7513 17.1406Z" fill="#DB0032"/>
<path d="M6.2513 17.1406C6.03029 17.1406 5.81833 17.2284 5.66205 17.3847C5.50577 17.541 5.41797 17.7529 5.41797 17.974V19.1656C5.41797 19.3866 5.50577 19.5986 5.66205 19.7549C5.81833 19.9112 6.03029 19.999 6.2513 19.999C6.47232 19.999 6.68428 19.9112 6.84056 19.7549C6.99684 19.5986 7.08464 19.3866 7.08464 19.1656V17.974C7.08464 17.7529 6.99684 17.541 6.84056 17.3847C6.68428 17.2284 6.47232 17.1406 6.2513 17.1406Z" fill="#DB0032"/>
<path d="M15.0583 3.75H4.94167C4.62562 3.75 4.32251 3.87555 4.09903 4.09903C3.87555 4.32251 3.75 4.62562 3.75 4.94167V15.0583C3.75 15.3744 3.87555 15.6775 4.09903 15.901C4.32251 16.1244 4.62562 16.25 4.94167 16.25H15.0583C15.3744 16.25 15.6775 16.1244 15.901 15.901C16.1244 15.6775 16.25 15.3744 16.25 15.0583V4.94167C16.25 4.62562 16.1244 4.32251 15.901 4.09903C15.6775 3.87555 15.3744 3.75 15.0583 3.75ZM7.81667 10.625H7.03333C6.86757 10.625 6.7086 10.5592 6.59139 10.4419C6.47418 10.3247 6.40833 10.1658 6.40833 10C6.40833 9.83424 6.47418 9.67527 6.59139 9.55806C6.7086 9.44085 6.86757 9.375 7.03333 9.375H7.81667C7.92717 9.375 8.03315 9.3311 8.11129 9.25296C8.18944 9.17482 8.23333 9.06884 8.23333 8.95833C8.2312 8.84849 8.18662 8.74375 8.10893 8.66607C8.03125 8.58838 7.92651 8.5438 7.81667 8.54167H6.25C6.08424 8.54167 5.92527 8.47582 5.80806 8.35861C5.69085 8.2414 5.625 8.08243 5.625 7.91667C5.625 7.75091 5.69085 7.59193 5.80806 7.47472C5.92527 7.35751 6.08424 7.29167 6.25 7.29167H7.81667C8.11528 7.29815 8.40668 7.38476 8.66035 7.54244C8.91403 7.70011 9.12067 7.92307 9.25866 8.18797C9.39665 8.45288 9.46091 8.75 9.44473 9.04825C9.42855 9.3465 9.33251 9.63492 9.16667 9.88333C9.14225 9.91733 9.12911 9.95814 9.12911 10C9.12911 10.0419 9.14225 10.0827 9.16667 10.1167C9.33398 10.3674 9.43014 10.6589 9.44491 10.96C9.45969 11.2611 9.39253 11.5605 9.25058 11.8265C9.10863 12.0924 8.89721 12.3149 8.63883 12.4702C8.38045 12.6255 8.08479 12.7078 7.78333 12.7083H6.25C6.08424 12.7083 5.92527 12.6425 5.80806 12.5253C5.69085 12.4081 5.625 12.2491 5.625 12.0833C5.625 11.9176 5.69085 11.7586 5.80806 11.6414C5.92527 11.5242 6.08424 11.4583 6.25 11.4583H7.81667C7.92717 11.4583 8.03315 11.4144 8.11129 11.3363C8.18944 11.2582 8.23333 11.1522 8.23333 11.0417C8.2312 10.9318 8.18662 10.8271 8.10893 10.7494C8.03125 10.6717 7.92651 10.6271 7.81667 10.625ZM13.7417 11.4583C13.9074 11.4583 14.0664 11.5242 14.1836 11.6414C14.3008 11.7586 14.3667 11.9176 14.3667 12.0833C14.3667 12.2491 14.3008 12.4081 14.1836 12.5253C14.0664 12.6425 13.9074 12.7083 13.7417 12.7083H11.1417C11.0154 12.7084 10.8921 12.6702 10.788 12.5988C10.6838 12.5274 10.6038 12.4261 10.5583 12.3083C10.5137 12.1896 10.5057 12.0602 10.5354 11.9369C10.5651 11.8136 10.6311 11.702 10.725 11.6167L12.55 10C13.1 9.51667 13.175 9.41667 13.1083 9.075C13.0759 8.92208 12.9921 8.78489 12.8708 8.68632C12.7494 8.58775 12.598 8.53375 12.4417 8.53333C12.2626 8.53333 12.091 8.60445 11.9644 8.73104C11.8378 8.85762 11.7667 9.02931 11.7667 9.20833C11.7667 9.37409 11.7008 9.53306 11.5836 9.65028C11.4664 9.76749 11.3074 9.83333 11.1417 9.83333C10.9759 9.83333 10.8169 9.76749 10.6997 9.65028C10.5825 9.53306 10.5167 9.37409 10.5167 9.20833C10.5097 8.72637 10.6839 8.25934 11.0046 7.89955C11.3254 7.53977 11.7695 7.31343 12.2491 7.26526C12.7287 7.21709 13.2089 7.3506 13.5948 7.6394C13.9808 7.92821 14.2443 8.35128 14.3333 8.825C14.4077 9.22089 14.3607 9.62999 14.1986 9.99874C14.0366 10.3675 13.7669 10.6787 13.425 10.8917L13.2083 11.0833C13.1757 11.1114 13.1525 11.1489 13.1421 11.1907C13.1316 11.2325 13.1344 11.2765 13.15 11.3167C13.164 11.3562 13.19 11.3903 13.2244 11.4142C13.2587 11.4381 13.2998 11.4506 13.3417 11.45L13.7417 11.4583Z" fill="#DB0032"/>
<rect x="5" y="6" width="10" height="8" fill="#DB0032"/>
</g>
<defs>
<clipPath id="clip0_545_37559">
<rect width="20" height="20" fill="white"/>
</clipPath>
</defs>
</svg>
