<svg width="20" height="20" viewBox="0 0 20 20" fill="none" xmlns="http://www.w3.org/2000/svg">
<path d="M1.25 17.5H18.75C19.0815 17.5 19.3995 17.3683 19.6339 17.1339C19.8683 16.8995 20 16.5815 20 16.25V3.75C20 3.41848 19.8683 3.10054 19.6339 2.86612C19.3995 2.6317 19.0815 2.5 18.75 2.5H1.25C0.918479 2.5 0.600537 2.6317 0.366117 2.86612C0.131696 3.10054 0 3.41848 0 3.75L0 16.25C0 16.5815 0.131696 16.8995 0.366117 17.1339C0.600537 17.3683 0.918479 17.5 1.25 17.5ZM2.2 13.2667L4.34167 9.7C4.45235 9.51347 4.60966 9.35895 4.79813 9.25163C4.98661 9.1443 5.19977 9.08787 5.41667 9.08787C5.63356 9.08787 5.84672 9.1443 6.0352 9.25163C6.22368 9.35895 6.38099 9.51347 6.49167 9.7L7.875 12.0167C7.8947 12.0436 7.91959 12.0664 7.94822 12.0835C7.97684 12.1007 8.00862 12.112 8.04167 12.1167C8.07455 12.1177 8.10725 12.1115 8.13749 12.0986C8.16773 12.0856 8.19475 12.0662 8.21667 12.0417L9.05 11.05C9.17039 10.9148 9.31802 10.8067 9.48319 10.7326C9.64835 10.6585 9.82732 10.6202 10.0083 10.6202C10.1893 10.6202 10.3683 10.6585 10.5335 10.7326C10.6986 10.8067 10.8463 10.9148 10.9667 11.05L11.9667 12.2417L15.6 5.875C15.7105 5.68272 15.8929 5.54221 16.107 5.48439C16.3211 5.42656 16.5494 5.45616 16.7417 5.56667C16.9339 5.67717 17.0745 5.85954 17.1323 6.07364C17.1901 6.28775 17.1605 6.51605 17.05 6.70833L13.1167 13.6C13.0172 13.7756 12.8764 13.9242 12.7065 14.0331C12.5366 14.142 12.3427 14.2079 12.1417 14.225C11.9395 14.2422 11.7361 14.2103 11.5489 14.1319C11.3617 14.0536 11.1963 13.9311 11.0667 13.775L10.1667 12.7C10.1471 12.6771 10.1228 12.6588 10.0955 12.6462C10.0682 12.6336 10.0384 12.6271 10.0083 12.6271C9.97824 12.6271 9.9485 12.6336 9.92117 12.6462C9.89384 12.6588 9.86956 12.6771 9.85 12.7L8.94167 13.7917C8.81286 13.9435 8.64987 14.0625 8.4661 14.1391C8.28233 14.2156 8.08302 14.2475 7.88455 14.232C7.68607 14.2166 7.49409 14.1542 7.32439 14.0502C7.15468 13.9461 7.01209 13.8032 6.90833 13.6333L5.59167 11.45C5.57437 11.4187 5.54902 11.3927 5.51824 11.3745C5.48747 11.3564 5.45239 11.3468 5.41667 11.3468C5.38094 11.3468 5.34587 11.3564 5.31509 11.3745C5.28432 11.3927 5.25896 11.4187 5.24167 11.45L3.63333 14.1667C3.55958 14.2911 3.45472 14.3941 3.32906 14.4657C3.20341 14.5373 3.06129 14.575 2.91667 14.575C2.76598 14.561 2.62194 14.5063 2.5 14.4167C2.40409 14.3615 2.32012 14.2879 2.25298 14.1999C2.18584 14.112 2.13688 14.0116 2.10896 13.9045C2.08103 13.7975 2.0747 13.686 2.09033 13.5765C2.10596 13.4669 2.14324 13.3616 2.2 13.2667Z" fill="#DB0032"/>
</svg>
