<svg width="20" height="20" viewBox="0 0 20 20" fill="none" xmlns="http://www.w3.org/2000/svg">
<path fill-rule="evenodd" clip-rule="evenodd" d="M10 0C10.4602 0 10.8333 0.373096 10.8333 0.833333V1.66667C10.8333 2.1269 10.4602 2.5 10 2.5C9.53975 2.5 9.16667 2.1269 9.16667 1.66667V0.833333C9.16667 0.373096 9.53975 0 10 0ZM9.39708 4.00207C9.47125 3.73023 9.71825 3.54167 10 3.54167C10.2817 3.54167 10.5288 3.73023 10.6029 4.00207C11.0432 5.61452 11.5381 6.65438 12.3106 7.43855C13.0877 8.2275 14.2068 8.81975 16.0249 9.40508C16.2832 9.48825 16.4583 9.72858 16.4583 10C16.4583 10.2714 16.2832 10.5117 16.0249 10.5949C14.2068 11.1803 13.0877 11.7725 12.3106 12.5614C11.5381 13.3456 11.0432 14.3855 10.6029 15.9979C10.5288 16.2697 10.2817 16.4583 10 16.4583C9.71825 16.4583 9.47125 16.2697 9.39708 15.9979C8.95683 14.3855 8.46192 13.3456 7.68946 12.5614C6.91229 11.7725 5.79323 11.1803 3.97513 10.5949C3.7168 10.5117 3.54167 10.2714 3.54167 10C3.54167 9.72858 3.7168 9.48825 3.97513 9.40508C5.79323 8.81975 6.91229 8.2275 7.68946 7.43855C8.46192 6.65438 8.95683 5.61452 9.39708 4.00207ZM10.8333 18.3333C10.8333 17.8731 10.4602 17.5 10 17.5C9.53975 17.5 9.16667 17.8731 9.16667 18.3333V19.1667C9.16667 19.6269 9.53975 20 10 20C10.4602 20 10.8333 19.6269 10.8333 19.1667V18.3333ZM20 10C20 10.4602 19.6269 10.8333 19.1667 10.8333H18.3333C17.8731 10.8333 17.5 10.4602 17.5 10C17.5 9.53975 17.8731 9.16667 18.3333 9.16667H19.1667C19.6269 9.16667 20 9.53975 20 10ZM1.66667 10.8333C2.1269 10.8333 2.5 10.4602 2.5 10C2.5 9.53975 2.1269 9.16667 1.66667 9.16667H0.833333C0.373096 9.16667 0 9.53975 0 10C0 10.4602 0.373096 10.8333 0.833333 10.8333H1.66667ZM17.2559 2.74408C17.5813 3.06952 17.5813 3.59715 17.2559 3.92259L14.7559 6.42259C14.4305 6.74802 13.9028 6.74802 13.5774 6.42259C13.252 6.09715 13.252 5.56952 13.5774 5.24407L16.0774 2.74408C16.4028 2.41864 16.9305 2.41864 17.2559 2.74408ZM2.74408 3.92259C2.41864 3.59715 2.41864 3.06952 2.74408 2.74408C3.06952 2.41864 3.59715 2.41864 3.92259 2.74408L6.42259 5.24407C6.74802 5.56952 6.74802 6.09715 6.42259 6.42259C6.09715 6.74802 5.56952 6.74802 5.24407 6.42259L2.74408 3.92259ZM2.74408 17.2559C2.41864 16.9305 2.41864 16.4028 2.74408 16.0774L5.24407 13.5774C5.56952 13.252 6.09715 13.252 6.42259 13.5774C6.74802 13.9028 6.74802 14.4305 6.42259 14.7559L3.92259 17.2559C3.59715 17.5813 3.06952 17.5813 2.74408 17.2559ZM17.2559 16.0774C17.5813 16.4028 17.5813 16.9305 17.2559 17.2559C16.9305 17.5813 16.4028 17.5813 16.0774 17.2559L13.5774 14.7559C13.252 14.4305 13.252 13.9028 13.5774 13.5774C13.9028 13.252 14.4305 13.252 14.7559 13.5774L17.2559 16.0774Z" fill="#DB0032"/>
</svg>
