<svg width="24" height="25" viewBox="0 0 24 25" fill="none" xmlns="http://www.w3.org/2000/svg">
<g clip-path="url(#clip0_518_24421)">
<path d="M3 21.0004H21C21.3978 21.0004 21.7794 20.8423 22.0607 20.561C22.342 20.2797 22.5 19.8982 22.5 19.5004V6.97036C22.4999 6.60583 22.4001 6.24826 22.2116 5.9363C22.023 5.62435 21.7527 5.36986 21.43 5.20036L12.93 0.730355C12.6432 0.579694 12.324 0.500977 12 0.500977C11.676 0.500977 11.3568 0.579694 11.07 0.730355L2.57 5.20036C2.24728 5.36986 1.97702 5.62435 1.78844 5.9363C1.59985 6.24826 1.50011 6.60583 1.5 6.97036V19.5004C1.5 19.8982 1.65804 20.2797 1.93934 20.561C2.22064 20.8423 2.60218 21.0004 3 21.0004ZM16.16 16.2304C16.1971 16.3112 16.2076 16.4017 16.19 16.4889C16.1724 16.5761 16.1275 16.6554 16.0619 16.7155C15.9963 16.7756 15.9133 16.8132 15.8249 16.8231C15.7365 16.8329 15.6472 16.8145 15.57 16.7704L12.25 14.9004C12.174 14.8565 12.0878 14.8334 12 14.8334C11.9122 14.8334 11.826 14.8565 11.75 14.9004L8.43 16.7704C8.35276 16.8145 8.26351 16.8329 8.17511 16.8231C8.0867 16.8132 8.00371 16.7756 7.93809 16.7155C7.87248 16.6554 7.82762 16.5761 7.80999 16.4889C7.79236 16.4017 7.80287 16.3112 7.84 16.2304L9.19 13.1204C9.23412 13.0243 9.2453 12.9163 9.22179 12.8133C9.19828 12.7102 9.14141 12.6178 9.06 12.5504L6.75 10.5004C6.68674 10.442 6.64244 10.366 6.62283 10.2822C6.60322 10.1985 6.6092 10.1107 6.64 10.0304C6.66666 9.95397 6.71482 9.88691 6.77868 9.83723C6.84255 9.78756 6.9194 9.75739 7 9.75035H9.78C9.87731 9.74944 9.97232 9.72072 10.0538 9.66756C10.1353 9.6144 10.1999 9.53903 10.24 9.45035L11.61 6.25036C11.6445 6.17601 11.6996 6.11308 11.7687 6.06899C11.8378 6.02489 11.918 6.00146 12 6.00146C12.082 6.00146 12.1622 6.02489 12.2313 6.06899C12.3004 6.11308 12.3555 6.17601 12.39 6.25036L13.76 9.50035C13.8001 9.58903 13.8647 9.6644 13.9462 9.71756C14.0277 9.77072 14.1227 9.79945 14.22 9.80035H17C17.0846 9.80082 17.1672 9.82685 17.2368 9.87503C17.3064 9.92321 17.3598 9.99129 17.39 10.0704C17.4208 10.1507 17.4268 10.2385 17.4072 10.3222C17.3876 10.406 17.3433 10.482 17.28 10.5404L14.97 12.6004C14.8886 12.6678 14.8317 12.7602 14.8082 12.8633C14.7847 12.9663 14.7959 13.0743 14.84 13.1704L16.16 16.2304Z" fill="#DB0032"/>
<path d="M21.5 22.5H2.5C2.23478 22.5 1.98043 22.6054 1.79289 22.7929C1.60536 22.9804 1.5 23.2348 1.5 23.5C1.5 23.7652 1.60536 24.0196 1.79289 24.2071C1.98043 24.3946 2.23478 24.5 2.5 24.5H21.5C21.7652 24.5 22.0196 24.3946 22.2071 24.2071C22.3946 24.0196 22.5 23.7652 22.5 23.5C22.5 23.2348 22.3946 22.9804 22.2071 22.7929C22.0196 22.6054 21.7652 22.5 21.5 22.5Z" fill="#DB0032"/>
</g>
<defs>
<clipPath id="clip0_518_24421">
<rect width="24" height="24" fill="white" transform="translate(0 0.5)"/>
</clipPath>
</defs>
</svg>
