<svg width="20" height="20" viewBox="0 0 20 20" fill="none" xmlns="http://www.w3.org/2000/svg">
<mask id="mask0_551_33924" style="mask-type:alpha" maskUnits="userSpaceOnUse" x="0" y="0" width="20" height="20">
<rect width="20" height="20" fill="#D9D9D9"/>
</mask>
<g mask="url(#mask0_551_33924)">
<path d="M9.99667 14.5665C10.3287 14.5665 10.6081 14.4541 10.8346 14.2294C11.061 14.0048 11.1742 13.7265 11.1742 13.3944C11.1742 13.0622 11.0619 12.7809 10.8373 12.5506C10.6126 12.3202 10.3342 12.205 10.0021 12.205C9.67 12.205 9.39069 12.3202 9.16417 12.5506C8.93778 12.7809 8.82458 13.0622 8.82458 13.3944C8.82458 13.7265 8.93688 14.0048 9.16146 14.2294C9.38618 14.4541 9.66458 14.5665 9.99667 14.5665ZM9.99938 10.8562C10.3062 10.8562 10.5669 10.7489 10.7815 10.5342C10.9962 10.3196 11.1035 10.0589 11.1035 9.75208V6.68958C11.1035 6.38278 10.9962 6.12208 10.7815 5.9075C10.5669 5.69278 10.3062 5.58542 9.99938 5.58542C9.69257 5.58542 9.43187 5.69278 9.21729 5.9075C9.00257 6.12208 8.89521 6.38278 8.89521 6.68958V9.75208C8.89521 10.0589 9.00257 10.3196 9.21729 10.5342C9.43187 10.7489 9.69257 10.8562 9.99938 10.8562ZM9.99938 18.7331C8.78382 18.7331 7.64556 18.5042 6.58458 18.0465C5.52375 17.5887 4.60097 16.9674 3.81625 16.1825C3.03139 15.3978 2.41007 14.475 1.95229 13.4142C1.49451 12.3532 1.26562 11.2149 1.26562 9.99937C1.26562 8.78382 1.49451 7.64556 1.95229 6.58458C2.41007 5.52375 3.03139 4.60097 3.81625 3.81625C4.60097 3.03139 5.52375 2.41007 6.58458 1.95229C7.64556 1.49451 8.78382 1.26562 9.99938 1.26562C11.2149 1.26562 12.3532 1.49451 13.4142 1.95229C14.475 2.41007 15.3978 3.03139 16.1825 3.81625C16.9674 4.60097 17.5887 5.52375 18.0465 6.58458C18.5042 7.64556 18.7331 8.78382 18.7331 9.99937C18.7331 11.2149 18.5042 12.3532 18.0465 13.4142C17.5887 14.475 16.9674 15.3978 16.1825 16.1825C15.3978 16.9674 14.475 17.5887 13.4142 18.0465C12.3532 18.5042 11.2149 18.7331 9.99938 18.7331Z" fill="#666666"/>
</g>
</svg>
