<svg width="24" height="25" viewBox="0 0 24 25" fill="none" xmlns="http://www.w3.org/2000/svg">
<g clip-path="url(#clip0_518_24402)">
<path d="M2.21875 9.19016C2.21875 9.55523 2.29066 9.91673 2.43036 10.254C2.57007 10.5913 2.77485 10.8978 3.03299 11.1559C3.29114 11.4141 3.5976 11.6188 3.93489 11.7585C4.27218 11.8982 4.63368 11.9702 4.99875 11.9702C5.36382 11.9702 5.72532 11.8982 6.06261 11.7585C6.3999 11.6188 6.70636 11.4141 6.96451 11.1559C7.22265 10.8978 7.42743 10.5913 7.56713 10.254C7.70684 9.91673 7.77875 9.55523 7.77875 9.19016C7.77875 8.45285 7.48586 7.74575 6.96451 7.2244C6.44316 6.70305 5.73605 6.41016 4.99875 6.41016C4.26145 6.41016 3.55434 6.70305 3.03299 7.2244C2.51164 7.74575 2.21875 8.45285 2.21875 9.19016Z" fill="#DB0032"/>
<path d="M5.00121 13.0801C3.71897 13.0783 2.48507 13.5693 1.55452 14.4515C0.623966 15.3336 0.06789 16.5396 0.00121458 17.8201C-0.0023875 17.855 0.00204791 17.8903 0.0141811 17.9232C0.0263143 17.9561 0.0458235 17.9859 0.0712146 18.0101C0.120532 18.0548 0.184636 18.0797 0.251215 18.0801H9.75121C9.81714 18.0765 9.8802 18.052 9.93122 18.0101C9.95322 17.9839 9.96984 17.9537 9.98014 17.9211C9.99043 17.8885 9.9942 17.8541 9.99121 17.8201C9.92463 16.5413 9.36995 15.3368 8.44154 14.4549C7.51312 13.573 6.28173 13.0809 5.00121 13.0801Z" fill="#DB0032"/>
<path d="M14.5 5.75C14.5 5.6837 14.5263 5.62011 14.5732 5.57322C14.6201 5.52634 14.6837 5.5 14.75 5.5H15.5C15.7652 5.5 16.0196 5.39464 16.2071 5.20711C16.3946 5.01957 16.5 4.76522 16.5 4.5C16.5 4.23478 16.3946 3.98043 16.2071 3.79289C16.0196 3.60536 15.7652 3.5 15.5 3.5H14C13.6022 3.5 13.2206 3.65804 12.9393 3.93934C12.658 4.22064 12.5 4.60218 12.5 5V11.25C12.5 11.3163 12.4737 11.3799 12.4268 11.4268C12.3799 11.4737 12.3163 11.5 12.25 11.5H10.5C10.2348 11.5 9.98043 11.6054 9.79289 11.7929C9.60536 11.9804 9.5 12.2348 9.5 12.5C9.5 12.7652 9.60536 13.0196 9.79289 13.2071C9.98043 13.3946 10.2348 13.5 10.5 13.5H12.25C12.3163 13.5 12.3799 13.5263 12.4268 13.5732C12.4737 13.6201 12.5 13.6837 12.5 13.75V20C12.5 20.3978 12.658 20.7794 12.9393 21.0607C13.2206 21.342 13.6022 21.5 14 21.5H15.5C15.7652 21.5 16.0196 21.3946 16.2071 21.2071C16.3946 21.0196 16.5 20.7652 16.5 20.5C16.5 20.2348 16.3946 19.9804 16.2071 19.7929C16.0196 19.6054 15.7652 19.5 15.5 19.5H14.75C14.6837 19.5 14.6201 19.4737 14.5732 19.4268C14.5263 19.3799 14.5 19.3163 14.5 19.25V5.75Z" fill="#DB0032"/>
<path d="M18.5625 18.44C18.5625 18.9545 18.7669 19.448 19.1307 19.8118C19.4945 20.1756 19.988 20.38 20.5025 20.38C21.017 20.38 21.5105 20.1756 21.8743 19.8118C22.2381 19.448 22.4425 18.9545 22.4425 18.44C22.4425 17.9255 22.2381 17.432 21.8743 17.0682C21.5105 16.7044 21.017 16.5 20.5025 16.5C19.988 16.5 19.4945 16.7044 19.1307 17.0682C18.7669 17.432 18.5625 17.9255 18.5625 18.44Z" fill="#DB0032"/>
<path d="M20.5003 21C19.617 20.9974 18.7653 21.3288 18.1162 21.9279C17.467 22.527 17.0684 23.3493 17.0003 24.23C16.9987 24.2648 17.004 24.2995 17.016 24.3321C17.0281 24.3647 17.0465 24.3946 17.0703 24.42C17.0933 24.4448 17.1211 24.4647 17.1521 24.4785C17.183 24.4922 17.2164 24.4996 17.2503 24.5H23.7303C23.8017 24.4995 23.87 24.4708 23.9203 24.42C23.9423 24.3938 23.9589 24.3636 23.9692 24.331C23.9795 24.2984 23.9833 24.2641 23.9803 24.23C23.9124 23.3528 23.5166 22.5333 22.8717 21.9347C22.2268 21.3361 21.3802 21.0024 20.5003 21Z" fill="#DB0032"/>
<path d="M18.5625 2.44C18.5625 2.95452 18.7669 3.44797 19.1307 3.81179C19.4945 4.17561 19.988 4.38 20.5025 4.38C21.017 4.38 21.5105 4.17561 21.8743 3.81179C22.2381 3.44797 22.4425 2.95452 22.4425 2.44C22.4425 1.92548 22.2381 1.43203 21.8743 1.06821C21.5105 0.704392 21.017 0.5 20.5025 0.5C19.988 0.5 19.4945 0.704392 19.1307 1.06821C18.7669 1.43203 18.5625 1.92548 18.5625 2.44Z" fill="#DB0032"/>
<path d="M20.5003 5.00002C19.617 4.99738 18.7653 5.32884 18.1162 5.92791C17.467 6.52697 17.0684 7.34933 17.0003 8.23002C16.9987 8.26476 17.004 8.29947 17.016 8.33211C17.0281 8.36475 17.0465 8.39464 17.0703 8.42002C17.0933 8.44484 17.1211 8.46474 17.1521 8.47849C17.183 8.49224 17.2164 8.49957 17.2503 8.50002H23.7303C23.8017 8.49953 23.87 8.47076 23.9203 8.42002C23.9459 8.39547 23.9662 8.36596 23.9799 8.33328C23.9937 8.30061 24.0006 8.26547 24.0003 8.23002C23.9321 7.34933 23.5335 6.52697 22.8844 5.92791C22.2353 5.32884 21.3836 4.99738 20.5003 5.00002Z" fill="#DB0032"/>
</g>
<defs>
<clipPath id="clip0_518_24402">
<rect width="24" height="24" fill="white" transform="translate(0 0.5)"/>
</clipPath>
</defs>
</svg>
