<svg width="24" height="24" viewBox="0 0 24 24" fill="none" xmlns="http://www.w3.org/2000/svg">
<g clip-path="url(#clip0_545_37541)">
<path d="M18.75 11.7188V6.71875C18.75 4.92854 18.0388 3.21165 16.773 1.94578C15.5071 0.679909 13.7902 -0.03125 12 -0.03125C10.2098 -0.03125 8.4929 0.679909 7.22703 1.94578C5.96116 3.21165 5.25 4.92854 5.25 6.71875V11.7188C4.48062 12.9282 4.05034 14.3222 4.00415 15.7549C3.95797 17.1876 4.29758 18.6064 4.98747 19.8629C5.67736 21.1194 6.69219 22.1675 7.92581 22.8975C9.15944 23.6275 10.5666 24.0126 12 24.0126C13.4334 24.0126 14.8406 23.6275 16.0742 22.8975C17.3078 22.1675 18.3226 21.1194 19.0125 19.8629C19.7024 18.6064 20.042 17.1876 19.9958 15.7549C19.9497 14.3222 19.5194 12.9282 18.75 11.7188ZM12 17.9988C11.6044 17.9988 11.2178 17.8815 10.8889 17.6617C10.56 17.4419 10.3036 17.1296 10.1522 16.7641C10.0009 16.3987 9.96126 15.9965 10.0384 15.6086C10.1156 15.2206 10.3061 14.8642 10.5858 14.5845C10.8655 14.3048 11.2219 14.1143 11.6098 14.0372C11.9978 13.96 12.3999 13.9996 12.7654 14.151C13.1308 14.3024 13.4432 14.5587 13.6629 14.8876C13.8827 15.2165 14 15.6032 14 15.9988C14 16.5292 13.7893 17.0379 13.4142 17.413C13.0391 17.788 12.5304 17.9988 12 17.9988ZM16.25 8.37875C16.2486 8.46467 16.226 8.54892 16.1841 8.62396C16.1422 8.699 16.0824 8.76249 16.01 8.80875C15.937 8.85088 15.8543 8.87306 15.77 8.87306C15.6857 8.87306 15.603 8.85088 15.53 8.80875C14.4334 8.26274 13.225 7.97857 12 7.97857C10.775 7.97857 9.56663 8.26274 8.47 8.80875C8.39703 8.85088 8.31426 8.87306 8.23 8.87306C8.14574 8.87306 8.06297 8.85088 7.99 8.80875C7.91758 8.76249 7.85775 8.699 7.81587 8.62396C7.77399 8.54892 7.75136 8.46467 7.75 8.37875V6.74875C7.75 5.62158 8.19777 4.54058 8.9948 3.74355C9.79183 2.94652 10.8728 2.49875 12 2.49875C13.1272 2.49875 14.2082 2.94652 15.0052 3.74355C15.8022 4.54058 16.25 5.62158 16.25 6.74875V8.37875Z" fill="#DB0032"/>
</g>
<defs>
<clipPath id="clip0_545_37541">
<rect width="24" height="24" fill="white"/>
</clipPath>
</defs>
</svg>
