<svg width="20" height="20" viewBox="0 0 20 20" fill="none" xmlns="http://www.w3.org/2000/svg">
<g clip-path="url(#clip0_545_37553)">
<path fill-rule="evenodd" clip-rule="evenodd" d="M0 1.66667C0 1.22464 0.175595 0.800716 0.488155 0.488155C0.800716 0.175595 1.22464 0 1.66667 0L11.6667 0C12.1087 0 12.5326 0.175595 12.8452 0.488155C13.1577 0.800716 13.3333 1.22464 13.3333 1.66667V20H8.33333V17.5C8.33333 17.058 8.15774 16.6341 7.84518 16.3215C7.53262 16.0089 7.10869 15.8333 6.66667 15.8333C6.22464 15.8333 5.80072 16.0089 5.48816 16.3215C5.17559 16.6341 5 17.058 5 17.5V20H0V1.66667ZM14.5833 8.33333H18.3333C18.7754 8.33333 19.1993 8.50893 19.5118 8.82149C19.8244 9.13405 20 9.55797 20 10V20H14.5833V8.33333ZM3.33333 2.5C3.11232 2.5 2.90036 2.5878 2.74408 2.74408C2.5878 2.90036 2.5 3.11232 2.5 3.33333V5.41667C2.5 5.63768 2.5878 5.84964 2.74408 6.00592C2.90036 6.1622 3.11232 6.25 3.33333 6.25H4.58333C4.80435 6.25 5.01631 6.1622 5.17259 6.00592C5.32887 5.84964 5.41667 5.63768 5.41667 5.41667V3.33333C5.41667 3.11232 5.32887 2.90036 5.17259 2.74408C5.01631 2.5878 4.80435 2.5 4.58333 2.5H3.33333ZM7.91667 3.33333C7.91667 3.11232 8.00446 2.90036 8.16074 2.74408C8.31703 2.5878 8.52899 2.5 8.75 2.5H10C10.221 2.5 10.433 2.5878 10.5893 2.74408C10.7455 2.90036 10.8333 3.11232 10.8333 3.33333V5.41667C10.8333 5.63768 10.7455 5.84964 10.5893 6.00592C10.433 6.1622 10.221 6.25 10 6.25H8.75C8.52899 6.25 8.31703 6.1622 8.16074 6.00592C8.00446 5.84964 7.91667 5.63768 7.91667 5.41667V3.33333ZM3.33333 9.58333C3.2239 9.58333 3.11554 9.60489 3.01443 9.64677C2.91333 9.68865 2.82146 9.75003 2.74408 9.82741C2.6667 9.90479 2.60531 9.99666 2.56343 10.0978C2.52155 10.1989 2.5 10.3072 2.5 10.4167V12.5C2.5 12.721 2.5878 12.933 2.74408 13.0893C2.90036 13.2455 3.11232 13.3333 3.33333 13.3333H4.58333C4.80435 13.3333 5.01631 13.2455 5.17259 13.0893C5.32887 12.933 5.41667 12.721 5.41667 12.5V10.4167C5.41667 10.1957 5.32887 9.98369 5.17259 9.82741C5.01631 9.67113 4.80435 9.58333 4.58333 9.58333H3.33333ZM7.91667 10.4167C7.91667 10.3072 7.93822 10.1989 7.9801 10.0978C8.02198 9.99666 8.08336 9.90479 8.16074 9.82741C8.23813 9.75003 8.32999 9.68865 8.4311 9.64677C8.5322 9.60489 8.64056 9.58333 8.75 9.58333H10C10.1094 9.58333 10.2178 9.60489 10.3189 9.64677C10.42 9.68865 10.5119 9.75003 10.5893 9.82741C10.6666 9.90479 10.728 9.99666 10.7699 10.0978C10.8118 10.1989 10.8333 10.3072 10.8333 10.4167V12.5C10.8333 12.721 10.7455 12.933 10.5893 13.0893C10.433 13.2455 10.221 13.3333 10 13.3333H8.75C8.52899 13.3333 8.31703 13.2455 8.16074 13.0893C8.00446 12.933 7.91667 12.721 7.91667 12.5V10.4167Z" fill="#DB0032"/>
</g>
<defs>
<clipPath id="clip0_545_37553">
<rect width="20" height="20" fill="white"/>
</clipPath>
</defs>
</svg>
