<svg width="48" height="66" viewBox="0 0 48 66" fill="none" xmlns="http://www.w3.org/2000/svg">
<path d="M37.9512 41.2012C37.2848 41.7354 36.2616 41.7125 35.2324 41.6851C34.3444 41.6606 33.4533 41.6316 32.7854 41.9568C31.3646 42.6467 30.5555 45.1913 28.9798 45.5515C27.4588 45.8995 25.6387 43.9762 24.0114 43.9671H24.0007C22.3704 43.9671 20.5458 45.8995 19.0217 45.5515C17.446 45.1913 16.6369 42.6467 15.2161 41.9568C14.5466 41.6332 13.6556 41.6606 12.7691 41.6851C11.7398 41.7125 10.7152 41.7369 10.0488 41.2012C8.80252 40.2014 9.16835 37.5561 8.17254 36.3013C7.18129 35.0543 4.53541 34.8268 3.83865 33.3737C3.15251 31.9449 4.6189 29.7255 4.26066 28.1426C3.91303 26.6085 1.62692 25.25 1.62692 23.6091C1.62692 21.9682 3.91455 20.6112 4.26066 19.0772C4.6189 17.4927 3.15251 15.2733 3.83865 13.8446C4.53541 12.3914 7.18129 12.164 8.17254 10.9169C9.16835 9.66368 8.80252 7.01839 10.0488 6.01705C11.2905 5.02029 13.7709 5.96363 15.2161 5.263C16.6369 4.57458 17.446 2.0285 19.0217 1.66826C20.5473 1.31871 22.3719 3.25117 24.0007 3.25117C25.6296 3.25117 27.4557 1.32024 28.9798 1.66826C30.5555 2.02697 31.3646 4.57305 32.7854 5.263C34.2306 5.96363 36.711 5.02029 37.9527 6.01705C39.199 7.01839 38.8347 9.66216 39.8305 10.9169C40.8202 12.164 43.4676 12.3914 44.1644 13.8446C44.849 15.2733 43.3841 17.4942 43.7408 19.0772C44.0885 20.6112 46.3761 21.9697 46.3761 23.6091C46.3761 25.2485 44.0885 26.607 43.7408 28.1426C43.3841 29.727 44.849 31.9465 44.1644 33.3737C43.4676 34.8268 40.8202 35.0543 39.8305 36.3013C38.8347 37.5545 39.199 40.1998 37.9527 41.2012H37.9512Z" fill="white"/>
<path d="M24.0008 10.4121C31.5817 10.4121 37.728 16.5926 37.728 24.2156C37.728 31.8386 31.5817 38.0191 24.0008 38.0191C16.4199 38.0191 10.2735 31.8386 10.2735 24.2156C10.2735 16.5926 16.4199 10.4121 24.0008 10.4121Z" fill="white"/>
<path d="M31.9627 21.6145L27.981 25.5161L28.9206 31.0265L24.0008 28.4254L19.0794 31.0265L20.019 25.5161L16.0388 21.6145L21.5401 20.8101L24.0008 15.7988L26.4599 20.8101L31.9627 21.6145Z" fill="white"/>
<path d="M35.2325 41.6834V64.3722L24.0008 56.8423C24.0008 56.6012 23.9992 58.8801 24.0114 43.9654C25.6387 43.9746 27.4588 45.8963 28.9798 45.5498C30.5555 45.1896 31.3646 42.6451 32.7854 41.9551C33.4549 41.6315 34.3459 41.659 35.2325 41.6834Z" fill="white"/>
<path d="M24.0008 56.8445L12.7691 64.3744V41.6856C13.6571 41.6612 14.5482 41.6322 15.2161 41.9573C16.6369 42.6473 17.446 45.1918 19.0217 45.552C20.5564 45.9031 22.3537 43.9676 24.0129 43.9676C23.9993 58.8823 24.0023 56.6018 24.0023 56.8445H24.0008Z" fill="white"/>
<path d="M45.4897 26.5298C46.232 25.6491 47.0002 24.7378 47.0002 23.6098C47.0002 22.4818 46.232 21.572 45.4897 20.6913C44.9903 20.0975 44.4727 19.4854 44.3497 18.9404C44.2192 18.3604 44.4241 17.559 44.623 16.7851C44.9038 15.6876 45.1952 14.552 44.7262 13.5735C44.248 12.5768 43.1718 12.0944 42.1319 11.6289C41.4154 11.3083 40.6746 10.9771 40.3179 10.5268C39.9566 10.0719 39.7988 9.26748 39.6454 8.49053C39.4253 7.37166 39.1961 6.21463 38.343 5.52926C37.4929 4.84695 36.3241 4.879 35.1931 4.91106C34.4023 4.93243 33.5841 4.95532 33.0588 4.70041C32.5503 4.45313 32.0676 3.80593 31.6 3.17856C30.9139 2.25813 30.2035 1.30564 29.1211 1.05836C28.0798 0.820236 27.0506 1.35448 26.0563 1.87194C25.3428 2.24287 24.6066 2.626 24.0039 2.626C23.4013 2.626 22.6651 2.24287 21.9516 1.87194C20.9573 1.35448 19.9281 0.820236 18.8868 1.05836C17.8044 1.30564 17.094 2.2566 16.4079 3.17856C15.9403 3.80593 15.4576 4.45313 14.9491 4.70041C14.4223 4.95532 13.6056 4.93243 12.8148 4.91106C11.6838 4.879 10.5135 4.84695 9.66339 5.52926C8.80875 6.21615 8.58105 7.37166 8.36094 8.49053C8.20762 9.26748 8.04975 10.0719 7.68847 10.5268C7.33174 10.9771 6.59095 11.3083 5.87446 11.6289C4.83463 12.0944 3.75836 12.5768 3.28019 13.5735C2.80961 14.552 3.10107 15.6876 3.38342 16.7851C3.58227 17.559 3.7872 18.3604 3.65666 18.9404C3.5337 19.4854 3.01606 20.099 2.51664 20.6913C1.77433 21.572 1.00623 22.4833 1.00623 23.6098C1.00623 24.7363 1.77433 25.6491 2.51664 26.5298C3.01606 27.1236 3.5337 27.7357 3.65666 28.2822C3.7872 28.8622 3.58227 29.6636 3.38342 30.4375C3.10259 31.535 2.81113 32.6706 3.28019 33.6476C3.75836 34.6443 4.83463 35.1267 5.87446 35.5922C6.59095 35.9128 7.33174 36.244 7.68847 36.6943C8.04975 37.1492 8.20762 37.9536 8.36094 38.7306C8.58105 39.8494 8.80875 41.0065 9.66339 41.6918C10.345 42.2398 11.2618 42.3253 12.1499 42.3238V64.373C12.1499 64.605 12.2759 64.8172 12.4793 64.9256C12.6827 65.0355 12.9286 65.0232 13.1199 64.895L24.0055 57.5972L34.8911 64.895C34.9958 64.9652 35.1157 65.0004 35.2372 65.0004C35.3373 65.0004 35.4391 64.9759 35.5317 64.9256C35.7351 64.8157 35.8611 64.6035 35.8611 64.373V42.3238C36.7476 42.3253 37.6629 42.2398 38.346 41.6918C39.2007 41.0065 39.4284 39.8494 39.65 38.7306C39.8033 37.9536 39.9627 37.1492 40.324 36.6943C40.6807 36.2455 41.4215 35.9128 42.138 35.5922C43.1793 35.1267 44.2541 34.6443 44.7323 33.6476C45.2013 32.6691 44.9099 31.535 44.629 30.4375C44.4302 29.6636 44.2252 28.8622 44.3558 28.2822C44.4788 27.7372 44.9964 27.1236 45.4958 26.5298H45.4897ZM13.3931 42.2993C13.9851 42.2948 14.5483 42.3299 14.9445 42.5207C15.453 42.768 15.9358 43.4152 16.4033 44.0425C17.0895 44.963 17.7999 45.9154 18.8822 46.1627C19.0583 46.2024 19.2329 46.2207 19.4074 46.2207C20.2697 46.2207 21.1197 45.7781 21.9471 45.3476C22.4283 45.0973 22.9186 44.8424 23.3755 44.7019V56.5058L13.3916 63.1992V42.2963L13.3931 42.2993ZM24.6248 56.5088V44.7035C25.0802 44.8439 25.572 45.0988 26.0533 45.3491C27.0475 45.8666 28.0767 46.4024 29.1181 46.1627C30.2004 45.9154 30.9109 44.963 31.597 44.0425C32.0645 43.4152 32.5473 42.768 33.0558 42.5207C33.4535 42.3283 34.0167 42.2948 34.6087 42.2978V63.2007L24.6248 56.5073V56.5088ZM43.1323 28.0044C42.9349 28.8805 43.1778 29.8315 43.4146 30.7504C43.6499 31.6693 43.8731 32.5378 43.6029 33.1026C43.3236 33.6857 42.4598 34.0719 41.6249 34.4459C40.7718 34.8275 39.8898 35.2228 39.3434 35.9113C38.7923 36.6042 38.6041 37.5613 38.4219 38.4863C38.2443 39.3839 38.0622 40.3119 37.5643 40.7119C37.0724 41.1072 36.1464 41.0828 35.2523 41.0584H35.2341C34.2914 41.0309 33.3169 41.0034 32.5154 41.3911C31.7336 41.7712 31.1583 42.5436 30.6012 43.29C30.0501 44.0288 29.4794 44.7935 28.8433 44.9401C28.2468 45.0759 27.4604 44.6684 26.6286 44.2348C25.7876 43.7983 24.9178 43.3449 24.0176 43.3404H24.0024C23.0962 43.3404 22.2218 43.7952 21.3763 44.2348C20.5444 44.6684 19.7581 45.0759 19.1615 44.9401C18.5255 44.795 17.9547 44.0303 17.4037 43.29C16.8466 42.5436 16.2712 41.7712 15.488 41.3911C14.8914 41.1026 14.1992 41.0446 13.4948 41.0446C13.2535 41.0446 13.0106 41.0507 12.7707 41.0584H12.754C11.8584 41.0828 10.9324 41.1072 10.4391 40.7119C9.94118 40.3135 9.75902 39.3854 9.58293 38.4879C9.40077 37.5628 9.21254 36.6058 8.66151 35.9128C8.11503 35.2244 7.23307 34.829 6.37995 34.4474C5.54505 34.0734 4.68131 33.6872 4.40199 33.1042C4.13027 32.5394 4.35342 31.6724 4.58871 30.7535C4.824 29.8345 5.0684 28.8836 4.86954 28.0074C4.67827 27.1633 4.06196 26.4306 3.46539 25.7224C2.86881 25.0141 2.25099 24.2814 2.25099 23.6144C2.25099 22.9473 2.86881 22.2146 3.46539 21.5064C4.06196 20.7981 4.67979 20.0654 4.86954 19.2213C5.0684 18.3436 4.824 17.3942 4.58871 16.4753C4.35342 15.5564 4.13027 14.6878 4.40199 14.1215C4.68131 13.5384 5.54505 13.1522 6.37995 12.7783C7.23307 12.3967 8.11503 12.0013 8.66151 11.3129C9.21254 10.6199 9.40077 9.66282 9.58293 8.73781C9.75902 7.84027 9.9427 6.9122 10.4391 6.51228C10.9324 6.11541 11.8706 6.14288 12.7783 6.16731C13.718 6.19326 14.6895 6.22073 15.4895 5.83302C16.2712 5.45294 16.8481 4.68057 17.4052 3.93415C17.9562 3.19535 18.527 2.43062 19.163 2.28561C19.7596 2.14975 20.5459 2.55731 21.3793 2.99081C22.2249 3.43042 23.0992 3.88377 24.0055 3.88377C24.9117 3.88377 25.7861 3.4289 26.6316 2.99081C27.4635 2.55884 28.2498 2.14975 28.8479 2.28561C29.4839 2.43062 30.0532 3.19535 30.6042 3.93415C31.1613 4.68057 31.7367 5.45294 32.5199 5.83302C33.3199 6.22073 34.2914 6.19326 35.2311 6.16731C36.1373 6.14288 37.0755 6.11541 37.5688 6.51228C38.0667 6.9122 38.2504 7.84027 38.4265 8.73781C38.6086 9.66282 38.7984 10.6199 39.3479 11.3129C39.8944 12.0013 40.7763 12.3967 41.6295 12.7783C42.4644 13.1522 43.3281 13.5384 43.6074 14.1215C43.8776 14.6863 43.656 15.5548 43.4192 16.4753C43.1839 17.3942 42.9395 18.3436 43.1368 19.2213C43.3281 20.0654 43.9444 20.7981 44.541 21.5064C45.1376 22.2146 45.7554 22.9473 45.7554 23.6144C45.7554 24.2814 45.1376 25.0141 44.541 25.7224C43.9444 26.4306 43.3266 27.1633 43.1368 28.0074L43.1323 28.0044Z" fill="black" stroke="black" stroke-width="0.4"/>
<path d="M24.0008 9.78418C16.0874 9.78418 9.64957 16.2578 9.64957 24.215C9.64957 32.1723 16.0874 38.6458 24.0008 38.6458C31.9141 38.6458 38.3519 32.1723 38.3519 24.215C38.3519 16.2578 31.9141 9.78418 24.0008 9.78418ZM24.0008 37.3927C16.7751 37.3927 10.8974 31.4823 10.8974 24.2165C10.8974 16.9508 16.7751 11.0404 24.0008 11.0404C31.2264 11.0404 37.1041 16.9508 37.1041 24.2165C37.1041 31.4823 31.2264 37.3927 24.0008 37.3927Z" fill="black" stroke="black" stroke-width="0.4"/>
<path d="M32.0522 20.9932L26.8743 20.2361L24.5594 15.5195C24.4547 15.3058 24.2376 15.1699 23.9993 15.1699C23.7624 15.1699 23.5454 15.3058 23.4391 15.5195L21.1226 20.2361L15.9463 20.9932C15.711 21.0283 15.5167 21.1932 15.4423 21.4206C15.3694 21.6481 15.4301 21.8969 15.6001 22.0633L19.3466 25.7343L18.4616 30.9196C18.4221 31.1547 18.5177 31.3928 18.7105 31.5332C18.9033 31.6736 19.1568 31.692 19.3678 31.5805L23.9977 29.1321L28.6276 31.5805C28.7187 31.6294 28.8189 31.6523 28.9176 31.6523C29.0466 31.6523 29.1756 31.6111 29.2849 31.5317C29.4777 31.3913 29.5734 31.1531 29.5339 30.9181L28.6489 25.7328L32.3953 22.0617C32.5653 21.8954 32.6261 21.645 32.5532 21.4191C32.4803 21.1917 32.2845 21.0268 32.0492 20.9917L32.0522 20.9932ZM27.5453 25.0657C27.3981 25.2092 27.3313 25.4183 27.3662 25.6214L28.0918 29.8786L24.2907 27.8683C24.1996 27.8209 24.0994 27.7965 24.0008 27.7965C23.9021 27.7965 23.8019 27.8209 23.7108 27.8683L19.9098 29.8786L20.6354 25.6214C20.6703 25.4183 20.6035 25.2108 20.4562 25.0657L17.3808 22.0511L21.6312 21.4298C21.8346 21.3993 22.0107 21.271 22.1002 21.0863L24.0023 17.2138L25.9028 21.0863C25.9939 21.271 26.17 21.3993 26.3719 21.4298L30.6238 22.0511L27.5483 25.0657H27.5453Z" fill="#DB0032" stroke="#DB0032" stroke-width="0.4"/>
</svg>
