<svg width="24" height="24" viewBox="0 0 24 24" fill="none" xmlns="http://www.w3.org/2000/svg">
<g clip-path="url(#clip0_525_26908)">
<path d="M19.3502 14.0018C18.7759 14.0323 18.2046 13.9014 17.7009 13.6239C17.1972 13.3464 16.7813 12.9335 16.5002 12.4318C16.4756 12.3907 16.4392 12.3578 16.3958 12.3376C16.3523 12.3173 16.3038 12.3105 16.2565 12.318C16.2091 12.3255 16.1651 12.3471 16.1302 12.3798C16.0952 12.4126 16.0708 12.4551 16.0602 12.5018L14.4802 17.5018C14.3756 17.8026 14.1775 18.0621 13.9147 18.242C13.6519 18.422 13.3384 18.513 13.0202 18.5018C12.6987 18.507 12.3842 18.4073 12.1244 18.2179C11.8646 18.0284 11.6735 17.7595 11.5802 17.4518L9.26017 8.80181C9.24869 8.7453 9.21803 8.69449 9.17338 8.65799C9.12873 8.6215 9.07283 8.60156 9.01517 8.60156C8.9575 8.60156 8.9016 8.6215 8.85695 8.65799C8.8123 8.69449 8.78164 8.7453 8.77017 8.80181C8.5435 10.1008 8.13974 11.3626 7.57017 12.5518C7.30782 13.0281 6.91337 13.4183 6.43433 13.6756C5.9553 13.9329 5.4121 14.0462 4.87017 14.0018H0.170166C0.645444 16.7953 2.09393 19.3305 4.25913 21.1584C6.42433 22.9863 9.16654 23.9891 12.0002 23.9891C14.8338 23.9891 17.576 22.9863 19.7412 21.1584C21.9064 19.3305 23.3549 16.7953 23.8302 14.0018H19.3502Z" fill="#DB0032"/>
<path d="M4.87005 11.9999C5.81005 11.9999 5.87005 11.9999 6.79005 8.43989C6.99005 7.61989 7.24005 6.65989 7.54005 5.53989C7.6376 5.2316 7.83279 4.9634 8.09617 4.77579C8.35954 4.58818 8.6768 4.49134 9.00005 4.49989C9.31732 4.48763 9.63003 4.57842 9.89141 4.75867C10.1528 4.93893 10.3488 5.19897 10.4501 5.49989L12.8501 14.4299C12.8652 14.4818 12.8968 14.5274 12.9401 14.5599C12.9833 14.5924 13.036 14.6099 13.0901 14.6099C13.1441 14.6099 13.1968 14.5924 13.2401 14.5599C13.2833 14.5274 13.3149 14.4818 13.3301 14.4299L14.6801 10.1399C14.7784 9.85677 14.9598 9.60988 15.2007 9.43148C15.4415 9.25308 15.7306 9.15146 16.0301 9.13989C16.3197 9.11763 16.6096 9.17937 16.865 9.31772C17.1204 9.45607 17.3305 9.66515 17.4701 9.91989L17.7601 10.4799C18.3401 11.6499 18.5101 11.9299 19.3501 11.9299H24.0001C23.9908 8.7473 22.7176 5.69874 20.4606 3.45486C18.2036 1.21099 15.1476 -0.0443877 11.9651 -0.0351051C8.78245 -0.0258226 5.73389 1.24736 3.49002 3.50436C1.24615 5.76136 -0.0092314 8.8173 5.11133e-05 11.9999H4.87005Z" fill="#DB0032"/>
</g>
<defs>
<clipPath id="clip0_525_26908">
<rect width="24" height="24" fill="white"/>
</clipPath>
</defs>
</svg>
