<svg width="56" height="55" viewBox="0 0 56 55" fill="none" xmlns="http://www.w3.org/2000/svg">
<g clip-path="url(#clip0_757_37720)">
<path d="M0.916093 42.7274C0.718478 42.7274 0.518192 42.6635 0.349951 42.5305C-0.0479506 42.2192 -0.117383 41.6444 0.195063 41.2479C0.536885 40.8142 8.63111 30.6231 13.8092 29.3672C17.2888 28.5237 25.5513 29.777 31.8696 30.9797C34.209 31.424 35.8166 33.6193 35.5309 35.9768C35.2451 38.3343 33.1515 40.0852 30.7801 39.9654L19.0593 39.372C18.552 39.3454 18.1647 38.917 18.1888 38.4115C18.2155 37.9059 18.6428 37.5201 19.1528 37.544L30.8736 38.1374C32.2996 38.2092 33.5387 37.1635 33.7096 35.7559C33.8805 34.3483 32.9191 33.0392 31.5252 32.7731C22.9716 31.1473 16.6719 30.5513 14.2418 31.142C10.4551 32.06 3.85896 39.5636 1.63712 42.3762C1.45553 42.605 1.18581 42.7247 0.916093 42.7247V42.7274Z" fill="black"/>
<path d="M11.8143 54.9994C11.6273 54.9994 11.4404 54.9435 11.2775 54.8264C10.8662 54.5311 10.7728 53.959 11.0692 53.5492C11.176 53.4029 13.6863 49.9863 17.2781 49.9863C17.2888 49.9863 17.2994 49.9863 17.3101 49.9863C17.684 49.9863 18.194 49.9996 18.8083 50.0129C23.2466 50.1114 33.6428 50.3482 37.2212 47.8763C40.4258 45.6624 49.5268 37.3153 53.2922 33.8269C54.3764 32.8238 54.4565 31.1714 53.4738 30.0671C52.4991 28.9682 50.798 28.8538 49.6817 29.8117L38.5111 39.3934C38.3081 39.569 38.0357 39.6462 37.7687 39.6036L33.4291 38.9198C32.9271 38.84 32.5879 38.3717 32.6654 37.8741C32.7455 37.3738 33.2155 37.0332 33.7149 37.1131L37.6352 37.7331L48.4827 28.428C50.3547 26.8235 53.2094 27.0151 54.8464 28.8591C56.4941 30.7137 56.3579 33.4837 54.5393 35.168C49.8286 39.5318 41.4486 47.1818 38.2654 49.3796C34.1929 52.1895 23.7727 51.9554 18.7655 51.8436C18.1647 51.8303 17.668 51.8197 17.2994 51.817H17.2781C14.6156 51.817 12.578 54.5923 12.5593 54.6215C12.3804 54.869 12.1 55.002 11.8143 55.002V54.9994Z" fill="black"/>
<path d="M31.0095 16.5559C26.427 16.5559 22.7017 12.8413 22.7017 8.27794C22.7017 3.71456 26.4297 0 31.0095 0C35.5894 0 39.3174 3.71456 39.3174 8.27794C39.3174 12.8413 35.5894 16.5559 31.0095 16.5559ZM31.0095 1.82801C27.4391 1.82801 24.5363 4.72303 24.5363 8.27794C24.5363 11.8329 27.4418 14.7279 31.0095 14.7279C34.5773 14.7279 37.4828 11.8329 37.4828 8.27794C37.4828 4.72303 34.5773 1.82801 31.0095 1.82801Z" fill="#DB0032"/>
<path d="M41.4271 26.9365C40.9197 26.9365 40.5084 26.5268 40.5084 26.0212C40.5084 20.8033 36.2463 16.5565 31.0095 16.5565C25.7727 16.5565 21.5106 20.8033 21.5106 26.0212C21.5106 26.5268 21.0994 26.9365 20.592 26.9365C20.0846 26.9365 19.6733 26.5268 19.6733 26.0212C19.6733 19.7948 24.7579 14.7285 31.0069 14.7285C37.2558 14.7285 42.3404 19.7948 42.3404 26.0212C42.3404 26.5268 41.9291 26.9365 41.4217 26.9365H41.4271Z" fill="#DB0032"/>
</g>
<defs>
<clipPath id="clip0_757_37720">
<rect width="56" height="55" fill="white"/>
</clipPath>
</defs>
</svg>
