<svg width="20" height="20" viewBox="0 0 20 20" fill="none" xmlns="http://www.w3.org/2000/svg">
<path fill-rule="evenodd" clip-rule="evenodd" d="M7.46843 15.3906C5.01652 13.5114 1.66699 10.4072 1.66699 7.47211C1.66699 2.56885 6.25046 0.738217 10.0003 4.52593C13.7502 0.738217 18.3337 2.56885 18.3337 7.47208C18.3337 10.4073 14.9842 13.5114 12.5322 15.3906C11.4222 16.2413 10.8672 16.6667 10.0003 16.6667C9.13341 16.6667 8.57841 16.2413 7.46843 15.3906ZM13.7503 5.20833C14.0955 5.20833 14.3753 5.48816 14.3753 5.83333V6.87502H15.417C15.7622 6.87502 16.042 7.15483 16.042 7.50002C16.042 7.84519 15.7622 8.12502 15.417 8.12502H14.3753V9.16667C14.3753 9.51183 14.0955 9.79167 13.7503 9.79167C13.4052 9.79167 13.1253 9.51183 13.1253 9.16667V8.12502H12.0837C11.7385 8.12502 11.4587 7.84519 11.4587 7.50002C11.4587 7.15483 11.7385 6.87502 12.0837 6.87502H13.1253V5.83333C13.1253 5.48816 13.4052 5.20833 13.7503 5.20833Z" fill="#DB0032"/>
</svg>
