<svg width="62" height="51" viewBox="0 0 62 51" fill="none" xmlns="http://www.w3.org/2000/svg">
<path d="M18.7041 42.8809V43.6809H19.5041V42.8809H18.7041ZM14.2334 42.8809H13.4334V43.6809H14.2334V42.8809ZM14.2334 19.4121H15.0334V18.6121H14.2334V19.4121ZM12 17.4121H11.2V17.4123L12 17.4121ZM12 16.0586V15.2586H11.2V16.0586H12ZM20.9404 16.0586H21.7404V15.2586H20.9404V16.0586ZM20.9404 17.4121L21.7404 17.4123V17.4121H20.9404ZM18.9404 19.4121V20.2121H18.9405L18.9404 19.4121ZM18.7041 19.4121V18.6121H17.9041V19.4121H18.7041ZM18.7041 42.8809V42.0809H14.2334V42.8809V43.6809H18.7041V42.8809ZM14.2334 42.8809H15.0334V19.4121H14.2334H13.4334V42.8809H14.2334ZM14.2334 19.4121V18.6121H14V19.4121V20.2121H14.2334V19.4121ZM14 19.4121V18.6121C13.3376 18.6121 12.8002 18.0748 12.8 17.4119L12 17.4121L11.2 17.4123C11.2004 18.9581 12.4536 20.2121 14 20.2121V19.4121ZM12 17.4121H12.8V16.0586H12H11.2V17.4121H12ZM12 16.0586V16.8586H20.9404V16.0586V15.2586H12V16.0586ZM20.9404 16.0586H20.1404V17.4121H20.9404H21.7404V16.0586H20.9404ZM20.9404 17.4121L20.1404 17.4119C20.1403 18.0747 19.6028 18.6121 18.9404 18.6121L18.9404 19.4121L18.9405 20.2121C20.4867 20.212 21.7401 18.9581 21.7404 17.4123L20.9404 17.4121ZM18.9404 19.4121V18.6121H18.7041V19.4121V20.2121H18.9404V19.4121ZM18.7041 19.4121H17.9041V42.8809H18.7041H19.5041V19.4121H18.7041Z" fill="black"/>
<path d="M33.2354 42.8809V43.6809H34.0354V42.8809H33.2354ZM28.7646 42.8809H27.9646V43.6809H28.7646V42.8809ZM28.7646 19.4121H29.5646V18.6121H28.7646V19.4121ZM26.5273 17.4121H25.7273V17.4123L26.5273 17.4121ZM26.5273 16.0586V15.2586H25.7273V16.0586H26.5273ZM35.4678 16.0586H36.2678V15.2586H35.4678V16.0586ZM35.4678 17.4121L36.2678 17.4123V17.4121H35.4678ZM33.4678 19.4121V20.2121H33.4679L33.4678 19.4121ZM33.2354 19.4121V18.6121H32.4354V19.4121H33.2354ZM33.2354 42.8809V42.0809H28.7646V42.8809V43.6809H33.2354V42.8809ZM28.7646 42.8809H29.5646V19.4121H28.7646H27.9646V42.8809H28.7646ZM28.7646 19.4121V18.6121H28.5273V19.4121V20.2121H28.7646V19.4121ZM28.5273 19.4121V18.6121C27.8649 18.6121 27.3275 18.0748 27.3273 17.4119L26.5273 17.4121L25.7273 17.4123C25.7277 18.9581 26.9809 20.2121 28.5273 20.2121V19.4121ZM26.5273 17.4121H27.3273V16.0586H26.5273H25.7273V17.4121H26.5273ZM26.5273 16.0586V16.8586H35.4678V16.0586V15.2586H26.5273V16.0586ZM35.4678 16.0586H34.6678V17.4121H35.4678H36.2678V16.0586H35.4678ZM35.4678 17.4121L34.6678 17.4119C34.6676 18.0745 34.1301 18.612 33.4676 18.6121L33.4678 19.4121L33.4679 20.2121C35.0139 20.2118 36.2674 18.9582 36.2678 17.4123L35.4678 17.4121ZM33.4678 19.4121V18.6121H33.2354V19.4121V20.2121H33.4678V19.4121ZM33.2354 19.4121H32.4354V42.8809H33.2354H34.0354V19.4121H33.2354Z" fill="black"/>
<path d="M47.7637 42.8809V43.6809H48.5637V42.8809H47.7637ZM43.293 42.8809H42.493V43.6809H43.293V42.8809ZM43.293 19.4121H44.093V18.6121H43.293V19.4121ZM43.0547 19.4121L43.0546 20.2121H43.0547V19.4121ZM41.0547 17.4121H40.2547V17.4123L41.0547 17.4121ZM41.0547 16.0586V15.2586H40.2547V16.0586H41.0547ZM49.9951 16.0586H50.7951V15.2586H49.9951V16.0586ZM49.9951 17.4121L50.7951 17.4123V17.4121H49.9951ZM47.7637 19.4121V18.6121H46.9637V19.4121H47.7637ZM47.7637 42.8809V42.0809H43.293V42.8809V43.6809H47.7637V42.8809ZM43.293 42.8809H44.093V19.4121H43.293H42.493V42.8809H43.293ZM43.293 19.4121V18.6121H43.0547V19.4121V20.2121H43.293V19.4121ZM43.0547 19.4121L43.0548 18.6121C42.3923 18.612 41.8548 18.0746 41.8547 17.4119L41.0547 17.4121L40.2547 17.4123C40.2551 18.9582 41.5085 20.2119 43.0546 20.2121L43.0547 19.4121ZM41.0547 17.4121H41.8547V16.0586H41.0547H40.2547V17.4121H41.0547ZM41.0547 16.0586V16.8586H49.9951V16.0586V15.2586H41.0547V16.0586ZM49.9951 16.0586H49.1951V17.4121H49.9951H50.7951V16.0586H49.9951ZM49.9951 17.4121L49.1951 17.4119C49.195 18.0748 48.6575 18.6121 47.9951 18.6121V19.4121V20.2121C49.5415 20.2121 50.7948 18.9581 50.7951 17.4123L49.9951 17.4121ZM47.9951 19.4121V18.6121H47.7637V19.4121V20.2121H47.9951V19.4121ZM47.7637 19.4121H46.9637V42.8809H47.7637H48.5637V19.4121H47.7637Z" fill="black"/>
<rect x="12" y="41" width="38" height="3" rx="1.5" fill="white" stroke="black" stroke-width="1.5"/>
<rect x="6" y="44" width="50" height="6" rx="3" fill="white" stroke="#DB0032" stroke-width="1.5"/>
<path d="M30.3975 1.27539C30.7235 1.0861 31.1163 1.06215 31.459 1.2041L31.6025 1.27539L55.1748 14.9619C56.2352 15.5776 55.7984 17.2002 54.5723 17.2002H7.42773C6.23992 17.2002 5.7923 15.6774 6.72949 15.0225L6.8252 14.9619L30.3975 1.27539Z" fill="white" stroke="black" stroke-width="1.6"/>
<circle cx="31" cy="9" r="2" stroke="#DB0032" stroke-width="1.6"/>
</svg>
