<svg width="25" height="25" viewBox="0 0 25 25" fill="none" xmlns="http://www.w3.org/2000/svg">
<g clip-path="url(#clip0_518_24396)">
<path d="M24.5469 3.5C24.5469 3.10218 24.3888 2.72064 24.1075 2.43934C23.8262 2.15804 23.4447 2 23.0469 2H9.04688C8.64905 2 8.26752 2.15804 7.98621 2.43934C7.70491 2.72064 7.54688 3.10218 7.54688 3.5V11.5C7.54688 11.8978 7.70491 12.2794 7.98621 12.5607C8.26752 12.842 8.64905 13 9.04688 13H23.0469C23.4447 13 23.8262 12.842 24.1075 12.5607C24.3888 12.2794 24.5469 11.8978 24.5469 11.5V3.5ZM22.5469 10.75C22.5469 10.8163 22.5205 10.8799 22.4737 10.9268C22.4268 10.9737 22.3632 11 22.2969 11H9.79688C9.73057 11 9.66698 10.9737 9.6201 10.9268C9.57321 10.8799 9.54688 10.8163 9.54688 10.75V4.28C9.54688 4.2137 9.57321 4.15011 9.6201 4.10322C9.66698 4.05634 9.73057 4.03 9.79688 4.03H22.2969C22.3632 4.03 22.4268 4.05634 22.4737 4.10322C22.5205 4.15011 22.5469 4.2137 22.5469 4.28V10.75Z" fill="#DB0032"/>
<path d="M14.0469 7.53027C14.0469 8.06071 14.2576 8.56941 14.6327 8.94449C15.0077 9.31956 15.5164 9.53027 16.0469 9.53027C16.5773 9.53027 17.086 9.31956 17.4611 8.94449C17.8362 8.56941 18.0469 8.06071 18.0469 7.53027C18.0469 6.99984 17.8362 6.49113 17.4611 6.11606C17.086 5.74099 16.5773 5.53027 16.0469 5.53027C15.5164 5.53027 15.0077 5.74099 14.6327 6.11606C14.2576 6.49113 14.0469 6.99984 14.0469 7.53027Z" fill="#DB0032"/>
<path d="M20.9488 17.03L17.4188 18.2C17.3846 18.2101 17.3533 18.2281 17.3273 18.2523C17.3012 18.2766 17.2812 18.3066 17.2688 18.34C17.1081 18.6872 16.8512 18.981 16.5286 19.1866C16.2061 19.3922 15.8313 19.5009 15.4488 19.5H11.4488C11.3161 19.5 11.189 19.4473 11.0952 19.3536C11.0014 19.2598 10.9488 19.1326 10.9488 19C10.9488 18.8674 11.0014 18.7402 11.0952 18.6464C11.189 18.5527 11.3161 18.5 11.4488 18.5H15.4488C15.714 18.5 15.9683 18.3946 16.1559 18.2071C16.3434 18.0196 16.4488 17.7652 16.4488 17.5C16.4488 17.2348 16.3434 16.9804 16.1559 16.7929C15.9683 16.6054 15.714 16.5 15.4488 16.5H11.9488C10.7994 15.6041 9.40379 15.0807 7.94875 15H5.88875C5.2611 15.0238 4.64789 15.1951 4.09875 15.5L1.09875 17.01C1.0593 17.0316 1.0264 17.0634 1.00352 17.1021C0.980639 17.1409 0.968628 17.185 0.968751 17.23V22.63C0.969646 22.6748 0.982083 22.7185 1.00486 22.7571C1.02763 22.7956 1.05997 22.8276 1.09875 22.85C1.13676 22.8719 1.17987 22.8835 1.22375 22.8835C1.26764 22.8835 1.31075 22.8719 1.34875 22.85L4.56875 20.85C4.6942 20.7715 4.83552 20.7218 4.98251 20.7045C5.1295 20.6872 5.2785 20.7027 5.41875 20.75C15.4188 24.11 12.0488 24.12 23.2888 18.44C23.3808 18.4039 23.4606 18.3423 23.5188 18.2624C23.5771 18.1825 23.6114 18.0877 23.6177 17.9891C23.624 17.8904 23.602 17.792 23.5544 17.7054C23.5068 17.6188 23.4354 17.5475 23.3488 17.5C23.0234 17.2209 22.6313 17.031 22.2107 16.9486C21.7901 16.8662 21.3553 16.8943 20.9488 17.03Z" fill="#DB0032"/>
</g>
<defs>
<clipPath id="clip0_518_24396">
<rect width="24" height="24" fill="white" transform="translate(0.75 0.5)"/>
</clipPath>
</defs>
</svg>
