<svg width="20" height="20" viewBox="0 0 20 20" fill="none" xmlns="http://www.w3.org/2000/svg">
<g clip-path="url(#clip0_759_40745)">
<path fill-rule="evenodd" clip-rule="evenodd" d="M11.875 0.625C14.0275 0.625 15.6108 0.696667 16.6917 0.77375C18.0667 0.872083 19.1279 1.93292 19.2262 3.30875C19.3033 4.38917 19.375 5.9725 19.375 8.125C19.375 10.2775 19.3033 11.8608 19.2262 12.9417C19.1304 14.2808 18.1221 15.3221 16.7992 15.4667C16.8433 14.5029 16.875 13.3125 16.875 11.875C16.875 9.69458 16.8025 8.08167 16.7229 6.96958C16.5804 4.97375 15.0262 3.41958 13.0304 3.27708C11.9183 3.19792 10.3054 3.125 8.125 3.125C6.6875 3.125 5.49708 3.15667 4.53333 3.20083C4.67833 1.87792 5.71917 0.869583 7.05833 0.77375C8.13917 0.696667 9.7225 0.625 11.875 0.625ZM8.125 4.375C10.2775 4.375 11.8608 4.44667 12.9417 4.52375C14.3167 4.62208 15.3779 5.68292 15.4762 7.05875C15.5533 8.13917 15.625 9.7225 15.625 11.875C15.625 14.0275 15.5533 15.6108 15.4762 16.6917C15.3779 18.0667 14.3171 19.1279 12.9412 19.2262C11.8608 19.3033 10.2775 19.375 8.125 19.375C5.9725 19.375 4.38917 19.3033 3.30833 19.2262C1.93333 19.1279 0.872083 18.0671 0.77375 16.6912C0.696667 15.6108 0.625 14.0275 0.625 11.875C0.625 9.7225 0.696667 8.13917 0.77375 7.05833C0.872083 5.68333 1.93292 4.62208 3.30875 4.52375C4.38917 4.44667 5.9725 4.375 8.125 4.375ZM7.46167 8.15542C7.01917 8.19958 6.73333 8.56708 6.71375 9.01167C6.69958 9.34 6.68542 9.79917 6.67625 10.4263C6.20457 10.4321 5.733 10.4446 5.26167 10.4637C4.8175 10.4833 4.44917 10.7692 4.40542 11.2117C4.3875 11.3933 4.375 11.6129 4.375 11.875C4.375 12.1367 4.3875 12.3567 4.40542 12.5383C4.44958 12.9808 4.8175 13.2667 5.26167 13.2863C5.59 13.3004 6.04917 13.3146 6.67625 13.3237C6.68542 13.9504 6.69958 14.41 6.71375 14.7383C6.73333 15.1825 7.01917 15.5508 7.46167 15.5946C7.64333 15.6125 7.86292 15.625 8.125 15.625C8.38667 15.625 8.60667 15.6125 8.78833 15.5946C9.23083 15.5504 9.51667 15.1825 9.53625 14.7383C9.55042 14.41 9.56458 13.9508 9.57375 13.3237C10.0454 13.3179 10.517 13.3054 10.9883 13.2863C11.4329 13.2667 11.8008 12.9808 11.8446 12.5383C11.8625 12.3567 11.875 12.1371 11.875 11.875C11.875 11.6133 11.8625 11.3933 11.8446 11.2117C11.8004 10.7692 11.4329 10.4833 10.9883 10.4637C10.66 10.4496 10.2008 10.4354 9.57375 10.4263C9.56795 9.95457 9.55544 9.48299 9.53625 9.01167C9.51667 8.56708 9.23083 8.19917 8.78833 8.15542C8.56786 8.13435 8.34648 8.1242 8.125 8.125C7.86333 8.125 7.64333 8.1375 7.46167 8.15542Z" fill="#DB0032"/>
</g>
<defs>
<clipPath id="clip0_759_40745">
<rect width="20" height="20" fill="white"/>
</clipPath>
</defs>
</svg>
