<svg width="20" height="20" viewBox="0 0 20 20" fill="none" xmlns="http://www.w3.org/2000/svg">
<g clip-path="url(#clip0_545_37582)">
<path d="M9.9974 15.4193C9.77638 15.4193 9.56442 15.3315 9.40814 15.1752C9.25186 15.0189 9.16406 14.807 9.16406 14.5859V12.9193C9.16406 12.6983 9.25186 12.4863 9.40814 12.33C9.56442 12.1737 9.77638 12.0859 9.9974 12.0859C10.2184 12.0859 10.4304 12.1737 10.5867 12.33C10.7429 12.4863 10.8307 12.6983 10.8307 12.9193V14.5859C10.8307 14.807 10.7429 15.0189 10.5867 15.1752C10.4304 15.3315 10.2184 15.4193 9.9974 15.4193Z" fill="#DB0032"/>
<path d="M17.0826 20.0013C17.3435 20.0016 17.6007 19.9407 17.8338 19.8235C18.0668 19.7062 18.2691 19.5359 18.4243 19.3263C18.5793 19.1159 18.6827 18.8721 18.7261 18.6144C18.7696 18.3567 18.7518 18.0925 18.6743 17.8429L16.1743 9.75961C16.1208 9.58246 16.0098 9.42816 15.8589 9.32103C15.7081 9.2139 15.5258 9.16004 15.3409 9.16794H14.7409C14.6304 9.16794 14.5244 9.12404 14.4463 9.0459C14.3682 8.96776 14.3243 8.86178 14.3243 8.75127V5.7596C14.3237 5.61276 14.3619 5.46837 14.4351 5.34106C14.5082 5.21375 14.6138 5.10803 14.7409 5.03461C16.5265 4.03397 17.9258 2.4645 18.7159 0.576272C18.7488 0.516218 18.766 0.448877 18.766 0.380439C18.766 0.312 18.7488 0.244659 18.7159 0.184605C18.6737 0.123097 18.6161 0.0737741 18.5488 0.0415931C18.4815 0.00941208 18.407 -0.00449401 18.3326 0.00127195H2.0826C2.01377 0.00120767 1.94596 0.0178586 1.885 0.0497934C1.82403 0.0817281 1.77173 0.127991 1.7326 0.184605C1.68906 0.238814 1.66008 0.303242 1.64842 0.371784C1.63675 0.440326 1.64278 0.510712 1.66593 0.576272C2.39382 2.31931 3.64242 3.79491 5.24093 4.80127C5.35828 4.87657 5.45487 4.9801 5.52184 5.1024C5.58882 5.22469 5.62403 5.36184 5.62426 5.50127V8.75127C5.62426 8.86178 5.58036 8.96776 5.50222 9.0459C5.42408 9.12404 5.3181 9.16794 5.2076 9.16794H4.6076C4.42272 9.16004 4.24047 9.2139 4.08958 9.32103C3.93869 9.42816 3.82776 9.58246 3.77426 9.75961L1.27426 17.8429C1.19674 18.0925 1.17897 18.3567 1.2224 18.6144C1.26582 18.8721 1.36923 19.1159 1.52426 19.3263C1.68441 19.5429 1.89468 19.7174 2.13705 19.835C2.37942 19.9525 2.64668 20.0096 2.91593 20.0013H17.0826ZM7.7076 6.44294C7.70727 6.38025 7.72138 6.31832 7.74884 6.26196C7.77629 6.2056 7.81636 6.15632 7.86593 6.11794C7.91371 6.07768 7.97025 6.04917 8.03103 6.0347C8.09181 6.02023 8.15513 6.0202 8.21593 6.03461C8.86999 6.17885 9.53781 6.2515 10.2076 6.25127C10.7409 6.24934 11.2731 6.20475 11.7993 6.11794C11.8594 6.10534 11.9217 6.10708 11.981 6.123C12.0404 6.13893 12.0952 6.16859 12.1409 6.20961C12.1879 6.24795 12.2257 6.29626 12.2516 6.35103C12.2776 6.4058 12.291 6.46566 12.2909 6.52627V8.75127C12.2909 8.86178 12.247 8.96776 12.1689 9.0459C12.0908 9.12404 11.9848 9.16794 11.8743 9.16794H8.12426C8.01376 9.16794 7.90777 9.12404 7.82963 9.0459C7.75149 8.96776 7.7076 8.86178 7.7076 8.75127V6.44294ZM9.99926 18.3346C9.25758 18.3346 8.53256 18.1147 7.91587 17.7026C7.29919 17.2906 6.81854 16.7049 6.53471 16.0197C6.25089 15.3344 6.17662 14.5804 6.32132 13.853C6.46601 13.1256 6.82316 12.4574 7.34761 11.933C7.87206 11.4085 8.54025 11.0514 9.26767 10.9067C9.9951 10.762 10.7491 10.8362 11.4343 11.1201C12.1195 11.4039 12.7052 11.8845 13.1173 12.5012C13.5293 13.1179 13.7493 13.8429 13.7493 14.5846C13.7504 15.0774 13.6541 15.5655 13.466 16.021C13.278 16.4764 13.0018 16.8903 12.6534 17.2387C12.3049 17.5871 11.8911 17.8633 11.4356 18.0514C10.9802 18.2395 10.492 18.3357 9.99926 18.3346Z" fill="#DB0032"/>
</g>
<defs>
<clipPath id="clip0_545_37582">
<rect width="20" height="20" fill="white"/>
</clipPath>
</defs>
</svg>
