<svg width="44" height="53" viewBox="0 0 44 53" fill="none" xmlns="http://www.w3.org/2000/svg">
<g clip-path="url(#clip0_1390_31304)">
<path d="M11.4624 42.7926C6.82925 42.7926 3.05859 39.1396 3.05859 34.6512C3.05859 30.1627 6.82925 26.5098 11.4624 26.5098C16.0955 26.5098 19.8662 30.1627 19.8662 34.6512C19.8662 39.1396 16.0955 42.7926 11.4624 42.7926ZM11.4624 28.3036C7.85075 28.3036 4.91023 31.1497 4.91023 34.6512C4.91023 38.1526 7.84806 40.9987 11.4624 40.9987C15.0767 40.9987 18.0146 38.1526 18.0146 34.6512C18.0146 31.1497 15.0767 28.3036 11.4624 28.3036Z" fill="black"/>
<path d="M22.0001 52.9993C21.488 52.9993 21.073 52.5972 21.073 52.1011C21.073 46.9677 16.7606 42.7899 11.4617 42.7899C6.16283 42.7899 1.85043 46.9677 1.85043 52.1011C1.85043 52.5972 1.43536 52.9993 0.923261 52.9993C0.411163 52.9993 -0.00390625 52.5972 -0.00390625 52.1011C-0.00390625 45.9781 5.13864 40.9961 11.459 40.9961C17.7794 40.9961 22.9219 45.9781 22.9219 52.1011C22.9219 52.5972 22.5068 52.9993 21.9947 52.9993H22.0001Z" fill="black"/>
<path d="M32.5366 42.7926C27.9035 42.7926 24.1328 39.1396 24.1328 34.6512C24.1328 30.1627 27.9035 26.5098 32.5366 26.5098C37.1698 26.5098 40.9404 30.1627 40.9404 34.6512C40.9404 39.1396 37.1698 42.7926 32.5366 42.7926ZM32.5366 28.3036C28.925 28.3036 25.9845 31.1497 25.9845 34.6512C25.9845 38.1526 28.9223 40.9987 32.5366 40.9987C36.1509 40.9987 39.0888 38.1526 39.0888 34.6512C39.0888 31.1497 36.1509 28.3036 32.5366 28.3036Z" fill="black"/>
<path d="M43.0744 52.9993C42.5623 52.9993 42.1472 52.5972 42.1472 52.1011C42.1472 46.9677 37.8348 42.7899 32.5359 42.7899C27.2371 42.7899 22.9246 46.9677 22.9246 52.1011C22.9246 52.5972 22.5096 52.9993 21.9975 52.9993C21.4854 52.9993 21.0703 52.5972 21.0703 52.1011C21.0703 45.9781 26.2129 40.9961 32.5332 40.9961C38.8536 40.9961 43.9961 45.9781 43.9961 52.1011C43.9961 52.5972 43.5811 52.9993 43.069 52.9993H43.0744Z" fill="black"/>
<path d="M32.3942 24.8733C32.0843 24.8733 31.7959 24.7245 31.6234 24.4738L28.5993 20.095H15.3953L12.3712 24.4738C12.1987 24.7218 11.9103 24.8733 11.6004 24.8733C11.2904 24.8733 11.002 24.7245 10.8295 24.4738L7.80545 20.095H3.33672C1.49856 20.095 0 18.6458 0 16.8624V3.23254C0 1.44916 1.49587 0 3.33672 0H40.666C42.5041 0 44.0027 1.44916 44.0027 3.23254V16.8651C44.0027 18.6458 42.5068 20.0976 40.666 20.0976H36.1892L33.1651 24.4764C32.9926 24.7245 32.7042 24.8759 32.3942 24.8759V24.8733ZM14.9047 18.3012H29.0979C29.4079 18.3012 29.6963 18.45 29.8688 18.7007L32.3969 22.364L34.9278 18.7007C35.1003 18.4526 35.3887 18.3012 35.6986 18.3012H40.6687C41.488 18.3012 42.1511 17.6562 42.1511 16.8651V3.23254C42.1511 2.43876 41.4853 1.79643 40.6687 1.79643H3.33672C2.52006 1.79643 1.85433 2.44137 1.85433 3.23254V16.8651C1.85433 17.6562 2.52006 18.3012 3.33672 18.3012H8.30677C8.61672 18.3012 8.90512 18.45 9.07761 18.7007L11.6085 22.364L14.1366 18.7007C14.3091 18.4526 14.5975 18.3012 14.9074 18.3012H14.9047Z" fill="black"/>
<path d="M25.8881 7.04133C25.8881 7.64972 25.3787 8.14322 24.7507 8.14322C24.1227 8.14322 23.6133 7.64972 23.6133 7.04133C23.6133 6.43295 24.1227 5.93945 24.7507 5.93945C25.3787 5.93945 25.8881 6.43295 25.8881 7.04133Z" fill="#DB0032"/>
<path d="M20.3881 7.04133C20.3881 7.64972 19.8787 8.14322 19.2507 8.14322C18.6227 8.14322 18.1133 7.64972 18.1133 7.04133C18.1133 6.43295 18.6227 5.93945 19.2507 5.93945C19.8787 5.93945 20.3881 6.43295 20.3881 7.04133Z" fill="#DB0032"/>
<path d="M21.8744 13.8511C18.6239 13.8511 15.6295 12.7127 14.0609 10.8823C13.7347 10.5011 13.7886 9.9345 14.1822 9.61856C14.5757 9.30262 15.1605 9.35484 15.4867 9.73606C16.6941 11.146 19.2034 12.0573 21.8744 12.0573C24.7448 12.0573 27.3269 11.0468 28.4535 9.48539C28.626 9.24517 28.909 9.10156 29.2136 9.10156C29.7257 9.10156 30.1461 9.50367 30.1461 9.99978C30.1461 10.2348 30.0545 10.4515 29.9009 10.6108C28.3888 12.6135 25.3297 13.8511 21.8744 13.8511Z" fill="#DB0032"/>
</g>
<defs>
<clipPath id="clip0_1390_31304">
<rect width="44" height="53" fill="white"/>
</clipPath>
</defs>
</svg>
