<svg width="24" height="24" viewBox="0 0 24 24" fill="none" xmlns="http://www.w3.org/2000/svg">
<path d="M20 24C20.5304 24 21.0391 23.7893 21.4142 23.4142C21.7893 23.0391 22 22.5304 22 22V6.33C22.0002 6.06609 21.9482 5.80474 21.8469 5.56103C21.7457 5.31732 21.5972 5.09606 21.41 4.91L17.09 0.590001C16.9039 0.402832 16.6827 0.254338 16.439 0.153077C16.1953 0.0518166 15.9339 -0.000208492 15.67 6.27931e-07H4C3.46957 6.27931e-07 2.96086 0.210714 2.58579 0.585787C2.21071 0.96086 2 1.46957 2 2V22C2 22.5304 2.21071 23.0391 2.58579 23.4142C2.96086 23.7893 3.46957 24 4 24H20ZM17.5 18C17.4974 18.1981 17.4176 18.3874 17.2775 18.5275C17.1374 18.6676 16.9481 18.7474 16.75 18.75H7C6.80109 18.75 6.61032 18.671 6.46967 18.5303C6.32902 18.3897 6.25 18.1989 6.25 18C6.25 17.8011 6.32902 17.6103 6.46967 17.4697C6.61032 17.329 6.80109 17.25 7 17.25H16.75C16.9481 17.2526 17.1374 17.3324 17.2775 17.4725C17.4176 17.6126 17.4974 17.8019 17.5 18ZM6.5 13.81L9.76 10.54C9.91898 10.378 10.1283 10.2749 10.3537 10.2476C10.5791 10.2203 10.807 10.2706 11 10.39L12.67 11.39C12.7126 11.4241 12.7655 11.4427 12.82 11.4427C12.8745 11.4427 12.9274 11.4241 12.97 11.39L15.47 8.9C15.5596 8.79532 15.67 8.7103 15.794 8.65028C15.9181 8.59025 16.0532 8.55652 16.1909 8.5512C16.3287 8.54588 16.466 8.56909 16.5943 8.61936C16.7226 8.66964 16.8392 8.7459 16.9367 8.84335C17.0341 8.94081 17.1104 9.05735 17.1606 9.18568C17.2109 9.314 17.2341 9.45133 17.2288 9.58905C17.2235 9.72677 17.1897 9.86191 17.1297 9.98597C17.0697 10.11 16.9847 10.2204 16.88 10.31L13.7 13.5C13.5424 13.6573 13.3368 13.7574 13.1158 13.7846C12.8948 13.8117 12.671 13.7644 12.48 13.65L10.81 12.65C10.7674 12.6159 10.7145 12.5974 10.66 12.5974C10.6055 12.5974 10.5526 12.6159 10.51 12.65L7.94 15.22C7.7487 15.3838 7.50262 15.4694 7.25095 15.4597C6.99927 15.45 6.76053 15.3457 6.58244 15.1676C6.40434 14.9895 6.30001 14.7507 6.29029 14.4991C6.28057 14.2474 6.36617 14.0013 6.53 13.81H6.5Z" fill="#DB0032"/>
</svg>
