<svg width="28" height="28" viewBox="0 0 28 28" fill="none" xmlns="http://www.w3.org/2000/svg">
<g clip-path="url(#clip0_796_15493)">
<path d="M23.6942 5.77322C23.6942 5.77322 18.818 7.07458 16.6637 7.8834C14.5095 8.68962 12.5963 7.21975 12.8089 9.4414C13.0215 11.663 16.6923 14.0013 16.6637 16.9748C16.6326 19.9482 17.5244 21.6773 17.5244 21.6773C17.5244 21.6773 20.4589 17.9132 20.6715 14.8931C20.8841 11.873 21.8329 12.0856 23.6968 13.9988C25.5581 15.9119 26.932 13.9988 26.932 13.9988C26.932 13.9988 26.9191 8.7311 23.6968 5.77063L23.6942 5.77322Z" fill="white"/>
<path d="M4.29565 4.87878C4.29565 4.87878 8.82189 6.01164 8.26454 7.88073C7.70718 9.74981 6.83874 11.2145 6.53025 11.2249C6.22176 11.2352 4.29565 12.2981 4.29565 12.2981C4.29565 12.2981 3.43239 12.5988 4.29565 14.893C5.1589 17.1847 6.53025 18.8179 6.53025 18.8179V24.547C6.53025 24.547 1.23667 21.2236 1.07335 13.9987C0.910033 6.77379 4.29565 4.87878 4.29565 4.87878Z" fill="white"/>
<path d="M13.9987 28C6.28127 28 0 21.7187 0 13.9987C0 6.27868 6.28127 0 13.9987 0C21.7161 0 27.9974 6.28127 27.9974 13.9987C27.9974 21.7161 21.7161 27.9974 13.9987 27.9974V28ZM13.9987 2.14388C7.46079 2.14388 2.14388 7.46338 2.14388 13.9987C2.14388 20.534 7.46338 25.8535 13.9987 25.8535C20.534 25.8535 25.8535 20.534 25.8535 13.9987C25.8535 7.46338 20.5366 2.14388 13.9987 2.14388Z" fill="white"/>
</g>
<defs>
<clipPath id="clip0_796_15493">
<rect width="28" height="28" fill="white"/>
</clipPath>
</defs>
</svg>
