<svg width="25" height="24" viewBox="0 0 25 24" fill="none" xmlns="http://www.w3.org/2000/svg">
<mask id="mask0_220_3393" style="mask-type:alpha" maskUnits="userSpaceOnUse" x="0" y="0" width="25" height="24">
<rect x="0.5" width="24" height="24" fill="#D9D9D9"/>
</mask>
<g mask="url(#mask0_220_3393)">
<path d="M12.4998 10.7984L8.5998 14.6984C8.41647 14.8818 8.18314 14.9734 7.8998 14.9734C7.61647 14.9734 7.38314 14.8818 7.1998 14.6984C7.01647 14.5151 6.9248 14.2818 6.9248 13.9984C6.9248 13.7151 7.01647 13.4818 7.1998 13.2984L11.7998 8.69844C11.9998 8.49844 12.2331 8.39844 12.4998 8.39844C12.7665 8.39844 12.9998 8.49844 13.1998 8.69844L17.7998 13.2984C17.9831 13.4818 18.0748 13.7151 18.0748 13.9984C18.0748 14.2818 17.9831 14.5151 17.7998 14.6984C17.6165 14.8818 17.3831 14.9734 17.0998 14.9734C16.8165 14.9734 16.5831 14.8818 16.3998 14.6984L12.4998 10.7984Z" fill="black"/>
</g>
</svg>
