<svg width="88" height="32" viewBox="0 0 88 32" fill="none" xmlns="http://www.w3.org/2000/svg">
<g clip-path="url(#clip0_59_447)">
<path d="M88 16.0056C88 24.8378 80.8312 32.0112 71.9796 32.0112C67.178 32.0112 62.87 29.8928 59.9419 26.5527H63.2177V19.4354C64.2723 19.5139 65.5512 19.5475 66.7068 19.4578L70.4426 26.5527H77.387L72.462 18.4939L72.8771 18.2473C75.1096 16.9247 76.3886 14.7839 76.3886 12.3853C76.3886 7.86832 72.8659 5.67148 65.6073 5.67148C64.0928 5.67148 61.6135 5.81718 59.5043 5.99652C62.4437 2.34258 66.9424 0.0112305 71.9908 0.0112305C80.8312 0.0112305 88.0112 7.1734 88.0112 16.0168L88 16.0056ZM69.7358 12.2956C69.7358 10.1212 68.1316 8.70895 65.6522 8.70895C64.2611 8.70895 63.2065 8.94433 63.2065 8.94433V16.2298C63.2065 16.2298 63.9806 16.3643 65.2932 16.3643C68.0755 16.3643 69.7358 14.84 69.7358 12.2844V12.2956Z" fill="white"/>
<path d="M13.7093 26.5414L6.40592 16.5659V26.5414H0V5.90674H6.40592V15.12L13.3503 5.90674H20.7323L12.4304 15.7141L21.1137 26.5302H13.6981L13.7093 26.5414Z" fill="white"/>
<path d="M50.2713 26.5416V13.8312C50.2713 11.6904 49.3514 10.6144 47.5451 10.6144C46.0643 10.6144 44.6507 11.4662 42.9567 13.3605L42.8333 13.495V26.5303H36.3825V13.8761C36.3825 11.7352 35.4625 10.6592 33.6563 10.6592C32.2203 10.6592 30.8067 11.4999 29.0678 13.4053L28.9332 13.5398V26.5303H22.4824V5.90688H28.7425V10.5359L29.5727 9.63928C32.2988 6.71388 34.4304 5.51458 36.8985 5.51458C39.8154 5.51458 41.5655 6.76992 42.4182 9.45994L42.665 10.2557L43.2259 9.65048C45.8848 6.80355 48.2856 5.48096 50.7874 5.48096C54.5681 5.48096 56.7333 7.90197 56.7333 12.1163V26.564H50.2825L50.2713 26.5416Z" fill="white"/>
</g>
<defs>
<clipPath id="clip0_59_447">
<rect width="88" height="32" fill="white"/>
</clipPath>
</defs>
</svg>
