<svg width="162" height="24" viewBox="0 0 162 24" fill="none" xmlns="http://www.w3.org/2000/svg">
<g clip-path="url(#clip0_220_3758)">
<path d="M70.8018 10.1101C70.8018 11.8182 72.3387 13.108 74.2215 13.108C76.1043 13.108 77.6469 11.8182 77.6469 10.1101C77.6469 9.44939 77.3633 8.82616 76.8643 8.34143H78.0807V6.97956H75.0892V5.88892H73.3283V6.97956H70.28V8.34143H71.5816C71.0853 8.82616 70.7989 9.44939 70.7989 10.1101H70.8018ZM74.2215 11.723C73.1411 11.723 72.4096 10.9988 72.4096 10.1101C72.4096 9.22145 73.1411 8.49435 74.2215 8.49435C75.3019 8.49435 76.0363 9.21856 76.0363 10.1101C76.0363 11.0017 75.3075 11.723 74.2215 11.723ZM83.3124 6.52368V7.92306H81.6649V17.8428H72.1685C71.8424 17.8428 71.6071 17.7648 71.4568 17.6148C71.2895 17.4532 71.2073 17.1936 71.2073 16.8358V13.887H72.8406V16.4578H80.0316V6.5208H83.3152L83.3124 6.52368Z" fill="#3E3A39"/>
<path d="M104.65 6.52075V7.27382C104.65 9.05982 103.89 10.3755 102.37 11.218C101.25 11.8441 99.8014 12.1875 98.0234 12.2423V10.7737C99.6709 10.7275 100.927 10.4159 101.781 9.83309C102.526 9.33104 102.901 8.68473 102.901 7.89416H98.2021V6.52075H104.65ZM108.563 15.0959C108.563 13.1541 106.819 11.671 104.679 11.671C102.538 11.671 100.788 13.1541 100.788 15.0959C100.788 17.0377 102.532 18.5236 104.679 18.5236C106.825 18.5236 108.563 17.0406 108.563 15.0959ZM106.899 15.0959C106.899 16.1923 105.983 17.081 104.676 17.081C103.369 17.081 102.45 16.1923 102.45 15.0959C102.45 13.9995 103.369 13.1108 104.676 13.1108C105.983 13.1108 106.899 14.0024 106.899 15.0959ZM105.067 7.44982V8.82323H107.37V9.50993H105.067V10.8833H107.37V11.7864H109.009V6.52364H107.37V7.45271H105.067V7.44982Z" fill="#3E3A39"/>
<path d="M114.127 12.2539C112.207 12.2539 110.642 10.9324 110.642 9.18679C110.642 7.44118 112.207 6.11682 114.127 6.11682C116.046 6.11682 117.612 7.43829 117.612 9.18679C117.612 10.9353 116.049 12.2539 114.127 12.2539ZM114.127 7.55659C113.041 7.55659 112.303 8.28657 112.303 9.1839C112.303 10.0812 113.038 10.8141 114.127 10.8141C115.216 10.8141 115.95 10.0812 115.95 9.1839C115.95 8.28657 115.216 7.55659 114.127 7.55659ZM118.289 18.5208C116.149 18.5208 114.405 17.0377 114.405 15.0959C114.405 13.1541 116.149 11.671 118.289 11.671C120.43 11.671 122.174 13.1541 122.174 15.0959C122.174 17.0377 120.43 18.5208 118.289 18.5208ZM118.289 13.1108C116.982 13.1108 116.066 14.0024 116.066 15.0959C116.066 16.1894 116.979 17.0781 118.289 17.0781C119.599 17.0781 120.513 16.1894 120.513 15.0959C120.513 14.0024 119.599 13.1108 118.289 13.1108ZM118.224 7.35173V8.72803H120.657V9.46667H118.224V10.8401H120.657V11.6999H122.293V6.51788H120.657V7.34885H118.224V7.35173Z" fill="#3E3A39"/>
<path d="M127.797 12.4876C129.825 12.4876 131.472 11.0969 131.472 9.26761C131.472 7.43833 129.825 6.04761 127.797 6.04761C125.77 6.04761 124.122 7.43833 124.122 9.26761C124.122 11.0969 125.773 12.4876 127.797 12.4876ZM127.797 7.49026C128.988 7.49026 129.808 8.28949 129.808 9.26761C129.808 10.2457 128.991 11.045 127.797 11.045C126.603 11.045 125.784 10.2486 125.784 9.26761C125.784 8.28661 126.606 7.49026 127.797 7.49026ZM135.368 17.8428H125.872C125.543 17.8428 125.307 17.7677 125.163 17.6148C124.996 17.4532 124.908 17.1936 124.908 16.8358V13.887H126.544V16.4578H133.729V6.5208H135.368V17.8428Z" fill="#3E3A39"/>
<path d="M148.996 11.3565H137.166V12.7415H139.919C139.321 13.3359 138.958 14.1264 138.958 15.0468C138.958 17.1387 140.807 18.5467 143.087 18.5467C145.366 18.5467 147.212 17.1387 147.212 15.0468C147.212 14.1264 146.852 13.333 146.251 12.7415H148.993V11.3565H148.996ZM143.089 17.2426C141.677 17.2426 140.679 16.2587 140.679 15.0497C140.679 13.8408 141.677 12.8627 143.089 12.8627C144.502 12.8627 145.497 13.8437 145.497 15.0497C145.497 16.2558 144.499 17.2426 143.089 17.2426ZM140.552 10.2515C139.789 10.3582 138.799 10.4217 137.586 10.439V9.0252C138.947 9.00789 139.967 8.92421 140.648 8.78283C141.499 8.59529 141.941 8.2981 141.978 7.89416H137.586V6.52075H148.576V7.89416H144.201C144.221 8.27213 144.655 8.55489 145.503 8.74533C146.22 8.90402 147.246 8.99635 148.579 9.01077V10.439C147.368 10.439 146.365 10.3813 145.573 10.2659C144.371 10.0841 143.54 9.77538 143.084 9.33681C142.619 9.77538 141.777 10.0812 140.554 10.2515H140.552Z" fill="#3E3A39"/>
<path d="M154.432 14.1986H156.057V12.176H158.881V10.8026H157.174C157.812 10.3467 158.223 9.686 158.223 8.86658C158.223 7.06037 156.584 5.96973 154.73 5.96973C152.875 5.96973 151.233 7.06326 151.233 8.86658C151.233 9.686 151.642 10.3439 152.28 10.8026H150.587V12.176H154.432V14.1986ZM154.727 7.23926C155.77 7.23926 156.598 7.96925 156.598 8.86658C156.598 9.76391 155.77 10.4939 154.727 10.4939C153.683 10.4939 152.855 9.76391 152.855 8.86658C152.855 7.96925 153.678 7.23926 154.727 7.23926ZM162 6.52371V17.8428H152.521C152.195 17.8428 151.954 17.7678 151.795 17.6148C151.625 17.4533 151.542 17.1907 151.542 16.8214V13.5235H153.15V16.4607H160.367V7.88557H158.526V6.52659H162.003L162 6.52371Z" fill="#3E3A39"/>
<path d="M91.0535 11.772V13.5898H94.7596C95.0801 13.5898 95.3211 13.6648 95.4714 13.8177C95.6415 13.9793 95.7209 14.2361 95.7209 14.5967V17.9091H94.0876V14.9718H84.733V13.5869H89.4457V11.7691H84.3162V10.3669H94.0904V7.90281H84.7358V6.52075H94.7653C95.0857 6.52075 95.3267 6.59577 95.477 6.74869C95.6472 6.91027 95.7266 7.16995 95.7266 7.53061V10.3698H96.3277V11.772H91.0592H91.0535Z" fill="#3E3A39"/>
<path d="M64.7932 12C64.7932 18.6276 59.5133 24 53 24C49.464 24 46.2938 22.4131 44.1331 19.9029H46.5405V14.5651C47.3175 14.6286 48.2589 14.6459 49.1124 14.5824L51.8629 19.9058H56.9755L53.3488 13.864L53.6578 13.6793C55.2996 12.6867 56.2467 11.0854 56.2467 9.28208C56.2467 5.89762 53.6465 4.2501 48.3043 4.2501C47.187 4.2501 45.3637 4.35686 43.807 4.49536C45.9706 1.7572 49.2825 0.00292969 53 0.00292969C59.5133 0.00292969 64.7932 5.37537 64.7932 12.0029V12ZM51.3468 9.21572C51.3468 7.58264 50.1672 6.5295 48.3411 6.5295C47.3203 6.5295 46.5405 6.7055 46.5405 6.7055V12.1732C46.5405 12.1732 47.1076 12.277 48.0774 12.277C50.1247 12.277 51.344 11.1316 51.344 9.21284L51.3468 9.21572Z" fill="#E60042"/>
<path d="M10.0919 19.9029L4.71558 12.4242V19.9029H0V4.43188H4.71558V11.3422L9.83382 4.43188H15.2725L9.15612 11.7865L15.5504 19.9029H10.0919Z" fill="#3E3A39"/>
<path d="M37.0157 19.9028V10.3756C37.0157 8.77421 36.3408 7.96344 35.0081 7.96344C33.9192 7.96344 32.8758 8.59821 31.6253 10.0235L31.5345 10.1274V19.9028H26.7821V10.4131C26.7821 8.81172 26.1072 8.00095 24.7773 8.00095C23.7225 8.00095 22.679 8.63572 21.3973 10.0611L21.3009 10.162V19.9057H16.5513V4.43182H21.1563V7.89996L21.7716 7.2248C23.782 5.02908 25.3444 4.13175 27.1592 4.13175C29.3057 4.13175 30.5988 5.07236 31.2226 7.0863L31.4041 7.68068L31.8209 7.2248C33.7775 5.08967 35.5497 4.09424 37.3928 4.09424C40.1717 4.09424 41.7682 5.90621 41.7682 9.06851V19.9H37.0157V19.9028Z" fill="#3E3A39"/>
</g>
<defs>
<clipPath id="clip0_220_3758">
<rect width="162" height="24" fill="white"/>
</clipPath>
</defs>
</svg>
