<svg width="40" height="40" viewBox="0 0 40 40" fill="none" xmlns="http://www.w3.org/2000/svg">
<path d="M4.04362 40C1.80827 40 0 38.2549 0 36.11V3.89003C0 1.74506 1.81736 0 4.04362 0H14.8841C15.3567 0 15.7383 0.381731 15.7383 0.854351C15.7383 1.32697 15.3567 1.7087 14.8841 1.7087H4.04362C2.75329 1.7087 1.70831 2.68121 1.70831 3.88094V4.68075C1.70831 4.90798 1.89914 5.09884 2.12631 5.09884H14.8841C15.3567 5.09884 15.7383 5.48057 15.7383 5.95319C15.7383 6.42581 15.3567 6.80754 14.8841 6.80754H2.12631C1.89914 6.80754 1.70831 6.99841 1.70831 7.22563V32.7471C1.70831 32.9743 1.89914 33.1652 2.12631 33.1652H3.59836C3.79827 33.1652 3.97092 33.0198 4.00727 32.8289C4.57065 29.9114 5.94275 26.7848 8.11449 26.7848H8.4507C8.55975 26.7848 8.6597 26.7848 8.75057 26.7848C9.63199 26.7848 9.79555 26.6121 10.3589 25.8668L10.3771 25.8487C10.5407 25.6305 10.786 25.5124 11.0586 25.5124C11.2494 25.5124 11.4221 25.576 11.5766 25.6851C11.7583 25.8214 11.8764 26.0214 11.9037 26.2486C11.9309 26.4758 11.8764 26.703 11.7401 26.8848C10.5679 28.4299 9.86824 28.5026 8.64153 28.5026H8.12358C7.32394 28.5026 6.3244 30.284 5.79737 32.6562C5.7701 32.7835 5.79736 32.9107 5.87915 33.0107C5.96093 33.1107 6.07905 33.1652 6.20627 33.1652H23.5802C23.7074 33.1652 23.8255 33.1107 23.9073 33.0107C23.9891 32.9107 24.0164 32.7835 23.9891 32.6562C23.4621 30.284 22.4534 28.5026 21.6629 28.5026H21.3448C19.9546 28.4935 19.2549 28.4844 18.0463 26.8848C17.91 26.703 17.8464 26.4758 17.8828 26.2486C17.91 26.0214 18.0282 25.8214 18.2099 25.6851C18.3644 25.5669 18.537 25.5124 18.7279 25.5124C19.0005 25.5124 19.2458 25.6396 19.4094 25.8487L19.4275 25.8668C19.9909 26.6121 20.1636 26.7848 21.0632 26.7848C21.1449 26.7848 21.672 26.7848 21.672 26.7848C23.8437 26.7848 25.2158 29.9023 25.7792 32.8289C25.8155 33.0289 25.9882 33.1652 26.1881 33.1652H27.6602C27.8873 33.1652 28.0781 32.9743 28.0781 32.7471V23.8128C28.0781 23.3402 28.4598 22.9584 28.9323 22.9584C29.4048 22.9584 29.7865 23.3402 29.7865 23.8128V36.0918C29.7865 38.2368 27.9691 39.9818 25.7428 39.9818H4.06179L4.04362 40ZM2.12631 34.8921C1.89914 34.8921 1.70831 35.0829 1.70831 35.3102V36.11C1.70831 37.3097 2.75329 38.2822 4.04362 38.2822H25.7247C27.015 38.2822 28.06 37.3097 28.06 36.11V35.3102C28.06 35.0829 27.8692 34.8921 27.642 34.8921H2.12631Z" fill="black"/>
<path d="M23.8151 6.82589C23.3426 6.82589 22.9609 6.44416 22.9609 5.97154C22.9609 5.49892 23.3426 5.11719 23.8151 5.11719H34.0195C34.4921 5.11719 34.8737 5.49892 34.8737 5.97154C34.8737 6.44416 34.4921 6.82589 34.0195 6.82589H23.8151Z" fill="#DB0032"/>
<path d="M23.8151 11.9353C23.3426 11.9353 22.9609 11.5535 22.9609 11.0809C22.9609 10.6083 23.3426 10.2266 23.8151 10.2266H34.0195C34.4921 10.2266 34.8737 10.6083 34.8737 11.0809C34.8737 11.5535 34.4921 11.9353 34.0195 11.9353H23.8151Z" fill="#DB0032"/>
<path d="M25.0899 22.1418C24.9627 22.1418 24.8355 22.1145 24.7173 22.06C24.4175 21.9146 24.2357 21.6146 24.2357 21.2874V17.461C24.2357 17.2338 24.0449 17.0429 23.8178 17.0429H22.5456C22.0731 17.0429 21.6914 16.6612 21.6914 16.1886C21.6914 15.716 22.0731 15.3342 22.5456 15.3342H25.099C25.5715 15.3342 25.9531 15.716 25.9531 16.1886V18.6335C25.9531 18.7971 26.044 18.9425 26.1894 19.0152C26.2439 19.0425 26.3075 19.0607 26.3711 19.0607C26.462 19.0607 26.5529 19.0334 26.6347 18.9698L30.9418 15.5251C31.0963 15.4069 31.2871 15.3342 31.4779 15.3342H37.457C37.9113 15.3342 38.2748 14.9707 38.2748 14.5162V2.15541C38.2748 1.92819 38.084 1.73732 37.8568 1.73732H20.0013C19.7741 1.73732 19.5833 1.92819 19.5833 2.15541V9.80822C19.5833 10.2808 19.2017 10.6626 18.7292 10.6626C18.2566 10.6626 17.875 10.2808 17.875 9.80822V2.15541C17.875 0.982949 18.8291 0.0195312 20.0104 0.0195312H37.8659C39.0381 0.0195312 40.0013 0.97386 40.0013 2.15541V14.5162C40.0013 15.9159 38.8655 17.052 37.4661 17.052H31.9322C31.8414 17.052 31.7414 17.0884 31.6687 17.1429L25.6442 21.9691C25.4897 22.0872 25.2989 22.16 25.1081 22.16L25.0899 22.1418Z" fill="#DB0032"/>
<path d="M14.8828 24.6931C12.2567 24.6931 10.2031 21.4302 10.2031 17.2766C10.2031 12.0596 13.4744 11.4961 14.8828 11.4961C16.2913 11.4961 19.5625 12.0596 19.5625 17.2766C19.5625 21.4393 17.5089 24.6931 14.8828 24.6931ZM14.8828 13.2139C14.1468 13.2139 11.9114 13.2139 11.9114 17.2766C11.9114 20.3123 13.3017 22.9844 14.8828 22.9844C16.4639 22.9844 17.8542 20.3214 17.8542 17.2766C17.8542 13.2139 15.6188 13.2139 14.8828 13.2139Z" fill="black"/>
</svg>
