<svg width="22" height="22" viewBox="0 0 22 22" fill="none" xmlns="http://www.w3.org/2000/svg">
<path d="M19.7188 8.65625C18.8502 4.37703 15.0669 1.15625 10.5313 1.15625C5.35344 1.15625 1.15625 5.35344 1.15625 10.5313C1.15625 12.3106 1.65219 13.9742 2.51281 15.3917C2.09516 16.3934 1.67 17.5775 1.39813 18.6659C1.24578 19.2767 1.78156 19.7914 2.38812 19.6231C3.43953 19.3311 4.59641 18.9059 5.59344 18.5019C6.53396 19.0863 7.57112 19.4983 8.65625 19.7188" stroke="white" stroke-width="2" stroke-linecap="round" stroke-linejoin="round"/>
<path d="M9.59375 15.2187C9.59375 12.1123 12.1123 9.59375 15.2188 9.59375C18.3252 9.59375 20.8438 12.1123 20.8438 15.2187C20.8438 16.2983 20.54 17.3066 20.0127 18.1625C20.2147 18.59 20.4158 19.0817 20.5752 19.6091C20.7566 20.2119 20.2166 20.7298 19.6184 20.5344C19.1408 20.3755 18.6723 20.1905 18.215 19.9803C17.3182 20.5461 16.2791 20.8455 15.2188 20.8437C12.1123 20.8437 9.59375 18.3252 9.59375 15.2187Z" stroke="white" stroke-width="2" stroke-linejoin="round"/>
</svg>
