<svg width="24" height="24" viewBox="0 0 24 24" fill="none" xmlns="http://www.w3.org/2000/svg">
<path d="M2.55078 2.54999C6.83537 2.54999 10.3147 6.02381 10.3659 10.3286L12.0267 12.6865C12.2733 13.0368 12.23 13.5075 11.8648 13.7317C11.4977 13.9571 10.9521 14.2212 10.2112 14.4036L9.96165 17.421C9.89829 18.1866 9.20975 18.7452 8.44754 18.6492L7.24023 18.4971V19.9543C7.24023 20.5342 6.86714 21.0415 6.2969 21.1471C5.5236 21.2903 4.27491 21.45 2.55079 21.45" stroke="white" stroke-width="2" stroke-linecap="round" stroke-linejoin="round"/>
<path d="M19.2012 9.29999C22.2012 12.2823 22.2012 17.1177 19.2012 20.1" stroke="white" stroke-width="2" stroke-linecap="round" stroke-linejoin="round"/>
<path d="M17.0625 11.1C18.8625 13.0882 18.8625 16.3117 17.0625 18.3" stroke="white" stroke-width="2" stroke-linecap="round" stroke-linejoin="round"/>
<path d="M14.4766 12.675C15.6766 13.7934 15.6766 15.6066 14.4766 16.725" stroke="white" stroke-width="2" stroke-linecap="round" stroke-linejoin="round"/>
<path d="M6.60156 9.29999V9.74999" stroke="white" stroke-width="2" stroke-linecap="round" stroke-linejoin="round"/>
</svg>
