<svg width="18" height="18" viewBox="0 0 18 18" fill="none" xmlns="http://www.w3.org/2000/svg">
<g clip-path="url(#clip0_99_3469)">
<path d="M17.04 7.76248L15.66 6.65247C15.5493 6.56415 15.4635 6.44859 15.4109 6.31712C15.3583 6.18564 15.3408 6.04276 15.36 5.90247L15.5475 4.14747C15.5735 3.91428 15.5469 3.67821 15.4695 3.45668C15.3921 3.23516 15.266 3.03383 15.1005 2.86755C14.9349 2.70127 14.7341 2.57428 14.5129 2.49595C14.2918 2.41762 14.0558 2.38995 13.8225 2.41497L12.06 2.60247C11.9197 2.62171 11.7768 2.60417 11.6454 2.55158C11.5139 2.49899 11.3983 2.41315 11.31 2.30247L10.2225 0.944975C10.0704 0.770084 9.88261 0.629857 9.67171 0.533761C9.46082 0.437666 9.23176 0.387939 9 0.387939C8.76824 0.387939 8.53918 0.437666 8.32829 0.533761C8.11739 0.629857 7.92957 0.770084 7.7775 0.944975L6.6675 2.32497C6.57917 2.43565 6.46362 2.52149 6.33214 2.57408C6.20067 2.62667 6.05779 2.64421 5.9175 2.62497L4.1775 2.43747C3.94419 2.41245 3.70824 2.44012 3.48705 2.51845C3.26587 2.59678 3.06509 2.72377 2.89953 2.89005C2.73397 3.05633 2.60785 3.25766 2.53048 3.47918C2.45311 3.70071 2.42646 3.93678 2.4525 4.16997L2.64 5.92497C2.65923 6.06526 2.64169 6.20814 2.5891 6.33962C2.53652 6.47109 2.45068 6.58665 2.34 6.67497L0.96 7.76248C0.776979 7.90935 0.629273 8.09545 0.52778 8.30704C0.426287 8.51863 0.373596 8.7503 0.373596 8.98497C0.373596 9.21964 0.426287 9.45132 0.52778 9.66291C0.629273 9.8745 0.776979 10.0606 0.96 10.2075L2.34 11.3175C2.45011 11.4063 2.53553 11.5219 2.58807 11.6532C2.64061 11.7846 2.65849 11.9272 2.64 12.0675L2.4525 13.83C2.42651 14.0627 2.45348 14.2982 2.53141 14.519C2.60934 14.7398 2.7362 14.9401 2.9025 15.105C3.06496 15.2746 3.26497 15.4036 3.48642 15.4818C3.70788 15.5599 3.94459 15.585 4.1775 15.555L5.94 15.3675C6.08029 15.3482 6.22317 15.3658 6.35464 15.4184C6.48611 15.471 6.60167 15.5568 6.69 15.6675L7.8 17.0475C7.94688 17.2305 8.13298 17.3782 8.34457 17.4797C8.55615 17.5812 8.78783 17.6339 9.0225 17.6339C9.25717 17.6339 9.48885 17.5812 9.70043 17.4797C9.91202 17.3782 10.0981 17.2305 10.245 17.0475L11.355 15.6675C11.4433 15.5568 11.5589 15.471 11.6904 15.4184C11.8218 15.3658 11.9647 15.3482 12.105 15.3675L13.8675 15.555C14.1004 15.585 14.3371 15.5599 14.5586 15.4818C14.78 15.4036 14.98 15.2746 15.1425 15.105C15.3088 14.9401 15.4357 14.7398 15.5136 14.519C15.5915 14.2982 15.6185 14.0627 15.5925 13.83L15.405 12.0675C15.3865 11.9272 15.4044 11.7846 15.4569 11.6532C15.5095 11.5219 15.5949 11.4063 15.705 11.3175L17.085 10.2075C17.268 10.0606 17.4157 9.8745 17.5172 9.66291C17.6187 9.45132 17.6714 9.21964 17.6714 8.98497C17.6714 8.7503 17.6187 8.51863 17.5172 8.30704C17.4157 8.09545 17.268 7.90935 17.085 7.76248H17.04ZM9.3 11.2875C9.18443 11.4379 9.0383 11.5621 8.87123 11.6519C8.70417 11.7417 8.51997 11.7951 8.33076 11.8086C8.14156 11.8221 7.95165 11.7953 7.77355 11.73C7.59545 11.6648 7.4332 11.5625 7.2975 11.43L5.4675 9.59997C5.39757 9.53005 5.3421 9.44703 5.30426 9.35566C5.26641 9.26429 5.24693 9.16637 5.24693 9.06747C5.24693 8.96858 5.26641 8.87065 5.30426 8.77929C5.3421 8.68792 5.39757 8.6049 5.4675 8.53498C5.53743 8.46505 5.62045 8.40958 5.71181 8.37173C5.80318 8.33388 5.90111 8.31441 6 8.31441C6.09889 8.31441 6.19682 8.33388 6.28819 8.37173C6.37955 8.40958 6.46257 8.46505 6.5325 8.53498L8.25 10.2225L11.1825 6.31497C11.3018 6.15584 11.4795 6.05064 11.6764 6.02251C11.7739 6.00858 11.8732 6.014 11.9686 6.03844C12.064 6.06288 12.1537 6.10588 12.2325 6.16498C12.3113 6.22407 12.3777 6.29811 12.4279 6.38285C12.478 6.4676 12.511 6.56141 12.525 6.65891C12.5389 6.75641 12.5335 6.8557 12.509 6.95111C12.4846 7.04652 12.4416 7.13618 12.3825 7.21497L9.3 11.2875Z" fill="#DB0032"/>
<rect x="4" y="4.5" width="9" height="9" fill="#DB0032"/>
</g>
<defs>
<clipPath id="clip0_99_3469">
<rect width="18" height="18" fill="white"/>
</clipPath>
</defs>
</svg>
