<svg width="108" height="41" viewBox="0 0 108 41" fill="none" xmlns="http://www.w3.org/2000/svg">
<path d="M108 20.4976C108 31.5448 99.1994 40.5 88.3427 40.5C82.4488 40.5 77.1646 37.8548 73.5631 33.6706H77.5758V24.7732C78.8709 24.879 80.4401 24.9078 81.8627 24.802L86.4474 33.6754H94.9692L88.9241 23.6045L89.4393 23.2967C92.1759 21.6422 93.7545 18.973 93.7545 15.9671C93.7545 10.3257 89.4204 7.57948 80.5157 7.57948C78.6535 7.57948 75.6144 7.75742 73.0195 7.98828C76.6258 3.42413 82.1463 0.5 88.3427 0.5C99.1994 0.5 108 9.45515 108 20.5024V20.4976ZM85.5872 15.8565C85.5872 13.1344 83.621 11.3789 80.5771 11.3789C78.8756 11.3789 77.5758 11.6723 77.5758 11.6723V20.7862C77.5758 20.7862 78.5211 20.9593 80.1376 20.9593C83.5501 20.9593 85.5825 19.05 85.5825 15.8517L85.5872 15.8565Z" fill="#E60042"/>
<path d="M16.8215 33.67L7.86012 21.2039V33.67H0V7.88184H7.86012V19.4004L16.3914 7.88184H25.4568L15.2618 20.1411L25.92 33.67H16.8215Z" fill="#3E3A39"/>
<path d="M61.6988 33.6707V17.7899C61.6988 15.1207 60.5739 13.7693 58.3525 13.7693C56.5375 13.7693 54.7982 14.8273 52.7138 17.2032L52.5625 17.3763V33.6707H44.641V17.8525C44.641 15.1832 43.5161 13.8318 41.2994 13.8318C39.5411 13.8318 37.8018 14.8899 35.6654 17.2657L35.5047 17.4341V33.6755H27.5879V7.88253H35.2637V13.6635L36.2893 12.5381C39.6404 8.87808 42.2447 7.38235 45.2696 7.38235C48.8475 7.38235 51.0028 8.95022 52.0426 12.3072L52.3451 13.2979L53.0399 12.5381C56.3012 8.97908 59.2552 7.31982 62.3274 7.31982C66.9594 7.31982 69.6204 10.3401 69.6204 15.6113V33.6659H61.6988V33.6707Z" fill="#3E3A39"/>
</svg>
