<svg width="18" height="18" viewBox="0 0 18 18" fill="none" xmlns="http://www.w3.org/2000/svg">
<path d="M17 8.99904C17 13.4179 13.2262 17 8.57073 17C6.04337 17 3.77746 15.9419 2.23308 14.2682H3.95379V10.7093C4.50912 10.7516 5.182 10.7631 5.79205 10.7208L7.758 14.2702H11.4122L8.82002 10.2418L9.04094 10.1187C10.2144 9.4569 10.8914 8.3892 10.8914 7.18685C10.8914 4.93026 9.03283 3.83179 5.21443 3.83179C4.41589 3.83179 3.11269 3.90297 2 3.99531C3.54641 2.16965 5.91366 1 8.57073 1C13.2262 1 17 4.58206 17 9.00096V8.99904ZM7.38914 7.1426C7.38914 6.05375 6.54601 5.35157 5.24078 5.35157C4.51115 5.35157 3.95379 5.46892 3.95379 5.46892V9.11446C3.95379 9.11446 4.35914 9.18372 5.05229 9.18372C6.51561 9.18372 7.38711 8.41998 7.38711 7.14068L7.38914 7.1426Z" fill="#E60042"/>
</svg>
