<svg width="18" height="18" viewBox="0 0 18 18" fill="none" xmlns="http://www.w3.org/2000/svg">
<path d="M16.0575 3.6825L12.8175 0.4425C12.678 0.302124 12.512 0.190754 12.3292 0.114808C12.1464 0.0388625 11.9504 -0.000156369 11.7525 4.70948e-07H3C2.60218 4.70948e-07 2.22064 0.158036 1.93934 0.43934C1.65804 0.720645 1.5 1.10218 1.5 1.5V16.5C1.5 16.8978 1.65804 17.2794 1.93934 17.5607C2.22064 17.842 2.60218 18 3 18H15C15.3978 18 15.7794 17.842 16.0607 17.5607C16.342 17.2794 16.5 16.8978 16.5 16.5V4.7475C16.5002 4.54957 16.4611 4.35356 16.3852 4.17077C16.3092 3.98799 16.1979 3.82204 16.0575 3.6825ZM6.45 3.375C6.6725 3.375 6.89001 3.44098 7.07502 3.5646C7.26002 3.68821 7.40422 3.86391 7.48936 4.06948C7.57451 4.27505 7.59679 4.50125 7.55338 4.71948C7.50997 4.93771 7.40283 5.13816 7.24549 5.2955C7.08816 5.45283 6.88771 5.55998 6.66948 5.60338C6.45125 5.64679 6.22505 5.62451 6.01948 5.53936C5.81391 5.45422 5.63821 5.31002 5.5146 5.12502C5.39098 4.94001 5.325 4.7225 5.325 4.5C5.325 4.20163 5.44353 3.91548 5.6545 3.7045C5.86548 3.49353 6.15163 3.375 6.45 3.375ZM5.31 9.555L6.4125 7.7625C6.52769 7.62644 6.68758 7.53585 6.8635 7.50699C7.03942 7.47813 7.21987 7.51287 7.3725 7.605L8.5575 8.5125C8.59255 8.54686 8.63967 8.5661 8.68875 8.5661C8.73783 8.5661 8.78495 8.54686 8.82 8.5125L9.9525 7.0575C10.0223 6.96195 10.1138 6.88428 10.2193 6.83084C10.3249 6.77739 10.4417 6.74969 10.56 6.75C10.6745 6.75603 10.7861 6.78824 10.8862 6.84415C10.9863 6.90006 11.0723 6.97818 11.1375 7.0725L12.225 9.6C12.25 9.65717 12.2602 9.71966 12.255 9.78181C12.2497 9.84397 12.229 9.90382 12.1947 9.95595C12.1604 10.0081 12.1137 10.0508 12.0588 10.0804C12.0038 10.1099 11.9424 10.1252 11.88 10.125H5.625C5.55889 10.1241 5.49419 10.1057 5.43748 10.0717C5.38077 10.0377 5.33406 9.98929 5.30207 9.93142C5.27009 9.87355 5.25398 9.80825 5.25537 9.74214C5.25676 9.67604 5.27561 9.61147 5.31 9.555ZM12.375 15.555H4.875C4.72582 15.555 4.58274 15.4957 4.47725 15.3902C4.37176 15.2848 4.3125 15.1417 4.3125 14.9925C4.3125 14.8433 4.37176 14.7002 4.47725 14.5948C4.58274 14.4893 4.72582 14.43 4.875 14.43H12.375C12.5242 14.43 12.6673 14.4893 12.7727 14.5948C12.8782 14.7002 12.9375 14.8433 12.9375 14.9925C12.9375 15.1417 12.8782 15.2848 12.7727 15.3902C12.6673 15.4957 12.5242 15.555 12.375 15.555ZM12.375 12.93H4.875C4.72582 12.93 4.58274 12.8707 4.47725 12.7652C4.37176 12.6598 4.3125 12.5167 4.3125 12.3675C4.3125 12.2183 4.37176 12.0752 4.47725 11.9698C4.58274 11.8643 4.72582 11.805 4.875 11.805H12.375C12.5242 11.805 12.6673 11.8643 12.7727 11.9698C12.8782 12.0752 12.9375 12.2183 12.9375 12.3675C12.9375 12.5167 12.8782 12.6598 12.7727 12.7652C12.6673 12.8707 12.5242 12.93 12.375 12.93Z" fill="#DB0032"/>
</svg>
