<svg width="18" height="16" viewBox="0 0 18 16" fill="none" xmlns="http://www.w3.org/2000/svg">
<path d="M8.99923 12.6042C9.06865 12.6042 9.1381 12.5903 9.20756 12.5625C9.27698 12.5347 9.34644 12.493 9.41589 12.4375C9.66589 12.2153 9.96798 11.9305 10.3221 11.5833C10.6763 11.2361 11.0166 10.8611 11.343 10.4583C11.6694 10.0555 11.9506 9.64237 12.1867 9.21875C12.4228 8.79513 12.5409 8.40279 12.5409 8.04167C12.5409 7.5 12.3638 7.05208 12.0096 6.69792C11.6555 6.34375 11.2076 6.16667 10.6659 6.16667C10.3464 6.16667 10.0409 6.24654 9.74923 6.40625C9.45756 6.56596 9.20756 6.75696 8.99923 6.97917C8.7909 6.75696 8.5409 6.56596 8.24923 6.40625C7.95756 6.24654 7.65198 6.16667 7.33256 6.16667C6.79089 6.16667 6.34298 6.34375 5.98881 6.69792C5.63464 7.05208 5.45756 7.5 5.45756 8.04167C5.45756 8.40279 5.5756 8.79513 5.81173 9.21875C6.04781 9.64237 6.32906 10.0555 6.65548 10.4583C6.98185 10.8611 7.32214 11.2361 7.67631 11.5833C8.03048 11.9305 8.33256 12.2153 8.58256 12.4375C8.65198 12.493 8.72144 12.5347 8.79089 12.5625C8.86031 12.5903 8.92977 12.6042 8.99923 12.6042ZM3.58256 15.5C3.23531 15.5 2.94019 15.3785 2.69714 15.1354C2.45408 14.8924 2.33255 14.5972 2.33255 14.25V7.14583L1.08255 8.10417C0.943661 8.21529 0.790886 8.25696 0.624219 8.22917C0.457553 8.20138 0.318661 8.11804 0.207553 7.97917C0.0964402 7.84029 0.0547736 7.6875 0.0825527 7.52083C0.110328 7.35417 0.193661 7.21529 0.332553 7.10417L8.24923 1.08333C8.36031 1 8.47839 0.934029 8.60339 0.885417C8.72839 0.836804 8.86031 0.8125 8.99923 0.8125C9.1381 0.8125 9.27006 0.836804 9.39506 0.885417C9.52006 0.934029 9.6381 1 9.74923 1.08333L17.6867 7.125C17.8256 7.23612 17.9055 7.375 17.9263 7.54167C17.9471 7.70833 17.902 7.86112 17.7909 8C17.6798 8.13888 17.5444 8.21875 17.3846 8.23958C17.2249 8.26042 17.0756 8.21529 16.9367 8.10417L15.6659 7.14583V14.25C15.6659 14.5972 15.5444 14.8924 15.3013 15.1354C15.0582 15.3785 14.7631 15.5 14.4159 15.5H3.58256Z" fill="#DB0032"/>
</svg>
