<svg width="18" height="18" viewBox="0 0 18 18" fill="none" xmlns="http://www.w3.org/2000/svg">
<path d="M13.875 2.25H4.125C3.82663 2.25 3.54048 2.36853 3.3295 2.5795C3.11853 2.79048 3 3.07663 3 3.375V14.625C3 14.9234 3.11853 15.2095 3.3295 15.4205C3.54048 15.6315 3.82663 15.75 4.125 15.75H13.875C14.1734 15.75 14.4595 15.6315 14.6705 15.4205C14.8815 15.2095 15 14.9234 15 14.625V3.375C15 3.07663 14.8815 2.79048 14.6705 2.5795C14.4595 2.36853 14.1734 2.25 13.875 2.25ZM11.0025 9.5925L7.6725 11.535C7.5693 11.5946 7.45217 11.6258 7.333 11.6255C7.21384 11.6251 7.09689 11.5932 6.99404 11.533C6.89119 11.4729 6.8061 11.3865 6.74743 11.2828C6.68876 11.1791 6.65859 11.0617 6.66 10.9425V7.0575C6.65859 6.93834 6.68876 6.82093 6.74743 6.71721C6.8061 6.61349 6.89119 6.52715 6.99404 6.46696C7.09689 6.40677 7.21384 6.37489 7.333 6.37454C7.45217 6.3742 7.5693 6.40541 7.6725 6.465L11.0025 8.4075C11.1069 8.46721 11.1937 8.55345 11.2541 8.6575C11.3145 8.76155 11.3463 8.87971 11.3463 9C11.3463 9.12029 11.3145 9.23845 11.2541 9.3425C11.1937 9.44655 11.1069 9.53279 11.0025 9.5925Z" fill="#DB0032"/>
<path d="M0.75 3.75C0.551088 3.75 0.360322 3.82902 0.21967 3.96967C0.0790176 4.11032 0 4.30109 0 4.5L0 13.875C0 14.0739 0.0790176 14.2647 0.21967 14.4053C0.360322 14.546 0.551088 14.625 0.75 14.625C0.948912 14.625 1.13968 14.546 1.28033 14.4053C1.42098 14.2647 1.5 14.0739 1.5 13.875V4.5C1.5 4.30109 1.42098 4.11032 1.28033 3.96967C1.13968 3.82902 0.948912 3.75 0.75 3.75Z" fill="#DB0032"/>
<path d="M17.25 3.75C17.0511 3.75 16.8603 3.82902 16.7197 3.96967C16.579 4.11032 16.5 4.30109 16.5 4.5V13.875C16.5 14.0739 16.579 14.2647 16.7197 14.4053C16.8603 14.546 17.0511 14.625 17.25 14.625C17.4489 14.625 17.6397 14.546 17.7803 14.4053C17.921 14.2647 18 14.0739 18 13.875V4.5C18 4.30109 17.921 4.11032 17.7803 3.96967C17.6397 3.82902 17.4489 3.75 17.25 3.75Z" fill="#DB0032"/>
</svg>
