<svg width="56" height="55" viewBox="0 0 56 55" fill="none" xmlns="http://www.w3.org/2000/svg">
<g clip-path="url(#clip0_757_37687)">
<path d="M0.915975 42.7274C0.71836 42.7274 0.518073 42.6635 0.349833 42.5305C-0.0480688 42.2192 -0.117501 41.6444 0.194945 41.2479C0.536767 40.8142 8.631 30.6231 13.8091 29.3672C17.2887 28.5237 25.5512 29.777 31.8695 30.9797C34.2089 31.424 35.8165 33.6193 35.5308 35.9768C35.245 38.3343 33.1514 40.0852 30.78 39.9654L19.0592 39.372C18.5518 39.3454 18.1646 38.917 18.1887 38.4115C18.2154 37.9059 18.6426 37.5201 19.1527 37.544L30.8734 38.1374C32.2995 38.2092 33.5386 37.1635 33.7095 35.7559C33.8804 34.3483 32.919 33.0392 31.525 32.7731C22.9715 31.1473 16.6718 30.5513 14.2417 31.142C10.4549 32.06 3.85885 39.5636 1.63701 42.3762C1.45541 42.605 1.18569 42.7247 0.915975 42.7247V42.7274Z" fill="black"/>
<path d="M11.8142 54.9994C11.6273 54.9994 11.4403 54.9435 11.2774 54.8264C10.8662 54.5311 10.7727 53.959 11.0691 53.5492C11.176 53.4029 13.6862 49.9863 17.278 49.9863C17.2887 49.9863 17.2994 49.9863 17.3101 49.9863C17.6839 49.9863 18.194 49.9996 18.8082 50.0129C23.2465 50.1114 33.6427 50.3482 37.2212 47.8763C40.4258 45.6624 49.5268 37.3153 53.2921 33.8269C54.3763 32.8238 54.4565 31.1714 53.4737 30.0671C52.499 28.9682 50.7979 28.8538 49.6816 29.8117L38.511 39.3934C38.3081 39.569 38.0357 39.6462 37.7686 39.6036L33.4291 38.9198C32.927 38.84 32.5879 38.3717 32.6653 37.8741C32.7454 37.3738 33.2155 37.0332 33.7148 37.1131L37.6351 37.7331L48.4826 28.428C50.3546 26.8235 53.2093 27.0151 54.8464 28.8591C56.494 30.7137 56.3578 33.4837 54.5392 35.168C49.8285 39.5318 41.4485 47.1818 38.2653 49.3796C34.1928 52.1895 23.7726 51.9554 18.7655 51.8436C18.1646 51.8303 17.6679 51.8197 17.2994 51.817H17.278C14.6155 51.817 12.578 54.5923 12.5593 54.6215C12.3804 54.869 12.1 55.002 11.8142 55.002V54.9994Z" fill="black"/>
<path d="M31.0096 16.5559C26.4271 16.5559 22.7018 12.8413 22.7018 8.27794C22.7018 3.71456 26.4298 0 31.0096 0C35.5895 0 39.3175 3.71456 39.3175 8.27794C39.3175 12.8413 35.5895 16.5559 31.0096 16.5559ZM31.0096 1.82801C27.4392 1.82801 24.5364 4.72303 24.5364 8.27794C24.5364 11.8329 27.4419 14.7279 31.0096 14.7279C34.5774 14.7279 37.4829 11.8329 37.4829 8.27794C37.4829 4.72303 34.5774 1.82801 31.0096 1.82801Z" fill="#DB0032"/>
<path d="M41.4272 26.9365C40.9198 26.9365 40.5085 26.5268 40.5085 26.0212C40.5085 20.8033 36.2464 16.5565 31.0096 16.5565C25.7728 16.5565 21.5107 20.8033 21.5107 26.0212C21.5107 26.5268 21.0995 26.9365 20.5921 26.9365C20.0847 26.9365 19.6734 26.5268 19.6734 26.0212C19.6734 19.7948 24.758 14.7285 31.007 14.7285C37.2559 14.7285 42.3405 19.7948 42.3405 26.0212C42.3405 26.5268 41.9292 26.9365 41.4218 26.9365H41.4272Z" fill="#DB0032"/>
</g>
<defs>
<clipPath id="clip0_757_37687">
<rect width="56" height="55" fill="white"/>
</clipPath>
</defs>
</svg>
