<svg width="56" height="55" viewBox="0 0 56 55" fill="none" xmlns="http://www.w3.org/2000/svg">
<g clip-path="url(#clip0_757_37792)">
<path d="M0.915605 42.7274C0.71799 42.7274 0.517703 42.6635 0.349463 42.5305C-0.0484388 42.2192 -0.117871 41.6444 0.194575 41.2479C0.536397 40.8142 8.63063 30.6231 13.8087 29.3672C17.2883 28.5237 25.5508 29.777 31.8692 30.9797C34.2085 31.424 35.8161 33.6193 35.5304 35.9768C35.2447 38.3343 33.151 40.0852 30.7796 39.9654L19.0589 39.372C18.5515 39.3454 18.1642 38.917 18.1883 38.4115C18.215 37.9059 18.6423 37.5201 19.1523 37.544L30.8731 38.1374C32.2991 38.2092 33.5382 37.1635 33.7091 35.7559C33.88 34.3483 32.9187 33.0392 31.5247 32.7731C22.9711 31.1473 16.6714 30.5513 14.2413 31.142C10.4546 32.06 3.85848 39.5636 1.63664 42.3762C1.45504 42.605 1.18532 42.7247 0.915605 42.7247V42.7274Z" fill="black"/>
<path d="M11.8138 54.9994C11.6268 54.9994 11.4399 54.9435 11.277 54.8264C10.8658 54.5311 10.7723 53.959 11.0687 53.5492C11.1755 53.4029 13.6858 49.9863 17.2776 49.9863C17.2883 49.9863 17.2989 49.9863 17.3096 49.9863C17.6835 49.9863 18.1936 49.9996 18.8078 50.0129C23.2461 50.1114 33.6423 50.3482 37.2207 47.8763C40.4253 45.6624 49.5263 37.3153 53.2917 33.8269C54.3759 32.8238 54.456 31.1714 53.4733 30.0671C52.4986 28.9682 50.7975 28.8538 49.6812 29.8117L38.5106 39.3934C38.3076 39.569 38.0352 39.6462 37.7682 39.6036L33.4287 38.9198C32.9266 38.84 32.5875 38.3717 32.6649 37.8741C32.745 37.3738 33.215 37.0332 33.7144 37.1131L37.6347 37.7331L48.4822 28.428C50.3542 26.8235 53.2089 27.0151 54.8459 28.8591C56.4936 30.7137 56.3574 33.4837 54.5388 35.168C49.8281 39.5318 41.4481 47.1818 38.2649 49.3796C34.1924 52.1895 23.7722 51.9554 18.765 51.8436C18.1642 51.8303 17.6675 51.8197 17.2989 51.817H17.2776C14.6151 51.817 12.5775 54.5923 12.5588 54.6215C12.3799 54.869 12.0995 55.002 11.8138 55.002V54.9994Z" fill="black"/>
<path d="M31.01 16.5559C26.4275 16.5559 22.7021 12.8413 22.7021 8.27794C22.7021 3.71456 26.4301 0 31.01 0C35.5899 0 39.3179 3.71456 39.3179 8.27794C39.3179 12.8413 35.5899 16.5559 31.01 16.5559ZM31.01 1.82801C27.4396 1.82801 24.5368 4.72303 24.5368 8.27794C24.5368 11.8329 27.4423 14.7279 31.01 14.7279C34.5778 14.7279 37.4833 11.8329 37.4833 8.27794C37.4833 4.72303 34.5778 1.82801 31.01 1.82801Z" fill="#DB0032"/>
<path d="M41.4276 26.9365C40.9202 26.9365 40.5089 26.5268 40.5089 26.0212C40.5089 20.8033 36.2468 16.5565 31.01 16.5565C25.7732 16.5565 21.5111 20.8033 21.5111 26.0212C21.5111 26.5268 21.0999 26.9365 20.5925 26.9365C20.0851 26.9365 19.6738 26.5268 19.6738 26.0212C19.6738 19.7948 24.7584 14.7285 31.0074 14.7285C37.2563 14.7285 42.3409 19.7948 42.3409 26.0212C42.3409 26.5268 41.9296 26.9365 41.4222 26.9365H41.4276Z" fill="#DB0032"/>
</g>
<defs>
<clipPath id="clip0_757_37792">
<rect width="56" height="55" fill="white"/>
</clipPath>
</defs>
</svg>
