<svg width="56" height="55" viewBox="0 0 56 55" fill="none" xmlns="http://www.w3.org/2000/svg">
<g clip-path="url(#clip0_1229_24181)">
<path d="M0.916582 42.7274C0.718966 42.7274 0.51868 42.6635 0.35044 42.5305C-0.0474623 42.2192 -0.116895 41.6444 0.195552 41.2479C0.537373 40.8142 8.6316 30.6231 13.8097 29.3672C17.2893 28.5237 25.5518 29.777 31.8701 30.9797C34.2095 31.424 35.8171 33.6193 35.5314 35.9768C35.2456 38.3343 33.152 40.0852 30.7806 39.9654L19.0598 39.372C18.5524 39.3454 18.1652 38.917 18.1893 38.4115C18.216 37.9059 18.6432 37.5201 19.1533 37.544L30.874 38.1374C32.3001 38.2092 33.5392 37.1635 33.7101 35.7559C33.881 34.3483 32.9196 33.0392 31.5256 32.7731C22.9721 31.1473 16.6724 30.5513 14.2423 31.142C10.4555 32.06 3.85945 39.5636 1.63761 42.3762C1.45602 42.605 1.1863 42.7247 0.916582 42.7247V42.7274Z" fill="black"/>
<path d="M11.8148 54.9994C11.6278 54.9994 11.4409 54.9435 11.278 54.8264C10.8667 54.5311 10.7733 53.959 11.0697 53.5492C11.1765 53.4029 13.6868 49.9863 17.2786 49.9863C17.2892 49.9863 17.2999 49.9863 17.3106 49.9863C17.6845 49.9863 18.1945 49.9996 18.8087 50.0129C23.2471 50.1114 33.6433 50.3482 37.2217 47.8763C40.4263 45.6624 49.5273 37.3153 53.2927 33.8269C54.3769 32.8238 54.457 31.1714 53.4743 30.0671C52.4995 28.9682 50.7984 28.8538 49.6822 29.8117L38.5116 39.3934C38.3086 39.569 38.0362 39.6462 37.7692 39.6036L33.4296 38.9198C32.9276 38.84 32.5884 38.3717 32.6659 37.8741C32.746 37.3738 33.216 37.0332 33.7154 37.1131L37.6356 37.7331L48.4831 28.428C50.3551 26.8235 53.2099 27.0151 54.8469 28.8591C56.4946 30.7137 56.3584 33.4837 54.5398 35.168C49.8291 39.5318 41.4491 47.1818 38.2659 49.3796C34.1934 52.1895 23.7732 51.9554 18.766 51.8436C18.1652 51.8303 17.6685 51.8197 17.2999 51.817H17.2786C14.6161 51.817 12.5785 54.5923 12.5598 54.6215C12.3809 54.869 12.1005 55.002 11.8148 55.002V54.9994Z" fill="black"/>
<path d="M31.011 16.5559C26.4284 16.5559 22.7031 12.8413 22.7031 8.27794C22.7031 3.71456 26.4311 0 31.011 0C35.5909 0 39.3189 3.71456 39.3189 8.27794C39.3189 12.8413 35.5909 16.5559 31.011 16.5559ZM31.011 1.82801C27.4406 1.82801 24.5377 4.72303 24.5377 8.27794C24.5377 11.8329 27.4432 14.7279 31.011 14.7279C34.5788 14.7279 37.4842 11.8329 37.4842 8.27794C37.4842 4.72303 34.5788 1.82801 31.011 1.82801Z" fill="#DB0032"/>
<path d="M41.4276 26.9365C40.9202 26.9365 40.5089 26.5268 40.5089 26.0212C40.5089 20.8033 36.2468 16.5565 31.01 16.5565C25.7732 16.5565 21.5111 20.8033 21.5111 26.0212C21.5111 26.5268 21.0999 26.9365 20.5925 26.9365C20.0851 26.9365 19.6738 26.5268 19.6738 26.0212C19.6738 19.7948 24.7584 14.7285 31.0074 14.7285C37.2563 14.7285 42.3409 19.7948 42.3409 26.0212C42.3409 26.5268 41.9296 26.9365 41.4222 26.9365H41.4276Z" fill="#DB0032"/>
</g>
<defs>
<clipPath id="clip0_1229_24181">
<rect width="56" height="55" fill="white"/>
</clipPath>
</defs>
</svg>
