<svg width="704" height="634" viewBox="0 0 704 634" fill="none" xmlns="http://www.w3.org/2000/svg">
<path d="M204.983 243.031L131.47 373.001H572.53L499.036 243.031H204.983Z" fill="#CCCCCC"/>
<path d="M18.47 633.995H685.53C700.35 633.995 709.108 613.88 700.763 599.03L646.738 502.969H57.2619L3.23663 599.03C-5.10826 613.88 3.64994 633.995 18.47 633.995Z" fill="#333333"/>
<path d="M57.2529 502.97H646.747L573.058 373H130.942L57.2529 502.97Z" fill="#888888"/>
<path d="M337.297 9.70795L278.843 113.063H426.217L367.763 9.70795C360.442 -3.23598 344.618 -3.23598 337.297 9.70795Z" fill="#EEE5DF"/>
<path d="M425.687 113.062H278.313L204.626 243.033H499.373L425.687 113.062Z" fill="#EFEFEF"/>
<path d="M238.336 574L243.376 562.8H245.424L250.48 574H248.304L243.968 563.904H244.8L240.48 574H238.336ZM240.656 571.408L241.216 569.776H247.264L247.824 571.408H240.656ZM252.683 574L249.547 565.456H251.435L254.123 572.992H253.227L256.043 565.456H257.723L260.459 572.992H259.579L262.347 565.456H264.123L260.971 574H259.051L256.555 567.328H257.147L254.603 574H252.683ZM270.017 574V572.272L269.905 571.904V568.88C269.905 568.293 269.729 567.84 269.377 567.52C269.025 567.189 268.491 567.024 267.777 567.024C267.297 567.024 266.822 567.099 266.353 567.248C265.894 567.397 265.505 567.605 265.185 567.872L264.401 566.416C264.859 566.064 265.403 565.803 266.033 565.632C266.673 565.451 267.334 565.36 268.017 565.36C269.254 565.36 270.209 565.659 270.881 566.256C271.563 566.843 271.905 567.755 271.905 568.992V574H270.017ZM267.329 574.112C266.689 574.112 266.129 574.005 265.649 573.792C265.169 573.568 264.795 573.264 264.529 572.88C264.273 572.485 264.145 572.043 264.145 571.552C264.145 571.072 264.257 570.64 264.481 570.256C264.715 569.872 265.094 569.568 265.617 569.344C266.139 569.12 266.833 569.008 267.697 569.008H270.177V570.336H267.841C267.158 570.336 266.699 570.448 266.465 570.672C266.23 570.885 266.113 571.152 266.113 571.472C266.113 571.835 266.257 572.123 266.545 572.336C266.833 572.549 267.233 572.656 267.745 572.656C268.235 572.656 268.673 572.544 269.057 572.32C269.451 572.096 269.734 571.765 269.905 571.328L270.241 572.528C270.049 573.029 269.702 573.419 269.201 573.696C268.71 573.973 268.086 574.112 267.329 574.112ZM273.991 574V565.456H275.895V567.808L275.671 567.12C275.927 566.544 276.327 566.107 276.871 565.808C277.426 565.509 278.114 565.36 278.935 565.36V567.264C278.85 567.243 278.77 567.232 278.695 567.232C278.621 567.221 278.546 567.216 278.471 567.216C277.714 567.216 277.111 567.44 276.663 567.888C276.215 568.325 275.991 568.981 275.991 569.856V574H273.991ZM283.69 574.112C282.869 574.112 282.127 573.931 281.466 573.568C280.815 573.195 280.303 572.683 279.93 572.032C279.557 571.381 279.37 570.613 279.37 569.728C279.37 568.843 279.557 568.075 279.93 567.424C280.303 566.773 280.815 566.267 281.466 565.904C282.127 565.541 282.869 565.36 283.69 565.36C284.405 565.36 285.045 565.52 285.61 565.84C286.175 566.149 286.623 566.624 286.954 567.264C287.285 567.904 287.45 568.725 287.45 569.728C287.45 570.72 287.29 571.541 286.97 572.192C286.65 572.832 286.207 573.312 285.642 573.632C285.077 573.952 284.426 574.112 283.69 574.112ZM283.93 572.4C284.41 572.4 284.837 572.293 285.21 572.08C285.594 571.867 285.898 571.557 286.122 571.152C286.357 570.747 286.474 570.272 286.474 569.728C286.474 569.173 286.357 568.699 286.122 568.304C285.898 567.899 285.594 567.589 285.21 567.376C284.837 567.163 284.41 567.056 283.93 567.056C283.45 567.056 283.018 567.163 282.634 567.376C282.261 567.589 281.957 567.899 281.722 568.304C281.498 568.699 281.386 569.173 281.386 569.728C281.386 570.272 281.498 570.747 281.722 571.152C281.957 571.557 282.261 571.867 282.634 572.08C283.018 572.293 283.45 572.4 283.93 572.4ZM286.522 574V571.984L286.602 569.712L286.442 567.44V562.128H288.426V574H286.522ZM294.712 574V562.8H299.32C300.312 562.8 301.16 562.96 301.864 563.28C302.579 563.6 303.128 564.059 303.512 564.656C303.896 565.253 304.088 565.963 304.088 566.784C304.088 567.605 303.896 568.315 303.512 568.912C303.128 569.509 302.579 569.968 301.864 570.288C301.16 570.608 300.312 570.768 299.32 570.768H295.864L296.792 569.792V574H294.712ZM296.792 570.016L295.864 569.008H299.224C300.141 569.008 300.829 568.816 301.288 568.432C301.757 568.037 301.992 567.488 301.992 566.784C301.992 566.069 301.757 565.52 301.288 565.136C300.829 564.752 300.141 564.56 299.224 564.56H295.864L296.792 563.536V570.016ZM305.65 574V562.128H307.65V574H305.65ZM315.059 574V572.272L314.947 571.904V568.88C314.947 568.293 314.771 567.84 314.419 567.52C314.067 567.189 313.533 567.024 312.819 567.024C312.339 567.024 311.864 567.099 311.395 567.248C310.936 567.397 310.547 567.605 310.227 567.872L309.443 566.416C309.901 566.064 310.445 565.803 311.075 565.632C311.715 565.451 312.376 565.36 313.059 565.36C314.296 565.36 315.251 565.659 315.923 566.256C316.605 566.843 316.947 567.755 316.947 568.992V574H315.059ZM312.371 574.112C311.731 574.112 311.171 574.005 310.691 573.792C310.211 573.568 309.837 573.264 309.571 572.88C309.315 572.485 309.187 572.043 309.187 571.552C309.187 571.072 309.299 570.64 309.523 570.256C309.757 569.872 310.136 569.568 310.659 569.344C311.181 569.12 311.875 569.008 312.739 569.008H315.219V570.336H312.883C312.2 570.336 311.741 570.448 311.507 570.672C311.272 570.885 311.155 571.152 311.155 571.472C311.155 571.835 311.299 572.123 311.587 572.336C311.875 572.549 312.275 572.656 312.787 572.656C313.277 572.656 313.715 572.544 314.099 572.32C314.493 572.096 314.776 571.765 314.947 571.328L315.283 572.528C315.091 573.029 314.744 573.419 314.243 573.696C313.752 573.973 313.128 574.112 312.371 574.112ZM323.881 565.36C324.564 565.36 325.172 565.493 325.705 565.76C326.249 566.027 326.676 566.437 326.985 566.992C327.295 567.536 327.449 568.24 327.449 569.104V574H325.449V569.36C325.449 568.603 325.268 568.037 324.905 567.664C324.553 567.291 324.057 567.104 323.417 567.104C322.948 567.104 322.532 567.2 322.169 567.392C321.807 567.584 321.524 567.872 321.321 568.256C321.129 568.629 321.033 569.104 321.033 569.68V574H319.033V565.456H320.937V567.76L320.601 567.056C320.9 566.512 321.332 566.096 321.897 565.808C322.473 565.509 323.135 565.36 323.881 565.36ZM334.354 565.36C335.037 565.36 335.645 565.493 336.178 565.76C336.722 566.027 337.149 566.437 337.458 566.992C337.768 567.536 337.922 568.24 337.922 569.104V574H335.922V569.36C335.922 568.603 335.741 568.037 335.378 567.664C335.026 567.291 334.53 567.104 333.89 567.104C333.421 567.104 333.005 567.2 332.642 567.392C332.28 567.584 331.997 567.872 331.794 568.256C331.602 568.629 331.506 569.104 331.506 569.68V574H329.506V565.456H331.41V567.76L331.074 567.056C331.373 566.512 331.805 566.096 332.37 565.808C332.946 565.509 333.608 565.36 334.354 565.36ZM339.98 574V565.456H341.98V574H339.98ZM340.988 564.048C340.614 564.048 340.305 563.931 340.06 563.696C339.825 563.461 339.708 563.179 339.708 562.848C339.708 562.507 339.825 562.224 340.06 562C340.305 561.765 340.614 561.648 340.988 561.648C341.361 561.648 341.665 561.76 341.9 561.984C342.145 562.197 342.268 562.469 342.268 562.8C342.268 563.152 342.15 563.451 341.916 563.696C341.681 563.931 341.372 564.048 340.988 564.048ZM348.973 565.36C349.655 565.36 350.263 565.493 350.797 565.76C351.341 566.027 351.767 566.437 352.077 566.992C352.386 567.536 352.541 568.24 352.541 569.104V574H350.541V569.36C350.541 568.603 350.359 568.037 349.997 567.664C349.645 567.291 349.149 567.104 348.509 567.104C348.039 567.104 347.623 567.2 347.261 567.392C346.898 567.584 346.615 567.872 346.413 568.256C346.221 568.629 346.125 569.104 346.125 569.68V574H344.125V565.456H346.029V567.76L345.693 567.056C345.991 566.512 346.423 566.096 346.989 565.808C347.565 565.509 348.226 565.36 348.973 565.36ZM358.485 577.216C357.696 577.216 356.923 577.109 356.165 576.896C355.419 576.693 354.805 576.395 354.325 576L355.221 574.496C355.595 574.805 356.064 575.051 356.629 575.232C357.205 575.424 357.787 575.52 358.373 575.52C359.312 575.52 360 575.301 360.437 574.864C360.875 574.437 361.093 573.792 361.093 572.928V571.408L361.253 569.472L361.189 567.536V565.456H363.093V572.704C363.093 574.251 362.699 575.387 361.909 576.112C361.12 576.848 359.979 577.216 358.485 577.216ZM358.229 573.616C357.419 573.616 356.683 573.445 356.021 573.104C355.371 572.752 354.853 572.267 354.469 571.648C354.096 571.029 353.909 570.304 353.909 569.472C353.909 568.651 354.096 567.931 354.469 567.312C354.853 566.693 355.371 566.213 356.021 565.872C356.683 565.531 357.419 565.36 358.229 565.36C358.955 565.36 359.605 565.504 360.181 565.792C360.757 566.08 361.216 566.528 361.557 567.136C361.909 567.744 362.085 568.523 362.085 569.472C362.085 570.421 361.909 571.205 361.557 571.824C361.216 572.432 360.757 572.885 360.181 573.184C359.605 573.472 358.955 573.616 358.229 573.616ZM358.533 571.92C359.035 571.92 359.483 571.819 359.877 571.616C360.272 571.403 360.576 571.115 360.789 570.752C361.013 570.379 361.125 569.952 361.125 569.472C361.125 568.992 361.013 568.571 360.789 568.208C360.576 567.835 360.272 567.552 359.877 567.36C359.483 567.157 359.035 567.056 358.533 567.056C358.032 567.056 357.579 567.157 357.173 567.36C356.779 567.552 356.469 567.835 356.245 568.208C356.032 568.571 355.925 568.992 355.925 569.472C355.925 569.952 356.032 570.379 356.245 570.752C356.469 571.115 356.779 571.403 357.173 571.616C357.579 571.819 358.032 571.92 358.533 571.92ZM369.376 574V562.8H374.272C375.488 562.8 376.555 563.035 377.472 563.504C378.39 563.973 379.104 564.624 379.616 565.456C380.128 566.288 380.384 567.269 380.384 568.4C380.384 569.52 380.128 570.501 379.616 571.344C379.104 572.176 378.39 572.827 377.472 573.296C376.555 573.765 375.488 574 374.272 574H369.376ZM371.456 572.24H374.176C375.019 572.24 375.744 572.08 376.352 571.76C376.971 571.44 377.446 570.992 377.776 570.416C378.118 569.84 378.288 569.168 378.288 568.4C378.288 567.621 378.118 566.949 377.776 566.384C377.446 565.808 376.971 565.36 376.352 565.04C375.744 564.72 375.019 564.56 374.176 564.56H371.456V572.24ZM385.939 574.112C384.99 574.112 384.158 573.925 383.443 573.552C382.739 573.168 382.19 572.645 381.795 571.984C381.411 571.323 381.219 570.571 381.219 569.728C381.219 568.875 381.406 568.123 381.779 567.472C382.163 566.811 382.686 566.293 383.347 565.92C384.019 565.547 384.782 565.36 385.635 565.36C386.467 565.36 387.209 565.541 387.859 565.904C388.51 566.267 389.022 566.779 389.395 567.44C389.769 568.101 389.955 568.88 389.955 569.776C389.955 569.861 389.95 569.957 389.939 570.064C389.939 570.171 389.934 570.272 389.923 570.368H382.803V569.04H388.867L388.083 569.456C388.094 568.965 387.993 568.533 387.779 568.16C387.566 567.787 387.273 567.493 386.899 567.28C386.537 567.067 386.115 566.96 385.635 566.96C385.145 566.96 384.713 567.067 384.339 567.28C383.977 567.493 383.689 567.792 383.475 568.176C383.273 568.549 383.171 568.992 383.171 569.504V569.824C383.171 570.336 383.289 570.789 383.523 571.184C383.758 571.579 384.089 571.883 384.515 572.096C384.942 572.309 385.433 572.416 385.987 572.416C386.467 572.416 386.899 572.341 387.283 572.192C387.667 572.043 388.009 571.808 388.307 571.488L389.379 572.72C388.995 573.168 388.51 573.515 387.923 573.76C387.347 573.995 386.686 574.112 385.939 574.112ZM396.132 574.112C395.439 574.112 394.804 573.952 394.228 573.632C393.663 573.312 393.21 572.832 392.868 572.192C392.538 571.541 392.372 570.72 392.372 569.728C392.372 568.725 392.532 567.904 392.852 567.264C393.183 566.624 393.631 566.149 394.196 565.84C394.762 565.52 395.407 565.36 396.132 565.36C396.975 565.36 397.716 565.541 398.356 565.904C399.007 566.267 399.519 566.773 399.892 567.424C400.276 568.075 400.468 568.843 400.468 569.728C400.468 570.613 400.276 571.387 399.892 572.048C399.519 572.699 399.007 573.205 398.356 573.568C397.716 573.931 396.975 574.112 396.132 574.112ZM391.396 577.104V565.456H393.3V567.472L393.236 569.744L393.396 572.016V577.104H391.396ZM395.908 572.4C396.388 572.4 396.815 572.293 397.188 572.08C397.572 571.867 397.876 571.557 398.1 571.152C398.324 570.747 398.436 570.272 398.436 569.728C398.436 569.173 398.324 568.699 398.1 568.304C397.876 567.899 397.572 567.589 397.188 567.376C396.815 567.163 396.388 567.056 395.908 567.056C395.428 567.056 394.996 567.163 394.612 567.376C394.228 567.589 393.924 567.899 393.7 568.304C393.476 568.699 393.364 569.173 393.364 569.728C393.364 570.272 393.476 570.747 393.7 571.152C393.924 571.557 394.228 571.867 394.612 572.08C394.996 572.293 395.428 572.4 395.908 572.4ZM407.04 574V572.272L406.928 571.904V568.88C406.928 568.293 406.752 567.84 406.4 567.52C406.048 567.189 405.514 567.024 404.8 567.024C404.32 567.024 403.845 567.099 403.376 567.248C402.917 567.397 402.528 567.605 402.208 567.872L401.424 566.416C401.882 566.064 402.426 565.803 403.056 565.632C403.696 565.451 404.357 565.36 405.04 565.36C406.277 565.36 407.232 565.659 407.904 566.256C408.586 566.843 408.928 567.755 408.928 568.992V574H407.04ZM404.352 574.112C403.712 574.112 403.152 574.005 402.672 573.792C402.192 573.568 401.818 573.264 401.552 572.88C401.296 572.485 401.168 572.043 401.168 571.552C401.168 571.072 401.28 570.64 401.504 570.256C401.738 569.872 402.117 569.568 402.64 569.344C403.162 569.12 403.856 569.008 404.72 569.008H407.2V570.336H404.864C404.181 570.336 403.722 570.448 403.488 570.672C403.253 570.885 403.136 571.152 403.136 571.472C403.136 571.835 403.28 572.123 403.568 572.336C403.856 572.549 404.256 572.656 404.768 572.656C405.258 572.656 405.696 572.544 406.08 572.32C406.474 572.096 406.757 571.765 406.928 571.328L407.264 572.528C407.072 573.029 406.725 573.419 406.224 573.696C405.733 573.973 405.109 574.112 404.352 574.112ZM411.015 574V565.456H412.919V567.808L412.695 567.12C412.951 566.544 413.351 566.107 413.895 565.808C414.449 565.509 415.137 565.36 415.959 565.36V567.264C415.873 567.243 415.793 567.232 415.719 567.232C415.644 567.221 415.569 567.216 415.495 567.216C414.737 567.216 414.135 567.44 413.687 567.888C413.239 568.325 413.015 568.981 413.015 569.856V574H411.015ZM420.704 574.112C419.765 574.112 419.04 573.872 418.528 573.392C418.016 572.901 417.76 572.181 417.76 571.232V563.568H419.76V571.184C419.76 571.589 419.861 571.904 420.064 572.128C420.277 572.352 420.57 572.464 420.944 572.464C421.392 572.464 421.765 572.347 422.064 572.112L422.624 573.536C422.389 573.728 422.101 573.872 421.76 573.968C421.418 574.064 421.066 574.112 420.704 574.112ZM416.352 567.12V565.52H422.048V567.12H416.352ZM434.573 565.36C435.256 565.36 435.858 565.493 436.381 565.76C436.914 566.027 437.33 566.437 437.629 566.992C437.928 567.536 438.077 568.24 438.077 569.104V574H436.077V569.36C436.077 568.603 435.912 568.037 435.581 567.664C435.25 567.291 434.776 567.104 434.157 567.104C433.72 567.104 433.33 567.2 432.989 567.392C432.658 567.584 432.397 567.867 432.205 568.24C432.024 568.613 431.933 569.088 431.933 569.664V574H429.933V569.36C429.933 568.603 429.768 568.037 429.437 567.664C429.106 567.291 428.632 567.104 428.013 567.104C427.576 567.104 427.186 567.2 426.845 567.392C426.514 567.584 426.253 567.867 426.061 568.24C425.88 568.613 425.789 569.088 425.789 569.664V574H423.789V565.456H425.693V567.728L425.357 567.056C425.645 566.501 426.061 566.08 426.605 565.792C427.16 565.504 427.789 565.36 428.493 565.36C429.293 565.36 429.986 565.557 430.573 565.952C431.17 566.347 431.565 566.944 431.757 567.744L430.973 567.472C431.25 566.832 431.709 566.32 432.349 565.936C432.989 565.552 433.73 565.36 434.573 565.36ZM444.184 574.112C443.235 574.112 442.403 573.925 441.688 573.552C440.984 573.168 440.435 572.645 440.04 571.984C439.656 571.323 439.464 570.571 439.464 569.728C439.464 568.875 439.651 568.123 440.024 567.472C440.408 566.811 440.931 566.293 441.592 565.92C442.264 565.547 443.027 565.36 443.88 565.36C444.712 565.36 445.454 565.541 446.104 565.904C446.755 566.267 447.267 566.779 447.64 567.44C448.014 568.101 448.2 568.88 448.2 569.776C448.2 569.861 448.195 569.957 448.184 570.064C448.184 570.171 448.179 570.272 448.168 570.368H441.048V569.04H447.112L446.328 569.456C446.339 568.965 446.238 568.533 446.024 568.16C445.811 567.787 445.518 567.493 445.144 567.28C444.782 567.067 444.36 566.96 443.88 566.96C443.39 566.96 442.958 567.067 442.584 567.28C442.222 567.493 441.934 567.792 441.72 568.176C441.518 568.549 441.416 568.992 441.416 569.504V569.824C441.416 570.336 441.534 570.789 441.768 571.184C442.003 571.579 442.334 571.883 442.76 572.096C443.187 572.309 443.678 572.416 444.232 572.416C444.712 572.416 445.144 572.341 445.528 572.192C445.912 572.043 446.254 571.808 446.552 571.488L447.624 572.72C447.24 573.168 446.755 573.515 446.168 573.76C445.592 573.995 444.931 574.112 444.184 574.112ZM454.489 565.36C455.172 565.36 455.78 565.493 456.313 565.76C456.857 566.027 457.284 566.437 457.593 566.992C457.903 567.536 458.057 568.24 458.057 569.104V574H456.057V569.36C456.057 568.603 455.876 568.037 455.513 567.664C455.161 567.291 454.665 567.104 454.025 567.104C453.556 567.104 453.14 567.2 452.777 567.392C452.415 567.584 452.132 567.872 451.929 568.256C451.737 568.629 451.641 569.104 451.641 569.68V574H449.641V565.456H451.545V567.76L451.209 567.056C451.508 566.512 451.94 566.096 452.505 565.808C453.081 565.509 453.743 565.36 454.489 565.36ZM463.33 574.112C462.392 574.112 461.666 573.872 461.154 573.392C460.642 572.901 460.386 572.181 460.386 571.232V563.568H462.386V571.184C462.386 571.589 462.488 571.904 462.69 572.128C462.904 572.352 463.197 572.464 463.57 572.464C464.018 572.464 464.392 572.347 464.69 572.112L465.25 573.536C465.016 573.728 464.728 573.872 464.386 573.968C464.045 574.064 463.693 574.112 463.33 574.112ZM458.978 567.12V565.52H464.674V567.12H458.978Z" fill="white"/>
<path d="M222.736 432.8H224.816V444H222.736V432.8ZM216.944 444H214.864V432.8H216.944V444ZM222.896 439.2H216.768V437.424H222.896V439.2ZM227.337 444V432.8H231.945C232.937 432.8 233.785 432.96 234.489 433.28C235.203 433.6 235.753 434.059 236.137 434.656C236.521 435.253 236.713 435.963 236.713 436.784C236.713 437.605 236.521 438.315 236.137 438.912C235.753 439.499 235.203 439.952 234.489 440.272C233.785 440.581 232.937 440.736 231.945 440.736H228.489L229.417 439.792V444H227.337ZM234.665 444L231.833 439.936H234.057L236.905 444H234.665ZM229.417 440.016L228.489 439.024H231.849C232.766 439.024 233.454 438.827 233.913 438.432C234.382 438.037 234.617 437.488 234.617 436.784C234.617 436.069 234.382 435.52 233.913 435.136C233.454 434.752 232.766 434.56 231.849 434.56H228.489L229.417 433.536V440.016ZM247.574 444V442.272L247.462 441.904V438.88C247.462 438.293 247.286 437.84 246.934 437.52C246.582 437.189 246.048 437.024 245.334 437.024C244.854 437.024 244.379 437.099 243.91 437.248C243.451 437.397 243.062 437.605 242.742 437.872L241.958 436.416C242.416 436.064 242.96 435.803 243.59 435.632C244.23 435.451 244.891 435.36 245.574 435.36C246.811 435.36 247.766 435.659 248.438 436.256C249.12 436.843 249.462 437.755 249.462 438.992V444H247.574ZM244.886 444.112C244.246 444.112 243.686 444.005 243.206 443.792C242.726 443.568 242.352 443.264 242.086 442.88C241.83 442.485 241.702 442.043 241.702 441.552C241.702 441.072 241.814 440.64 242.038 440.256C242.272 439.872 242.651 439.568 243.174 439.344C243.696 439.12 244.39 439.008 245.254 439.008H247.734V440.336H245.398C244.715 440.336 244.256 440.448 244.022 440.672C243.787 440.885 243.67 441.152 243.67 441.472C243.67 441.835 243.814 442.123 244.102 442.336C244.39 442.549 244.79 442.656 245.302 442.656C245.792 442.656 246.23 442.544 246.614 442.32C247.008 442.096 247.291 441.765 247.462 441.328L247.798 442.528C247.606 443.029 247.259 443.419 246.758 443.696C246.267 443.973 245.643 444.112 244.886 444.112ZM256.397 435.36C257.079 435.36 257.687 435.493 258.221 435.76C258.765 436.027 259.191 436.437 259.501 436.992C259.81 437.536 259.965 438.24 259.965 439.104V444H257.965V439.36C257.965 438.603 257.783 438.037 257.421 437.664C257.069 437.291 256.573 437.104 255.933 437.104C255.463 437.104 255.047 437.2 254.685 437.392C254.322 437.584 254.039 437.872 253.837 438.256C253.645 438.629 253.549 439.104 253.549 439.68V444H251.549V435.456H253.453V437.76L253.117 437.056C253.415 436.512 253.847 436.096 254.413 435.808C254.989 435.509 255.65 435.36 256.397 435.36ZM265.653 444.112C264.832 444.112 264.091 443.931 263.429 443.568C262.779 443.195 262.267 442.683 261.893 442.032C261.52 441.381 261.333 440.613 261.333 439.728C261.333 438.843 261.52 438.075 261.893 437.424C262.267 436.773 262.779 436.267 263.429 435.904C264.091 435.541 264.832 435.36 265.653 435.36C266.368 435.36 267.008 435.52 267.573 435.84C268.139 436.149 268.587 436.624 268.917 437.264C269.248 437.904 269.413 438.725 269.413 439.728C269.413 440.72 269.253 441.541 268.933 442.192C268.613 442.832 268.171 443.312 267.605 443.632C267.04 443.952 266.389 444.112 265.653 444.112ZM265.893 442.4C266.373 442.4 266.8 442.293 267.173 442.08C267.557 441.867 267.861 441.557 268.085 441.152C268.32 440.747 268.437 440.272 268.437 439.728C268.437 439.173 268.32 438.699 268.085 438.304C267.861 437.899 267.557 437.589 267.173 437.376C266.8 437.163 266.373 437.056 265.893 437.056C265.413 437.056 264.981 437.163 264.597 437.376C264.224 437.589 263.92 437.899 263.685 438.304C263.461 438.699 263.349 439.173 263.349 439.728C263.349 440.272 263.461 440.747 263.685 441.152C263.92 441.557 264.224 441.867 264.597 442.08C264.981 442.293 265.413 442.4 265.893 442.4ZM268.485 444V441.984L268.565 439.712L268.405 437.44V432.128H270.389V444H268.485ZM281.908 444.16C281.033 444.16 280.228 444.021 279.492 443.744C278.766 443.456 278.132 443.056 277.588 442.544C277.044 442.021 276.622 441.408 276.324 440.704C276.025 440 275.876 439.232 275.876 438.4C275.876 437.568 276.025 436.8 276.324 436.096C276.622 435.392 277.044 434.784 277.588 434.272C278.142 433.749 278.788 433.349 279.524 433.072C280.26 432.784 281.065 432.64 281.94 432.64C282.889 432.64 283.742 432.795 284.5 433.104C285.268 433.413 285.913 433.867 286.436 434.464L285.124 435.744C284.686 435.307 284.212 434.987 283.7 434.784C283.198 434.571 282.644 434.464 282.036 434.464C281.449 434.464 280.905 434.56 280.404 434.752C279.902 434.944 279.47 435.216 279.108 435.568C278.745 435.92 278.462 436.336 278.26 436.816C278.068 437.296 277.972 437.824 277.972 438.4C277.972 438.965 278.068 439.488 278.26 439.968C278.462 440.448 278.745 440.869 279.108 441.232C279.47 441.584 279.897 441.856 280.388 442.048C280.878 442.24 281.422 442.336 282.02 442.336C282.574 442.336 283.108 442.251 283.62 442.08C284.142 441.899 284.638 441.6 285.108 441.184L286.292 442.736C285.705 443.205 285.022 443.563 284.244 443.808C283.476 444.043 282.697 444.16 281.908 444.16ZM284.324 442.464V438.272H286.292V442.736L284.324 442.464ZM292.379 444.112C291.43 444.112 290.598 443.925 289.883 443.552C289.179 443.168 288.63 442.645 288.235 441.984C287.851 441.323 287.659 440.571 287.659 439.728C287.659 438.875 287.846 438.123 288.219 437.472C288.603 436.811 289.126 436.293 289.787 435.92C290.459 435.547 291.222 435.36 292.075 435.36C292.907 435.36 293.648 435.541 294.299 435.904C294.95 436.267 295.462 436.779 295.835 437.44C296.208 438.101 296.395 438.88 296.395 439.776C296.395 439.861 296.39 439.957 296.379 440.064C296.379 440.171 296.374 440.272 296.363 440.368H289.243V439.04H295.307L294.523 439.456C294.534 438.965 294.432 438.533 294.219 438.16C294.006 437.787 293.712 437.493 293.339 437.28C292.976 437.067 292.555 436.96 292.075 436.96C291.584 436.96 291.152 437.067 290.779 437.28C290.416 437.493 290.128 437.792 289.915 438.176C289.712 438.549 289.611 438.992 289.611 439.504V439.824C289.611 440.336 289.728 440.789 289.963 441.184C290.198 441.579 290.528 441.883 290.955 442.096C291.382 442.309 291.872 442.416 292.427 442.416C292.907 442.416 293.339 442.341 293.723 442.192C294.107 442.043 294.448 441.808 294.747 441.488L295.819 442.72C295.435 443.168 294.95 443.515 294.363 443.76C293.787 443.995 293.126 444.112 292.379 444.112ZM302.684 435.36C303.367 435.36 303.975 435.493 304.508 435.76C305.052 436.027 305.479 436.437 305.788 436.992C306.097 437.536 306.252 438.24 306.252 439.104V444H304.252V439.36C304.252 438.603 304.071 438.037 303.708 437.664C303.356 437.291 302.86 437.104 302.22 437.104C301.751 437.104 301.335 437.2 300.972 437.392C300.609 437.584 300.327 437.872 300.124 438.256C299.932 438.629 299.836 439.104 299.836 439.68V444H297.836V435.456H299.74V437.76L299.404 437.056C299.703 436.512 300.135 436.096 300.7 435.808C301.276 435.509 301.937 435.36 302.684 435.36ZM312.341 444.112C311.391 444.112 310.559 443.925 309.845 443.552C309.141 443.168 308.591 442.645 308.197 441.984C307.813 441.323 307.621 440.571 307.621 439.728C307.621 438.875 307.807 438.123 308.181 437.472C308.565 436.811 309.087 436.293 309.749 435.92C310.421 435.547 311.183 435.36 312.037 435.36C312.869 435.36 313.61 435.541 314.261 435.904C314.911 436.267 315.423 436.779 315.797 437.44C316.17 438.101 316.357 438.88 316.357 439.776C316.357 439.861 316.351 439.957 316.341 440.064C316.341 440.171 316.335 440.272 316.325 440.368H309.205V439.04H315.269L314.485 439.456C314.495 438.965 314.394 438.533 314.181 438.16C313.967 437.787 313.674 437.493 313.301 437.28C312.938 437.067 312.517 436.96 312.037 436.96C311.546 436.96 311.114 437.067 310.741 437.28C310.378 437.493 310.09 437.792 309.877 438.176C309.674 438.549 309.573 438.992 309.573 439.504V439.824C309.573 440.336 309.69 440.789 309.925 441.184C310.159 441.579 310.49 441.883 310.917 442.096C311.343 442.309 311.834 442.416 312.389 442.416C312.869 442.416 313.301 442.341 313.685 442.192C314.069 442.043 314.41 441.808 314.709 441.488L315.781 442.72C315.397 443.168 314.911 443.515 314.325 443.76C313.749 443.995 313.087 444.112 312.341 444.112ZM317.798 444V435.456H319.702V437.808L319.478 437.12C319.734 436.544 320.134 436.107 320.678 435.808C321.233 435.509 321.921 435.36 322.742 435.36V437.264C322.657 437.243 322.577 437.232 322.502 437.232C322.427 437.221 322.353 437.216 322.278 437.216C321.521 437.216 320.918 437.44 320.47 437.888C320.022 438.325 319.798 438.981 319.798 439.856V444H317.798ZM328.613 444V442.272L328.501 441.904V438.88C328.501 438.293 328.325 437.84 327.973 437.52C327.621 437.189 327.088 437.024 326.373 437.024C325.893 437.024 325.419 437.099 324.949 437.248C324.491 437.397 324.101 437.605 323.781 437.872L322.997 436.416C323.456 436.064 324 435.803 324.629 435.632C325.269 435.451 325.931 435.36 326.613 435.36C327.851 435.36 328.805 435.659 329.477 436.256C330.16 436.843 330.501 437.755 330.501 438.992V444H328.613ZM325.925 444.112C325.285 444.112 324.725 444.005 324.245 443.792C323.765 443.568 323.392 443.264 323.125 442.88C322.869 442.485 322.741 442.043 322.741 441.552C322.741 441.072 322.853 440.64 323.077 440.256C323.312 439.872 323.691 439.568 324.213 439.344C324.736 439.12 325.429 439.008 326.293 439.008H328.773V440.336H326.437C325.755 440.336 325.296 440.448 325.061 440.672C324.827 440.885 324.709 441.152 324.709 441.472C324.709 441.835 324.853 442.123 325.141 442.336C325.429 442.549 325.829 442.656 326.341 442.656C326.832 442.656 327.269 442.544 327.653 442.32C328.048 442.096 328.331 441.765 328.501 441.328L328.837 442.528C328.645 443.029 328.299 443.419 327.797 443.696C327.307 443.973 326.683 444.112 325.925 444.112ZM332.588 444V432.128H334.588V444H332.588ZM339.283 444L344.323 432.8H346.371L351.427 444H349.251L344.915 433.904H345.747L341.427 444H339.283ZM341.603 441.408L342.163 439.776H348.211L348.771 441.408H341.603ZM352.451 444V434.976C352.451 434.08 352.713 433.365 353.235 432.832C353.769 432.288 354.526 432.016 355.507 432.016C355.859 432.016 356.19 432.053 356.499 432.128C356.819 432.203 357.086 432.32 357.299 432.48L356.755 433.984C356.606 433.867 356.435 433.781 356.243 433.728C356.051 433.664 355.854 433.632 355.651 433.632C355.235 433.632 354.921 433.749 354.707 433.984C354.494 434.208 354.387 434.549 354.387 435.008V435.968L354.451 436.864V444H352.451ZM351.043 437.12V435.52H356.739V437.12H351.043ZM357.924 444V434.976C357.924 434.08 358.186 433.365 358.708 432.832C359.242 432.288 359.999 432.016 360.98 432.016C361.332 432.016 361.663 432.053 361.972 432.128C362.292 432.203 362.559 432.32 362.772 432.48L362.228 433.984C362.079 433.867 361.908 433.781 361.716 433.728C361.524 433.664 361.327 433.632 361.124 433.632C360.708 433.632 360.394 433.749 360.18 433.984C359.967 434.208 359.86 434.549 359.86 435.008V435.968L359.924 436.864V444H357.924ZM356.516 437.12V435.52H362.212V437.12H356.516ZM368.186 444V442.272L368.074 441.904V438.88C368.074 438.293 367.898 437.84 367.546 437.52C367.194 437.189 366.661 437.024 365.946 437.024C365.466 437.024 364.992 437.099 364.522 437.248C364.064 437.397 363.674 437.605 363.354 437.872L362.57 436.416C363.029 436.064 363.573 435.803 364.202 435.632C364.842 435.451 365.504 435.36 366.186 435.36C367.424 435.36 368.378 435.659 369.05 436.256C369.733 436.843 370.074 437.755 370.074 438.992V444H368.186ZM365.498 444.112C364.858 444.112 364.298 444.005 363.818 443.792C363.338 443.568 362.965 443.264 362.698 442.88C362.442 442.485 362.314 442.043 362.314 441.552C362.314 441.072 362.426 440.64 362.65 440.256C362.885 439.872 363.264 439.568 363.786 439.344C364.309 439.12 365.002 439.008 365.866 439.008H368.346V440.336H366.01C365.328 440.336 364.869 440.448 364.634 440.672C364.4 440.885 364.282 441.152 364.282 441.472C364.282 441.835 364.426 442.123 364.714 442.336C365.002 442.549 365.402 442.656 365.914 442.656C366.405 442.656 366.842 442.544 367.226 442.32C367.621 442.096 367.904 441.765 368.074 441.328L368.41 442.528C368.218 443.029 367.872 443.419 367.37 443.696C366.88 443.973 366.256 444.112 365.498 444.112ZM372.161 444V435.456H374.161V444H372.161ZM373.169 434.048C372.796 434.048 372.486 433.931 372.241 433.696C372.006 433.461 371.889 433.179 371.889 432.848C371.889 432.507 372.006 432.224 372.241 432C372.486 431.765 372.796 431.648 373.169 431.648C373.542 431.648 373.846 431.76 374.081 431.984C374.326 432.197 374.449 432.469 374.449 432.8C374.449 433.152 374.332 433.451 374.097 433.696C373.862 433.931 373.553 434.048 373.169 434.048ZM376.306 444V435.456H378.21V437.808L377.986 437.12C378.242 436.544 378.642 436.107 379.186 435.808C379.741 435.509 380.429 435.36 381.25 435.36V437.264C381.165 437.243 381.085 437.232 381.01 437.232C380.935 437.221 380.861 437.216 380.786 437.216C380.029 437.216 379.426 437.44 378.978 437.888C378.53 438.325 378.306 438.981 378.306 439.856V444H376.306ZM385.185 444.112C384.47 444.112 383.782 444.021 383.121 443.84C382.47 443.648 381.953 443.419 381.569 443.152L382.337 441.632C382.721 441.877 383.179 442.08 383.713 442.24C384.246 442.4 384.779 442.48 385.313 442.48C385.942 442.48 386.395 442.395 386.673 442.224C386.961 442.053 387.105 441.824 387.105 441.536C387.105 441.301 387.009 441.125 386.817 441.008C386.625 440.88 386.374 440.784 386.065 440.72C385.755 440.656 385.409 440.597 385.025 440.544C384.651 440.491 384.273 440.421 383.889 440.336C383.515 440.24 383.174 440.107 382.865 439.936C382.555 439.755 382.305 439.515 382.113 439.216C381.921 438.917 381.825 438.523 381.825 438.032C381.825 437.488 381.979 437.019 382.289 436.624C382.598 436.219 383.03 435.909 383.585 435.696C384.15 435.472 384.817 435.36 385.585 435.36C386.161 435.36 386.742 435.424 387.329 435.552C387.915 435.68 388.401 435.861 388.785 436.096L388.017 437.616C387.611 437.371 387.201 437.205 386.785 437.12C386.379 437.024 385.974 436.976 385.569 436.976C384.961 436.976 384.507 437.067 384.209 437.248C383.921 437.429 383.777 437.659 383.777 437.936C383.777 438.192 383.873 438.384 384.065 438.512C384.257 438.64 384.507 438.741 384.817 438.816C385.126 438.891 385.467 438.955 385.841 439.008C386.225 439.051 386.603 439.12 386.977 439.216C387.35 439.312 387.691 439.445 388.001 439.616C388.321 439.776 388.577 440.005 388.769 440.304C388.961 440.603 389.057 440.992 389.057 441.472C389.057 442.005 388.897 442.469 388.577 442.864C388.267 443.259 387.825 443.568 387.249 443.792C386.673 444.005 385.985 444.112 385.185 444.112ZM394.433 444V432.8H399.329C400.545 432.8 401.612 433.035 402.529 433.504C403.446 433.973 404.161 434.624 404.673 435.456C405.185 436.288 405.441 437.269 405.441 438.4C405.441 439.52 405.185 440.501 404.673 441.344C404.161 442.176 403.446 442.827 402.529 443.296C401.612 443.765 400.545 444 399.329 444H394.433ZM396.513 442.24H399.233C400.076 442.24 400.801 442.08 401.409 441.76C402.028 441.44 402.502 440.992 402.833 440.416C403.174 439.84 403.345 439.168 403.345 438.4C403.345 437.621 403.174 436.949 402.833 436.384C402.502 435.808 402.028 435.36 401.409 435.04C400.801 434.72 400.076 434.56 399.233 434.56H396.513V442.24ZM410.996 444.112C410.046 444.112 409.214 443.925 408.5 443.552C407.796 443.168 407.246 442.645 406.852 441.984C406.468 441.323 406.276 440.571 406.276 439.728C406.276 438.875 406.462 438.123 406.836 437.472C407.22 436.811 407.742 436.293 408.404 435.92C409.076 435.547 409.838 435.36 410.692 435.36C411.524 435.36 412.265 435.541 412.916 435.904C413.566 436.267 414.078 436.779 414.452 437.44C414.825 438.101 415.012 438.88 415.012 439.776C415.012 439.861 415.006 439.957 414.996 440.064C414.996 440.171 414.99 440.272 414.98 440.368H407.86V439.04H413.924L413.14 439.456C413.15 438.965 413.049 438.533 412.836 438.16C412.622 437.787 412.329 437.493 411.956 437.28C411.593 437.067 411.172 436.96 410.692 436.96C410.201 436.96 409.769 437.067 409.396 437.28C409.033 437.493 408.745 437.792 408.532 438.176C408.329 438.549 408.228 438.992 408.228 439.504V439.824C408.228 440.336 408.345 440.789 408.58 441.184C408.814 441.579 409.145 441.883 409.572 442.096C409.998 442.309 410.489 442.416 411.044 442.416C411.524 442.416 411.956 442.341 412.34 442.192C412.724 442.043 413.065 441.808 413.364 441.488L414.436 442.72C414.052 443.168 413.566 443.515 412.98 443.76C412.404 443.995 411.742 444.112 410.996 444.112ZM421.189 444.112C420.496 444.112 419.861 443.952 419.285 443.632C418.72 443.312 418.266 442.832 417.925 442.192C417.594 441.541 417.429 440.72 417.429 439.728C417.429 438.725 417.589 437.904 417.909 437.264C418.24 436.624 418.688 436.149 419.253 435.84C419.818 435.52 420.464 435.36 421.189 435.36C422.032 435.36 422.773 435.541 423.413 435.904C424.064 436.267 424.576 436.773 424.949 437.424C425.333 438.075 425.525 438.843 425.525 439.728C425.525 440.613 425.333 441.387 424.949 442.048C424.576 442.699 424.064 443.205 423.413 443.568C422.773 443.931 422.032 444.112 421.189 444.112ZM416.453 447.104V435.456H418.357V437.472L418.293 439.744L418.453 442.016V447.104H416.453ZM420.965 442.4C421.445 442.4 421.872 442.293 422.245 442.08C422.629 441.867 422.933 441.557 423.157 441.152C423.381 440.747 423.493 440.272 423.493 439.728C423.493 439.173 423.381 438.699 423.157 438.304C422.933 437.899 422.629 437.589 422.245 437.376C421.872 437.163 421.445 437.056 420.965 437.056C420.485 437.056 420.053 437.163 419.669 437.376C419.285 437.589 418.981 437.899 418.757 438.304C418.533 438.699 418.421 439.173 418.421 439.728C418.421 440.272 418.533 440.747 418.757 441.152C418.981 441.557 419.285 441.867 419.669 442.08C420.053 442.293 420.485 442.4 420.965 442.4ZM432.096 444V442.272L431.984 441.904V438.88C431.984 438.293 431.808 437.84 431.456 437.52C431.104 437.189 430.571 437.024 429.856 437.024C429.376 437.024 428.902 437.099 428.432 437.248C427.974 437.397 427.584 437.605 427.264 437.872L426.48 436.416C426.939 436.064 427.483 435.803 428.112 435.632C428.752 435.451 429.414 435.36 430.096 435.36C431.334 435.36 432.288 435.659 432.96 436.256C433.643 436.843 433.984 437.755 433.984 438.992V444H432.096ZM429.408 444.112C428.768 444.112 428.208 444.005 427.728 443.792C427.248 443.568 426.875 443.264 426.608 442.88C426.352 442.485 426.224 442.043 426.224 441.552C426.224 441.072 426.336 440.64 426.56 440.256C426.795 439.872 427.174 439.568 427.696 439.344C428.219 439.12 428.912 439.008 429.776 439.008H432.256V440.336H429.92C429.238 440.336 428.779 440.448 428.544 440.672C428.31 440.885 428.192 441.152 428.192 441.472C428.192 441.835 428.336 442.123 428.624 442.336C428.912 442.549 429.312 442.656 429.824 442.656C430.315 442.656 430.752 442.544 431.136 442.32C431.531 442.096 431.814 441.765 431.984 441.328L432.32 442.528C432.128 443.029 431.782 443.419 431.28 443.696C430.79 443.973 430.166 444.112 429.408 444.112ZM436.071 444V435.456H437.975V437.808L437.751 437.12C438.007 436.544 438.407 436.107 438.951 435.808C439.506 435.509 440.194 435.36 441.015 435.36V437.264C440.93 437.243 440.85 437.232 440.775 437.232C440.7 437.221 440.626 437.216 440.551 437.216C439.794 437.216 439.191 437.44 438.743 437.888C438.295 438.325 438.071 438.981 438.071 439.856V444H436.071ZM445.76 444.112C444.822 444.112 444.096 443.872 443.584 443.392C443.072 442.901 442.816 442.181 442.816 441.232V433.568H444.816V441.184C444.816 441.589 444.918 441.904 445.12 442.128C445.334 442.352 445.627 442.464 446 442.464C446.448 442.464 446.822 442.347 447.12 442.112L447.68 443.536C447.446 443.728 447.158 443.872 446.816 443.968C446.475 444.064 446.123 444.112 445.76 444.112ZM441.408 437.12V435.52H447.104V437.12H441.408ZM459.629 435.36C460.312 435.36 460.915 435.493 461.437 435.76C461.971 436.027 462.387 436.437 462.685 436.992C462.984 437.536 463.133 438.24 463.133 439.104V444H461.133V439.36C461.133 438.603 460.968 438.037 460.637 437.664C460.307 437.291 459.832 437.104 459.213 437.104C458.776 437.104 458.387 437.2 458.045 437.392C457.715 437.584 457.453 437.867 457.261 438.24C457.08 438.613 456.989 439.088 456.989 439.664V444H454.989V439.36C454.989 438.603 454.824 438.037 454.493 437.664C454.163 437.291 453.688 437.104 453.069 437.104C452.632 437.104 452.243 437.2 451.901 437.392C451.571 437.584 451.309 437.867 451.117 438.24C450.936 438.613 450.845 439.088 450.845 439.664V444H448.845V435.456H450.749V437.728L450.413 437.056C450.701 436.501 451.117 436.08 451.661 435.792C452.216 435.504 452.845 435.36 453.549 435.36C454.349 435.36 455.043 435.557 455.629 435.952C456.227 436.347 456.621 436.944 456.813 437.744L456.029 437.472C456.307 436.832 456.765 436.32 457.405 435.936C458.045 435.552 458.787 435.36 459.629 435.36ZM469.241 444.112C468.291 444.112 467.459 443.925 466.745 443.552C466.041 443.168 465.491 442.645 465.097 441.984C464.713 441.323 464.521 440.571 464.521 439.728C464.521 438.875 464.707 438.123 465.081 437.472C465.465 436.811 465.987 436.293 466.649 435.92C467.321 435.547 468.083 435.36 468.937 435.36C469.769 435.36 470.51 435.541 471.161 435.904C471.811 436.267 472.323 436.779 472.697 437.44C473.07 438.101 473.257 438.88 473.257 439.776C473.257 439.861 473.251 439.957 473.241 440.064C473.241 440.171 473.235 440.272 473.225 440.368H466.105V439.04H472.169L471.385 439.456C471.395 438.965 471.294 438.533 471.081 438.16C470.867 437.787 470.574 437.493 470.201 437.28C469.838 437.067 469.417 436.96 468.937 436.96C468.446 436.96 468.014 437.067 467.641 437.28C467.278 437.493 466.99 437.792 466.777 438.176C466.574 438.549 466.473 438.992 466.473 439.504V439.824C466.473 440.336 466.59 440.789 466.825 441.184C467.059 441.579 467.39 441.883 467.817 442.096C468.243 442.309 468.734 442.416 469.289 442.416C469.769 442.416 470.201 442.341 470.585 442.192C470.969 442.043 471.31 441.808 471.609 441.488L472.681 442.72C472.297 443.168 471.811 443.515 471.225 443.76C470.649 443.995 469.987 444.112 469.241 444.112ZM479.546 435.36C480.229 435.36 480.837 435.493 481.37 435.76C481.914 436.027 482.341 436.437 482.65 436.992C482.959 437.536 483.114 438.24 483.114 439.104V444H481.114V439.36C481.114 438.603 480.933 438.037 480.57 437.664C480.218 437.291 479.722 437.104 479.082 437.104C478.613 437.104 478.197 437.2 477.834 437.392C477.471 437.584 477.189 437.872 476.986 438.256C476.794 438.629 476.698 439.104 476.698 439.68V444H474.698V435.456H476.602V437.76L476.266 437.056C476.565 436.512 476.997 436.096 477.562 435.808C478.138 435.509 478.799 435.36 479.546 435.36ZM488.387 444.112C487.448 444.112 486.723 443.872 486.211 443.392C485.699 442.901 485.443 442.181 485.443 441.232V433.568H487.443V441.184C487.443 441.589 487.544 441.904 487.747 442.128C487.96 442.352 488.254 442.464 488.627 442.464C489.075 442.464 489.448 442.347 489.747 442.112L490.307 443.536C490.072 443.728 489.784 443.872 489.443 443.968C489.102 444.064 488.75 444.112 488.387 444.112ZM484.035 437.12V435.52H489.731V437.12H484.035Z" fill="white"/>
<path d="M291.579 314V302.8H296.187C297.179 302.8 298.027 302.96 298.731 303.28C299.446 303.6 299.995 304.059 300.379 304.656C300.763 305.253 300.955 305.963 300.955 306.784C300.955 307.605 300.763 308.315 300.379 308.912C299.995 309.509 299.446 309.968 298.731 310.288C298.027 310.608 297.179 310.768 296.187 310.768H292.731L293.659 309.792V314H291.579ZM293.659 310.016L292.731 309.008H296.091C297.009 309.008 297.697 308.816 298.155 308.432C298.625 308.037 298.859 307.488 298.859 306.784C298.859 306.069 298.625 305.52 298.155 305.136C297.697 304.752 297.009 304.56 296.091 304.56H292.731L293.659 303.536V310.016ZM302.552 314V302.8H307.16C308.152 302.8 309 302.96 309.704 303.28C310.419 303.6 310.968 304.059 311.352 304.656C311.736 305.253 311.928 305.963 311.928 306.784C311.928 307.605 311.736 308.315 311.352 308.912C310.968 309.499 310.419 309.952 309.704 310.272C309 310.581 308.152 310.736 307.16 310.736H303.704L304.632 309.792V314H302.552ZM309.88 314L307.048 309.936H309.272L312.12 314H309.88ZM304.632 310.016L303.704 309.024H307.064C307.982 309.024 308.67 308.827 309.128 308.432C309.598 308.037 309.832 307.488 309.832 306.784C309.832 306.069 309.598 305.52 309.128 305.136C308.67 304.752 307.982 304.56 307.064 304.56H303.704L304.632 303.536V310.016ZM317.717 314V302.8H322.613C323.829 302.8 324.896 303.035 325.813 303.504C326.731 303.973 327.445 304.624 327.957 305.456C328.469 306.288 328.725 307.269 328.725 308.4C328.725 309.52 328.469 310.501 327.957 311.344C327.445 312.176 326.731 312.827 325.813 313.296C324.896 313.765 323.829 314 322.613 314H317.717ZM319.797 312.24H322.517C323.36 312.24 324.085 312.08 324.693 311.76C325.312 311.44 325.787 310.992 326.117 310.416C326.459 309.84 326.629 309.168 326.629 308.4C326.629 307.621 326.459 306.949 326.117 306.384C325.787 305.808 325.312 305.36 324.693 305.04C324.085 304.72 323.36 304.56 322.517 304.56H319.797V312.24ZM334.28 314.112C333.331 314.112 332.499 313.925 331.784 313.552C331.08 313.168 330.531 312.645 330.136 311.984C329.752 311.323 329.56 310.571 329.56 309.728C329.56 308.875 329.747 308.123 330.12 307.472C330.504 306.811 331.027 306.293 331.688 305.92C332.36 305.547 333.123 305.36 333.976 305.36C334.808 305.36 335.55 305.541 336.2 305.904C336.851 306.267 337.363 306.779 337.736 307.44C338.11 308.101 338.296 308.88 338.296 309.776C338.296 309.861 338.291 309.957 338.28 310.064C338.28 310.171 338.275 310.272 338.264 310.368H331.144V309.04H337.208L336.424 309.456C336.435 308.965 336.334 308.533 336.12 308.16C335.907 307.787 335.614 307.493 335.24 307.28C334.878 307.067 334.456 306.96 333.976 306.96C333.486 306.96 333.054 307.067 332.68 307.28C332.318 307.493 332.03 307.792 331.816 308.176C331.614 308.549 331.512 308.992 331.512 309.504V309.824C331.512 310.336 331.63 310.789 331.864 311.184C332.099 311.579 332.43 311.883 332.856 312.096C333.283 312.309 333.774 312.416 334.328 312.416C334.808 312.416 335.24 312.341 335.624 312.192C336.008 312.043 336.35 311.808 336.648 311.488L337.72 312.72C337.336 313.168 336.851 313.515 336.264 313.76C335.688 313.995 335.027 314.112 334.28 314.112ZM344.473 314.112C343.78 314.112 343.145 313.952 342.569 313.632C342.004 313.312 341.551 312.832 341.209 312.192C340.879 311.541 340.713 310.72 340.713 309.728C340.713 308.725 340.873 307.904 341.193 307.264C341.524 306.624 341.972 306.149 342.537 305.84C343.103 305.52 343.748 305.36 344.473 305.36C345.316 305.36 346.057 305.541 346.697 305.904C347.348 306.267 347.86 306.773 348.233 307.424C348.617 308.075 348.809 308.843 348.809 309.728C348.809 310.613 348.617 311.387 348.233 312.048C347.86 312.699 347.348 313.205 346.697 313.568C346.057 313.931 345.316 314.112 344.473 314.112ZM339.737 317.104V305.456H341.641V307.472L341.577 309.744L341.737 312.016V317.104H339.737ZM344.249 312.4C344.729 312.4 345.156 312.293 345.529 312.08C345.913 311.867 346.217 311.557 346.441 311.152C346.665 310.747 346.777 310.272 346.777 309.728C346.777 309.173 346.665 308.699 346.441 308.304C346.217 307.899 345.913 307.589 345.529 307.376C345.156 307.163 344.729 307.056 344.249 307.056C343.769 307.056 343.337 307.163 342.953 307.376C342.569 307.589 342.265 307.899 342.041 308.304C341.817 308.699 341.705 309.173 341.705 309.728C341.705 310.272 341.817 310.747 342.041 311.152C342.265 311.557 342.569 311.867 342.953 312.08C343.337 312.293 343.769 312.4 344.249 312.4ZM355.381 314V312.272L355.269 311.904V308.88C355.269 308.293 355.093 307.84 354.741 307.52C354.389 307.189 353.855 307.024 353.141 307.024C352.661 307.024 352.186 307.099 351.717 307.248C351.258 307.397 350.869 307.605 350.549 307.872L349.765 306.416C350.223 306.064 350.767 305.803 351.397 305.632C352.037 305.451 352.698 305.36 353.381 305.36C354.618 305.36 355.573 305.659 356.245 306.256C356.927 306.843 357.269 307.755 357.269 308.992V314H355.381ZM352.693 314.112C352.053 314.112 351.493 314.005 351.013 313.792C350.533 313.568 350.159 313.264 349.893 312.88C349.637 312.485 349.509 312.043 349.509 311.552C349.509 311.072 349.621 310.64 349.845 310.256C350.079 309.872 350.458 309.568 350.981 309.344C351.503 309.12 352.197 309.008 353.061 309.008H355.541V310.336H353.205C352.522 310.336 352.063 310.448 351.829 310.672C351.594 310.885 351.477 311.152 351.477 311.472C351.477 311.835 351.621 312.123 351.909 312.336C352.197 312.549 352.597 312.656 353.109 312.656C353.599 312.656 354.037 312.544 354.421 312.32C354.815 312.096 355.098 311.765 355.269 311.328L355.605 312.528C355.413 313.029 355.066 313.419 354.565 313.696C354.074 313.973 353.45 314.112 352.693 314.112ZM359.355 314V305.456H361.259V307.808L361.035 307.12C361.291 306.544 361.691 306.107 362.235 305.808C362.79 305.509 363.478 305.36 364.299 305.36V307.264C364.214 307.243 364.134 307.232 364.059 307.232C363.985 307.221 363.91 307.216 363.835 307.216C363.078 307.216 362.475 307.44 362.027 307.888C361.579 308.325 361.355 308.981 361.355 309.856V314H359.355ZM369.045 314.112C368.106 314.112 367.381 313.872 366.869 313.392C366.357 312.901 366.101 312.181 366.101 311.232V303.568H368.101V311.184C368.101 311.589 368.202 311.904 368.405 312.128C368.618 312.352 368.911 312.464 369.285 312.464C369.733 312.464 370.106 312.347 370.405 312.112L370.965 313.536C370.73 313.728 370.442 313.872 370.101 313.968C369.759 314.064 369.407 314.112 369.045 314.112ZM364.693 307.12V305.52H370.389V307.12H364.693ZM382.914 305.36C383.596 305.36 384.199 305.493 384.722 305.76C385.255 306.027 385.671 306.437 385.97 306.992C386.268 307.536 386.418 308.24 386.418 309.104V314H384.418V309.36C384.418 308.603 384.252 308.037 383.922 307.664C383.591 307.291 383.116 307.104 382.498 307.104C382.06 307.104 381.671 307.2 381.33 307.392C380.999 307.584 380.738 307.867 380.546 308.24C380.364 308.613 380.274 309.088 380.274 309.664V314H378.274V309.36C378.274 308.603 378.108 308.037 377.778 307.664C377.447 307.291 376.972 307.104 376.354 307.104C375.916 307.104 375.527 307.2 375.186 307.392C374.855 307.584 374.594 307.867 374.402 308.24C374.22 308.613 374.13 309.088 374.13 309.664V314H372.13V305.456H374.034V307.728L373.698 307.056C373.986 306.501 374.402 306.08 374.946 305.792C375.5 305.504 376.13 305.36 376.834 305.36C377.634 305.36 378.327 305.557 378.914 305.952C379.511 306.347 379.906 306.944 380.098 307.744L379.314 307.472C379.591 306.832 380.05 306.32 380.69 305.936C381.33 305.552 382.071 305.36 382.914 305.36ZM392.525 314.112C391.576 314.112 390.744 313.925 390.029 313.552C389.325 313.168 388.776 312.645 388.381 311.984C387.997 311.323 387.805 310.571 387.805 309.728C387.805 308.875 387.992 308.123 388.365 307.472C388.749 306.811 389.272 306.293 389.933 305.92C390.605 305.547 391.368 305.36 392.221 305.36C393.053 305.36 393.795 305.541 394.445 305.904C395.096 306.267 395.608 306.779 395.981 307.44C396.355 308.101 396.541 308.88 396.541 309.776C396.541 309.861 396.536 309.957 396.525 310.064C396.525 310.171 396.52 310.272 396.509 310.368H389.389V309.04H395.453L394.669 309.456C394.68 308.965 394.579 308.533 394.365 308.16C394.152 307.787 393.859 307.493 393.485 307.28C393.123 307.067 392.701 306.96 392.221 306.96C391.731 306.96 391.299 307.067 390.925 307.28C390.563 307.493 390.275 307.792 390.061 308.176C389.859 308.549 389.757 308.992 389.757 309.504V309.824C389.757 310.336 389.875 310.789 390.109 311.184C390.344 311.579 390.675 311.883 391.101 312.096C391.528 312.309 392.019 312.416 392.573 312.416C393.053 312.416 393.485 312.341 393.869 312.192C394.253 312.043 394.595 311.808 394.893 311.488L395.965 312.72C395.581 313.168 395.096 313.515 394.509 313.76C393.933 313.995 393.272 314.112 392.525 314.112ZM402.83 305.36C403.513 305.36 404.121 305.493 404.654 305.76C405.198 306.027 405.625 306.437 405.934 306.992C406.244 307.536 406.398 308.24 406.398 309.104V314H404.398V309.36C404.398 308.603 404.217 308.037 403.854 307.664C403.502 307.291 403.006 307.104 402.366 307.104C401.897 307.104 401.481 307.2 401.118 307.392C400.756 307.584 400.473 307.872 400.27 308.256C400.078 308.629 399.982 309.104 399.982 309.68V314H397.982V305.456H399.886V307.76L399.55 307.056C399.849 306.512 400.281 306.096 400.846 305.808C401.422 305.509 402.084 305.36 402.83 305.36ZM411.671 314.112C410.733 314.112 410.007 313.872 409.495 313.392C408.983 312.901 408.727 312.181 408.727 311.232V303.568H410.727V311.184C410.727 311.589 410.829 311.904 411.031 312.128C411.245 312.352 411.538 312.464 411.911 312.464C412.359 312.464 412.733 312.347 413.031 312.112L413.591 313.536C413.357 313.728 413.069 313.872 412.727 313.968C412.386 314.064 412.034 314.112 411.671 314.112ZM407.319 307.12V305.52H413.015V307.12H407.319Z" fill="#333333"/>
<path d="M307.366 160.16C306.491 160.16 305.654 160.037 304.854 159.792C304.054 159.536 303.419 159.211 302.95 158.816L303.67 157.2C304.118 157.552 304.673 157.845 305.334 158.08C305.995 158.315 306.673 158.432 307.366 158.432C307.953 158.432 308.427 158.368 308.79 158.24C309.153 158.112 309.419 157.941 309.59 157.728C309.761 157.504 309.846 157.253 309.846 156.976C309.846 156.635 309.723 156.363 309.478 156.16C309.233 155.947 308.913 155.781 308.518 155.664C308.134 155.536 307.702 155.419 307.222 155.312C306.753 155.205 306.278 155.083 305.798 154.944C305.329 154.795 304.897 154.608 304.502 154.384C304.118 154.149 303.803 153.84 303.558 153.456C303.313 153.072 303.19 152.581 303.19 151.984C303.19 151.376 303.35 150.821 303.67 150.32C304.001 149.808 304.497 149.403 305.158 149.104C305.83 148.795 306.678 148.64 307.702 148.64C308.374 148.64 309.041 148.725 309.702 148.896C310.363 149.067 310.939 149.312 311.43 149.632L310.774 151.248C310.273 150.949 309.755 150.731 309.222 150.592C308.689 150.443 308.177 150.368 307.686 150.368C307.11 150.368 306.641 150.437 306.278 150.576C305.926 150.715 305.665 150.896 305.494 151.12C305.334 151.344 305.254 151.6 305.254 151.888C305.254 152.229 305.371 152.507 305.606 152.72C305.851 152.923 306.166 153.083 306.55 153.2C306.945 153.317 307.382 153.435 307.862 153.552C308.342 153.659 308.817 153.781 309.286 153.92C309.766 154.059 310.198 154.24 310.582 154.464C310.977 154.688 311.291 154.992 311.526 155.376C311.771 155.76 311.894 156.245 311.894 156.832C311.894 157.429 311.729 157.984 311.398 158.496C311.078 158.997 310.582 159.403 309.91 159.712C309.238 160.011 308.39 160.16 307.366 160.16ZM316.501 160.112C315.562 160.112 314.836 159.872 314.324 159.392C313.812 158.901 313.556 158.181 313.556 157.232V149.568H315.556V157.184C315.556 157.589 315.658 157.904 315.861 158.128C316.074 158.352 316.367 158.464 316.74 158.464C317.188 158.464 317.562 158.347 317.861 158.112L318.421 159.536C318.186 159.728 317.898 159.872 317.556 159.968C317.215 160.064 316.863 160.112 316.501 160.112ZM312.148 153.12V151.52H317.845V153.12H312.148ZM319.586 160V151.456H321.49V153.808L321.266 153.12C321.522 152.544 321.922 152.107 322.466 151.808C323.02 151.509 323.708 151.36 324.53 151.36V153.264C324.444 153.243 324.364 153.232 324.29 153.232C324.215 153.221 324.14 153.216 324.066 153.216C323.308 153.216 322.706 153.44 322.258 153.888C321.81 154.325 321.586 154.981 321.586 155.856V160H319.586ZM330.401 160V158.272L330.289 157.904V154.88C330.289 154.293 330.113 153.84 329.761 153.52C329.409 153.189 328.876 153.024 328.161 153.024C327.681 153.024 327.206 153.099 326.737 153.248C326.278 153.397 325.889 153.605 325.569 153.872L324.785 152.416C325.244 152.064 325.788 151.803 326.417 151.632C327.057 151.451 327.718 151.36 328.401 151.36C329.638 151.36 330.593 151.659 331.265 152.256C331.948 152.843 332.289 153.755 332.289 154.992V160H330.401ZM327.713 160.112C327.073 160.112 326.513 160.005 326.033 159.792C325.553 159.568 325.18 159.264 324.913 158.88C324.657 158.485 324.529 158.043 324.529 157.552C324.529 157.072 324.641 156.64 324.865 156.256C325.1 155.872 325.478 155.568 326.001 155.344C326.524 155.12 327.217 155.008 328.081 155.008H330.561V156.336H328.225C327.542 156.336 327.084 156.448 326.849 156.672C326.614 156.885 326.497 157.152 326.497 157.472C326.497 157.835 326.641 158.123 326.929 158.336C327.217 158.549 327.617 158.656 328.129 158.656C328.62 158.656 329.057 158.544 329.441 158.32C329.836 158.096 330.118 157.765 330.289 157.328L330.625 158.528C330.433 159.029 330.086 159.419 329.585 159.696C329.094 159.973 328.47 160.112 327.713 160.112ZM337.592 160.112C336.653 160.112 335.928 159.872 335.416 159.392C334.904 158.901 334.648 158.181 334.648 157.232V149.568H336.648V157.184C336.648 157.589 336.749 157.904 336.952 158.128C337.165 158.352 337.458 158.464 337.832 158.464C338.28 158.464 338.653 158.347 338.952 158.112L339.512 159.536C339.277 159.728 338.989 159.872 338.648 159.968C338.306 160.064 337.954 160.112 337.592 160.112ZM333.24 153.12V151.52H338.936V153.12H333.24ZM344.412 160.112C343.462 160.112 342.63 159.925 341.916 159.552C341.212 159.168 340.662 158.645 340.268 157.984C339.884 157.323 339.692 156.571 339.692 155.728C339.692 154.875 339.878 154.123 340.252 153.472C340.636 152.811 341.158 152.293 341.82 151.92C342.492 151.547 343.254 151.36 344.108 151.36C344.94 151.36 345.681 151.541 346.332 151.904C346.982 152.267 347.494 152.779 347.868 153.44C348.241 154.101 348.428 154.88 348.428 155.776C348.428 155.861 348.422 155.957 348.412 156.064C348.412 156.171 348.406 156.272 348.396 156.368H341.276V155.04H347.34L346.556 155.456C346.566 154.965 346.465 154.533 346.252 154.16C346.038 153.787 345.745 153.493 345.372 153.28C345.009 153.067 344.588 152.96 344.108 152.96C343.617 152.96 343.185 153.067 342.812 153.28C342.449 153.493 342.161 153.792 341.948 154.176C341.745 154.549 341.644 154.992 341.644 155.504V155.824C341.644 156.336 341.761 156.789 341.996 157.184C342.23 157.579 342.561 157.883 342.988 158.096C343.414 158.309 343.905 158.416 344.46 158.416C344.94 158.416 345.372 158.341 345.756 158.192C346.14 158.043 346.481 157.808 346.78 157.488L347.852 158.72C347.468 159.168 346.982 159.515 346.396 159.76C345.82 159.995 345.158 160.112 344.412 160.112ZM353.741 163.216C352.952 163.216 352.178 163.109 351.421 162.896C350.674 162.693 350.061 162.395 349.581 162L350.477 160.496C350.85 160.805 351.32 161.051 351.885 161.232C352.461 161.424 353.042 161.52 353.629 161.52C354.568 161.52 355.256 161.301 355.693 160.864C356.13 160.437 356.349 159.792 356.349 158.928V157.408L356.509 155.472L356.445 153.536V151.456H358.349V158.704C358.349 160.251 357.954 161.387 357.165 162.112C356.376 162.848 355.234 163.216 353.741 163.216ZM353.485 159.616C352.674 159.616 351.938 159.445 351.277 159.104C350.626 158.752 350.109 158.267 349.725 157.648C349.352 157.029 349.165 156.304 349.165 155.472C349.165 154.651 349.352 153.931 349.725 153.312C350.109 152.693 350.626 152.213 351.277 151.872C351.938 151.531 352.674 151.36 353.485 151.36C354.21 151.36 354.861 151.504 355.437 151.792C356.013 152.08 356.472 152.528 356.813 153.136C357.165 153.744 357.341 154.523 357.341 155.472C357.341 156.421 357.165 157.205 356.813 157.824C356.472 158.432 356.013 158.885 355.437 159.184C354.861 159.472 354.21 159.616 353.485 159.616ZM353.789 157.92C354.29 157.92 354.738 157.819 355.133 157.616C355.528 157.403 355.832 157.115 356.045 156.752C356.269 156.379 356.381 155.952 356.381 155.472C356.381 154.992 356.269 154.571 356.045 154.208C355.832 153.835 355.528 153.552 355.133 153.36C354.738 153.157 354.29 153.056 353.789 153.056C353.288 153.056 352.834 153.157 352.429 153.36C352.034 153.552 351.725 153.835 351.501 154.208C351.288 154.571 351.181 154.992 351.181 155.472C351.181 155.952 351.288 156.379 351.501 156.752C351.725 157.115 352.034 157.403 352.429 157.616C352.834 157.819 353.288 157.92 353.789 157.92ZM361.202 163.216C360.786 163.216 360.37 163.147 359.954 163.008C359.538 162.869 359.192 162.677 358.914 162.432L359.714 160.96C359.917 161.141 360.146 161.285 360.402 161.392C360.658 161.499 360.92 161.552 361.186 161.552C361.549 161.552 361.842 161.461 362.066 161.28C362.29 161.099 362.498 160.795 362.69 160.368L363.186 159.248L363.346 159.008L366.578 151.456H368.498L364.498 160.688C364.232 161.328 363.933 161.835 363.602 162.208C363.282 162.581 362.92 162.843 362.514 162.992C362.12 163.141 361.682 163.216 361.202 163.216ZM362.962 160.304L359.106 151.456H361.186L364.322 158.832L362.962 160.304ZM378.474 160V158.272L378.362 157.904V154.88C378.362 154.293 378.186 153.84 377.834 153.52C377.482 153.189 376.949 153.024 376.234 153.024C375.754 153.024 375.279 153.099 374.81 153.248C374.351 153.397 373.962 153.605 373.642 153.872L372.858 152.416C373.317 152.064 373.861 151.803 374.49 151.632C375.13 151.451 375.791 151.36 376.474 151.36C377.711 151.36 378.666 151.659 379.338 152.256C380.021 152.843 380.362 153.755 380.362 154.992V160H378.474ZM375.786 160.112C375.146 160.112 374.586 160.005 374.106 159.792C373.626 159.568 373.253 159.264 372.986 158.88C372.73 158.485 372.602 158.043 372.602 157.552C372.602 157.072 372.714 156.64 372.938 156.256C373.173 155.872 373.551 155.568 374.074 155.344C374.597 155.12 375.29 155.008 376.154 155.008H378.634V156.336H376.298C375.615 156.336 375.157 156.448 374.922 156.672C374.687 156.885 374.57 157.152 374.57 157.472C374.57 157.835 374.714 158.123 375.002 158.336C375.29 158.549 375.69 158.656 376.202 158.656C376.693 158.656 377.13 158.544 377.514 158.32C377.909 158.096 378.191 157.765 378.362 157.328L378.698 158.528C378.506 159.029 378.159 159.419 377.658 159.696C377.167 159.973 376.543 160.112 375.786 160.112ZM387.297 151.36C387.98 151.36 388.588 151.493 389.121 151.76C389.665 152.027 390.092 152.437 390.401 152.992C390.71 153.536 390.865 154.24 390.865 155.104V160H388.865V155.36C388.865 154.603 388.684 154.037 388.321 153.664C387.969 153.291 387.473 153.104 386.833 153.104C386.364 153.104 385.948 153.2 385.585 153.392C385.222 153.584 384.94 153.872 384.737 154.256C384.545 154.629 384.449 155.104 384.449 155.68V160H382.449V151.456H384.353V153.76L384.017 153.056C384.316 152.512 384.748 152.096 385.313 151.808C385.889 151.509 386.55 151.36 387.297 151.36ZM396.554 160.112C395.732 160.112 394.991 159.931 394.33 159.568C393.679 159.195 393.167 158.683 392.794 158.032C392.42 157.381 392.234 156.613 392.234 155.728C392.234 154.843 392.42 154.075 392.794 153.424C393.167 152.773 393.679 152.267 394.33 151.904C394.991 151.541 395.732 151.36 396.554 151.36C397.268 151.36 397.908 151.52 398.474 151.84C399.039 152.149 399.487 152.624 399.818 153.264C400.148 153.904 400.314 154.725 400.314 155.728C400.314 156.72 400.154 157.541 399.834 158.192C399.514 158.832 399.071 159.312 398.506 159.632C397.94 159.952 397.29 160.112 396.554 160.112ZM396.794 158.4C397.274 158.4 397.7 158.293 398.074 158.08C398.458 157.867 398.762 157.557 398.986 157.152C399.22 156.747 399.338 156.272 399.338 155.728C399.338 155.173 399.22 154.699 398.986 154.304C398.762 153.899 398.458 153.589 398.074 153.376C397.7 153.163 397.274 153.056 396.794 153.056C396.314 153.056 395.882 153.163 395.498 153.376C395.124 153.589 394.82 153.899 394.586 154.304C394.362 154.699 394.25 155.173 394.25 155.728C394.25 156.272 394.362 156.747 394.586 157.152C394.82 157.557 395.124 157.867 395.498 158.08C395.882 158.293 396.314 158.4 396.794 158.4ZM399.386 160V157.984L399.466 155.712L399.306 153.44V148.128H401.29V160H399.386ZM318.403 184V172.8H323.011C324.003 172.8 324.851 172.96 325.555 173.28C326.269 173.6 326.819 174.059 327.203 174.656C327.587 175.253 327.779 175.963 327.779 176.784C327.779 177.605 327.587 178.315 327.203 178.912C326.819 179.509 326.269 179.968 325.555 180.288C324.851 180.608 324.003 180.768 323.011 180.768H319.555L320.483 179.792V184H318.403ZM320.483 180.016L319.555 179.008H322.915C323.832 179.008 324.52 178.816 324.979 178.432C325.448 178.037 325.683 177.488 325.683 176.784C325.683 176.069 325.448 175.52 324.979 175.136C324.52 174.752 323.832 174.56 322.915 174.56H319.555L320.483 173.536V180.016ZM329.34 184V172.128H331.34V184H329.34ZM338.749 184V182.272L338.637 181.904V178.88C338.637 178.293 338.461 177.84 338.109 177.52C337.757 177.189 337.224 177.024 336.509 177.024C336.029 177.024 335.554 177.099 335.085 177.248C334.626 177.397 334.237 177.605 333.917 177.872L333.133 176.416C333.592 176.064 334.136 175.803 334.765 175.632C335.405 175.451 336.066 175.36 336.749 175.36C337.986 175.36 338.941 175.659 339.613 176.256C340.296 176.843 340.637 177.755 340.637 178.992V184H338.749ZM336.061 184.112C335.421 184.112 334.861 184.005 334.381 183.792C333.901 183.568 333.528 183.264 333.261 182.88C333.005 182.485 332.877 182.043 332.877 181.552C332.877 181.072 332.989 180.64 333.213 180.256C333.448 179.872 333.826 179.568 334.349 179.344C334.872 179.12 335.565 179.008 336.429 179.008H338.909V180.336H336.573C335.89 180.336 335.432 180.448 335.197 180.672C334.962 180.885 334.845 181.152 334.845 181.472C334.845 181.835 334.989 182.123 335.277 182.336C335.565 182.549 335.965 182.656 336.477 182.656C336.968 182.656 337.405 182.544 337.789 182.32C338.184 182.096 338.466 181.765 338.637 181.328L338.973 182.528C338.781 183.029 338.434 183.419 337.933 183.696C337.442 183.973 336.818 184.112 336.061 184.112ZM347.572 175.36C348.255 175.36 348.863 175.493 349.396 175.76C349.94 176.027 350.367 176.437 350.676 176.992C350.985 177.536 351.14 178.24 351.14 179.104V184H349.14V179.36C349.14 178.603 348.959 178.037 348.596 177.664C348.244 177.291 347.748 177.104 347.108 177.104C346.639 177.104 346.223 177.2 345.86 177.392C345.497 177.584 345.215 177.872 345.012 178.256C344.82 178.629 344.724 179.104 344.724 179.68V184H342.724V175.456H344.628V177.76L344.292 177.056C344.591 176.512 345.023 176.096 345.588 175.808C346.164 175.509 346.825 175.36 347.572 175.36ZM358.045 175.36C358.728 175.36 359.336 175.493 359.869 175.76C360.413 176.027 360.84 176.437 361.149 176.992C361.458 177.536 361.613 178.24 361.613 179.104V184H359.613V179.36C359.613 178.603 359.432 178.037 359.069 177.664C358.717 177.291 358.221 177.104 357.581 177.104C357.112 177.104 356.696 177.2 356.333 177.392C355.97 177.584 355.688 177.872 355.485 178.256C355.293 178.629 355.197 179.104 355.197 179.68V184H353.197V175.456H355.101V177.76L354.765 177.056C355.064 176.512 355.496 176.096 356.061 175.808C356.637 175.509 357.298 175.36 358.045 175.36ZM363.67 184V175.456H365.67V184H363.67ZM364.678 174.048C364.305 174.048 363.995 173.931 363.75 173.696C363.515 173.461 363.398 173.179 363.398 172.848C363.398 172.507 363.515 172.224 363.75 172C363.995 171.765 364.305 171.648 364.678 171.648C365.051 171.648 365.355 171.76 365.59 171.984C365.835 172.197 365.958 172.469 365.958 172.8C365.958 173.152 365.841 173.451 365.606 173.696C365.371 173.931 365.062 174.048 364.678 174.048ZM372.663 175.36C373.346 175.36 373.954 175.493 374.487 175.76C375.031 176.027 375.458 176.437 375.767 176.992C376.076 177.536 376.231 178.24 376.231 179.104V184H374.231V179.36C374.231 178.603 374.05 178.037 373.687 177.664C373.335 177.291 372.839 177.104 372.199 177.104C371.73 177.104 371.314 177.2 370.951 177.392C370.588 177.584 370.306 177.872 370.103 178.256C369.911 178.629 369.815 179.104 369.815 179.68V184H367.815V175.456H369.719V177.76L369.383 177.056C369.682 176.512 370.114 176.096 370.679 175.808C371.255 175.509 371.916 175.36 372.663 175.36ZM382.176 187.216C381.387 187.216 380.613 187.109 379.856 186.896C379.109 186.693 378.496 186.395 378.016 186L378.912 184.496C379.285 184.805 379.755 185.051 380.32 185.232C380.896 185.424 381.477 185.52 382.064 185.52C383.003 185.52 383.691 185.301 384.128 184.864C384.565 184.437 384.784 183.792 384.784 182.928V181.408L384.944 179.472L384.88 177.536V175.456H386.784V182.704C386.784 184.251 386.389 185.387 385.6 186.112C384.811 186.848 383.669 187.216 382.176 187.216ZM381.92 183.616C381.109 183.616 380.373 183.445 379.712 183.104C379.061 182.752 378.544 182.267 378.16 181.648C377.787 181.029 377.6 180.304 377.6 179.472C377.6 178.651 377.787 177.931 378.16 177.312C378.544 176.693 379.061 176.213 379.712 175.872C380.373 175.531 381.109 175.36 381.92 175.36C382.645 175.36 383.296 175.504 383.872 175.792C384.448 176.08 384.907 176.528 385.248 177.136C385.6 177.744 385.776 178.523 385.776 179.472C385.776 180.421 385.6 181.205 385.248 181.824C384.907 182.432 384.448 182.885 383.872 183.184C383.296 183.472 382.645 183.616 381.92 183.616ZM382.224 181.92C382.725 181.92 383.173 181.819 383.568 181.616C383.963 181.403 384.267 181.115 384.48 180.752C384.704 180.379 384.816 179.952 384.816 179.472C384.816 178.992 384.704 178.571 384.48 178.208C384.267 177.835 383.963 177.552 383.568 177.36C383.173 177.157 382.725 177.056 382.224 177.056C381.723 177.056 381.269 177.157 380.864 177.36C380.469 177.552 380.16 177.835 379.936 178.208C379.723 178.571 379.616 178.992 379.616 179.472C379.616 179.952 379.723 180.379 379.936 180.752C380.16 181.115 380.469 181.403 380.864 181.616C381.269 181.819 381.723 181.92 382.224 181.92ZM305.148 208V196.8H310.044C311.26 196.8 312.327 197.035 313.244 197.504C314.162 197.973 314.876 198.624 315.388 199.456C315.9 200.288 316.156 201.269 316.156 202.4C316.156 203.52 315.9 204.501 315.388 205.344C314.876 206.176 314.162 206.827 313.244 207.296C312.327 207.765 311.26 208 310.044 208H305.148ZM307.228 206.24H309.948C310.791 206.24 311.516 206.08 312.124 205.76C312.743 205.44 313.218 204.992 313.548 204.416C313.89 203.84 314.06 203.168 314.06 202.4C314.06 201.621 313.89 200.949 313.548 200.384C313.218 199.808 312.743 199.36 312.124 199.04C311.516 198.72 310.791 198.56 309.948 198.56H307.228V206.24ZM321.711 208.112C320.762 208.112 319.93 207.925 319.215 207.552C318.511 207.168 317.962 206.645 317.567 205.984C317.183 205.323 316.991 204.571 316.991 203.728C316.991 202.875 317.178 202.123 317.551 201.472C317.935 200.811 318.458 200.293 319.119 199.92C319.791 199.547 320.554 199.36 321.407 199.36C322.239 199.36 322.98 199.541 323.631 199.904C324.282 200.267 324.794 200.779 325.167 201.44C325.54 202.101 325.727 202.88 325.727 203.776C325.727 203.861 325.722 203.957 325.711 204.064C325.711 204.171 325.706 204.272 325.695 204.368H318.575V203.04H324.639L323.855 203.456C323.866 202.965 323.764 202.533 323.551 202.16C323.338 201.787 323.044 201.493 322.671 201.28C322.308 201.067 321.887 200.96 321.407 200.96C320.916 200.96 320.484 201.067 320.111 201.28C319.748 201.493 319.46 201.792 319.247 202.176C319.044 202.549 318.943 202.992 318.943 203.504V203.824C318.943 204.336 319.06 204.789 319.295 205.184C319.53 205.579 319.86 205.883 320.287 206.096C320.714 206.309 321.204 206.416 321.759 206.416C322.239 206.416 322.671 206.341 323.055 206.192C323.439 206.043 323.78 205.808 324.079 205.488L325.151 206.72C324.767 207.168 324.282 207.515 323.695 207.76C323.119 207.995 322.458 208.112 321.711 208.112ZM331.904 208.112C331.211 208.112 330.576 207.952 330 207.632C329.435 207.312 328.982 206.832 328.64 206.192C328.31 205.541 328.144 204.72 328.144 203.728C328.144 202.725 328.304 201.904 328.624 201.264C328.955 200.624 329.403 200.149 329.968 199.84C330.534 199.52 331.179 199.36 331.904 199.36C332.747 199.36 333.488 199.541 334.128 199.904C334.779 200.267 335.291 200.773 335.664 201.424C336.048 202.075 336.24 202.843 336.24 203.728C336.24 204.613 336.048 205.387 335.664 206.048C335.291 206.699 334.779 207.205 334.128 207.568C333.488 207.931 332.747 208.112 331.904 208.112ZM327.168 211.104V199.456H329.072V201.472L329.008 203.744L329.168 206.016V211.104H327.168ZM331.68 206.4C332.16 206.4 332.587 206.293 332.96 206.08C333.344 205.867 333.648 205.557 333.872 205.152C334.096 204.747 334.208 204.272 334.208 203.728C334.208 203.173 334.096 202.699 333.872 202.304C333.648 201.899 333.344 201.589 332.96 201.376C332.587 201.163 332.16 201.056 331.68 201.056C331.2 201.056 330.768 201.163 330.384 201.376C330 201.589 329.696 201.899 329.472 202.304C329.248 202.699 329.136 203.173 329.136 203.728C329.136 204.272 329.248 204.747 329.472 205.152C329.696 205.557 330 205.867 330.384 206.08C330.768 206.293 331.2 206.4 331.68 206.4ZM342.812 208V206.272L342.7 205.904V202.88C342.7 202.293 342.524 201.84 342.172 201.52C341.82 201.189 341.286 201.024 340.572 201.024C340.092 201.024 339.617 201.099 339.148 201.248C338.689 201.397 338.3 201.605 337.98 201.872L337.196 200.416C337.654 200.064 338.198 199.803 338.828 199.632C339.468 199.451 340.129 199.36 340.812 199.36C342.049 199.36 343.004 199.659 343.676 200.256C344.358 200.843 344.7 201.755 344.7 202.992V208H342.812ZM340.124 208.112C339.484 208.112 338.924 208.005 338.444 207.792C337.964 207.568 337.59 207.264 337.324 206.88C337.068 206.485 336.94 206.043 336.94 205.552C336.94 205.072 337.052 204.64 337.276 204.256C337.51 203.872 337.889 203.568 338.412 203.344C338.934 203.12 339.628 203.008 340.492 203.008H342.972V204.336H340.636C339.953 204.336 339.494 204.448 339.26 204.672C339.025 204.885 338.908 205.152 338.908 205.472C338.908 205.835 339.052 206.123 339.34 206.336C339.628 206.549 340.028 206.656 340.54 206.656C341.03 206.656 341.468 206.544 341.852 206.32C342.246 206.096 342.529 205.765 342.7 205.328L343.036 206.528C342.844 207.029 342.497 207.419 341.996 207.696C341.505 207.973 340.881 208.112 340.124 208.112ZM346.786 208V199.456H348.69V201.808L348.466 201.12C348.722 200.544 349.122 200.107 349.666 199.808C350.221 199.509 350.909 199.36 351.73 199.36V201.264C351.645 201.243 351.565 201.232 351.49 201.232C351.416 201.221 351.341 201.216 351.266 201.216C350.509 201.216 349.906 201.44 349.458 201.888C349.01 202.325 348.786 202.981 348.786 203.856V208H346.786ZM356.475 208.112C355.537 208.112 354.811 207.872 354.299 207.392C353.787 206.901 353.531 206.181 353.531 205.232V197.568H355.531V205.184C355.531 205.589 355.633 205.904 355.835 206.128C356.049 206.352 356.342 206.464 356.715 206.464C357.163 206.464 357.537 206.347 357.835 206.112L358.395 207.536C358.161 207.728 357.873 207.872 357.531 207.968C357.19 208.064 356.838 208.112 356.475 208.112ZM352.123 201.12V199.52H357.819V201.12H352.123ZM370.345 199.36C371.027 199.36 371.63 199.493 372.153 199.76C372.686 200.027 373.102 200.437 373.401 200.992C373.699 201.536 373.849 202.24 373.849 203.104V208H371.849V203.36C371.849 202.603 371.683 202.037 371.353 201.664C371.022 201.291 370.547 201.104 369.929 201.104C369.491 201.104 369.102 201.2 368.761 201.392C368.43 201.584 368.169 201.867 367.977 202.24C367.795 202.613 367.705 203.088 367.705 203.664V208H365.705V203.36C365.705 202.603 365.539 202.037 365.209 201.664C364.878 201.291 364.403 201.104 363.785 201.104C363.347 201.104 362.958 201.2 362.617 201.392C362.286 201.584 362.025 201.867 361.833 202.24C361.651 202.613 361.561 203.088 361.561 203.664V208H359.561V199.456H361.465V201.728L361.129 201.056C361.417 200.501 361.833 200.08 362.377 199.792C362.931 199.504 363.561 199.36 364.265 199.36C365.065 199.36 365.758 199.557 366.345 199.952C366.942 200.347 367.337 200.944 367.529 201.744L366.745 201.472C367.022 200.832 367.481 200.32 368.121 199.936C368.761 199.552 369.502 199.36 370.345 199.36ZM379.956 208.112C379.007 208.112 378.175 207.925 377.46 207.552C376.756 207.168 376.207 206.645 375.812 205.984C375.428 205.323 375.236 204.571 375.236 203.728C375.236 202.875 375.423 202.123 375.796 201.472C376.18 200.811 376.703 200.293 377.364 199.92C378.036 199.547 378.799 199.36 379.652 199.36C380.484 199.36 381.225 199.541 381.876 199.904C382.527 200.267 383.039 200.779 383.412 201.44C383.785 202.101 383.972 202.88 383.972 203.776C383.972 203.861 383.967 203.957 383.956 204.064C383.956 204.171 383.951 204.272 383.94 204.368H376.82V203.04H382.884L382.1 203.456C382.111 202.965 382.009 202.533 381.796 202.16C381.583 201.787 381.289 201.493 380.916 201.28C380.553 201.067 380.132 200.96 379.652 200.96C379.161 200.96 378.729 201.067 378.356 201.28C377.993 201.493 377.705 201.792 377.492 202.176C377.289 202.549 377.188 202.992 377.188 203.504V203.824C377.188 204.336 377.305 204.789 377.54 205.184C377.775 205.579 378.105 205.883 378.532 206.096C378.959 206.309 379.449 206.416 380.004 206.416C380.484 206.416 380.916 206.341 381.3 206.192C381.684 206.043 382.025 205.808 382.324 205.488L383.396 206.72C383.012 207.168 382.527 207.515 381.94 207.76C381.364 207.995 380.703 208.112 379.956 208.112ZM390.261 199.36C390.944 199.36 391.552 199.493 392.085 199.76C392.629 200.027 393.056 200.437 393.365 200.992C393.675 201.536 393.829 202.24 393.829 203.104V208H391.829V203.36C391.829 202.603 391.648 202.037 391.285 201.664C390.933 201.291 390.437 201.104 389.797 201.104C389.328 201.104 388.912 201.2 388.549 201.392C388.187 201.584 387.904 201.872 387.701 202.256C387.509 202.629 387.413 203.104 387.413 203.68V208H385.413V199.456H387.317V201.76L386.981 201.056C387.28 200.512 387.712 200.096 388.277 199.808C388.853 199.509 389.515 199.36 390.261 199.36ZM399.102 208.112C398.164 208.112 397.438 207.872 396.926 207.392C396.414 206.901 396.158 206.181 396.158 205.232V197.568H398.158V205.184C398.158 205.589 398.26 205.904 398.462 206.128C398.676 206.352 398.969 206.464 399.342 206.464C399.79 206.464 400.164 206.347 400.462 206.112L401.022 207.536C400.788 207.728 400.5 207.872 400.158 207.968C399.817 208.064 399.465 208.112 399.102 208.112ZM394.75 201.12V199.52H400.446V201.12H394.75Z" fill="#333333"/>
<path d="M341.762 70.16C340.908 70.16 340.114 70.0213 339.378 69.744C338.652 69.456 338.018 69.056 337.474 68.544C336.94 68.0213 336.524 67.408 336.226 66.704C335.927 66 335.778 65.232 335.778 64.4C335.778 63.568 335.927 62.8 336.226 62.096C336.524 61.392 336.946 60.784 337.49 60.272C338.034 59.7493 338.668 59.3493 339.394 59.072C340.119 58.784 340.914 58.64 341.778 58.64C342.695 58.64 343.532 58.8 344.29 59.12C345.047 59.4293 345.687 59.8933 346.21 60.512L344.866 61.776C344.46 61.3387 344.007 61.0133 343.506 60.8C343.004 60.576 342.46 60.464 341.874 60.464C341.287 60.464 340.748 60.56 340.258 60.752C339.778 60.944 339.356 61.216 338.994 61.568C338.642 61.92 338.364 62.336 338.162 62.816C337.97 63.296 337.874 63.824 337.874 64.4C337.874 64.976 337.97 65.504 338.162 65.984C338.364 66.464 338.642 66.88 338.994 67.232C339.356 67.584 339.778 67.856 340.258 68.048C340.748 68.24 341.287 68.336 341.874 68.336C342.46 68.336 343.004 68.2293 343.506 68.016C344.007 67.792 344.46 67.456 344.866 67.008L346.21 68.288C345.687 68.896 345.047 69.36 344.29 69.68C343.532 70 342.69 70.16 341.762 70.16ZM349.643 63.456H355.211V65.168H349.643V63.456ZM349.803 68.256H356.123V70H347.723V58.8H355.899V60.544H349.803V68.256ZM363.21 70.16C362.335 70.16 361.53 70.016 360.794 69.728C360.058 69.44 359.418 69.04 358.874 68.528C358.33 68.0053 357.908 67.3973 357.61 66.704C357.311 66 357.162 65.232 357.162 64.4C357.162 63.568 357.311 62.8053 357.61 62.112C357.908 61.408 358.33 60.8 358.874 60.288C359.418 59.7653 360.058 59.36 360.794 59.072C361.53 58.784 362.33 58.64 363.194 58.64C364.068 58.64 364.868 58.784 365.594 59.072C366.33 59.36 366.97 59.7653 367.514 60.288C368.058 60.8 368.479 61.408 368.778 62.112C369.076 62.8053 369.226 63.568 369.226 64.4C369.226 65.232 369.076 66 368.778 66.704C368.479 67.408 368.058 68.016 367.514 68.528C366.97 69.04 366.33 69.44 365.594 69.728C364.868 70.016 364.074 70.16 363.21 70.16ZM363.194 68.336C363.759 68.336 364.282 68.24 364.762 68.048C365.242 67.856 365.658 67.584 366.01 67.232C366.362 66.8693 366.634 66.4533 366.826 65.984C367.028 65.504 367.13 64.976 367.13 64.4C367.13 63.824 367.028 63.3013 366.826 62.832C366.634 62.352 366.362 61.936 366.01 61.584C365.658 61.2213 365.242 60.944 364.762 60.752C364.282 60.56 363.759 60.464 363.194 60.464C362.628 60.464 362.106 60.56 361.626 60.752C361.156 60.944 360.74 61.2213 360.378 61.584C360.026 61.936 359.748 62.352 359.546 62.832C359.354 63.3013 359.258 63.824 359.258 64.4C359.258 64.9653 359.354 65.488 359.546 65.968C359.748 66.448 360.026 66.8693 360.378 67.232C360.73 67.584 361.146 67.856 361.626 68.048C362.106 68.24 362.628 68.336 363.194 68.336Z" fill="#111111"/>
</svg>
