<svg width="16" height="16" viewBox="0 0 16 16" fill="none" xmlns="http://www.w3.org/2000/svg">
<g clip-path="url(#clip0_645_35327)">
<path fill-rule="evenodd" clip-rule="evenodd" d="M6.66667 2.66797C6.13623 2.66797 5.62753 2.87868 5.25245 3.25376C4.87738 3.62883 4.66667 4.13754 4.66667 4.66797H2.66667C2.31304 4.66797 1.97391 4.80844 1.72386 5.05849C1.47381 5.30854 1.33333 5.64768 1.33333 6.0013V12.668C1.33333 13.0216 1.47381 13.3607 1.72386 13.6108C1.97391 13.8608 2.31304 14.0013 2.66667 14.0013H13.3333C13.687 14.0013 14.0261 13.8608 14.2761 13.6108C14.5262 13.3607 14.6667 13.0216 14.6667 12.668V6.0013C14.6667 5.64768 14.5262 5.30854 14.2761 5.05849C14.0261 4.80844 13.687 4.66797 13.3333 4.66797H11.3333C11.3333 4.13754 11.1226 3.62883 10.7475 3.25376C10.3725 2.87868 9.86377 2.66797 9.33333 2.66797H6.66667ZM6.66667 4.0013C6.48985 4.0013 6.32029 4.07154 6.19526 4.19656C6.07024 4.32159 6 4.49116 6 4.66797H10C10 4.49116 9.92976 4.32159 9.80474 4.19656C9.67971 4.07154 9.51014 4.0013 9.33333 4.0013H6.66667ZM2.66667 8.66797C2.48986 8.66797 2.32029 8.73821 2.19526 8.86323C2.07024 8.98826 2 9.15782 2 9.33463C2 9.51145 2.07024 9.68102 2.19526 9.80604C2.32029 9.93106 2.48986 10.0013 2.66667 10.0013H13.3333C13.5101 10.0013 13.6797 9.93106 13.8047 9.80604C13.9298 9.68102 14 9.51145 14 9.33463C14 9.15782 13.9298 8.98826 13.8047 8.86323C13.6797 8.73821 13.5101 8.66797 13.3333 8.66797H2.66667Z" fill="#DB0032"/>
</g>
<defs>
<clipPath id="clip0_645_35327">
<rect width="16" height="16" fill="white"/>
</clipPath>
</defs>
</svg>
