<svg width="16" height="17" viewBox="0 0 16 17" fill="none" xmlns="http://www.w3.org/2000/svg">
<g clip-path="url(#clip0_645_35347)">
<path d="M7.28 2.41376C7.35336 2.28786 7.45845 2.18341 7.58479 2.11081C7.71113 2.03821 7.85429 2 8 2C8.14571 2 8.28887 2.03821 8.41521 2.11081C8.54154 2.18341 8.64664 2.28786 8.72 2.41376L10.5833 5.61242L14.202 6.39642C14.3443 6.42735 14.4761 6.49506 14.5841 6.59278C14.6921 6.6905 14.7726 6.81483 14.8176 6.95337C14.8626 7.09191 14.8705 7.23983 14.8405 7.38237C14.8105 7.52491 14.7437 7.6571 14.6467 7.76576L12.18 10.5264L12.5533 14.2098C12.5681 14.3548 12.5445 14.5012 12.485 14.6342C12.4254 14.7673 12.332 14.8824 12.2141 14.9681C12.0961 15.0538 11.9578 15.1071 11.8128 15.1226C11.6679 15.1381 11.5214 15.1152 11.388 15.0564L8 13.5631L4.612 15.0564C4.47861 15.1152 4.33213 15.1381 4.18717 15.1226C4.04221 15.1071 3.90385 15.0538 3.78591 14.9681C3.66797 14.8824 3.57457 14.7673 3.51505 14.6342C3.45552 14.5012 3.43194 14.3548 3.44667 14.2098L3.82 10.5264L1.35333 7.76642C1.25615 7.65777 1.18917 7.52553 1.15908 7.3829C1.12898 7.24027 1.13683 7.09224 1.18183 6.95359C1.22683 6.81494 1.30742 6.69052 1.41554 6.59276C1.52366 6.49499 1.65553 6.42729 1.798 6.39642L5.41667 5.61242L7.28 2.41376Z" fill="#DB0032"/>
</g>
<defs>
<clipPath id="clip0_645_35347">
<rect width="16" height="16" fill="white" transform="translate(0 0.5)"/>
</clipPath>
</defs>
</svg>
