<svg width="16" height="17" viewBox="0 0 16 17" fill="none" xmlns="http://www.w3.org/2000/svg">
<g clip-path="url(#clip0_645_35358)">
<path d="M8 9.16536C9.59733 9.16536 11.05 9.62803 12.1187 10.28C12.652 10.6054 13.108 10.9894 13.4373 11.4067C13.7613 11.8167 14 12.3074 14 12.832C14 13.3954 13.726 13.8394 13.3313 14.156C12.958 14.456 12.4653 14.6547 11.942 14.7934C10.89 15.0714 9.486 15.1654 8 15.1654C6.514 15.1654 5.11 15.072 4.058 14.7934C3.53467 14.6547 3.042 14.456 2.66867 14.156C2.27333 13.8387 2 13.3954 2 12.832C2 12.3074 2.23867 11.8167 2.56267 11.406C2.892 10.9894 3.34733 10.606 3.88133 10.2794C4.95 9.6287 6.40333 9.16536 8 9.16536ZM8 1.83203C8.88406 1.83203 9.7319 2.18322 10.357 2.80834C10.9821 3.43346 11.3333 4.28131 11.3333 5.16536C11.3333 6.04942 10.9821 6.89727 10.357 7.52239C9.7319 8.14751 8.88406 8.4987 8 8.4987C7.11594 8.4987 6.2681 8.14751 5.64298 7.52239C5.01786 6.89727 4.66667 6.04942 4.66667 5.16536C4.66667 4.28131 5.01786 3.43346 5.64298 2.80834C6.2681 2.18322 7.11594 1.83203 8 1.83203Z" fill="#DB0032"/>
</g>
<defs>
<clipPath id="clip0_645_35358">
<rect width="16" height="16" fill="white" transform="translate(0 0.5)"/>
</clipPath>
</defs>
</svg>
