<svg width="24" height="24" viewBox="0 0 24 24" fill="none" xmlns="http://www.w3.org/2000/svg">
<g clip-path="url(#clip0_95_2978)">
<path fill-rule="evenodd" clip-rule="evenodd" d="M0 2C0 1.46957 0.210714 0.960859 0.585786 0.585786C0.960859 0.210714 1.46957 0 2 0L14 0C14.5304 0 15.0391 0.210714 15.4142 0.585786C15.7893 0.960859 16 1.46957 16 2V24H10V21C10 20.4696 9.78929 19.9609 9.41421 19.5858C9.03914 19.2107 8.53043 19 8 19C7.46957 19 6.96086 19.2107 6.58579 19.5858C6.21071 19.9609 6 20.4696 6 21V24H0V2ZM17.5 10H22C22.5304 10 23.0391 10.2107 23.4142 10.5858C23.7893 10.9609 24 11.4696 24 12V24H17.5V10ZM4 3C3.73478 3 3.48043 3.10536 3.29289 3.29289C3.10536 3.48043 3 3.73478 3 4V6.5C3 6.76522 3.10536 7.01957 3.29289 7.20711C3.48043 7.39464 3.73478 7.5 4 7.5H5.5C5.76522 7.5 6.01957 7.39464 6.20711 7.20711C6.39464 7.01957 6.5 6.76522 6.5 6.5V4C6.5 3.73478 6.39464 3.48043 6.20711 3.29289C6.01957 3.10536 5.76522 3 5.5 3H4ZM9.5 4C9.5 3.73478 9.60536 3.48043 9.79289 3.29289C9.98043 3.10536 10.2348 3 10.5 3H12C12.2652 3 12.5196 3.10536 12.7071 3.29289C12.8946 3.48043 13 3.73478 13 4V6.5C13 6.76522 12.8946 7.01957 12.7071 7.20711C12.5196 7.39464 12.2652 7.5 12 7.5H10.5C10.2348 7.5 9.98043 7.39464 9.79289 7.20711C9.60536 7.01957 9.5 6.76522 9.5 6.5V4ZM4 11.5C3.73478 11.5 3.48043 11.6054 3.29289 11.7929C3.10536 11.9804 3 12.2348 3 12.5V15C3 15.2652 3.10536 15.5196 3.29289 15.7071C3.48043 15.8946 3.73478 16 4 16H5.5C5.76522 16 6.01957 15.8946 6.20711 15.7071C6.39464 15.5196 6.5 15.2652 6.5 15V12.5C6.5 12.2348 6.39464 11.9804 6.20711 11.7929C6.01957 11.6054 5.76522 11.5 5.5 11.5H4ZM9.5 12.5C9.5 12.2348 9.60536 11.9804 9.79289 11.7929C9.98043 11.6054 10.2348 11.5 10.5 11.5H12C12.2652 11.5 12.5196 11.6054 12.7071 11.7929C12.8946 11.9804 13 12.2348 13 12.5V15C13 15.2652 12.8946 15.5196 12.7071 15.7071C12.5196 15.8946 12.2652 16 12 16H10.5C10.2348 16 9.98043 15.8946 9.79289 15.7071C9.60536 15.5196 9.5 15.2652 9.5 15V12.5Z" fill="#DB0032"/>
</g>
<defs>
<clipPath id="clip0_95_2978">
<rect width="24" height="24" fill="white"/>
</clipPath>
</defs>
</svg>
