<svg width="24" height="24" viewBox="0 0 24 24" fill="none" xmlns="http://www.w3.org/2000/svg">
<g clip-path="url(#clip0_95_3106)">
<path d="M20.7198 12.88C20.723 12.8427 20.7174 12.8052 20.7035 12.7705C20.6896 12.7358 20.6678 12.7048 20.6398 12.68L19.9998 12C19.958 11.9733 19.9095 11.9591 19.8598 11.9591C19.8102 11.9591 19.7616 11.9733 19.7198 12C18.8651 12.359 17.9469 12.5427 17.0198 12.54C16.279 12.5425 15.5427 12.4243 14.8398 12.19C14.78 12.1699 14.7148 12.1732 14.6574 12.1992C14.5999 12.2251 14.5543 12.2719 14.5298 12.33C14.2692 12.9178 13.933 13.4691 13.5298 13.97C13.515 14.0048 13.5073 14.0422 13.5073 14.08C13.5073 14.1178 13.515 14.1552 13.5298 14.19C13.5978 14.4351 13.6813 14.6755 13.7798 14.91C13.8075 14.9702 13.8578 15.0169 13.9198 15.04C16.3598 15.94 19.5298 17.43 19.5298 22.04V23.54C19.5348 23.6133 19.5348 23.6868 19.5298 23.76C19.5248 23.7957 19.5276 23.832 19.538 23.8666C19.5483 23.9011 19.566 23.933 19.5898 23.96C19.6401 24.0107 19.7084 24.0395 19.7798 24.04H23.4998C23.6324 24.04 23.7596 23.9873 23.8534 23.8936C23.9472 23.7998 23.9998 23.6726 23.9998 23.54V22.69C23.9998 19.59 21.8398 18.82 19.9298 18.14L19.4398 17.96C19.3778 17.9369 19.3275 17.8902 19.2998 17.83C19.2702 17.7657 19.2467 17.6987 19.2298 17.63C19.1392 17.2216 19.1392 16.7984 19.2298 16.39C20.1322 15.4371 20.6611 14.191 20.7198 12.88Z" fill="#DB0032"/>
<path d="M10 5.5C10 4.80172 10.1045 4.10736 10.31 3.44C10.3356 3.37579 10.3356 3.30421 10.31 3.24C10.2695 3.181 10.2092 3.13844 10.14 3.12C9.7656 3.03803 9.38327 2.99779 9 3C6.63 3 4.25 4.56 4.25 8C4.25 12.16 5.94 13.16 6.14 13.58C6.34053 14.1981 6.36134 14.8605 6.2 15.49C6.13 15.75 6.03 15.86 5.96 15.89L5.2 16.16C2.76 17.06 0 18 0 22V23.5C0 23.6326 0.0526784 23.7598 0.146447 23.8536C0.240215 23.9473 0.367392 24 0.5 24H17.5C17.6326 24 17.7598 23.9473 17.8536 23.8536C17.9473 23.7598 18 23.6326 18 23.5V22C18 18.05 15.23 17.07 12.78 16.19L12 15.93C11.93 15.93 11.83 15.79 11.76 15.53C11.5855 14.9053 11.5855 14.2447 11.76 13.62C12.3153 13.0349 12.7652 12.3583 13.09 11.62C13.1104 11.5655 13.1126 11.5059 13.0964 11.4501C13.0802 11.3942 13.0464 11.3451 13 11.31C12.0648 10.6589 11.3027 9.78933 10.7799 8.77682C10.2571 7.76431 9.98938 6.63947 10 5.5Z" fill="#DB0032"/>
<path d="M19.9999 10.14C20.0447 10.1067 20.0991 10.0887 20.1549 10.0887C20.2107 10.0887 20.2651 10.1067 20.3099 10.14L22.3099 12.14C22.4029 12.2337 22.5135 12.3081 22.6353 12.3589C22.7572 12.4097 22.8879 12.4358 23.0199 12.4358C23.1519 12.4358 23.2826 12.4097 23.4045 12.3589C23.5264 12.3081 23.637 12.2337 23.7299 12.14C23.8236 12.047 23.898 11.9364 23.9488 11.8146C23.9996 11.6927 24.0257 11.562 24.0257 11.43C24.0257 11.298 23.9996 11.1673 23.9488 11.0454C23.898 10.9236 23.8236 10.813 23.7299 10.72L21.7299 8.72C21.6966 8.67518 21.6787 8.62083 21.6787 8.565C21.6787 8.50917 21.6966 8.45482 21.7299 8.41C22.4494 7.26521 22.722 5.8955 22.4956 4.56248C22.2692 3.22945 21.5597 2.02652 20.5027 1.18344C19.4456 0.340353 18.115 -0.0838054 16.765 -0.00802778C15.415 0.0677499 14.1402 0.638153 13.1842 1.59424C12.2281 2.55033 11.6577 3.8251 11.5819 5.17509C11.5061 6.52507 11.9303 7.85567 12.7734 8.91275C13.6164 9.96983 14.8194 10.6793 16.1524 10.9057C17.4854 11.1321 18.8551 10.8595 19.9999 10.14ZM13.4999 5.5C13.4999 4.80777 13.7052 4.13108 14.0898 3.5555C14.4744 2.97993 15.021 2.53133 15.6605 2.26642C16.3001 2.00151 17.0038 1.9322 17.6827 2.06725C18.3617 2.2023 18.9853 2.53564 19.4748 3.02513C19.9643 3.51461 20.2976 4.13825 20.4327 4.81718C20.5677 5.49612 20.4984 6.19985 20.2335 6.83939C19.9686 7.47893 19.52 8.02556 18.9444 8.41014C18.3688 8.79473 17.6922 9 16.9999 9C16.0717 9 15.1814 8.63125 14.525 7.97487C13.8687 7.3185 13.4999 6.42826 13.4999 5.5Z" fill="#DB0032"/>
</g>
<defs>
<clipPath id="clip0_95_3106">
<rect width="24" height="24" fill="white"/>
</clipPath>
</defs>
</svg>
