<svg width="24" height="24" viewBox="0 0 24 24" fill="none" xmlns="http://www.w3.org/2000/svg">
<path d="M23.9298 5.55C23.8526 5.36768 23.723 5.21238 23.5575 5.10378C23.3919 4.99519 23.1978 4.93819 22.9998 4.94H21.5098C21.4596 4.94078 21.4103 4.92575 21.3691 4.89705C21.3278 4.86834 21.2966 4.8274 21.2798 4.78L20.4298 2.55C20.3386 2.3831 20.2041 2.24384 20.0404 2.14683C19.8768 2.04982 19.6901 1.99863 19.4998 1.99863C19.3096 1.99863 19.1229 2.04982 18.9593 2.14683C18.7956 2.24384 18.6611 2.3831 18.5698 2.55L17.9998 4V4.07C17.982 4.48971 17.8592 4.89823 17.6426 5.25814C17.4259 5.61805 17.1224 5.91783 16.7598 6.13C16.7129 6.16227 16.6784 6.2096 16.662 6.26416C16.6457 6.31872 16.6484 6.37722 16.6698 6.43L16.8998 6.96C17.1101 7.44141 17.1633 7.97681 17.052 8.4902C16.9407 9.00358 16.6706 9.46887 16.2798 9.82C16.1914 9.88728 16.0978 9.94747 15.9998 10C15.9555 10.0344 15.923 10.0818 15.9069 10.1356C15.8908 10.1894 15.8918 10.2468 15.9098 10.3C15.97 10.4426 16.0624 10.5692 16.1798 10.67C16.3365 10.8187 16.537 10.9127 16.7516 10.938C16.9661 10.9632 17.183 10.9183 17.3698 10.81L19.3698 9.71C19.4071 9.68589 19.4505 9.67307 19.4948 9.67307C19.5392 9.67307 19.5826 9.68589 19.6198 9.71L21.5698 10.81C21.7252 10.8981 21.9013 10.943 22.0798 10.94C22.3359 10.9417 22.5829 10.845 22.7698 10.67C22.9244 10.5269 23.0298 10.3388 23.0711 10.1323C23.1124 9.92576 23.0875 9.71149 22.9998 9.52L22.2998 7.87C22.2794 7.81553 22.2772 7.75593 22.2934 7.70007C22.3096 7.64421 22.3434 7.59509 22.3898 7.56L23.6898 6.65C23.8357 6.51194 23.9365 6.33318 23.9794 6.13699C24.0222 5.94079 24.0049 5.73625 23.9298 5.55Z" fill="#DB0032"/>
<path d="M7.71993 9.81C7.33971 9.46254 7.07608 9.00612 6.96511 8.50315C6.85413 8.00018 6.90122 7.4752 7.09993 7L7.31993 6.48C7.3431 6.42681 7.34781 6.3674 7.33331 6.31123C7.31881 6.25505 7.28594 6.20534 7.23993 6.17C6.86696 5.94228 6.55768 5.62389 6.34087 5.24447C6.12406 4.86505 6.00677 4.43694 5.99993 4L5.43993 2.55C5.36459 2.36659 5.23643 2.20972 5.07173 2.09932C4.90702 1.98892 4.71322 1.92997 4.51493 1.92997C4.31665 1.92997 4.12285 1.98892 3.95814 2.09932C3.79344 2.20972 3.66528 2.36659 3.58993 2.55L2.71993 4.78C2.70196 4.82659 2.67045 4.86673 2.62945 4.89525C2.58846 4.92377 2.53987 4.93935 2.48993 4.94H0.999935C0.801944 4.93819 0.60787 4.99519 0.442307 5.10378C0.276745 5.21238 0.147146 5.36768 0.0699347 5.55C-0.0120337 5.74982 -0.0271066 5.97081 0.0269706 6.17991C0.0810478 6.38901 0.201368 6.57498 0.369935 6.71L1.60993 7.57C1.65665 7.60243 1.69033 7.65038 1.70498 7.70532C1.71963 7.76027 1.7143 7.81863 1.68993 7.87L0.999935 9.52C0.914669 9.7135 0.892934 9.92905 0.937852 10.1357C0.982771 10.3423 1.09203 10.5294 1.24993 10.67C1.40732 10.821 1.60976 10.9164 1.8264 10.9417C2.04305 10.967 2.26202 10.9207 2.44993 10.81L4.39993 9.71C4.43717 9.6859 4.48058 9.67307 4.52493 9.67307C4.56929 9.67307 4.6127 9.6859 4.64993 9.71L6.64993 10.81C6.80959 10.8963 6.98843 10.9411 7.16993 10.94C7.42257 10.9391 7.66551 10.8427 7.84993 10.67C7.92565 10.5624 7.97685 10.4395 7.99994 10.31C8.03659 10.2667 8.0567 10.2118 8.0567 10.155C8.0567 10.0982 8.03659 10.0433 7.99994 10C7.90011 9.94681 7.80624 9.88312 7.71993 9.81Z" fill="#DB0032"/>
<path d="M14.8099 5.9C14.7859 5.84603 14.7817 5.78528 14.7982 5.72853C14.8147 5.67178 14.8507 5.6227 14.8999 5.59L16.1999 4.68C16.3441 4.5408 16.4431 4.3615 16.4841 4.16536C16.5251 3.96923 16.5062 3.76529 16.4299 3.58C16.3482 3.40329 16.2167 3.25427 16.0515 3.15124C15.8863 3.04821 15.6946 2.99565 15.4999 3H13.9999C13.9483 3.00139 13.8975 2.98675 13.8545 2.9581C13.8116 2.92945 13.7785 2.88819 13.7599 2.84L12.9399 0.58C12.8575 0.401688 12.7244 0.251592 12.5573 0.148445C12.3901 0.0452977 12.1963 -0.00633159 11.9999 4.51808e-07C11.8019 -0.00833611 11.6059 0.0423453 11.4368 0.145611C11.2676 0.248877 11.133 0.400071 11.0499 0.58L10.2099 2.81C10.1982 2.85919 10.1719 2.90368 10.1344 2.9376C10.0969 2.97152 10.05 2.99328 9.99993 3H8.49993C8.30194 2.99819 8.10787 3.05519 7.94231 3.16378C7.77675 3.27238 7.64715 3.42768 7.56993 3.61C7.48797 3.80982 7.47289 4.03081 7.52697 4.2399C7.58105 4.449 7.70137 4.63497 7.86993 4.77L9.09994 5.62C9.14915 5.6527 9.1852 5.70178 9.20167 5.75853C9.21815 5.81528 9.21399 5.87603 9.18993 5.93L8.46994 7.54C8.3886 7.6964 8.35005 7.87152 8.3582 8.04761C8.36634 8.2237 8.4209 8.39452 8.51633 8.54274C8.61175 8.69095 8.74467 8.81131 8.9016 8.89161C9.05853 8.97192 9.2339 9.00931 9.40993 9C9.58849 9.00298 9.76459 8.95809 9.91993 8.87L11.9199 7.76C11.957 7.74072 11.9982 7.73065 12.0399 7.73065C12.0817 7.73065 12.1229 7.74072 12.1599 7.76L14.1599 8.87C14.3153 8.95809 14.4914 9.00298 14.6699 9C14.926 9.00167 15.173 8.90503 15.3599 8.73C15.52 8.58867 15.6306 8.39982 15.6756 8.19109C15.7206 7.98236 15.6976 7.76471 15.6099 7.57L14.8099 5.9Z" fill="#DB0032"/>
<path d="M16.9301 16.19C16.8244 15.0697 16.3046 14.0292 15.4724 13.2718C14.6402 12.5145 13.5554 12.0947 12.4301 12.0947C11.3049 12.0947 10.2201 12.5145 9.38788 13.2718C8.55566 14.0292 8.03586 15.0697 7.93013 16.19C7.93013 18.03 7.50013 18.67 7.17013 19C7.06486 19.0889 6.97911 19.1986 6.91825 19.3223C6.85739 19.4459 6.82274 19.5808 6.81647 19.7184C6.81019 19.8561 6.83244 19.9935 6.8818 20.1222C6.93116 20.2508 7.00658 20.3679 7.10333 20.466C7.20007 20.5641 7.31604 20.6412 7.44398 20.6924C7.57192 20.7436 7.70905 20.7678 7.84678 20.7634C7.9845 20.7591 8.11985 20.7264 8.24433 20.6673C8.3688 20.6082 8.47972 20.524 8.57013 20.42C8.79323 20.2019 8.98809 19.9566 9.15013 19.69C9.1703 19.6597 9.19686 19.6341 9.22796 19.6151C9.25905 19.5961 9.29392 19.5841 9.33013 19.58C9.40067 19.5716 9.47183 19.5894 9.53013 19.63C9.76207 19.8355 10.0171 20.0134 10.2901 20.16C10.3336 20.1821 10.3693 20.2168 10.3926 20.2597C10.4158 20.3026 10.4254 20.3515 10.4201 20.4C10.419 20.446 10.4041 20.4906 10.3774 20.528C10.3506 20.5655 10.3133 20.594 10.2701 20.61C8.99277 21.1182 7.9321 22.0551 7.27013 23.26C7.22612 23.3341 7.20289 23.4188 7.20289 23.505C7.20289 23.5912 7.22612 23.6759 7.27013 23.75C7.31213 23.827 7.37441 23.891 7.45022 23.935C7.52603 23.9791 7.61245 24.0016 7.70013 24H17.1801C17.2678 24.0016 17.3542 23.9791 17.43 23.935C17.5058 23.891 17.5681 23.827 17.6101 23.75C17.6541 23.6759 17.6774 23.5912 17.6774 23.505C17.6774 23.4188 17.6541 23.3341 17.6101 23.26C16.9482 22.0551 15.8875 21.1182 14.6101 20.61C14.567 20.594 14.5296 20.5655 14.5029 20.528C14.4762 20.4906 14.4613 20.446 14.4601 20.4C14.4549 20.3515 14.4645 20.3026 14.4877 20.2597C14.5109 20.2168 14.5466 20.1821 14.5901 20.16C14.8611 20.01 15.1157 19.8324 15.3501 19.63C15.4084 19.5894 15.4796 19.5716 15.5501 19.58C15.5863 19.5841 15.6212 19.5961 15.6523 19.6151C15.6834 19.6341 15.71 19.6597 15.7301 19.69C15.8922 19.9566 16.087 20.2019 16.3101 20.42C16.4964 20.6047 16.7478 20.7089 17.0101 20.71C17.1424 20.7094 17.2733 20.6827 17.3952 20.6312C17.5171 20.5797 17.6275 20.5045 17.7201 20.41C17.9064 20.2226 18.0109 19.9692 18.0109 19.705C18.0109 19.4408 17.9064 19.1874 17.7201 19C17.3601 18.67 16.9301 18 16.9301 16.19ZM12.4101 18.71C11.8154 18.7089 11.2403 18.4975 10.7864 18.1131C10.3326 17.7288 10.0292 17.1964 9.93013 16.61C9.92099 16.5454 9.93648 16.4797 9.97353 16.426C10.0106 16.3722 10.0665 16.3344 10.1301 16.32C10.4754 16.26 10.8115 16.1558 11.1301 16.01C11.5604 15.8104 11.9297 15.4997 12.2001 15.11C12.2504 15.0492 12.3219 15.0099 12.4001 15C12.4392 14.9983 12.4781 15.0066 12.5131 15.0241C12.5481 15.0416 12.578 15.0677 12.6001 15.1C12.8886 15.4493 13.2253 15.7557 13.6001 16.01C13.9047 16.2194 14.2429 16.375 14.6001 16.47C14.6324 16.4771 14.6629 16.4905 14.6899 16.5094C14.717 16.5284 14.74 16.5525 14.7576 16.5804C14.7753 16.6083 14.7873 16.6394 14.7929 16.672C14.7984 16.7045 14.7975 16.7378 14.7901 16.77C14.6626 17.3104 14.3601 17.7935 13.9297 18.1443C13.4993 18.4952 12.9651 18.694 12.4101 18.71Z" fill="#DB0032"/>
</svg>
