<svg width="24" height="24" viewBox="0 0 24 24" fill="none" xmlns="http://www.w3.org/2000/svg">
<g clip-path="url(#clip0_95_3159)">
<path d="M1.71973 9.95C1.71973 10.2717 1.7831 10.5903 1.90622 10.8876C2.02935 11.1848 2.20981 11.4549 2.43731 11.6824C2.66482 11.9099 2.9349 12.0904 3.23215 12.2135C3.5294 12.3366 3.84799 12.4 4.16973 12.4C4.49147 12.4 4.81005 12.3366 5.1073 12.2135C5.40455 12.0904 5.67463 11.9099 5.90214 11.6824C6.12964 11.4549 6.31011 11.1848 6.43323 10.8876C6.55636 10.5903 6.61973 10.2717 6.61973 9.95C6.61973 9.62826 6.55636 9.30967 6.43323 9.01243C6.31011 8.71518 6.12964 8.44509 5.90214 8.21759C5.67463 7.99008 5.40455 7.80962 5.1073 7.6865C4.81005 7.56337 4.49147 7.5 4.16973 7.5C3.84799 7.5 3.5294 7.56337 3.23215 7.6865C2.9349 7.80962 2.66482 7.99008 2.43731 8.21759C2.20981 8.44509 2.02935 8.71518 1.90622 9.01243C1.7831 9.30967 1.71973 9.62826 1.71973 9.95Z" fill="#DB0032"/>
<path d="M17.3799 9.95C17.3799 10.5998 17.638 11.2229 18.0975 11.6824C18.5569 12.1419 19.1801 12.4 19.8299 12.4C20.4797 12.4 21.1028 12.1419 21.5623 11.6824C22.0218 11.2229 22.2799 10.5998 22.2799 9.95C22.2799 9.62826 22.2165 9.30967 22.0934 9.01243C21.9703 8.71518 21.7898 8.44509 21.5623 8.21759C21.3348 7.99008 21.0647 7.80962 20.7675 7.6865C20.4702 7.56337 20.1516 7.5 19.8299 7.5C19.5081 7.5 19.1896 7.56337 18.8923 7.6865C18.5951 7.80962 18.325 7.99008 18.0975 8.21759C17.87 8.44509 17.6895 8.71518 17.5664 9.01243C17.4433 9.30967 17.3799 9.62826 17.3799 9.95Z" fill="#DB0032"/>
<path d="M11.5 4.5C11.2348 4.5 10.9804 4.39464 10.7929 4.20711C10.6054 4.01957 10.5 3.76522 10.5 3.5V1.5C10.5 1.23478 10.6054 0.98043 10.7929 0.792893C10.9804 0.605357 11.2348 0.5 11.5 0.5C11.7652 0.5 12.0196 0.605357 12.2071 0.792893C12.3946 0.98043 12.5 1.23478 12.5 1.5V3.5C12.5 3.76522 12.3946 4.01957 12.2071 4.20711C12.0196 4.39464 11.7652 4.5 11.5 4.5Z" fill="#DB0032"/>
<path d="M17.3699 2.88C17.1826 2.69375 16.9291 2.58921 16.6649 2.58921C16.4008 2.58921 16.1473 2.69375 15.9599 2.88L14.5399 4.29C14.4462 4.38297 14.3718 4.49357 14.321 4.61543C14.2703 4.73729 14.2441 4.86799 14.2441 5C14.2441 5.13201 14.2703 5.26272 14.321 5.38458C14.3718 5.50644 14.4462 5.61704 14.5399 5.71C14.6329 5.80373 14.7435 5.87813 14.8654 5.92889C14.9872 5.97966 15.1179 6.0058 15.2499 6.0058C15.382 6.0058 15.5127 5.97966 15.6345 5.92889C15.7564 5.87813 15.867 5.80373 15.9599 5.71L17.3699 4.29C17.5562 4.10264 17.6607 3.84919 17.6607 3.585C17.6607 3.32082 17.5562 3.06737 17.3699 2.88Z" fill="#DB0032"/>
<path d="M7.75002 6C7.61174 6.0062 7.47369 5.98363 7.34459 5.93371C7.21549 5.88379 7.09816 5.80761 7.00002 5.71L5.63002 4.29C5.49538 4.09941 5.43164 3.86774 5.44982 3.63511C5.468 3.40247 5.56696 3.18352 5.72957 3.01616C5.89218 2.8488 6.1082 2.74358 6.34021 2.71872C6.57223 2.69385 6.80564 2.7509 7.00002 2.88L8.46002 4.29C8.55375 4.38296 8.62814 4.49356 8.67891 4.61542C8.72968 4.73728 8.75582 4.86799 8.75582 5C8.75582 5.13201 8.72968 5.26272 8.67891 5.38458C8.62814 5.50644 8.55375 5.61704 8.46002 5.71C8.36658 5.80268 8.25576 5.87601 8.13393 5.92577C8.01209 5.97554 7.88163 6.00076 7.75002 6Z" fill="#DB0032"/>
<path d="M16.3997 23.5V16.77C15.1784 16.6488 14.0184 16.1763 13.0601 15.4096C12.1017 14.6429 11.3861 13.6149 10.9997 12.45L10.1597 9.92C10.0898 9.71984 10.0644 9.50685 10.0851 9.29585C10.1059 9.08485 10.1723 8.8809 10.2799 8.69818C10.3874 8.51546 10.5335 8.35835 10.7078 8.23778C10.8822 8.11721 11.0808 8.03607 11.2897 8C11.6443 7.95388 12.0038 8.03511 12.3041 8.22923C12.6045 8.42334 12.8262 8.71774 12.9297 9.06L13.7497 11.51C13.9737 12.1948 14.4088 12.7911 14.9927 13.2133C15.5766 13.6355 16.2792 13.8619 16.9997 13.86H21.2997C21.8302 13.86 22.3389 14.0707 22.7139 14.4458C23.089 14.8209 23.2997 15.3296 23.2997 15.86V23.5H16.3997Z" fill="#DB0032"/>
<path d="M9.53996 12.92V12.79C9.21435 13.1353 8.82026 13.4088 8.38288 13.5931C7.94551 13.7773 7.47449 13.8682 6.99996 13.86H2.70996C2.17953 13.86 1.67082 14.0707 1.29575 14.4458C0.920675 14.8209 0.709961 15.3296 0.709961 15.86V23.5H7.59996V16.77C8.81441 16.6547 9.97021 16.1931 10.93 15.44C10.3149 14.6931 9.84362 13.8387 9.53996 12.92Z" fill="#DB0032"/>
</g>
<defs>
<clipPath id="clip0_95_3159">
<rect width="24" height="24" fill="white"/>
</clipPath>
</defs>
</svg>
