<svg width="24" height="24" viewBox="0 0 24 24" fill="none" xmlns="http://www.w3.org/2000/svg">
<g clip-path="url(#clip0_95_3147)">
<path d="M21.5 0H2.5C1.83696 0 1.20107 0.263392 0.732233 0.732233C0.263392 1.20107 0 1.83696 0 2.5L0 21.5C0 21.8283 0.0646644 22.1534 0.190301 22.4567C0.315938 22.76 0.500087 23.0356 0.732233 23.2678C0.964379 23.4999 1.23998 23.6841 1.54329 23.8097C1.84661 23.9353 2.1717 24 2.5 24H21.5C21.8283 24 22.1534 23.9353 22.4567 23.8097C22.76 23.6841 23.0356 23.4999 23.2678 23.2678C23.4999 23.0356 23.6841 22.76 23.8097 22.4567C23.9353 22.1534 24 21.8283 24 21.5V2.5C24 2.1717 23.9353 1.84661 23.8097 1.54329C23.6841 1.23998 23.4999 0.964379 23.2678 0.732233C23.0356 0.500087 22.76 0.315938 22.4567 0.190301C22.1534 0.0646644 21.8283 0 21.5 0ZM18.5 9.5H14C13.7348 9.5 13.4804 9.39464 13.2929 9.20711C13.1054 9.01957 13 8.76522 13 8.5C13 8.23478 13.1054 7.98043 13.2929 7.79289C13.4804 7.60536 13.7348 7.5 14 7.5H18.5C18.7652 7.5 19.0196 7.60536 19.2071 7.79289C19.3946 7.98043 19.5 8.23478 19.5 8.5C19.5 8.76522 19.3946 9.01957 19.2071 9.20711C19.0196 9.39464 18.7652 9.5 18.5 9.5ZM19.5 17.5C19.5 17.7652 19.3946 18.0196 19.2071 18.2071C19.0196 18.3946 18.7652 18.5 18.5 18.5H14C13.7348 18.5 13.4804 18.3946 13.2929 18.2071C13.1054 18.0196 13 17.7652 13 17.5C13 17.2348 13.1054 16.9804 13.2929 16.7929C13.4804 16.6054 13.7348 16.5 14 16.5H18.5C18.7652 16.5 19.0196 16.6054 19.2071 16.7929C19.3946 16.9804 19.5 17.2348 19.5 17.5ZM11.3 5.6L8.3 9.6C8.21419 9.71519 8.10457 9.81054 7.9786 9.87957C7.85263 9.94859 7.71327 9.98967 7.57 10C7.42679 10.0105 7.283 9.99003 7.1484 9.93999C7.01381 9.88995 6.89157 9.81151 6.79 9.71L5.29 8.21C5.19676 8.11676 5.1228 8.00607 5.07234 7.88425C5.02188 7.76243 4.99591 7.63186 4.99591 7.5C4.99591 7.36814 5.02188 7.23757 5.07234 7.11575C5.1228 6.99393 5.19676 6.88324 5.29 6.79C5.38324 6.69676 5.49393 6.6228 5.61575 6.57234C5.73757 6.52188 5.86814 6.49591 6 6.49591C6.13186 6.49591 6.26243 6.52188 6.38425 6.57234C6.50607 6.6228 6.61676 6.69676 6.71 6.79L7.39 7.48L9.7 4.4C9.85913 4.18783 10.096 4.04756 10.3586 4.01005C10.6211 3.97254 10.8878 4.04087 11.1 4.2C11.3122 4.35913 11.4524 4.59603 11.4899 4.85858C11.5275 5.12113 11.4591 5.38783 11.3 5.6ZM11.3 15.6L8.3 19.6C8.21427 19.7153 8.10471 19.8108 7.97877 19.8799C7.85283 19.949 7.71347 19.9902 7.57018 20.0007C7.42689 20.0111 7.28303 19.9905 7.1484 19.9404C7.01377 19.8902 6.89153 19.8116 6.79 19.71L5.29 18.21C5.1017 18.0217 4.99591 17.7663 4.99591 17.5C4.99591 17.2337 5.1017 16.9783 5.29 16.79C5.4783 16.6017 5.7337 16.4959 6 16.4959C6.2663 16.4959 6.5217 16.6017 6.71 16.79L7.39 17.48L9.7 14.4C9.85913 14.1878 10.096 14.0476 10.3586 14.0101C10.6211 13.9725 10.8878 14.0409 11.1 14.2C11.3122 14.3591 11.4524 14.596 11.4899 14.8586C11.5275 15.1211 11.4591 15.3878 11.3 15.6Z" fill="#DB0032"/>
</g>
<defs>
<clipPath id="clip0_95_3147">
<rect width="24" height="24" fill="white"/>
</clipPath>
</defs>
</svg>
