<svg width="24" height="24" viewBox="0 0 24 24" fill="none" xmlns="http://www.w3.org/2000/svg">
<g clip-path="url(#clip0_95_3018)">
<path d="M9.24023 18.35C9.24023 18.9137 9.40738 19.4647 9.72055 19.9334C10.0337 20.4021 10.4788 20.7673 10.9996 20.9831C11.5204 21.1988 12.0934 21.2552 12.6462 21.1452C13.1991 21.0353 13.7069 20.7638 14.1055 20.3653C14.5041 19.9667 14.7755 19.4589 14.8855 18.906C14.9954 18.3532 14.939 17.7801 14.7233 17.2594C14.5076 16.7386 14.1423 16.2935 13.6736 15.9803C13.2049 15.6671 12.6539 15.5 12.0902 15.5C11.3344 15.5 10.6095 15.8003 10.075 16.3347C9.5405 16.8692 9.24023 17.5941 9.24023 18.35Z" fill="#DB0032"/>
<path d="M4.68984 21.2C5.25352 21.2 5.80454 21.0329 6.27322 20.7197C6.7419 20.4065 7.10719 19.9614 7.3229 19.4406C7.53861 18.9199 7.59505 18.3468 7.48508 17.794C7.37511 17.2411 7.10368 16.7333 6.7051 16.3347C6.30652 15.9362 5.7987 15.6647 5.24585 15.5548C4.69301 15.4448 4.11997 15.5012 3.5992 15.7169C3.07843 15.9327 2.63332 16.2979 2.32016 16.7666C2.00699 17.2353 1.83984 17.7863 1.83984 18.35C1.83984 19.1059 2.14011 19.8308 2.67459 20.3653C3.20907 20.8997 3.93398 21.2 4.68984 21.2Z" fill="#DB0032"/>
<path d="M16.46 18.35C16.46 18.9137 16.6271 19.4647 16.9403 19.9334C17.2534 20.4021 17.6985 20.7673 18.2193 20.9831C18.7401 21.1988 19.3131 21.2552 19.866 21.1452C20.4188 21.0353 20.9266 20.7638 21.3252 20.3653C21.7238 19.9667 21.9952 19.4589 22.1052 18.906C22.2152 18.3532 22.1587 17.7801 21.943 17.2594C21.7273 16.7386 21.362 16.2935 20.8933 15.9803C20.4247 15.6671 19.8736 15.5 19.31 15.5C18.5549 15.5026 17.8315 15.8037 17.2976 16.3377C16.7637 16.8716 16.4626 17.5949 16.46 18.35Z" fill="#DB0032"/>
<path d="M23.3901 23.19C22.9096 22.5902 22.301 22.1056 21.6088 21.7717C20.9167 21.4377 20.1586 21.2629 19.3901 21.26C18.1038 21.2582 16.863 21.736 15.9101 22.6C15.8655 22.6422 15.8065 22.6657 15.7451 22.6657C15.6837 22.6657 15.6247 22.6422 15.5801 22.6C14.6026 21.7374 13.3438 21.2613 12.0401 21.2613C10.7364 21.2613 9.47756 21.7374 8.50008 22.6C8.4555 22.6422 8.39646 22.6657 8.33508 22.6657C8.2737 22.6657 8.21465 22.6422 8.17008 22.6C7.21717 21.736 5.97638 21.2582 4.69008 21.26C3.92159 21.2629 3.16348 21.4377 2.47134 21.7717C1.7792 22.1056 1.17057 22.5902 0.690078 23.19C0.632134 23.2642 0.595858 23.353 0.585268 23.4465C0.574679 23.5401 0.590188 23.6347 0.630078 23.72C0.664533 23.7931 0.716192 23.8568 0.780631 23.9055C0.84507 23.9543 0.920369 23.9867 1.00008 24H23.0001C23.0938 24.0002 23.1857 23.974 23.2652 23.9245C23.3448 23.875 23.4088 23.8042 23.4501 23.72C23.49 23.6347 23.5055 23.5401 23.4949 23.4465C23.4843 23.353 23.448 23.2642 23.3901 23.19Z" fill="#DB0032"/>
<path d="M8.6403 9.5H15.3703C15.4478 9.49924 15.5241 9.48084 15.5934 9.44618C15.6627 9.41153 15.7232 9.36154 15.7703 9.3C15.8149 9.23692 15.8452 9.16486 15.859 9.08885C15.8728 9.01285 15.8698 8.93474 15.8503 8.86C15.6702 8.24869 15.3466 7.68926 14.9065 7.2283C14.4665 6.76735 13.9226 6.41823 13.3203 6.21C14.0028 5.90942 14.5611 5.38329 14.9016 4.71987C15.2422 4.05644 15.3442 3.29609 15.1906 2.56636C15.037 1.83663 14.6372 1.18191 14.0581 0.712034C13.4791 0.242158 12.756 -0.0142899 12.0103 -0.0142899C11.2646 -0.0142899 10.5415 0.242158 9.96248 0.712034C9.38342 1.18191 8.98356 1.83663 8.82997 2.56636C8.67639 3.29609 8.77843 4.05644 9.11897 4.71987C9.45951 5.38329 10.0178 5.90942 10.7003 6.21C10.0981 6.42048 9.55422 6.77021 9.11283 7.23072C8.67145 7.69122 8.34507 8.24947 8.1603 8.86C8.14076 8.93474 8.1378 9.01285 8.15162 9.08885C8.16543 9.16486 8.1957 9.23692 8.2403 9.3C8.28739 9.36154 8.3479 9.41153 8.41721 9.44618C8.48652 9.48084 8.56281 9.49924 8.6403 9.5Z" fill="#DB0032"/>
<path d="M5 12C5 12.2652 5.10536 12.5196 5.29289 12.7071C5.48043 12.8946 5.73478 13 6 13H6.48C6.53677 13.0011 6.59147 13.0215 6.63509 13.0579C6.67871 13.0942 6.70865 13.1444 6.72 13.2L7 14.7C7.05304 14.9652 7.20927 15.1985 7.43431 15.3485C7.65936 15.4986 7.93478 15.553 8.2 15.5C8.46522 15.447 8.6985 15.2907 8.84853 15.0657C8.99856 14.8406 9.05304 14.5652 9 14.3L8.8 13.3C8.79052 13.2636 8.79012 13.2254 8.79883 13.1888C8.80755 13.1522 8.82512 13.1182 8.85 13.09C8.88753 13.0429 8.94079 13.011 9 13H15C15.0363 13.0003 15.0721 13.0085 15.1049 13.0241C15.1377 13.0396 15.1668 13.0621 15.19 13.09C15.2149 13.1182 15.2325 13.1522 15.2412 13.1888C15.2499 13.2254 15.2495 13.2636 15.24 13.3L15.04 14.3C14.987 14.5652 15.0414 14.8406 15.1915 15.0657C15.3415 15.2907 15.5748 15.447 15.84 15.5C16.1052 15.553 16.3806 15.4986 16.6057 15.3485C16.8307 15.1985 16.987 14.9652 17.04 14.7L17.34 13.2C17.3513 13.1444 17.3813 13.0942 17.4249 13.0579C17.4685 13.0215 17.5232 13.0011 17.58 13H18C18.2652 13 18.5196 12.8946 18.7071 12.7071C18.8946 12.5196 19 12.2652 19 12C19 11.7348 18.8946 11.4804 18.7071 11.2929C18.5196 11.1054 18.2652 11 18 11H6C5.73478 11 5.48043 11.1054 5.29289 11.2929C5.10536 11.4804 5 11.7348 5 12Z" fill="#DB0032"/>
</g>
<defs>
<clipPath id="clip0_95_3018">
<rect width="24" height="24" fill="white"/>
</clipPath>
</defs>
</svg>
