<svg width="31" height="57" viewBox="0 0 31 57" fill="none" xmlns="http://www.w3.org/2000/svg">
<path d="M2 28.2842L1.29289 27.5771L0.585786 28.2842L1.29289 28.9913L2 28.2842ZM30.1421 1.14209C30.1421 0.589806 29.6944 0.142091 29.1421 0.142089L20.1421 0.142091C19.5898 0.14209 19.1421 0.589805 19.1421 1.14209C19.1421 1.69438 19.5898 2.14209 20.1421 2.14209L28.1421 2.14209L28.1421 10.1421C28.1421 10.6944 28.5898 11.1421 29.1421 11.1421C29.6944 11.1421 30.1421 10.6944 30.1421 10.1421L30.1421 1.14209ZM29.1421 56.4263C29.6944 56.4263 30.1421 55.9786 30.1421 55.4263L30.1421 46.4263C30.1421 45.874 29.6944 45.4263 29.1421 45.4263C28.5898 45.4263 28.1421 45.874 28.1421 46.4263L28.1421 54.4263L20.1421 54.4263C19.5898 54.4263 19.1421 54.874 19.1421 55.4263C19.1421 55.9786 19.5898 56.4263 20.1421 56.4263L29.1421 56.4263ZM28.4921 53.3621C28.1016 52.9715 27.4684 52.9715 27.0779 53.3621C26.6874 53.7526 26.6874 54.3857 27.0779 54.7763L28.4921 53.3621ZM24.3637 52.0621C24.7542 52.4526 25.3874 52.4526 25.7779 52.0621C26.1684 51.6715 26.1684 51.0384 25.7779 50.6479L24.3637 52.0621ZM23.0637 47.9336C22.6732 47.5431 22.04 47.5431 21.6495 47.9336C21.2589 48.3242 21.2589 48.9573 21.6495 49.3479L23.0637 47.9336ZM18.9353 46.6336C19.3258 47.0242 19.9589 47.0242 20.3495 46.6336C20.74 46.2431 20.74 45.61 20.3495 45.2194L18.9353 46.6336ZM17.6353 42.5052C17.2447 42.1147 16.6116 42.1147 16.221 42.5052C15.8305 42.8957 15.8305 43.5289 16.221 43.9194L17.6353 42.5052ZM13.5068 41.2052C13.8974 41.5958 14.5305 41.5958 14.921 41.2052C15.3116 40.8147 15.3116 40.1815 14.921 39.791L13.5068 41.2052ZM12.2068 37.0768C11.8163 36.6863 11.1831 36.6863 10.7926 37.0768C10.4021 37.4673 10.4021 38.1005 10.7926 38.491L12.2068 37.0768ZM8.07842 35.7768C8.46894 36.1673 9.10211 36.1673 9.49263 35.7768C9.88316 35.3863 9.88316 34.7531 9.49263 34.3626L8.07842 35.7768ZM6.77842 31.6484C6.3879 31.2579 5.75473 31.2579 5.36421 31.6484C4.97369 32.0389 4.97369 32.6721 5.36421 33.0626L6.77842 31.6484ZM2.65 30.3484C3.04052 30.7389 3.67369 30.7389 4.06421 30.3484C4.45474 29.9579 4.45474 29.3247 4.06421 28.9342L2.65 30.3484ZM4.06421 27.6342C4.45474 27.2437 4.45474 26.6105 4.06421 26.22C3.67369 25.8294 3.04052 25.8294 2.65 26.22L4.06421 27.6342ZM5.36421 23.5058C4.97368 23.8963 4.97368 24.5294 5.36421 24.92C5.75473 25.3105 6.3879 25.3105 6.77842 24.92L5.36421 23.5058ZM9.49263 22.2058C9.88315 21.8152 9.88315 21.1821 9.49263 20.7916C9.1021 20.401 8.46894 20.401 8.07842 20.7916L9.49263 22.2058ZM10.7926 18.0773C10.4021 18.4679 10.4021 19.101 10.7926 19.4916C11.1831 19.8821 11.8163 19.8821 12.2068 19.4916L10.7926 18.0773ZM14.921 16.7773C15.3116 16.3868 15.3116 15.7537 14.921 15.3631C14.5305 14.9726 13.8974 14.9726 13.5068 15.3631L14.921 16.7773ZM16.221 12.6489C15.8305 13.0394 15.8305 13.6726 16.221 14.0631C16.6116 14.4537 17.2447 14.4537 17.6353 14.0631L16.221 12.6489ZM20.3495 11.3489C20.74 10.9584 20.74 10.3252 20.3495 9.93472C19.9589 9.54419 19.3258 9.54419 18.9353 9.93472L20.3495 11.3489ZM21.6495 7.22051C21.2589 7.61103 21.2589 8.2442 21.6495 8.63472C22.04 9.02525 22.6731 9.02525 23.0637 8.63472L21.6495 7.22051ZM25.7779 5.92051C26.1684 5.52999 26.1684 4.89682 25.7779 4.5063C25.3874 4.11577 24.7542 4.11577 24.3637 4.5063L25.7779 5.92051ZM27.0779 1.79209C26.6874 2.18261 26.6874 2.81578 27.0779 3.2063C27.4684 3.59683 28.1016 3.59683 28.4921 3.2063L27.0779 1.79209ZM29.8492 54.7192L28.4921 53.3621L27.0779 54.7763L28.435 56.1334L29.8492 54.7192ZM25.7779 50.6479L23.0637 47.9336L21.6495 49.3479L24.3637 52.0621L25.7779 50.6479ZM20.3495 45.2194L17.6353 42.5052L16.221 43.9194L18.9353 46.6336L20.3495 45.2194ZM14.921 39.791L12.2068 37.0768L10.7926 38.491L13.5068 41.2052L14.921 39.791ZM9.49263 34.3626L6.77842 31.6484L5.36421 33.0626L8.07842 35.7768L9.49263 34.3626ZM4.06421 28.9342L2.70711 27.5771L1.29289 28.9913L2.65 30.3484L4.06421 28.9342ZM2.70711 28.9913L4.06421 27.6342L2.65 26.22L1.29289 27.5771L2.70711 28.9913ZM6.77842 24.92L9.49263 22.2058L8.07842 20.7916L5.36421 23.5058L6.77842 24.92ZM12.2068 19.4916L14.921 16.7773L13.5068 15.3631L10.7926 18.0773L12.2068 19.4916ZM17.6353 14.0631L20.3495 11.3489L18.9353 9.93472L16.221 12.6489L17.6353 14.0631ZM23.0637 8.63472L25.7779 5.92051L24.3637 4.5063L21.6495 7.22051L23.0637 8.63472ZM28.4921 3.2063L29.8492 1.8492L28.435 0.434983L27.0779 1.79209L28.4921 3.2063Z" fill="#CCCCCC"/>
</svg>
