<svg width="43" height="16" viewBox="0 0 43 16" fill="none" xmlns="http://www.w3.org/2000/svg">
<path d="M1 7C0.447715 7 0 7.44772 0 8C0 8.55228 0.447715 9 1 9V7ZM42.7071 8.70711C43.0976 8.31658 43.0976 7.68342 42.7071 7.29289L36.3431 0.928932C35.9526 0.538408 35.3195 0.538408 34.9289 0.928932C34.5384 1.31946 34.5384 1.95262 34.9289 2.34315L40.5858 8L34.9289 13.6569C34.5384 14.0474 34.5384 14.6805 34.9289 15.0711C35.3195 15.4616 35.9526 15.4616 36.3431 15.0711L42.7071 8.70711ZM3.05 9C3.60228 9 4.05 8.55228 4.05 8C4.05 7.44772 3.60228 7 3.05 7V9ZM7.15 7C6.59771 7 6.15 7.44772 6.15 8C6.15 8.55228 6.59771 9 7.15 9V7ZM11.25 9C11.8023 9 12.25 8.55228 12.25 8C12.25 7.44772 11.8023 7 11.25 7V9ZM15.35 7C14.7977 7 14.35 7.44772 14.35 8C14.35 8.55228 14.7977 9 15.35 9V7ZM19.45 9C20.0023 9 20.45 8.55228 20.45 8C20.45 7.44772 20.0023 7 19.45 7V9ZM23.55 7C22.9977 7 22.55 7.44772 22.55 8C22.55 8.55228 22.9977 9 23.55 9V7ZM27.65 9C28.2023 9 28.65 8.55228 28.65 8C28.65 7.44772 28.2023 7 27.65 7V9ZM31.75 7C31.1977 7 30.75 7.44772 30.75 8C30.75 8.55228 31.1977 9 31.75 9V7ZM35.85 9C36.4023 9 36.85 8.55228 36.85 8C36.85 7.44772 36.4023 7 35.85 7V9ZM39.95 7C39.3977 7 38.95 7.44772 38.95 8C38.95 8.55228 39.3977 9 39.95 9V7ZM1 9H3.05V7H1V9ZM7.15 9H11.25V7H7.15V9ZM15.35 9H19.45V7H15.35V9ZM23.55 9H27.65V7H23.55V9ZM31.75 9H35.85V7H31.75V9ZM39.95 9H42V7H39.95V9Z" fill="#CCCCCC"/>
</svg>
