<svg width="20" height="20" viewBox="0 0 20 20" fill="none" xmlns="http://www.w3.org/2000/svg">
<g clip-path="url(#clip0_628_34435)">
<path d="M15.0002 12.083C14.2456 12.0821 13.5012 12.2561 12.8252 12.5913C12.7712 12.6155 12.7231 12.6512 12.6843 12.6958C12.6454 12.7404 12.6167 12.7929 12.6002 12.8497C12.5747 12.9631 12.5926 13.082 12.6502 13.183C13.3722 14.3555 13.7531 15.706 13.7502 17.083C13.7523 17.1929 13.7969 17.2976 13.8746 17.3753C13.9523 17.453 14.057 17.4975 14.1668 17.4997H19.5835C19.6382 17.4997 19.6924 17.4889 19.743 17.468C19.7935 17.447 19.8394 17.4163 19.8781 17.3776C19.9168 17.3389 19.9475 17.293 19.9685 17.2425C19.9894 17.1919 20.0002 17.1377 20.0002 17.083C20.0002 15.7569 19.4734 14.4852 18.5357 13.5475C17.598 12.6098 16.3263 12.083 15.0002 12.083Z" fill="#DB0032"/>
<path d="M11.8252 8.54199C11.8252 9.37079 12.1544 10.1656 12.7405 10.7517C13.3265 11.3378 14.1214 11.667 14.9502 11.667C15.779 11.667 16.5739 11.3378 17.1599 10.7517C17.746 10.1656 18.0752 9.37079 18.0752 8.54199C18.0752 7.71319 17.746 6.91833 17.1599 6.33228C16.5739 5.74623 15.779 5.41699 14.9502 5.41699C14.1214 5.41699 13.3265 5.74623 12.7405 6.33228C12.1544 6.91833 11.8252 7.71319 11.8252 8.54199Z" fill="#DB0032"/>
<path d="M2.2915 6.45833C2.2915 7.50815 2.70854 8.51497 3.45087 9.2573C4.1932 9.99963 5.20002 10.4167 6.24984 10.4167C7.29965 10.4167 8.30647 9.99963 9.0488 9.2573C9.79113 8.51497 10.2082 7.50815 10.2082 6.45833C10.2082 5.40852 9.79113 4.4017 9.0488 3.65937C8.30647 2.91704 7.29965 2.5 6.24984 2.5C5.20002 2.5 4.1932 2.91704 3.45087 3.65937C2.70854 4.4017 2.2915 5.40852 2.2915 6.45833Z" fill="#DB0032"/>
<path d="M12.5 17.083C12.5 15.4254 11.8415 13.8357 10.6694 12.6636C9.49732 11.4915 7.9076 10.833 6.25 10.833C4.5924 10.833 3.00269 11.4915 1.83058 12.6636C0.65848 13.8357 0 15.4254 0 17.083C0 17.1935 0.0438987 17.2995 0.122039 17.3776C0.200179 17.4558 0.30616 17.4997 0.416667 17.4997H12.0833C12.1938 17.4997 12.2998 17.4558 12.378 17.3776C12.4561 17.2995 12.5 17.1935 12.5 17.083Z" fill="#DB0032"/>
</g>
<defs>
<clipPath id="clip0_628_34435">
<rect width="20" height="20" fill="white"/>
</clipPath>
</defs>
</svg>
