<svg width="183" height="33" viewBox="0 0 183 33" fill="none" xmlns="http://www.w3.org/2000/svg">
<path d="M91 1.85742L91.2692 0.894333L90.9996 0.818978L90.73 0.894554L91 1.85742ZM181.704 27.9429C182.186 27.6719 182.356 27.0621 182.085 26.5809L177.669 18.7388C177.398 18.2575 176.788 18.0871 176.307 18.3581C175.826 18.6291 175.655 19.2389 175.926 19.7201L179.852 26.6909L172.881 30.6162C172.4 30.8872 172.229 31.497 172.5 31.9782C172.771 32.4595 173.381 32.6299 173.862 32.3589L181.704 27.9429ZM0.19881 26.5816C-0.0717846 27.063 0.0991465 27.6727 0.580596 27.9433L8.42632 32.3529C8.90777 32.6235 9.51743 32.4526 9.78802 31.9711C10.0586 31.4897 9.88769 30.88 9.40623 30.6094L2.43226 26.6897L6.35191 19.7158C6.62251 19.2343 6.45158 18.6247 5.97013 18.3541C5.48867 18.0835 4.87902 18.2544 4.60842 18.7359L0.19881 26.5816ZM3.21405 27.5091C3.74583 27.36 4.05606 26.808 3.90696 26.2763C3.75786 25.7445 3.2059 25.4343 2.67412 25.5834L3.21405 27.5091ZM6.42118 24.5328C5.8894 24.6819 5.57918 25.2338 5.72828 25.7656C5.87738 26.2974 6.42933 26.6076 6.96111 26.4585L6.42118 24.5328ZM10.7082 25.4079C11.24 25.2588 11.5502 24.7069 11.4011 24.1751C11.252 23.6433 10.7 23.3331 10.1682 23.4822L10.7082 25.4079ZM13.9153 22.4316C13.3835 22.5807 13.0733 23.1327 13.2224 23.6644C13.3715 24.1962 13.9235 24.5064 14.4552 24.3573L13.9153 22.4316ZM18.2023 23.3068C18.7341 23.1577 19.0443 22.6057 18.8952 22.0739C18.7461 21.5421 18.1941 21.2319 17.6624 21.381L18.2023 23.3068ZM21.4094 20.3304C20.8776 20.4795 20.5674 21.0315 20.7165 21.5633C20.8656 22.095 21.4176 22.4053 21.9494 22.2562L21.4094 20.3304ZM25.6964 21.2056C26.2282 21.0565 26.5384 20.5045 26.3893 19.9727C26.2402 19.441 25.6883 19.1307 25.1565 19.2798L25.6964 21.2056ZM28.9035 18.2293C28.3718 18.3784 28.0615 18.9303 28.2106 19.4621C28.3597 19.9939 28.9117 20.3041 29.4435 20.155L28.9035 18.2293ZM33.1905 19.1044C33.7223 18.9553 34.0325 18.4033 33.8834 17.8716C33.7343 17.3398 33.1824 17.0296 32.6506 17.1787L33.1905 19.1044ZM36.3977 16.1281C35.8659 16.2772 35.5557 16.8291 35.7048 17.3609C35.8539 17.8927 36.4058 18.2029 36.9376 18.0538L36.3977 16.1281ZM40.6847 17.0032C41.2164 16.8541 41.5267 16.3022 41.3776 15.7704C41.2285 15.2386 40.6765 14.9284 40.1447 15.0775L40.6847 17.0032ZM43.8918 14.0269C43.36 14.176 43.0498 14.728 43.1989 15.2597C43.348 15.7915 43.8999 16.1017 44.4317 15.9526L43.8918 14.0269ZM48.1788 14.9021C48.7106 14.753 49.0208 14.201 48.8717 13.6692C48.7226 13.1374 48.1706 12.8272 47.6388 12.9763L48.1788 14.9021ZM51.3859 11.9257C50.8541 12.0748 50.5439 12.6268 50.693 13.1586C50.8421 13.6903 51.3941 14.0006 51.9258 13.8515L51.3859 11.9257ZM55.6729 12.8009C56.2047 12.6518 56.5149 12.0998 56.3658 11.568C56.2167 11.0363 55.6647 10.726 55.133 10.8751L55.6729 12.8009ZM58.88 9.82455C58.3483 9.97364 58.038 10.5256 58.1871 11.0574C58.3362 11.5892 58.8882 11.8994 59.42 11.7503L58.88 9.82455ZM63.167 10.6997C63.6988 10.5506 64.009 9.99864 63.8599 9.46686C63.7108 8.93509 63.1589 8.62486 62.6271 8.77396L63.167 10.6997ZM66.3742 7.72337C65.8424 7.87247 65.5321 8.42443 65.6813 8.95621C65.8303 9.48799 66.3823 9.79821 66.9141 9.64911L66.3742 7.72337ZM70.6611 8.59852C71.1929 8.44942 71.5032 7.89746 71.3541 7.36569C71.205 6.83391 70.653 6.52368 70.1212 6.67278L70.6611 8.59852ZM73.8683 5.62219C73.3365 5.77129 73.0263 6.32325 73.1754 6.85503C73.3245 7.38681 73.8764 7.69703 74.4082 7.54793L73.8683 5.62219ZM78.1553 6.49734C78.6871 6.34825 78.9973 5.79629 78.8482 5.26451C78.6991 4.73273 78.1471 4.42251 77.6153 4.57161L78.1553 6.49734ZM81.3624 3.52102C80.8306 3.67012 80.5204 4.22208 80.6695 4.75385C80.8186 5.28563 81.3706 5.59585 81.9023 5.44676L81.3624 3.52102ZM85.6494 4.39617C86.1812 4.24707 86.4914 3.69511 86.3423 3.16333C86.1932 2.63155 85.6412 2.32133 85.1095 2.47043L85.6494 4.39617ZM88.8565 1.41984C88.3247 1.56894 88.0145 2.1209 88.1636 2.65268C88.3127 3.18446 88.8647 3.49468 89.3965 3.34558L88.8565 1.41984ZM92.6103 3.34581C93.1422 3.49447 93.6939 3.1838 93.8425 2.65189C93.9912 2.11999 93.6805 1.56829 93.1486 1.41963L92.6103 3.34581ZM96.9075 2.47021C96.3756 2.32155 95.8239 2.63223 95.6753 3.16413C95.5266 3.69603 95.8373 4.24773 96.3692 4.39639L96.9075 2.47021ZM100.128 5.44698C100.66 5.59564 101.212 5.28497 101.36 4.75307C101.509 4.22117 101.198 3.66946 100.666 3.5208L100.128 5.44698ZM104.425 4.57139C103.893 4.42273 103.342 4.7334 103.193 5.2653C103.044 5.7972 103.355 6.34891 103.887 6.49757L104.425 4.57139ZM107.646 7.54816C108.178 7.69682 108.729 7.38615 108.878 6.85424C109.027 6.32234 108.716 5.77064 108.184 5.62198L107.646 7.54816ZM111.943 6.67257C111.411 6.5239 110.86 6.83458 110.711 7.36648C110.562 7.89838 110.873 8.45008 111.405 8.59874L111.943 6.67257ZM115.164 9.64933C115.696 9.798 116.247 9.48732 116.396 8.95542C116.545 8.42352 116.234 7.87182 115.702 7.72316L115.164 9.64933ZM119.461 8.77374C118.929 8.62508 118.377 8.93576 118.229 9.46766C118.08 9.99956 118.391 10.5513 118.923 10.6999L119.461 8.77374ZM122.681 11.7505C123.213 11.8992 123.765 11.5885 123.914 11.0566C124.062 10.5247 123.752 9.97299 123.22 9.82433L122.681 11.7505ZM126.979 10.8749C126.447 10.7263 125.895 11.0369 125.746 11.5688C125.598 12.1007 125.908 12.6524 126.44 12.8011L126.979 10.8749ZM130.199 13.8517C130.731 14.0004 131.283 13.6897 131.432 13.1578C131.58 12.6259 131.27 12.0742 130.738 11.9255L130.199 13.8517ZM134.497 12.9761C133.965 12.8274 133.413 13.1381 133.264 13.67C133.116 14.2019 133.426 14.7536 133.958 14.9023L134.497 12.9761ZM137.717 15.9529C138.249 16.1015 138.801 15.7909 138.949 15.259C139.098 14.727 138.787 14.1753 138.255 14.0267L137.717 15.9529ZM142.014 15.0773C141.482 14.9286 140.931 15.2393 140.782 15.7712C140.633 16.3031 140.944 16.8548 141.476 17.0035L142.014 15.0773ZM145.235 18.054C145.767 18.2027 146.318 17.892 146.467 17.3601C146.616 16.8282 146.305 16.2765 145.773 16.1279L145.235 18.054ZM149.532 17.1784C149 17.0298 148.449 17.3405 148.3 17.8724C148.151 18.4043 148.462 18.956 148.994 19.1046L149.532 17.1784ZM152.753 20.1552C153.285 20.3039 153.836 19.9932 153.985 19.4613C154.134 18.9294 153.823 18.3777 153.291 18.229L152.753 20.1552ZM157.05 19.2796C156.518 19.131 155.966 19.4416 155.818 19.9735C155.669 20.5054 155.98 21.0571 156.512 21.2058L157.05 19.2796ZM160.27 22.2564C160.802 22.4051 161.354 22.0944 161.503 21.5625C161.651 21.0306 161.341 20.4789 160.809 20.3302L160.27 22.2564ZM164.568 21.3808C164.036 21.2321 163.484 21.5428 163.335 22.0747C163.187 22.6066 163.497 23.1583 164.029 23.307L164.568 21.3808ZM167.788 24.3576C168.32 24.5062 168.872 24.1956 169.021 23.6636C169.169 23.1318 168.859 22.58 168.327 22.4314L167.788 24.3576ZM172.086 23.482C171.554 23.3333 171.002 23.644 170.853 24.1759C170.705 24.7078 171.015 25.2595 171.547 25.4082L172.086 23.482ZM175.306 26.4587C175.838 26.6074 176.39 26.2967 176.538 25.7648C176.687 25.2329 176.376 24.6812 175.844 24.5326L175.306 26.4587ZM179.603 25.5831C179.071 25.4345 178.52 25.7452 178.371 26.2771C178.222 26.809 178.533 27.3607 179.065 27.5093L179.603 25.5831ZM1.34052 28.0344L3.21405 27.5091L2.67412 25.5834L0.800592 26.1087L1.34052 28.0344ZM6.96111 26.4585L10.7082 25.4079L10.1682 23.4822L6.42118 24.5328L6.96111 26.4585ZM14.4552 24.3573L18.2023 23.3068L17.6624 21.381L13.9153 22.4316L14.4552 24.3573ZM21.9494 22.2562L25.6964 21.2056L25.1565 19.2798L21.4094 20.3304L21.9494 22.2562ZM29.4435 20.155L33.1905 19.1044L32.6506 17.1787L28.9035 18.2293L29.4435 20.155ZM36.9376 18.0538L40.6847 17.0032L40.1447 15.0775L36.3977 16.1281L36.9376 18.0538ZM44.4317 15.9526L48.1788 14.9021L47.6388 12.9763L43.8918 14.0269L44.4317 15.9526ZM51.9258 13.8515L55.6729 12.8009L55.133 10.8751L51.3859 11.9257L51.9258 13.8515ZM59.42 11.7503L63.167 10.6997L62.6271 8.77396L58.88 9.82455L59.42 11.7503ZM66.9141 9.64911L70.6611 8.59852L70.1212 6.67278L66.3742 7.72337L66.9141 9.64911ZM74.4082 7.54793L78.1553 6.49734L77.6153 4.57161L73.8683 5.62219L74.4082 7.54793ZM81.9023 5.44676L85.6494 4.39617L85.1095 2.47043L81.3624 3.52102L81.9023 5.44676ZM89.3965 3.34558L91.27 2.82029L90.73 0.894554L88.8565 1.41984L89.3965 3.34558ZM90.7308 2.82051L92.6103 3.34581L93.1486 1.41963L91.2692 0.894333L90.7308 2.82051ZM96.3692 4.39639L100.128 5.44698L100.666 3.5208L96.9075 2.47021L96.3692 4.39639ZM103.887 6.49757L107.646 7.54816L108.184 5.62198L104.425 4.57139L103.887 6.49757ZM111.405 8.59874L115.164 9.64933L115.702 7.72316L111.943 6.67257L111.405 8.59874ZM118.923 10.6999L122.681 11.7505L123.22 9.82433L119.461 8.77374L118.923 10.6999ZM126.44 12.8011L130.199 13.8517L130.738 11.9255L126.979 10.8749L126.44 12.8011ZM133.958 14.9023L137.717 15.9529L138.255 14.0267L134.497 12.9761L133.958 14.9023ZM141.476 17.0035L145.235 18.054L145.773 16.1279L142.014 15.0773L141.476 17.0035ZM148.994 19.1046L152.753 20.1552L153.291 18.229L149.532 17.1784L148.994 19.1046ZM156.512 21.2058L160.27 22.2564L160.809 20.3302L157.05 19.2796L156.512 21.2058ZM164.029 23.307L167.788 24.3576L168.327 22.4314L164.568 21.3808L164.029 23.307ZM171.547 25.4082L175.306 26.4587L175.844 24.5326L172.086 23.482L171.547 25.4082ZM179.065 27.5093L180.944 28.0346L181.483 26.1084L179.603 25.5831L179.065 27.5093Z" fill="#CCCCCC"/>
</svg>
