<svg width="20" height="20" viewBox="0 0 20 20" fill="none" xmlns="http://www.w3.org/2000/svg">
<g clip-path="url(#clip0_645_34390)">
<path d="M16.2487 0H3.7487C3.30667 0 2.88275 0.175595 2.57019 0.488155C2.25763 0.800716 2.08203 1.22464 2.08203 1.66667V18.3333C2.08156 18.6336 2.16221 18.9284 2.31545 19.1866C2.46868 19.4448 2.68882 19.6568 2.9526 19.8002C3.21638 19.9436 3.514 20.0131 3.81402 20.0013C4.11403 19.9896 4.4053 19.897 4.65703 19.7333L9.88203 16.35C9.91603 16.3256 9.95684 16.3124 9.9987 16.3124C10.0406 16.3124 10.0814 16.3256 10.1154 16.35L15.3404 19.7333C15.5926 19.8977 15.8845 19.9907 16.1853 20.0024C16.4861 20.0141 16.7845 19.9442 17.0487 19.8C17.3055 19.6518 17.5181 19.4377 17.6646 19.1799C17.8111 18.9221 17.8862 18.6298 17.882 18.3333V1.66667C17.8821 1.23035 17.7111 0.811406 17.4057 0.499786C17.1003 0.188166 16.6849 0.00872624 16.2487 0ZM12.9154 11.2583C12.9408 11.3145 12.9473 11.3774 12.9338 11.4376C12.9202 11.4977 12.8874 11.5518 12.8404 11.5917C12.7925 11.6282 12.7339 11.6479 12.6737 11.6479C12.6135 11.6479 12.5549 11.6282 12.507 11.5917L10.132 10.2583C10.1011 10.2423 10.0668 10.2339 10.032 10.2339C9.99722 10.2339 9.96292 10.2423 9.93203 10.2583L7.4987 11.6667C7.4508 11.7032 7.39225 11.7229 7.33203 11.7229C7.27182 11.7229 7.21326 11.7032 7.16537 11.6667C7.1183 11.6268 7.08551 11.5727 7.07197 11.5126C7.05843 11.4524 7.06489 11.3895 7.09037 11.3333L8.06537 9.08333C8.08262 9.04275 8.08707 8.99787 8.07814 8.95469C8.0692 8.9115 8.0473 8.87207 8.01537 8.84167L6.3487 7.35C6.30401 7.3103 6.2722 7.25815 6.25735 7.20024C6.24251 7.14233 6.2453 7.08131 6.26537 7.025C6.28728 6.97021 6.32529 6.92335 6.37439 6.89062C6.42349 6.85789 6.48136 6.84082 6.54037 6.84167H8.53203C8.58197 6.84231 8.63047 6.82499 8.66871 6.79287C8.70695 6.76075 8.73238 6.71596 8.74037 6.66667L9.73203 4.36667C9.75491 4.31503 9.79229 4.27115 9.83962 4.24034C9.88696 4.20954 9.94222 4.19315 9.9987 4.19315C10.0552 4.19315 10.1104 4.20954 10.1578 4.24034C10.2051 4.27115 10.2425 4.31503 10.2654 4.36667L11.257 6.66667C11.2733 6.70393 11.3001 6.73563 11.3342 6.75784C11.3682 6.78005 11.408 6.79181 11.4487 6.79167H13.4404C13.4994 6.79082 13.5572 6.80789 13.6063 6.84062C13.6554 6.87335 13.6935 6.92021 13.7154 6.975C13.7354 7.03131 13.7382 7.09233 13.7234 7.15024C13.7085 7.20815 13.6767 7.2603 13.632 7.3L11.9654 8.79167C11.9334 8.82207 11.9115 8.8615 11.9026 8.90469C11.8937 8.94787 11.8981 8.99275 11.9154 9.03333L12.9154 11.2583Z" fill="#DB0032"/>
</g>
<defs>
<clipPath id="clip0_645_34390">
<rect width="20" height="20" fill="white"/>
</clipPath>
</defs>
</svg>
