<svg width="24" height="25" viewBox="0 0 24 25" fill="none" xmlns="http://www.w3.org/2000/svg">
<g clip-path="url(#clip0_518_24412)">
<path d="M22.7219 10.8503L20.8819 9.37029C20.7343 9.25252 20.6199 9.09844 20.5497 8.92315C20.4796 8.74785 20.4562 8.55734 20.4819 8.37029L20.7319 6.03029C20.7666 5.71936 20.7311 5.4046 20.6279 5.10924C20.5247 4.81387 20.3566 4.54543 20.1358 4.32373C19.9151 4.10202 19.6474 3.9327 19.3525 3.82826C19.0576 3.72382 18.743 3.68692 18.4319 3.72029L16.0819 3.97029C15.8948 3.99593 15.7043 3.97255 15.529 3.90243C15.3537 3.83231 15.1996 3.71786 15.0819 3.57029L13.6319 1.76029C13.4291 1.5271 13.1787 1.34013 12.8975 1.21201C12.6163 1.08388 12.3109 1.01758 12.0019 1.01758C11.6929 1.01758 11.3874 1.08388 11.1063 1.21201C10.8251 1.34013 10.5746 1.5271 10.3719 1.76029L8.89187 3.60029C8.7741 3.74786 8.62003 3.86231 8.44473 3.93243C8.26943 4.00255 8.07892 4.02593 7.89187 4.00029L5.57187 3.75029C5.26079 3.71692 4.94619 3.75382 4.65128 3.85826C4.35636 3.9627 4.08866 4.13202 3.86791 4.35373C3.64716 4.57543 3.47901 4.84387 3.37585 5.13924C3.27269 5.4346 3.23715 5.74936 3.27187 6.06029L3.52187 8.40029C3.54751 8.58734 3.52413 8.77785 3.45401 8.95315C3.38389 9.12845 3.26944 9.28252 3.12187 9.40029L1.28187 10.8503C1.03784 11.0461 0.840903 11.2943 0.705579 11.5764C0.570254 11.8585 0.5 12.1674 0.5 12.4803C0.5 12.7932 0.570254 13.1021 0.705579 13.3842C0.840903 13.6663 1.03784 13.9145 1.28187 14.1103L3.12187 15.5903C3.26868 15.7087 3.38258 15.8629 3.45263 16.038C3.52268 16.2131 3.54652 16.4033 3.52187 16.5903L3.27187 18.9403C3.23721 19.2506 3.27318 19.5646 3.37709 19.859C3.48099 20.1534 3.65014 20.4205 3.87187 20.6403C4.08849 20.8664 4.35516 21.0385 4.65043 21.1427C4.94571 21.2469 5.26132 21.2803 5.57187 21.2403L7.92187 20.9903C8.10892 20.9646 8.29943 20.988 8.47473 21.0582C8.65003 21.1283 8.8041 21.2427 8.92187 21.3903L10.4019 23.2303C10.5977 23.4743 10.8458 23.6713 11.128 23.8066C11.4101 23.9419 11.719 24.0122 12.0319 24.0122C12.3448 24.0122 12.6537 23.9419 12.9358 23.8066C13.2179 23.6713 13.466 23.4743 13.6619 23.2303L15.1419 21.3903C15.2596 21.2427 15.4137 21.1283 15.589 21.0582C15.7643 20.988 15.9548 20.9646 16.1419 20.9903L18.4919 21.2403C18.8024 21.2803 19.118 21.2469 19.4133 21.1427C19.7086 21.0385 19.9753 20.8664 20.1919 20.6403C20.4136 20.4205 20.5828 20.1534 20.6867 19.859C20.7906 19.5646 20.8265 19.2506 20.7919 18.9403L20.5419 16.5903C20.5172 16.4033 20.5411 16.2131 20.6111 16.038C20.6812 15.8629 20.7951 15.7087 20.9419 15.5903L22.7819 14.1103C23.0259 13.9145 23.2228 13.6663 23.3582 13.3842C23.4935 13.1021 23.5637 12.7932 23.5637 12.4803C23.5637 12.1674 23.4935 11.8585 23.3582 11.5764C23.2228 11.2943 23.0259 11.0461 22.7819 10.8503H22.7219ZM12.4019 15.5503C12.2478 15.7508 12.0529 15.9164 11.8302 16.0362C11.6074 16.156 11.3618 16.2272 11.1096 16.2451C10.8573 16.2631 10.6041 16.2274 10.3666 16.1404C10.1291 16.0533 9.91281 15.917 9.73187 15.7403L7.29187 13.3003C7.19863 13.2071 7.12467 13.0964 7.07421 12.9745C7.02375 12.8527 6.99778 12.7222 6.99778 12.5903C6.99778 12.4584 7.02375 12.3279 7.07421 12.206C7.12467 12.0842 7.19863 11.9735 7.29187 11.8803C7.38511 11.7871 7.4958 11.7131 7.61762 11.6626C7.73944 11.6122 7.87001 11.5862 8.00187 11.5862C8.13373 11.5862 8.2643 11.6122 8.38612 11.6626C8.50794 11.7131 8.61863 11.7871 8.71187 11.8803L11.0019 14.1303L14.9119 8.92029C15.071 8.70812 15.3079 8.56785 15.5704 8.53034C15.7005 8.51177 15.8328 8.51899 15.9601 8.55158C16.0873 8.58417 16.2068 8.6415 16.3119 8.72029C16.4169 8.79909 16.5054 8.8978 16.5723 9.0108C16.6393 9.1238 16.6832 9.24887 16.7018 9.37887C16.7204 9.50887 16.7132 9.64126 16.6806 9.76847C16.648 9.89569 16.5907 10.0152 16.5119 10.1203L12.4019 15.5503Z" fill="#DB0032"/>
</g>
<defs>
<clipPath id="clip0_518_24412">
<rect width="24" height="24" fill="white" transform="translate(0 0.5)"/>
</clipPath>
</defs>
</svg>
