<svg width="25" height="25" viewBox="0 0 25 25" fill="none" xmlns="http://www.w3.org/2000/svg">
<g clip-path="url(#clip0_518_24393)">
<path fill-rule="evenodd" clip-rule="evenodd" d="M12.4832 1.12305C13.1118 1.12305 13.7316 1.20785 14.3274 1.37105V4.99935C14.3274 5.41435 14.6639 5.75075 15.0788 5.75075C15.4937 5.75075 15.8303 5.41435 15.8303 4.99935V1.97775C16.409 2.29395 16.9449 2.69315 17.4196 3.16775C18.6559 4.40415 19.3807 6.05665 19.4574 7.79605H5.50899C5.58569 6.05665 6.31039 4.40415 7.54689 3.16775C8.02149 2.69315 8.55739 2.29395 9.13599 1.97785V4.99935C9.13599 5.41435 9.47239 5.75075 9.88739 5.75075C10.3024 5.75075 10.6388 5.41435 10.6388 4.99935V1.37115C11.2347 1.20785 11.8545 1.12305 12.4832 1.12305ZM19.4479 9.29895H20.2702C20.6852 9.29895 21.0217 9.63535 21.0217 10.0503C21.0217 10.4653 20.6852 10.8018 20.2702 10.8018H18.6819L18.1387 12.1397C18.0236 12.4231 17.7483 12.6085 17.4425 12.6085H7.52369C7.21789 12.6085 6.94249 12.4231 6.82749 12.1397L6.28429 10.8018H4.69619C4.28119 10.8018 3.94479 10.4653 3.94479 10.0503C3.94479 9.63535 4.28119 9.29895 4.69619 9.29895H19.4479ZM3.93569 23.8778L1.80669 21.1952C1.12209 20.3481 0.746687 19.293 0.742188 18.204V12.7004C0.742188 12.2769 0.910388 11.8708 1.20989 11.5713C1.50929 11.2719 1.91549 11.1036 2.33899 11.1036C2.76249 11.1036 3.16859 11.2719 3.46799 11.5713C3.76749 11.8708 3.93569 12.2769 3.93569 12.7004L3.94739 14.2199C3.92889 14.2302 3.91059 14.2414 3.89269 14.2535C3.40909 14.5786 3.06069 15.0688 2.91279 15.6324C2.76479 16.196 2.82739 16.7941 3.08879 17.3149C3.09799 17.3331 3.10789 17.351 3.11859 17.3685L4.72629 20.009C4.94209 20.3634 5.40449 20.4757 5.75889 20.2599C6.11339 20.0441 6.22579 19.5819 6.00989 19.2274L4.42059 16.6171C4.33279 16.4288 4.31349 16.2155 4.36629 16.014C4.42139 15.8042 4.55119 15.6217 4.73119 15.5006C4.74429 15.4918 4.75699 15.4827 4.76929 15.4732C4.88499 15.4179 5.00749 15.3774 5.13409 15.3532C5.33439 15.3147 5.54049 15.3174 5.73979 15.3613C5.93899 15.4051 6.12719 15.4891 6.29299 15.6082C6.45869 15.7272 6.59839 15.8787 6.70349 16.0535L7.91709 17.8845C8.44609 18.667 8.72799 19.5905 8.72609 20.5352V23.8778H3.93569ZM21.0687 23.8778L23.1977 21.1952C23.8823 20.3481 24.2578 19.293 24.2622 18.204V12.7004C24.2622 12.2769 24.094 11.8708 23.7945 11.5713C23.4951 11.2719 23.089 11.1036 22.6655 11.1036C22.242 11.1036 21.8358 11.2719 21.5364 11.5713C21.2369 11.8708 21.0687 12.2769 21.0687 12.7004L21.057 14.2199C21.0756 14.2302 21.0938 14.2414 21.1118 14.2535C21.5953 14.5786 21.9437 15.0688 22.0916 15.6324C22.2396 16.196 22.1771 16.7941 21.9156 17.3149C21.9065 17.3331 21.8965 17.351 21.8858 17.3685L20.2781 20.009C20.0623 20.3634 19.6 20.4757 19.2455 20.2599C18.8911 20.0441 18.7786 19.5819 18.9945 19.2274L20.5839 16.6171C20.6716 16.4288 20.691 16.2155 20.6381 16.014C20.583 15.8042 20.4533 15.6217 20.2733 15.5006C20.2601 15.4918 20.2474 15.4827 20.2351 15.4732C20.1195 15.4179 19.9968 15.3774 19.8704 15.3532C19.67 15.3147 19.4639 15.3174 19.2647 15.3613C19.0654 15.4051 18.8771 15.4891 18.7115 15.6082C18.5458 15.7272 18.406 15.8787 18.3009 16.0535L17.0873 17.8845C16.5583 18.667 16.2764 19.5905 16.2783 20.5352V23.8778H21.0687Z" fill="#DB0032"/>
</g>
<defs>
<clipPath id="clip0_518_24393">
<rect width="24" height="24" fill="white" transform="translate(0.5 0.5)"/>
</clipPath>
</defs>
</svg>
