<svg width="25" height="25" viewBox="0 0 25 25" fill="none" xmlns="http://www.w3.org/2000/svg">
<g clip-path="url(#clip0_518_24415)">
<path d="M16.7031 17.6004C16.7031 17.9955 16.8601 18.3745 17.1395 18.6539C17.419 18.9334 17.798 19.0904 18.1931 19.0904C18.5883 19.0904 18.9673 18.9334 19.2467 18.6539C19.5261 18.3745 19.6831 17.9955 19.6831 17.6004C19.6831 17.2052 19.5261 16.8262 19.2467 16.5468C18.9673 16.2673 18.5883 16.1104 18.1931 16.1104C17.798 16.1104 17.419 16.2673 17.1395 16.5468C16.8601 16.8262 16.7031 17.2052 16.7031 17.6004Z" fill="#DB0032"/>
<path d="M22.9215 17.9102C22.8442 17.8255 22.8013 17.7149 22.8013 17.6002C22.8013 17.4855 22.8442 17.375 22.9215 17.2902L23.9215 16.2902C24.182 16.0126 24.3461 15.6583 24.3893 15.28C24.4326 14.9017 24.3527 14.5195 24.1615 14.1902C23.9759 13.8613 23.6878 13.6021 23.3411 13.4522C22.9944 13.3023 22.6082 13.27 22.2415 13.3602L20.8415 13.6902C20.7305 13.7129 20.615 13.6938 20.5172 13.6366C20.4194 13.5794 20.3461 13.4881 20.3115 13.3802L19.8915 12.0002C19.7854 11.6367 19.5644 11.3174 19.2615 11.0902C18.9585 10.863 18.5901 10.7402 18.2115 10.7402C17.8328 10.7402 17.4644 10.863 17.1615 11.0902C16.8585 11.3174 16.6375 11.6367 16.5315 12.0002L16.1115 13.3802C16.0768 13.4881 16.0036 13.5794 15.9058 13.6366C15.808 13.6938 15.6925 13.7129 15.5815 13.6902L14.1815 13.3602C13.8161 13.2707 13.4315 13.3034 13.0866 13.4533C12.7416 13.6032 12.4553 13.8621 12.2715 14.1902C12.0758 14.5175 11.9923 14.8998 12.0338 15.2789C12.0754 15.6579 12.2396 16.0131 12.5015 16.2902L13.5015 17.2902C13.5788 17.375 13.6216 17.4855 13.6216 17.6002C13.6216 17.7149 13.5788 17.8255 13.5015 17.9102L12.5015 18.9602C12.2396 19.2374 12.0754 19.5925 12.0338 19.9716C11.9923 20.3507 12.0758 20.7329 12.2715 21.0602C12.4553 21.3884 12.7416 21.6472 13.0866 21.7972C13.4315 21.9471 13.8161 21.9798 14.1815 21.8902L15.5815 21.5602C15.6925 21.5376 15.808 21.5567 15.9058 21.6139C16.0036 21.6711 16.0768 21.7624 16.1115 21.8702L16.5015 23.2502C16.6075 23.6137 16.8285 23.933 17.1315 24.1602C17.4344 24.3874 17.8028 24.5102 18.1815 24.5102C18.5601 24.5102 18.9285 24.3874 19.2315 24.1602C19.5344 23.933 19.7554 23.6137 19.8615 23.2502L20.2815 21.8702C20.3161 21.7624 20.3894 21.6711 20.4872 21.6139C20.585 21.5567 20.7005 21.5376 20.8115 21.5602L22.2115 21.8902C22.5782 21.9804 22.9644 21.9481 23.3111 21.7983C23.6578 21.6484 23.9459 21.3892 24.1315 21.0602C24.3227 20.7309 24.4026 20.3488 24.3593 19.9705C24.3161 19.5922 24.152 19.2379 23.8915 18.9602L22.9215 17.9102ZM18.1915 20.5702C17.5981 20.5702 17.0181 20.3943 16.5248 20.0646C16.0314 19.735 15.6469 19.2665 15.4198 18.7183C15.1928 18.1701 15.1334 17.5669 15.2491 16.985C15.3649 16.403 15.6506 15.8685 16.0701 15.4489C16.4897 15.0294 17.0243 14.7436 17.6062 14.6279C18.1881 14.5121 18.7913 14.5715 19.3395 14.7986C19.8877 15.0257 20.3562 15.4102 20.6859 15.9035C21.0155 16.3969 21.1915 16.9769 21.1915 17.5702C21.1915 18.3659 20.8754 19.1289 20.3128 19.6916C19.7502 20.2542 18.9871 20.5702 18.1915 20.5702Z" fill="#DB0032"/>
<path d="M15.0894 23.6801C15.0502 23.5607 14.9683 23.46 14.8594 23.3972C14.7505 23.3345 14.6223 23.3141 14.4994 23.3401C14.2538 23.3996 14.0021 23.4298 13.7494 23.4301C13.2945 23.4319 12.8445 23.3354 12.4303 23.1473C12.0161 22.9592 11.6474 22.6838 11.3494 22.3401C11.2701 22.2547 11.1645 22.1983 11.0494 22.1801C10.0023 22.0095 8.9894 21.6719 8.04938 21.1801V19.9201C8.04985 19.5576 8.12978 19.1996 8.28355 18.8713C8.43732 18.5431 8.66118 18.2525 8.93937 18.0201C9.63886 17.4304 10.1401 16.6399 10.3751 15.7558C10.6101 14.8716 10.5675 13.9365 10.2531 13.0774C9.93871 12.2182 9.3677 11.4766 8.61751 10.9529C7.86732 10.4293 6.97424 10.149 6.05937 10.1501H2.85938C3.21919 8.57991 3.95747 7.12152 5.00992 5.90196C6.06237 4.68241 7.39706 3.7387 8.89771 3.15303C10.3984 2.56736 12.0195 2.35751 13.6198 2.54175C15.2201 2.72599 16.7511 3.29874 18.0794 4.2101H14.7294C14.3576 4.18757 13.9852 4.24134 13.635 4.36809C13.2849 4.49485 12.9643 4.69192 12.6931 4.94717C12.4219 5.20242 12.2058 5.51045 12.0581 5.85233C11.9104 6.1942 11.8342 6.56268 11.8342 6.9351C11.8342 7.30752 11.9104 7.676 12.0581 8.01787C12.2058 8.35975 12.4219 8.66778 12.6931 8.92303C12.9643 9.17828 13.2849 9.37535 13.635 9.5021C13.9852 9.62886 14.3576 9.68263 14.7294 9.6601C15.1958 9.66415 15.6522 9.79555 16.0494 10.0401C16.6345 9.50777 17.3984 9.21505 18.1894 9.2201C18.8856 9.2154 19.5645 9.43721 20.1237 9.85208C20.6829 10.267 21.092 10.8524 21.2894 11.5201C21.3265 11.6387 21.4065 11.7393 21.5137 11.8021C21.6209 11.865 21.7477 11.8857 21.8694 11.8601C22.1149 11.8006 22.3667 11.7704 22.6194 11.7701C22.9773 11.767 23.3329 11.8279 23.6694 11.9501C23.7476 11.9768 23.8312 11.9836 23.9127 11.9701C23.9942 11.9565 24.0711 11.923 24.1364 11.8725C24.2018 11.822 24.2537 11.756 24.2873 11.6806C24.321 11.6051 24.3354 11.5225 24.3294 11.4401C24.0785 8.38766 22.6584 5.55004 20.3656 3.51948C18.0727 1.48893 15.0843 0.422343 12.0239 0.542332C8.96349 0.662322 6.06769 1.95962 3.94085 4.16346C1.81402 6.3673 0.62049 9.30738 0.609375 12.3701C0.609375 17.2401 4.60938 24.2501 12.4894 24.2501C13.2958 24.2482 14.0999 24.1644 14.8894 24.0001C14.9229 23.9922 14.9544 23.9774 14.9819 23.9568C15.0094 23.9361 15.0324 23.91 15.0494 23.8801C15.0692 23.8512 15.0829 23.8186 15.0898 23.7842C15.0967 23.7498 15.0965 23.7144 15.0894 23.6801Z" fill="#DB0032"/>
</g>
<defs>
<clipPath id="clip0_518_24415">
<rect width="24" height="24" fill="white" transform="translate(0.5 0.5)"/>
</clipPath>
</defs>
</svg>
