<svg width="25" height="25" viewBox="0 0 25 25" fill="none" xmlns="http://www.w3.org/2000/svg">
<g clip-path="url(#clip0_518_24386)">
<path d="M18.2529 15C17.3475 14.999 16.4541 15.2078 15.6429 15.61C15.5782 15.639 15.5205 15.6818 15.4739 15.7353C15.4272 15.7888 15.3928 15.8519 15.3729 15.92C15.3424 16.0562 15.3638 16.1988 15.4329 16.32C16.2993 17.727 16.7564 19.3476 16.7529 21C16.7555 21.1318 16.809 21.2575 16.9022 21.3507C16.9954 21.4439 17.1211 21.4974 17.2529 21.5H23.7529C23.8186 21.5 23.8836 21.4871 23.9443 21.4619C24.005 21.4368 24.0601 21.4 24.1065 21.3536C24.1529 21.3071 24.1898 21.252 24.2149 21.1913C24.24 21.1307 24.2529 21.0657 24.2529 21C24.2529 19.4087 23.6208 17.8826 22.4956 16.7574C21.3704 15.6321 19.8442 15 18.2529 15Z" fill="#DB0032"/>
<path d="M14.4375 10.75C14.4375 11.7446 14.8326 12.6984 15.5359 13.4016C16.2391 14.1049 17.1929 14.5 18.1875 14.5C19.1821 14.5 20.1359 14.1049 20.8391 13.4016C21.5424 12.6984 21.9375 11.7446 21.9375 10.75C21.9375 9.75544 21.5424 8.80161 20.8391 8.09835C20.1359 7.39509 19.1821 7 18.1875 7C17.1929 7 16.2391 7.39509 15.5359 8.09835C14.8326 8.80161 14.4375 9.75544 14.4375 10.75Z" fill="#DB0032"/>
<path d="M3 8.25C3 9.50978 3.50045 10.718 4.39124 11.6088C5.28204 12.4996 6.49022 13 7.75 13C9.00978 13 10.218 12.4996 11.1088 11.6088C11.9996 10.718 12.5 9.50978 12.5 8.25C12.5 6.99022 11.9996 5.78204 11.1088 4.89124C10.218 4.00044 9.00978 3.5 7.75 3.5C6.49022 3.5 5.28204 4.00044 4.39124 4.89124C3.50045 5.78204 3 6.99022 3 8.25Z" fill="#DB0032"/>
<path d="M15.25 21C15.25 19.0109 14.4598 17.1032 13.0533 15.6967C11.6468 14.2902 9.73912 13.5 7.75 13.5C5.76088 13.5 3.85322 14.2902 2.4467 15.6967C1.04018 17.1032 0.25 19.0109 0.25 21C0.25 21.1326 0.302678 21.2598 0.396447 21.3536C0.490215 21.4473 0.617392 21.5 0.75 21.5H14.75C14.8826 21.5 15.0098 21.4473 15.1036 21.3536C15.1973 21.2598 15.25 21.1326 15.25 21Z" fill="#DB0032"/>
</g>
<defs>
<clipPath id="clip0_518_24386">
<rect width="24" height="24" fill="white" transform="translate(0.25 0.5)"/>
</clipPath>
</defs>
</svg>
