<svg width="40" height="40" viewBox="0 0 40 40" fill="none" xmlns="http://www.w3.org/2000/svg">
<path d="M5 9H35V29C35 31.2091 33.2091 33 31 33H9C6.79086 33 5 31.2091 5 29V9Z" fill="#F45277"/>
<path d="M18.1511 0.496332C19.3097 -0.107635 20.6903 -0.107635 21.8489 0.496332L38.5986 9.22737C40.0326 9.97489 40.0326 12.0269 38.5986 12.7744L21.8489 21.5054C20.6903 22.1094 19.3097 22.1094 18.151 21.5054L1.40142 12.7744C-0.0326156 12.0269 -0.0326132 9.97489 1.40142 9.22737L18.1511 0.496332Z" fill="#DB0032"/>
<path d="M29.5 17V29.5" stroke="#DB0032" stroke-width="2"/>
<path d="M32 31.5C32 32.8807 30.8807 34 29.5 34C28.1193 34 27 32.8807 27 31.5C27 30.1193 28.1193 29 29.5 29C30.8807 29 32 30.1193 32 31.5Z" fill="#DB0032"/>
<path d="M26 35.5C26 33.567 27.567 32 29.5 32C31.433 32 33 33.567 33 35.5V40H26V35.5Z" fill="#DB0032"/>
</svg>
