<svg width="40" height="40" viewBox="0 0 40 40" fill="none" xmlns="http://www.w3.org/2000/svg">
<path d="M0 4C0 1.79086 1.79086 0 4 0H28C30.2091 0 32 1.79086 32 4V29L21 40H4C1.79086 40 0 38.2091 0 36V4Z" fill="#DB0032"/>
<path d="M21 31V40L32 29H23C21.8954 29 21 29.8954 21 31Z" fill="#F45277"/>
<path d="M24.1095 20.699C23.8999 20.9087 23.6462 21.0692 23.3668 21.1687L18.8621 22.7745C18.0678 23.0576 17.3013 22.291 17.5844 21.4967L19.1901 16.992C19.2897 16.7127 19.4501 16.459 19.6598 16.2493L34.4967 1.41233C35.2778 0.631282 36.5441 0.631281 37.3252 1.41233L38.9465 3.03367C39.7276 3.81472 39.7276 5.08104 38.9465 5.86209L24.1095 20.699Z" fill="#F45277"/>
</svg>
