<svg width="40" height="40" viewBox="0 0 40 40" fill="none" xmlns="http://www.w3.org/2000/svg">
<path d="M39.0493 3.32705C40.1937 2.03675 39.2776 0 37.553 0H29.9764C29.4043 0 28.8597 0.244964 28.4801 0.672954L16.9507 13.673C15.8063 14.9632 16.7224 17 18.447 17H26.0236C26.5957 17 27.1403 16.755 27.5199 16.327L39.0493 3.32705Z" fill="#F45277"/>
<path d="M21.3218 18.8248V18.711C21.3218 18.32 20.9907 18 20.5861 18H19.4127C19.008 18 18.677 18.32 18.677 18.711V18.8248C13.0525 19.479 8.72656 24.2252 9.01349 29.8994C9.28202 35.2536 13.7551 39.6443 19.2913 39.9785C25.6882 40.366 31 35.4669 31 29.3697C31 23.9301 26.7734 19.4541 21.3218 18.8213V18.8248Z" fill="#DB0032"/>
<path d="M20.651 23.3867L21.9428 25.895C22.0478 26.0999 22.2524 26.2417 22.4892 26.2752L25.3785 26.6773C25.9733 26.7598 26.2101 27.4597 25.7808 27.8619L23.6896 29.8146C23.5187 29.9745 23.4406 30.2039 23.481 30.4294L23.9749 33.1865C24.0758 33.7536 23.4554 34.1867 22.9225 33.9186L20.3374 32.6168C20.1261 32.5098 19.8745 32.5098 19.6632 32.6168L17.0781 33.9186C16.5465 34.1867 15.9248 33.7536 16.0257 33.1865L16.5196 30.4294C16.56 30.2039 16.4819 29.9745 16.311 29.8146L14.2198 27.8619C13.7891 27.4597 14.0273 26.7598 14.6221 26.6773L17.5114 26.2752C17.7469 26.2417 17.9514 26.0999 18.0578 25.895L19.3496 23.3867C19.6161 22.8711 20.3845 22.8711 20.6496 23.3867H20.651Z" fill="#F45277"/>
<path d="M0.950683 3.32705C-0.193651 2.03675 0.72236 0 2.44699 0H10.0236C10.5957 0 11.1403 0.244964 11.5199 0.672954L26 17H13.9764C13.4043 17 12.8597 16.755 12.4801 16.327L0.950683 3.32705Z" fill="#DB0032"/>
</svg>
