<svg width="56" height="49" viewBox="0 0 56 49" fill="none" xmlns="http://www.w3.org/2000/svg">
<rect x="1" y="1.5" width="54" height="38" rx="3" fill="white" stroke="black" stroke-width="2"/>
<path d="M21.6953 29.0312H34.3027C34.855 29.0312 35.3027 29.479 35.3027 30.0312V44.4463C35.3027 45.2274 34.4598 45.6876 33.8135 45.3193L33.6875 45.2344L29.8457 42.2334C28.8282 41.4388 27.4258 41.3894 26.3604 42.085L26.1523 42.2334L22.3105 45.2344C21.654 45.7471 20.6953 45.2794 20.6953 44.4463V30.0312C20.6953 29.479 21.143 29.0312 21.6953 29.0312Z" fill="white" stroke="black" stroke-width="2"/>
<path d="M40.0144 18.5455L37.8604 16.8077C37.6877 16.6694 37.5537 16.4885 37.4716 16.2826C37.3895 16.0768 37.3621 15.8531 37.3921 15.6335L37.6848 12.8859C37.7255 12.5208 37.6839 12.1512 37.5631 11.8044C37.4423 11.4576 37.2455 11.1424 36.9871 10.882C36.7286 10.6217 36.4152 10.4229 36.07 10.3003C35.7247 10.1776 35.3564 10.1343 34.9923 10.1735L32.2412 10.467C32.0222 10.4972 31.7992 10.4697 31.594 10.3874C31.3888 10.305 31.2084 10.1706 31.0705 9.99737L29.3731 7.87209C29.1357 7.59828 28.8425 7.37874 28.5134 7.2283C28.1842 7.07785 27.8266 7 27.4649 7C27.1031 7 26.7456 7.07785 26.4164 7.2283C26.0872 7.37874 25.7941 7.59828 25.5567 7.87209L23.8241 10.0326C23.6862 10.2059 23.5059 10.3403 23.3006 10.4226C23.0954 10.5049 22.8724 10.5324 22.6534 10.5023L19.9375 10.2087C19.5733 10.1695 19.205 10.2129 18.8598 10.3355C18.5145 10.4581 18.2011 10.6569 17.9427 10.9173C17.6843 11.1776 17.4874 11.4928 17.3667 11.8396C17.2459 12.1864 17.2043 12.556 17.2449 12.9211L17.5376 15.6687C17.5676 15.8883 17.5403 16.112 17.4582 16.3179C17.3761 16.5237 17.2421 16.7046 17.0693 16.8429L14.9153 18.5455C14.6296 18.7754 14.3991 19.0668 14.2407 19.398C14.0822 19.7293 14 20.092 14 20.4594C14 20.8268 14.0822 21.1895 14.2407 21.5208C14.3991 21.852 14.6296 22.1434 14.9153 22.3733L17.0693 24.1111C17.2412 24.2502 17.3746 24.4312 17.4566 24.6368C17.5386 24.8424 17.5665 25.0658 17.5376 25.2853L17.2449 28.0447C17.2044 28.409 17.2465 28.7778 17.3681 29.1234C17.4898 29.4691 17.6878 29.7827 17.9473 30.0408C18.2009 30.3063 18.5131 30.5083 18.8588 30.6307C19.2044 30.7531 19.5739 30.7923 19.9375 30.7453L22.6886 30.4518C22.9075 30.4216 23.1305 30.4491 23.3358 30.5314C23.541 30.6138 23.7214 30.7482 23.8592 30.9214L25.5918 33.0819C25.8211 33.3685 26.1116 33.5997 26.4418 33.7586C26.7721 33.9175 27.1337 34 27.5 34C27.8663 34 28.2279 33.9175 28.5582 33.7586C28.8884 33.5997 29.1789 33.3685 29.4082 33.0819L31.1408 30.9214C31.2786 30.7482 31.459 30.6138 31.6642 30.5314C31.8695 30.4491 32.0925 30.4216 32.3114 30.4518L35.0625 30.7453C35.4261 30.7923 35.7956 30.7531 36.1412 30.6307C36.4869 30.5083 36.7991 30.3063 37.0527 30.0408C37.3122 29.7827 37.5102 29.4691 37.6319 29.1234C37.7535 28.7778 37.7956 28.409 37.7551 28.0447L37.4624 25.2853C37.4335 25.0658 37.4614 24.8424 37.5434 24.6368C37.6254 24.4312 37.7588 24.2502 37.9307 24.1111L40.0847 22.3733C40.3704 22.1434 40.6009 21.852 40.7593 21.5208C40.9178 21.1895 41 20.8268 41 20.4594C41 20.092 40.9178 19.7293 40.7593 19.398C40.6009 19.0668 40.3704 18.7754 40.0847 18.5455H40.0144ZM27.9331 24.0642C27.7528 24.2996 27.5247 24.4941 27.2639 24.6347C27.0031 24.7754 26.7156 24.859 26.4203 24.88C26.125 24.9011 25.8285 24.8592 25.5505 24.757C25.2725 24.6548 25.0193 24.4947 24.8075 24.2873L21.951 21.4222C21.8419 21.3128 21.7553 21.1828 21.6962 21.0397C21.6372 20.8967 21.6067 20.7434 21.6067 20.5886C21.6067 20.2759 21.7306 19.976 21.951 19.7549C22.1715 19.5338 22.4705 19.4096 22.7822 19.4096C23.094 19.4096 23.3929 19.5338 23.6134 19.7549L26.2942 22.3968L30.8715 16.2793C31.0578 16.0302 31.3351 15.8654 31.6425 15.8214C31.9499 15.7774 32.2621 15.8576 32.5105 16.0444C32.7588 16.2313 32.9231 16.5095 32.967 16.8177C33.0109 17.126 32.9309 17.4392 32.7446 17.6883L27.9331 24.0642Z" fill="#DB0032"/>
</svg>
