<svg width="51" height="51" viewBox="0 0 51 51" fill="none" xmlns="http://www.w3.org/2000/svg">
<g clip-path="url(#clip0_551_35065)">
<circle cx="43.5" cy="41.5" r="5.5" fill="#DB0032"/>
<circle cx="7.5" cy="6.5" r="5.5" fill="white"/>
<path d="M44.1114 35.0586C40.288 35.0586 37.2227 38.104 37.2227 41.9128C37.2227 45.7217 40.2796 48.7755 44.1114 48.7755C47.9431 48.7755 51.0001 45.7301 51.0001 41.9128C51.0001 38.0956 47.9431 35.0586 44.1114 35.0586ZM44.1114 46.6613C41.4755 46.6613 39.3533 44.5472 39.3533 41.9212C39.3533 39.2953 41.4755 37.1811 44.1114 37.1811C46.7473 37.1811 48.8695 39.2953 48.8695 41.9212C48.8695 44.5472 46.7473 46.6613 44.1114 46.6613Z" fill="#DB0032"/>
<path d="M34.7635 41.7463C34.6793 41.6624 35.1004 41.998 26.1821 34.2125C25.7611 33.7931 25.0789 33.877 24.6494 34.2964C24.2284 34.7159 24.3126 35.3955 24.7337 35.8233L31.1087 41.4108H15.3859C10.9647 41.4108 7.39399 37.8536 7.39399 33.4491C7.39399 29.0446 10.9647 25.4874 15.3859 25.4874H33.4919C39.0163 25.4874 43.606 20.999 43.606 15.4116C43.606 9.82415 39.1006 5.33575 33.4919 5.33575H13.6006C12.9184 2.29034 10.1141 0 6.88871 0C3.05697 0 0 3.0454 0 6.86264C0 10.6799 3.05697 13.7253 6.88871 13.7253C10.7204 13.7253 13.5163 10.9316 13.7774 7.3744H33.5003C37.9216 7.3744 41.4922 10.9316 41.4922 15.3361C41.4922 19.7406 37.8373 23.3816 33.5003 23.3816H15.3943C9.86988 23.3816 5.28022 27.87 5.28022 33.4575C5.28022 39.0449 9.78567 43.5333 15.3943 43.5333H31.1171L24.7421 49.1207C24.321 49.5402 24.2284 50.1359 24.6579 50.6476C25.0789 51.0671 25.6768 51.1594 26.1906 50.7315C35.1172 42.9377 34.6877 43.2816 34.772 43.1977C34.9404 43.0299 35.0246 42.7783 35.0246 42.5182C35.0246 42.1826 34.9404 41.9225 34.772 41.7547L34.7635 41.7463ZM6.88871 11.7705C4.25281 11.7705 2.13061 9.65636 2.13061 7.03043C2.13061 4.40451 4.25281 2.29034 6.88871 2.29034C9.5246 2.29034 11.6468 4.40451 11.6468 7.03043C11.6468 9.65636 9.5246 11.7705 6.88871 11.7705Z" fill="black"/>
</g>
<defs>
<clipPath id="clip0_551_35065">
<rect width="51" height="51" fill="white"/>
</clipPath>
</defs>
</svg>
