<svg width="48" height="56" viewBox="0 0 48 56" fill="none" xmlns="http://www.w3.org/2000/svg">
<path d="M31.4998 44.125C30.368 44.1237 29.2513 44.3847 28.2373 44.8875C28.1563 44.9238 28.0842 44.9772 28.0259 45.0441C27.9677 45.1111 27.9246 45.1898 27.8998 45.275C27.8616 45.4452 27.8884 45.6235 27.9748 45.775C29.0578 47.5338 29.6291 49.5596 29.6248 51.625C29.628 51.7898 29.6949 51.9469 29.8114 52.0634C29.9279 52.1799 30.085 52.2468 30.2498 52.25H38.3748C38.4569 52.25 38.5381 52.2338 38.614 52.2024C38.6898 52.171 38.7587 52.125 38.8167 52.0669C38.8748 52.0089 38.9208 51.94 38.9522 51.8642C38.9836 51.7884 38.9998 51.7071 38.9998 51.625C38.9998 49.6359 38.2096 47.7282 36.8031 46.3217C35.3966 44.9152 33.4889 44.125 31.4998 44.125Z" fill="#DB0032"/>
<path d="M26.7383 38.8125C26.7383 40.0557 27.2321 41.248 28.1112 42.1271C28.9903 43.0061 30.1826 43.5 31.4258 43.5C32.669 43.5 33.8613 43.0061 34.7403 42.1271C35.6194 41.248 36.1133 40.0557 36.1133 38.8125C36.1133 37.5693 35.6194 36.377 34.7403 35.4979C33.8613 34.6189 32.669 34.125 31.4258 34.125C30.1826 34.125 28.9903 34.6189 28.1112 35.4979C27.2321 36.377 26.7383 37.5693 26.7383 38.8125Z" fill="#DB0032"/>
<path d="M12.4375 35.6875C12.4375 37.2622 13.0631 38.7724 14.1766 39.8859C15.2901 40.9994 16.8003 41.625 18.375 41.625C19.9497 41.625 21.4599 40.9994 22.5734 39.8859C23.6869 38.7724 24.3125 37.2622 24.3125 35.6875C24.3125 34.1128 23.6869 32.6026 22.5734 31.4891C21.4599 30.3756 19.9497 29.75 18.375 29.75C16.8003 29.75 15.2901 30.3756 14.1766 31.4891C13.0631 32.6026 12.4375 34.1128 12.4375 35.6875Z" fill="#DB0032"/>
<path d="M27.75 51.625C27.75 49.1386 26.7623 46.754 25.0041 44.9959C23.246 43.2377 20.8614 42.25 18.375 42.25C15.8886 42.25 13.504 43.2377 11.7459 44.9959C9.98772 46.754 9 49.1386 9 51.625C9 51.7908 9.06585 51.9497 9.18306 52.0669C9.30027 52.1842 9.45924 52.25 9.625 52.25H27.125C27.2908 52.25 27.4497 52.1842 27.5669 52.0669C27.6842 51.9497 27.75 51.7908 27.75 51.625Z" fill="#DB0032"/>
<g clip-path="url(#clip0_971_38021)">
<path d="M1 3L3.5 1H28.5L32 2.5V8H44.5L47 11L46.5 25L43.5 27L38 32V27H23.5L20 25.5L19 21.5H10.5L10 26L4.5 21.5L1 19V3Z" fill="white"/>
<path d="M33.1948 7.3359C33.1948 6.28914 33.2083 5.46316 33.1925 4.6383C33.1418 1.90707 31.2679 0.0231178 28.5055 0.0163934C20.56 -0.00490052 12.6156 -0.00602125 4.67013 0.0163934C1.92128 0.0253593 0.0282007 1.93397 0.0146707 4.66632C-0.00675186 8.86458 -0.00224185 13.0629 0.0124157 17.2611C0.0203082 19.683 1.2583 21.2397 3.57983 21.9189C4.03309 22.0511 4.49424 22.319 4.83587 22.644C6.22495 23.9665 7.5678 25.3349 8.92983 26.6854C9.13729 26.8905 9.32896 27.1213 9.56799 27.2816C10.2343 27.7276 10.9323 27.4183 11.0213 26.6125C11.0845 26.0376 11.0461 25.4503 11.0473 24.8687C11.0495 23.9631 11.0473 23.0564 11.0473 22.0724H18.3625C18.3929 22.3739 18.4369 22.6866 18.455 23.0015C18.6207 25.9916 20.9524 27.5629 23.2908 27.5248C27.3464 27.4587 31.4032 27.5069 35.4588 27.5069C35.9076 27.5069 36.3563 27.5069 36.9449 27.5069C36.9449 28.8428 36.9313 30.0375 36.9505 31.2311C36.9595 31.8307 36.7464 32.5524 37.4737 32.8931C38.2888 33.2742 38.6812 32.5625 39.1379 32.1176C40.4514 30.8377 41.748 29.541 43.039 28.2376C43.4573 27.8162 43.8903 27.5237 44.5081 27.378C46.6019 26.886 47.9527 25.2038 47.973 23.0463C48.009 19.2639 48.0102 15.4814 47.9684 11.6989C47.9448 9.57065 46.3708 7.82118 44.2545 7.45919C43.7223 7.36841 43.1743 7.34151 42.6331 7.33927C39.9564 7.32806 37.2809 7.33478 34.6042 7.33478C34.1938 7.33478 33.7822 7.33478 33.1948 7.33478V7.3359ZM9.25906 24.0718C9.16322 24.1099 9.06738 24.148 8.97154 24.1873C7.8835 23.1136 6.78306 22.0511 5.71194 20.9607C5.288 20.5292 4.84263 20.2781 4.218 20.1694C2.66994 19.9004 1.80514 18.8705 1.795 17.3003C1.76906 13.1066 1.79049 8.91278 1.78936 4.71899C1.78936 3.98379 2.00809 3.33152 2.49517 2.7734C3.2179 1.9463 4.17177 1.77258 5.21358 1.7737C12.8163 1.78267 20.4191 1.8062 28.0218 1.76138C30.3095 1.74793 31.481 3.20488 31.4336 5.12021C31.3412 8.89597 31.3164 12.6796 31.4381 16.4542C31.5272 19.228 30.066 20.2972 27.5843 20.2501C21.9468 20.1436 16.3059 20.2131 10.6673 20.221C9.48117 20.2232 9.28273 20.4294 9.26131 21.5972C9.24553 22.4221 9.25793 23.247 9.25793 24.0718H9.25906ZM38.9033 29.8301C38.7996 29.4726 38.7579 29.3942 38.7568 29.3146C38.7477 28.6085 38.7511 27.9014 38.741 27.1953C38.7218 25.9378 38.5391 25.7552 37.291 25.7238C37.0407 25.7171 36.7893 25.7249 36.539 25.7238C32.1485 25.7227 27.7568 25.6666 23.3686 25.7451C21.4767 25.7787 19.764 24.0438 20.48 22.0422C20.8509 22.0265 21.2591 21.994 21.6672 21.9929C23.8828 21.9873 26.1028 21.9088 28.3138 22.0108C31.0503 22.1374 33.3301 19.9262 33.2162 17.1961C33.1226 14.9558 33.1948 12.7087 33.1993 10.4639C33.1993 10.0626 33.2297 9.66031 33.2444 9.28374C33.5015 9.2277 33.6221 9.17839 33.7428 9.17727C36.9618 9.17167 40.1819 9.14141 43.4009 9.18175C45.0493 9.20193 46.1396 10.3047 46.1881 11.9432C46.2366 13.5627 46.2028 15.1844 46.2039 16.805C46.2039 18.7999 46.2242 20.7948 46.196 22.7897C46.1757 24.231 45.4609 25.3293 44.1451 25.5613C43.048 25.754 42.3648 26.3716 41.6623 27.0911C40.8009 27.9753 39.9102 28.8305 38.9022 29.8268L38.9033 29.8301Z" fill="black"/>
<path d="M22.1523 11.0075C22.1523 11.9646 23.0307 12.8287 24.0003 12.8253C24.9869 12.8219 25.837 11.9791 25.8393 11.003C25.8415 10.0145 25.0151 9.21094 23.9969 9.21094C22.9788 9.21094 22.1512 10.0134 22.1523 11.0075Z" fill="black"/>
<path d="M14.8021 11.081C14.8382 12.1155 15.6218 12.8294 16.6783 12.7924C17.7382 12.7554 18.4327 12.0045 18.3966 10.9364C18.3617 9.89528 17.5938 9.1881 16.5329 9.22396C15.4933 9.2587 14.7649 10.0399 14.8021 11.081Z" fill="black"/>
<path d="M7.36832 10.978C7.35479 11.9631 8.16997 12.7745 9.18585 12.7868C10.2231 12.7991 11.0395 12.0292 11.0462 11.0329C11.0541 10.0377 10.248 9.23073 9.23433 9.21504C8.21507 9.20047 7.38185 9.98723 7.36719 10.9768L7.36832 10.978Z" fill="black"/>
<path d="M36.9582 17.4015C36.9322 18.3889 37.7339 19.2082 38.7453 19.2272C39.7566 19.2463 40.5977 18.4662 40.6259 17.4856C40.6541 16.5173 39.8265 15.6734 38.8309 15.6566C37.7903 15.6386 36.9841 16.3906 36.957 17.4027L36.9582 17.4015Z" fill="black"/>
</g>
<defs>
<clipPath id="clip0_971_38021">
<rect width="48" height="33" fill="white"/>
</clipPath>
</defs>
</svg>
