<svg width="65" height="48" viewBox="0 0 65 48" fill="none" xmlns="http://www.w3.org/2000/svg">
<path d="M63.65 25.7998C64.45 24.7332 64.45 23.2665 63.65 22.1998L52.4 7.19993C50.6702 4.89351 47 6.11692 47 8.99995L47 38.9999C47 41.883 50.6702 43.1064 52.4 40.7999L63.65 25.7998Z" fill="#666666"/>
<path d="M47 37L18 37L18 11L47 11L47 37Z" fill="#666666"/>
<path d="M1.35 25.7998C0.550001 24.7332 0.550006 23.2665 1.35001 22.1998L12.6 7.19993C14.3298 4.89351 18 6.11692 18 8.99995L18 38.9999C18 41.883 14.3298 43.1064 12.6 40.7999L1.35 25.7998Z" fill="#666666"/>
</svg>
