<svg width="36" height="36" viewBox="0 0 36 36" fill="none" xmlns="http://www.w3.org/2000/svg">
<mask id="mask0_364_638" style="mask-type:alpha" maskUnits="userSpaceOnUse" x="0" y="0" width="36" height="36">
<circle cx="18" cy="18" r="18" fill="#D9D9D9"/>
</mask>
<g mask="url(#mask0_364_638)">
<circle cx="18" cy="18" r="18" fill="white"/>
<path d="M23.2381 19.2728C23.2381 19.2916 23.2372 19.3114 23.2352 19.3303C23.2352 19.3461 23.2342 19.361 23.2332 19.3759C23.2322 19.3907 23.2312 19.4056 23.2282 19.4195C23.2272 19.4373 23.2253 19.4571 23.2223 19.475C23.2203 19.4938 23.2173 19.5126 23.2153 19.5315C23.2144 19.5424 23.2124 19.5543 23.2104 19.5652C23.2084 19.5791 23.2054 19.5919 23.2035 19.6058C23.2005 19.6247 23.1965 19.6455 23.1935 19.6643C23.1916 19.6792 23.1876 19.693 23.1846 19.7069C23.1826 19.7218 23.1787 19.7367 23.1757 19.7525C23.1727 19.7694 23.1678 19.7862 23.1648 19.8031C23.1489 19.8685 23.1301 19.9339 23.1093 19.9983C23.0954 20.041 23.0796 20.0846 23.0637 20.1262C23.0478 20.1698 23.03 20.2134 23.0121 20.257C24.2462 17.5183 23.0538 14.2889 20.324 13.0152C17.5932 11.7425 14.3529 12.9042 13.0484 15.6102C13.0385 15.632 13.0276 15.6519 13.0177 15.6737C13.0078 15.6955 12.9989 15.7163 12.988 15.7391C12.9691 15.7817 12.9523 15.8253 12.9344 15.8689C12.9186 15.9106 12.9037 15.9542 12.8908 15.9968C12.87 16.0612 12.8512 16.1267 12.8353 16.1921C12.8324 16.2089 12.8274 16.2258 12.8244 16.2436C12.8215 16.2585 12.8175 16.2734 12.8155 16.2872C12.8125 16.3021 12.8086 16.317 12.8066 16.3298C12.8036 16.3487 12.7996 16.3695 12.7967 16.3883C12.7947 16.4022 12.7917 16.4151 12.7897 16.429C12.7887 16.4399 12.7868 16.4518 12.7848 16.4627C12.7828 16.4815 12.7788 16.5003 12.7778 16.5192C12.7759 16.537 12.7729 16.5568 12.7709 16.5747C12.7699 16.5895 12.7689 16.6044 12.7679 16.6183C12.7669 16.6322 12.7659 16.648 12.765 16.6639C12.764 16.6827 12.763 16.7025 12.763 16.7224C12.762 16.7412 12.761 16.762 12.761 16.7818V16.8602C12.761 16.9028 12.763 16.9464 12.7659 16.989C12.7669 17.0059 12.7679 17.0227 12.7689 17.0396V17.0465C12.7699 17.0614 12.7709 17.0762 12.7739 17.0921C12.7759 17.1218 12.7798 17.1506 12.7828 17.1803C12.7848 17.1942 12.7858 17.2061 12.7887 17.22C12.7907 17.2338 12.7917 17.2457 12.7957 17.2596C12.7957 17.2616 12.7957 17.2646 12.7967 17.2675C12.7987 17.2854 12.8026 17.3032 12.8056 17.323C12.8066 17.329 12.8076 17.334 12.8086 17.3399C12.8105 17.3558 12.8145 17.3716 12.8175 17.3875C12.8185 17.3924 12.8195 17.3964 12.8205 17.4023C12.8234 17.4182 12.8274 17.4351 12.8304 17.4509C12.8314 17.4559 12.8324 17.4608 12.8353 17.4668C12.8383 17.4816 12.8423 17.4975 12.8462 17.5134C12.8472 17.5203 12.8492 17.5262 12.8512 17.5322C12.8561 17.55 12.8601 17.5669 12.8661 17.5857C12.872 17.6075 12.8789 17.6274 12.8839 17.6482C12.8839 17.6492 12.8849 17.6502 12.8849 17.6511C12.8908 17.67 12.8978 17.6898 12.9037 17.7076C12.9037 17.7096 12.9047 17.7126 12.9057 17.7146C12.9117 17.7354 12.9186 17.7542 12.9265 17.7741C12.9335 17.7949 12.9414 17.8147 12.9493 17.8335C12.9493 17.8345 12.9503 17.8355 12.9503 17.8355C12.9572 17.8543 12.9652 17.8732 12.9731 17.891C12.9741 17.894 12.9751 17.897 12.9761 17.8999C12.984 17.9188 12.9919 17.9386 13.0009 17.9564C13.0088 17.9753 13.0177 17.9951 13.0266 18.0129C13.0276 18.0149 13.0276 18.0159 13.0286 18.0189C13.0375 18.0377 13.0465 18.0575 13.0574 18.0754C13.0673 18.0962 13.0782 18.115 13.0881 18.1339C13.098 18.1527 13.1089 18.1725 13.1198 18.1904V18.1923C13.1307 18.2112 13.1426 18.23 13.1535 18.2488C13.1624 18.2657 13.1723 18.2816 13.1842 18.2984C13.1852 18.3014 13.1872 18.3053 13.1902 18.3083C13.2011 18.3252 13.213 18.343 13.2239 18.3599C13.2368 18.3777 13.2487 18.3955 13.2615 18.4144C13.2715 18.4292 13.2834 18.4441 13.2933 18.458C13.3101 18.4808 13.327 18.5016 13.3438 18.5244C13.3537 18.5383 13.3656 18.5512 13.3765 18.565C13.3785 18.568 13.3825 18.572 13.3845 18.5759C13.3934 18.5859 13.4013 18.5968 13.4102 18.6057C13.4172 18.6156 13.4251 18.6245 13.433 18.6344C13.4469 18.6493 13.4598 18.6642 13.4737 18.68C13.4846 18.6909 13.4955 18.7038 13.5064 18.7147C13.5094 18.7197 13.5133 18.7226 13.5173 18.7256C13.5282 18.7395 13.5421 18.7514 13.555 18.7643C13.5569 18.7673 13.5609 18.7712 13.5629 18.7732C13.5728 18.7831 13.5837 18.794 13.5946 18.8039C13.6154 18.8247 13.6362 18.8446 13.659 18.8654C13.6679 18.8733 13.6769 18.8822 13.6858 18.8902C13.6967 18.8991 13.7076 18.908 13.7185 18.9169C13.7334 18.9308 13.7482 18.9417 13.7621 18.9556C13.773 18.9645 13.7859 18.9744 13.7978 18.9843C13.8117 18.9942 13.8246 19.0061 13.8384 19.016C13.8493 19.025 13.8622 19.0339 13.8731 19.0428C13.8989 19.0607 13.9237 19.0805 13.9514 19.0973C13.9623 19.1053 13.9742 19.1132 13.9851 19.1211C14.004 19.134 14.0238 19.1459 14.0426 19.1588C14.1388 19.2183 14.2409 19.2738 14.3459 19.3243C15.7217 19.9656 17.3573 19.3709 17.9986 17.9951C18.6409 16.6183 20.2764 16.0236 21.6522 16.6649C21.7196 16.6976 21.788 16.7313 21.8524 16.769C21.8683 16.7779 21.8851 16.7878 21.901 16.7977C21.9188 16.8076 21.9367 16.8195 21.9555 16.8314C21.9743 16.8423 21.9942 16.8552 22.013 16.8671C22.0239 16.875 22.0358 16.8829 22.0467 16.8909C22.0725 16.9077 22.0982 16.9266 22.124 16.9454C22.1369 16.9543 22.1488 16.9632 22.1607 16.9722C22.1746 16.9821 22.1875 16.993 22.2013 17.0039C22.2142 17.0138 22.2251 17.0227 22.237 17.0336C22.2519 17.0445 22.2668 17.0584 22.2806 17.0713C22.2915 17.0802 22.3024 17.0891 22.3124 17.098C22.3223 17.106 22.3312 17.1149 22.3411 17.1228C22.3629 17.1436 22.3847 17.1635 22.4055 17.1843C22.4164 17.1942 22.4273 17.2051 22.4363 17.215C22.4392 17.218 22.4432 17.221 22.4452 17.2239C22.4581 17.2368 22.47 17.2487 22.4828 17.2626L22.4937 17.2735C22.5046 17.2844 22.5155 17.2973 22.5265 17.3082C22.5403 17.324 22.5532 17.3389 22.5661 17.3538C22.574 17.3627 22.582 17.3726 22.5899 17.3825C22.5988 17.3924 22.6067 17.4014 22.6147 17.4132C22.6176 17.4152 22.6206 17.4202 22.6236 17.4232C22.6345 17.437 22.6464 17.4499 22.6563 17.4638C22.6732 17.4866 22.69 17.5074 22.7069 17.5302C22.7168 17.5451 22.7277 17.5599 22.7386 17.5738C22.7515 17.5917 22.7634 17.6095 22.7762 17.6283C22.7871 17.6462 22.799 17.663 22.8099 17.6799C22.8109 17.6829 22.8129 17.6868 22.8159 17.6898C22.8268 17.7066 22.8377 17.7235 22.8466 17.7394C22.8575 17.7582 22.8694 17.777 22.8803 17.7959V17.7978C22.8912 17.8157 22.9021 17.8355 22.912 17.8543C22.9219 17.8732 22.9329 17.893 22.9428 17.9128C22.9527 17.9317 22.9616 17.9515 22.9715 17.9693C22.9715 17.9713 22.9725 17.9743 22.9735 17.9753C22.9824 17.9941 22.9913 18.0139 22.9993 18.0318C23.0082 18.0506 23.0161 18.0694 23.024 18.0883C23.025 18.0912 23.026 18.0942 23.027 18.0972C23.0349 18.115 23.0419 18.1349 23.0498 18.1527C23.0498 18.1527 23.0501 18.1534 23.0508 18.1547C23.0587 18.1755 23.0657 18.1943 23.0736 18.2161C23.0805 18.235 23.0875 18.2548 23.0944 18.2746C23.0954 18.2766 23.0964 18.2796 23.0964 18.2816C23.1033 18.2994 23.1093 18.3192 23.1152 18.3381C23.1152 18.339 23.1152 18.34 23.1162 18.341C23.1222 18.3618 23.1291 18.3827 23.1341 18.4035C23.139 18.4213 23.144 18.4382 23.1489 18.457C23.1499 18.4639 23.1519 18.4699 23.1539 18.4758C23.1588 18.4917 23.1618 18.5066 23.1648 18.5224C23.1668 18.5284 23.1678 18.5323 23.1698 18.5383C23.1727 18.5551 23.1767 18.571 23.1797 18.5869C23.1807 18.5928 23.1816 18.5968 23.1826 18.6017C23.1856 18.6176 23.1896 18.6334 23.1916 18.6493C23.1926 18.6552 23.1935 18.6602 23.1945 18.6661C23.1975 18.685 23.2015 18.7038 23.2035 18.7217C23.2044 18.7246 23.2044 18.7276 23.2044 18.7296C23.2064 18.7435 23.2094 18.7563 23.2104 18.7692C23.2124 18.7831 23.2153 18.795 23.2163 18.8089C23.2213 18.8386 23.2243 18.8674 23.2263 18.8971C23.2272 18.913 23.2292 18.9278 23.2312 18.9437V18.9496C23.2322 18.9665 23.2332 18.9833 23.2342 19.0002C23.2362 19.0428 23.2391 19.0864 23.2391 19.129V19.2074C23.2381 19.2282 23.2381 19.248 23.2372 19.2688L23.2381 19.2728Z" fill="#CD2E3A"/>
<path d="M23.2351 19.0052C23.2341 18.9884 23.2331 18.9715 23.2321 18.9547V18.9487C23.2311 18.9329 23.2292 18.918 23.2272 18.9022C23.2252 18.8724 23.2212 18.8437 23.2173 18.8139C23.2163 18.8001 23.2143 18.7882 23.2113 18.7743C23.2103 18.7614 23.2083 18.7485 23.2054 18.7346C23.2054 18.7327 23.2054 18.7297 23.2044 18.7267C23.2024 18.7089 23.1984 18.691 23.1955 18.6712C23.1945 18.6653 23.1935 18.6603 23.1925 18.6544C23.1905 18.6385 23.1865 18.6226 23.1836 18.6068C23.1826 18.6018 23.1816 18.5979 23.1806 18.5919C23.1776 18.576 23.1737 18.5602 23.1707 18.5433C23.1697 18.5374 23.1687 18.5334 23.1657 18.5275C23.1628 18.5116 23.1588 18.4967 23.1548 18.4809C23.1538 18.474 23.1518 18.468 23.1499 18.4621C23.1449 18.4442 23.14 18.4274 23.135 18.4085C23.1291 18.3877 23.1221 18.3669 23.1172 18.3461C23.1162 18.3451 23.1162 18.3441 23.1162 18.3431C23.1092 18.3243 23.1033 18.3045 23.0973 18.2866C23.0973 18.2846 23.0963 18.2817 23.0954 18.2797C23.0884 18.2589 23.0815 18.24 23.0745 18.2212C23.0666 18.1994 23.0597 18.1806 23.0517 18.1597C23.0517 18.1597 23.0514 18.1591 23.0507 18.1578C23.0428 18.1399 23.0359 18.1201 23.0279 18.1022C23.027 18.0993 23.026 18.0963 23.025 18.0933C23.017 18.0745 23.0091 18.0557 23.0002 18.0368C22.9923 18.019 22.9833 17.9992 22.9744 17.9803C22.9734 17.9793 22.9724 17.9774 22.9724 17.9744C22.9635 17.9565 22.9546 17.9367 22.9437 17.9179C22.9338 17.8971 22.9229 17.8782 22.913 17.8594C22.9031 17.8406 22.8922 17.8207 22.8812 17.8029V17.8009C22.8703 17.7821 22.8584 17.7632 22.8475 17.7444C22.8386 17.7286 22.8287 17.7117 22.8168 17.6949C22.8148 17.6919 22.8119 17.6879 22.8109 17.6849C22.8 17.6681 22.7881 17.6512 22.7772 17.6334C22.7643 17.6156 22.7524 17.5977 22.7395 17.5789C22.7286 17.564 22.7177 17.5491 22.7078 17.5353C22.6909 17.5125 22.6741 17.4917 22.6572 17.4689C22.6473 17.455 22.6354 17.4421 22.6245 17.4282C22.6215 17.4252 22.6186 17.4203 22.6156 17.4183C22.6077 17.4074 22.5997 17.3975 22.5908 17.3876C22.5829 17.3787 22.575 17.3687 22.567 17.3588C22.5541 17.344 22.5413 17.3291 22.5274 17.3132C22.5165 17.3023 22.5056 17.2894 22.4947 17.2785L22.4838 17.2676C22.4709 17.2538 22.459 17.2419 22.4461 17.229C22.4441 17.226 22.4402 17.223 22.4372 17.2201C22.4283 17.2102 22.4183 17.1992 22.4065 17.1893C22.3856 17.1685 22.3638 17.1487 22.342 17.1279C22.3331 17.12 22.3242 17.111 22.3133 17.1031C22.3034 17.0942 22.2925 17.0853 22.2816 17.0763C22.2667 17.0635 22.2518 17.0506 22.2379 17.0387C22.2251 17.0288 22.2142 17.0198 22.2023 17.0089C22.1884 16.998 22.1755 16.9871 22.1616 16.9772C22.1507 16.9683 22.1378 16.9594 22.125 16.9505C22.1002 16.9326 22.0744 16.9128 22.0476 16.8959C22.0367 16.888 22.0248 16.8801 22.0139 16.8721C21.9951 16.8593 21.9753 16.8474 21.9564 16.8365C21.9386 16.8236 21.9208 16.8127 21.9019 16.8028C21.8861 16.7938 21.8692 16.7839 21.8534 16.774C21.7889 16.7363 21.7215 16.7026 21.6531 16.6699C20.2773 16.0286 18.6418 16.6234 17.9995 18.0002C17.3582 19.376 15.7227 19.9707 14.3469 19.3294C14.2418 19.2798 14.1397 19.2243 14.0436 19.1638C14.0247 19.151 14.0049 19.1391 13.9861 19.1262C13.9752 19.1182 13.9633 19.1103 13.9524 19.1024C13.9256 19.0855 13.9008 19.0667 13.8741 19.0479C13.8632 19.0389 13.8503 19.03 13.8394 19.0211C13.8255 19.0112 13.8126 18.9993 13.7987 18.9894C13.7858 18.9805 13.7739 18.9706 13.763 18.9606C13.7482 18.9468 13.7333 18.9359 13.7194 18.922C13.7085 18.9131 13.6976 18.9041 13.6867 18.8952C13.6778 18.8873 13.6689 18.8784 13.66 18.8704C13.6372 18.8496 13.6163 18.8298 13.5955 18.809C13.5846 18.7991 13.5737 18.7882 13.5638 18.7783C13.5618 18.7763 13.5579 18.7723 13.5559 18.7693C13.543 18.7564 13.5301 18.7446 13.5182 18.7307C13.5133 18.7277 13.5103 18.7237 13.5073 18.7198C13.4964 18.7089 13.4855 18.696 13.4746 18.6851C13.4607 18.6692 13.4478 18.6544 13.434 18.6395C13.426 18.6306 13.4181 18.6216 13.4112 18.6107C13.4022 18.6018 13.3943 18.5919 13.3854 18.581C13.3834 18.576 13.3794 18.5731 13.3775 18.5701C13.3666 18.5562 13.3547 18.5433 13.3448 18.5295C13.3279 18.5067 13.311 18.4858 13.2942 18.463C13.2843 18.4482 13.2724 18.4333 13.2625 18.4194C13.2496 18.4016 13.2377 18.3838 13.2248 18.3649C13.2139 18.3481 13.202 18.3302 13.1911 18.3134C13.1891 18.3104 13.1862 18.3064 13.1852 18.3035C13.1743 18.2866 13.1634 18.2708 13.1544 18.2539C13.1435 18.2351 13.1316 18.2162 13.1207 18.1974V18.1954C13.1098 18.1776 13.0989 18.1578 13.089 18.1389C13.0791 18.1201 13.0682 18.1003 13.0583 18.0804C13.0484 18.0626 13.0395 18.0428 13.0295 18.0239C13.0286 18.022 13.0286 18.021 13.0276 18.018C13.0186 18.0002 13.0097 17.9803 13.0018 17.9615C12.9929 17.9437 12.9849 17.9238 12.977 17.905C12.976 17.902 12.975 17.899 12.974 17.8961C12.9661 17.8782 12.9582 17.8604 12.9512 17.8406C12.9512 17.8406 12.9502 17.8396 12.9502 17.8386C12.9423 17.8197 12.9344 17.7989 12.9274 17.7791C12.9195 17.7583 12.9126 17.7395 12.9066 17.7196C12.9056 17.7177 12.9047 17.7147 12.9047 17.7127C12.8977 17.6949 12.8908 17.675 12.8858 17.6562C12.8858 17.6552 12.8848 17.6542 12.8848 17.6532C12.8789 17.6324 12.8719 17.6126 12.867 17.5908C12.861 17.5729 12.8571 17.5561 12.8521 17.5373C12.8511 17.5303 12.8491 17.5244 12.8472 17.5184C12.8422 17.5026 12.8392 17.4867 12.8363 17.4718C12.8343 17.4659 12.8333 17.4609 12.8313 17.456C12.8283 17.4401 12.8244 17.4233 12.8214 17.4074C12.8204 17.4015 12.8194 17.3975 12.8184 17.3925C12.8154 17.3767 12.8115 17.3608 12.8095 17.345C12.8085 17.339 12.8075 17.3341 12.8065 17.3281C12.8035 17.3093 12.7996 17.2904 12.7976 17.2726C12.7966 17.2696 12.7966 17.2666 12.7966 17.2647C12.7936 17.2508 12.7917 17.2389 12.7897 17.225C12.7877 17.2111 12.7867 17.1992 12.7837 17.1854C12.7807 17.1556 12.7768 17.1269 12.7748 17.0972C12.7728 17.0813 12.7718 17.0664 12.7698 17.0516V17.0446C12.7689 17.0278 12.7679 17.0109 12.7669 16.9941C12.7649 16.9514 12.7619 16.9078 12.7619 16.8652V16.7869C12.7619 16.7661 12.7629 16.7463 12.7639 16.7274C12.7639 16.7066 12.7649 16.6878 12.7659 16.6689C12.7669 16.6531 12.7679 16.6382 12.7689 16.6234C12.7698 16.6085 12.7708 16.5936 12.7718 16.5797C12.7738 16.5619 12.7768 16.5421 12.7788 16.5242C12.7798 16.5054 12.7837 16.4866 12.7857 16.4677C12.7867 16.4568 12.7887 16.4449 12.7907 16.434C12.7926 16.4202 12.7956 16.4073 12.7976 16.3934C12.8006 16.3746 12.8045 16.3537 12.8075 16.3349C12.8095 16.321 12.8135 16.3062 12.8164 16.2923C12.8184 16.2774 12.8224 16.2625 12.8254 16.2487C12.8283 16.2308 12.8333 16.214 12.8363 16.1971C12.8521 16.1317 12.8709 16.0663 12.8918 16.0019C12.9056 15.9592 12.9205 15.9156 12.9354 15.874C12.9522 15.8304 12.9691 15.7868 12.9889 15.7441C11.7548 18.4819 12.9473 21.7113 15.6771 22.984C18.4069 24.2567 21.6482 23.095 22.9526 20.389C22.9625 20.3682 22.9734 20.3474 22.9833 20.3255C22.9933 20.3037 23.0022 20.2829 23.0131 20.2611C23.0309 20.2175 23.0498 20.1739 23.0646 20.1303C23.0805 20.0886 23.0963 20.045 23.1102 20.0024C23.131 19.938 23.1499 19.8726 23.1657 19.8071C23.1687 19.7903 23.1737 19.7734 23.1766 19.7566C23.1796 19.7407 23.1836 19.7259 23.1856 19.711C23.1885 19.6961 23.1925 19.6822 23.1945 19.6684C23.1974 19.6495 23.2014 19.6287 23.2044 19.6099C23.2064 19.596 23.2093 19.5831 23.2113 19.5692C23.2123 19.5583 23.2143 19.5464 23.2163 19.5355C23.2183 19.5167 23.2212 19.4979 23.2232 19.479C23.2252 19.4612 23.2282 19.4414 23.2292 19.4235C23.2311 19.4087 23.2321 19.3938 23.2341 19.3799C23.2351 19.3651 23.2361 19.3502 23.2361 19.3343C23.2381 19.3155 23.2391 19.2957 23.2391 19.2768C23.2401 19.256 23.2401 19.2362 23.2411 19.2154V19.1371C23.2411 19.0945 23.2391 19.0508 23.2361 19.0082L23.2351 19.0052Z" fill="#0047A0"/>
<path d="M8.61467 9.2749L5.48193 14.701L6.25966 15.15L9.3924 9.72392L8.61467 9.2749Z" fill="black"/>
<path d="M9.92571 10.0327L6.79297 15.4588L7.5707 15.9078L10.7034 10.4817L9.92571 10.0327Z" fill="black"/>
<path d="M11.2363 10.7886L8.10358 16.2146L8.8813 16.6637L12.014 11.2376L11.2363 10.7886Z" fill="black"/>
<path d="M27.3849 9.27538L26.6072 9.72441L28.0053 12.146L28.783 11.697L27.3849 9.27538Z" fill="black"/>
<path d="M29.12 12.2803L28.3422 12.7293L29.7403 15.1509L30.5181 14.7019L29.12 12.2803Z" fill="black"/>
<path d="M26.0739 10.0322L25.2961 10.4812L28.4289 15.9073L29.2066 15.4583L26.0739 10.0322Z" fill="black"/>
<path d="M24.763 10.7891L23.9853 11.2381L25.3834 13.6597L26.1611 13.2107L24.763 10.7891Z" fill="black"/>
<path d="M26.498 13.7939L25.7203 14.243L27.1184 16.6646L27.8961 16.2155L26.498 13.7939Z" fill="black"/>
<path d="M25.3833 22.3399L23.9852 24.7615L24.7629 25.2105L26.161 22.7889L25.3833 22.3399Z" fill="black"/>
<path d="M27.118 19.336L25.7198 21.7576L26.4976 22.2066L27.8957 19.785L27.118 19.336Z" fill="black"/>
<path d="M26.6948 23.0968L25.2967 25.5184L26.0744 25.9674L27.4725 23.5458L26.6948 23.0968Z" fill="black"/>
<path d="M28.4295 20.0928L27.0314 22.5144L27.8091 22.9635L29.2072 20.5419L28.4295 20.0928Z" fill="black"/>
<path d="M28.0049 23.8536L26.6068 26.2752L27.3845 26.7242L28.7827 24.3026L28.0049 23.8536Z" fill="black"/>
<path d="M29.7397 20.8497L28.3416 23.2713L29.1193 23.7203L30.5174 21.2987L29.7397 20.8497Z" fill="black"/>
<path d="M8.8813 19.3357L8.10419 19.7848L11.2364 25.2107L12.0145 24.7617L8.8813 19.3357Z" fill="black"/>
<path d="M7.57015 20.0928L6.79242 20.5418L8.19053 22.9634L8.96826 22.5144L7.57015 20.0928Z" fill="black"/>
<path d="M9.30617 23.0967L8.52844 23.5457L9.92655 25.9673L10.7043 25.5183L9.30617 23.0967Z" fill="black"/>
<path d="M7.65814 23.2709L7.37862 22.7882L6.25954 20.8494L5.48242 21.2984L8.61467 26.7243L9.39277 26.2753L7.65814 23.2709Z" fill="black"/>
</g>
</svg>
