<svg width="36" height="36" viewBox="0 0 36 36" fill="none" xmlns="http://www.w3.org/2000/svg">
<mask id="mask0_364_626" style="mask-type:alpha" maskUnits="userSpaceOnUse" x="0" y="0" width="36" height="36">
<circle cx="18" cy="18" r="18" fill="#D9D9D9"/>
</mask>
<g mask="url(#mask0_364_626)">
<circle cx="18" cy="18" r="18" fill="#CD1126"/>
<path d="M24.5416 27.8087C24.3336 27.9098 24.2219 27.7309 24.0948 27.6337C22.1149 26.1835 20.1389 24.7372 18.1706 23.2675C17.8817 23.0498 17.6891 23.0498 17.4002 23.2675C15.4357 24.7333 13.4558 26.1835 11.4759 27.6337C11.3488 27.7271 11.2371 27.9098 11.0291 27.8048C11.5799 26.374 11.9844 24.8927 12.4697 23.4347C12.8048 22.4277 13.1053 21.409 13.452 20.4059C13.5752 20.0482 13.5251 19.8499 13.2093 19.6205C11.2564 18.2092 9.31885 16.7706 7.37749 15.3398C7.25423 15.2465 7.13097 15.1493 7 15.0482C7.15793 14.8771 7.34282 14.951 7.50075 14.951C9.90434 14.9471 12.3041 14.9393 14.7077 14.9549C15.0967 14.9549 15.247 14.8227 15.3587 14.4611C16.0905 12.1322 16.8455 9.81104 17.5928 7.48989C17.639 7.34215 17.6929 7.19829 17.7584 7C17.9163 7.15941 17.9317 7.33826 17.9818 7.48989C18.7329 9.81104 19.4879 12.1322 20.2159 14.4611C20.3315 14.8266 20.4817 14.9549 20.8669 14.951C23.2512 14.9316 25.6394 14.9432 28.0238 14.9432H28.59C28.4783 15.1726 28.3165 15.2426 28.1855 15.3359C26.2442 16.7667 24.3067 18.2014 22.3576 19.6205C22.0764 19.8266 21.9801 19.9977 22.0995 20.3593C22.8737 22.7076 23.6172 25.0638 24.376 27.416C24.4184 27.5521 24.4838 27.6765 24.5378 27.8087H24.5416Z" fill="#FBCF16"/>
</g>
</svg>
