<svg width="36" height="36" viewBox="0 0 36 36" fill="none" xmlns="http://www.w3.org/2000/svg">
<mask id="mask0_364_612" style="mask-type:alpha" maskUnits="userSpaceOnUse" x="0" y="0" width="36" height="36">
<circle cx="18" cy="18" r="18" fill="#D9D9D9"/>
</mask>
<g mask="url(#mask0_364_612)">
<circle cx="18" cy="18" r="18" fill="white"/>
<path d="M19.7877 0.0882183V19.3842H0.0525345C0.0178419 18.9273 0 18.4654 0 17.9995C0 16.4344 0.200226 14.9158 0.575897 13.4687L0.45596 13.3814H0.598695C0.875244 12.3327 1.24497 11.3227 1.69795 10.3582C1.73166 10.2868 1.76635 10.2145 1.80104 10.1431C1.83573 10.0708 1.87142 9.99939 1.90809 9.92803C1.96955 9.80412 2.03299 9.6822 2.09741 9.56028C2.11526 9.52559 2.13409 9.4909 2.15292 9.45621C2.50183 8.81192 2.88841 8.19042 3.31066 7.59569L3.1709 7.4936H3.38302C5.57857 4.44362 8.70586 2.10832 12.3486 0.904981C12.3555 0.902998 12.3625 0.900025 12.3694 0.898042C12.3743 0.89606 12.3803 0.894077 12.3862 0.893086C14.1526 0.313224 16.0399 0 17.9995 0C18.6032 0 19.1989 0.0297365 19.7877 0.0882183Z" fill="#123C9E"/>
<path d="M12.7718 2.07885L13.0196 2.84308L12.3694 2.37027L11.7191 2.84308L11.9669 2.07885L11.3167 1.60604H12.1206L12.3486 0.905249C12.3555 0.903267 12.3624 0.900293 12.3694 0.898311C12.3743 0.896329 12.3803 0.894346 12.3862 0.893355L12.6182 1.60604H13.422L12.7718 2.07885Z" fill="#F9F9F9"/>
<path d="M12.3694 0.898311V1.84195L12.1206 1.60604L12.3486 0.905249C12.3555 0.903267 12.3624 0.900293 12.3694 0.898311Z" fill="#F9F9F9"/>
<path d="M12.3694 1.84195L11.9669 2.07885L11.3167 1.60604L12.3694 1.84195Z" fill="#F9F9F9"/>
<path d="M12.3694 1.84195L12.6182 1.60604H13.422L12.3694 1.84195Z" fill="#F9F9F9"/>
<path d="M12.3694 1.84195L11.3167 1.60604H12.1206L12.3694 1.84195Z" fill="#F9F9F9"/>
<path d="M12.3694 1.84195L11.7191 2.84308L12.3694 2.37027V1.84195Z" fill="#F9F9F9"/>
<path d="M13.422 1.60604L12.3694 1.84195L12.7718 2.07885L13.422 1.60604Z" fill="#F9F9F9"/>
<path d="M12.3694 1.84195L13.0196 2.84308L12.3694 2.37027V1.84195Z" fill="#F9F9F9"/>
<path d="M17.8002 0.84082L18.048 1.60604H18.8529L18.2017 2.07885L18.4505 2.84308L17.8002 2.37027L17.149 2.84308L17.3978 2.07885L16.7466 1.60604H17.5514L17.8002 0.84082Z" fill="#F9F9F9"/>
<path d="M17.8002 1.84195L17.5514 1.60604L17.8002 0.84082V1.84195Z" fill="#F9F9F9"/>
<path d="M17.8002 1.84195L17.3978 2.07885L16.7466 1.60604L17.8002 1.84195Z" fill="#F9F9F9"/>
<path d="M17.8002 1.84195L18.048 1.60604H18.8529L17.8002 1.84195Z" fill="#F9F9F9"/>
<path d="M17.8002 1.84195L16.7466 1.60604H17.5514L17.8002 1.84195Z" fill="#F9F9F9"/>
<path d="M17.8002 1.84195L17.149 2.84308L17.8002 2.37027V1.84195Z" fill="#F9F9F9"/>
<path d="M18.8529 1.60604L17.8002 1.84195L18.2017 2.07885L18.8529 1.60604Z" fill="#F9F9F9"/>
<path d="M17.8002 1.84195L18.4505 2.84308L17.8002 2.37027V1.84195Z" fill="#F9F9F9"/>
<path d="M6.93849 4.76604L7.18729 5.53126H7.99116L7.34092 6.00407L7.58972 6.7683L6.93849 6.29549L6.28825 6.7683L6.53705 6.00407L5.88582 5.53126H6.69069L6.93849 4.76604Z" fill="#F9F9F9"/>
<path d="M6.93849 5.76717L6.69069 5.53126L6.93849 4.76604V5.76717Z" fill="#F9F9F9"/>
<path d="M6.93849 5.76717L6.53705 6.00407L5.88582 5.53126L6.93849 5.76717Z" fill="#F9F9F9"/>
<path d="M6.93849 5.76717L7.18729 5.53126H7.99116L6.93849 5.76717Z" fill="#F9F9F9"/>
<path d="M6.93849 5.76717L5.88582 5.53126H6.69069L6.93849 5.76717Z" fill="#F9F9F9"/>
<path d="M6.93849 5.76717L6.28825 6.7683L6.93849 6.29549V5.76717Z" fill="#F9F9F9"/>
<path d="M7.99116 5.53126L6.93849 5.76717L7.34092 6.00407L7.99116 5.53126Z" fill="#F9F9F9"/>
<path d="M6.93849 5.76717L7.58972 6.7683L6.93849 6.29549V5.76717Z" fill="#F9F9F9"/>
<path d="M12.3694 4.76604L12.6182 5.53126H13.422L12.7718 6.00407L13.0196 6.7683L12.3694 6.29549L11.7191 6.7683L11.9669 6.00407L11.3167 5.53126H12.1206L12.3694 4.76604Z" fill="#F9F9F9"/>
<path d="M12.3694 5.76717L12.1206 5.53126L12.3694 4.76604V5.76717Z" fill="#F9F9F9"/>
<path d="M12.3694 5.76717L11.9669 6.00407L11.3167 5.53126L12.3694 5.76717Z" fill="#F9F9F9"/>
<path d="M12.3694 5.76717L12.6182 5.53126H13.422L12.3694 5.76717Z" fill="#F9F9F9"/>
<path d="M12.3694 5.76717L11.3167 5.53126H12.1206L12.3694 5.76717Z" fill="#F9F9F9"/>
<path d="M12.3694 5.76717L11.7191 6.7683L12.3694 6.29549V5.76717Z" fill="#F9F9F9"/>
<path d="M13.422 5.53126L12.3694 5.76717L12.7718 6.00407L13.422 5.53126Z" fill="#F9F9F9"/>
<path d="M12.3694 5.76717L13.0196 6.7683L12.3694 6.29549V5.76717Z" fill="#F9F9F9"/>
<path d="M17.8002 4.76604L18.048 5.53126H18.8529L18.2017 6.00407L18.4505 6.7683L17.8002 6.29549L17.149 6.7683L17.3978 6.00407L16.7466 5.53126H17.5514L17.8002 4.76604Z" fill="#F9F9F9"/>
<path d="M17.8002 5.76717L17.5514 5.53126L17.8002 4.76604V5.76717Z" fill="#F9F9F9"/>
<path d="M17.8002 5.76717L17.3978 6.00407L16.7466 5.53126L17.8002 5.76717Z" fill="#F9F9F9"/>
<path d="M17.8002 5.76717L18.048 5.53126H18.8529L17.8002 5.76717Z" fill="#F9F9F9"/>
<path d="M17.8002 5.76717L16.7466 5.53126H17.5514L17.8002 5.76717Z" fill="#F9F9F9"/>
<path d="M17.8002 5.76717L17.149 6.7683L17.8002 6.29549V5.76717Z" fill="#F9F9F9"/>
<path d="M18.8529 5.53126L17.8002 5.76717L18.2017 6.00407L18.8529 5.53126Z" fill="#F9F9F9"/>
<path d="M17.8002 5.76717L18.4505 6.7683L17.8002 6.29549V5.76717Z" fill="#F9F9F9"/>
<path d="M1.91005 9.92929L2.15884 10.6935L1.69793 10.3585C1.73163 10.2871 1.76632 10.2148 1.80101 10.1434C1.83571 10.071 1.87139 9.99966 1.90807 9.9283C1.96952 9.80439 2.03296 9.68247 2.09739 9.56055C2.11523 9.52586 2.13406 9.49117 2.1529 9.45648H2.56128L1.91005 9.92929Z" fill="#F9F9F9"/>
<path d="M2.56128 9.45648L2.09739 9.56055C2.11523 9.52586 2.13406 9.49117 2.1529 9.45648H2.56128Z" fill="#F9F9F9"/>
<path d="M2.56128 9.45648L1.91005 9.92929L1.90807 9.9283C1.96952 9.80439 2.03296 9.68247 2.09739 9.56055L2.56128 9.45648Z" fill="#F9F9F9"/>
<path d="M2.15884 10.6935L1.69793 10.3585C1.73163 10.2871 1.76632 10.2148 1.80101 10.1434L2.15884 10.6935Z" fill="#F9F9F9"/>
<path d="M6.93849 8.69126L7.18729 9.45648H7.99116L7.34092 9.92929L7.58972 10.6935L6.93849 10.2207L6.28825 10.6935L6.53705 9.92929L5.88582 9.45648H6.69069L6.93849 8.69126Z" fill="#F9F9F9"/>
<path d="M6.93849 9.69239L6.69069 9.45648L6.93849 8.69126V9.69239Z" fill="#F9F9F9"/>
<path d="M6.93849 9.69239L6.53705 9.92929L5.88582 9.45648L6.93849 9.69239Z" fill="#F9F9F9"/>
<path d="M6.93849 9.69239L7.18729 9.45648H7.99116L6.93849 9.69239Z" fill="#F9F9F9"/>
<path d="M6.93849 9.69239L5.88582 9.45648H6.69069L6.93849 9.69239Z" fill="#F9F9F9"/>
<path d="M6.93849 9.69239L6.28825 10.6935L6.93849 10.2207V9.69239Z" fill="#F9F9F9"/>
<path d="M7.99116 9.45648L6.93849 9.69239L7.34092 9.92929L7.99116 9.45648Z" fill="#F9F9F9"/>
<path d="M6.93849 9.69239L7.58972 10.6935L6.93849 10.2207V9.69239Z" fill="#F9F9F9"/>
<path d="M12.3694 8.69126L12.6182 9.45648H13.422L12.7718 9.92929L13.0196 10.6935L12.3694 10.2207L11.7191 10.6935L11.9669 9.92929L11.3167 9.45648H12.1206L12.3694 8.69126Z" fill="#F9F9F9"/>
<path d="M12.3694 9.69239L12.1206 9.45648L12.3694 8.69126V9.69239Z" fill="#F9F9F9"/>
<path d="M12.3694 9.69239L11.9669 9.92929L11.3167 9.45648L12.3694 9.69239Z" fill="#F9F9F9"/>
<path d="M12.3694 9.69239L12.6182 9.45648H13.422L12.3694 9.69239Z" fill="#F9F9F9"/>
<path d="M12.3694 9.69239L11.3167 9.45648H12.1206L12.3694 9.69239Z" fill="#F9F9F9"/>
<path d="M12.3694 9.69239L11.7191 10.6935L12.3694 10.2207V9.69239Z" fill="#F9F9F9"/>
<path d="M13.422 9.45648L12.3694 9.69239L12.7718 9.92929L13.422 9.45648Z" fill="#F9F9F9"/>
<path d="M12.3694 9.69239L13.0196 10.6935L12.3694 10.2207V9.69239Z" fill="#F9F9F9"/>
<path d="M17.8002 8.69126L18.048 9.45648H18.8529L18.2017 9.92929L18.4505 10.6935L17.8002 10.2207L17.149 10.6935L17.3978 9.92929L16.7466 9.45648H17.5514L17.8002 8.69126Z" fill="#F9F9F9"/>
<path d="M17.8002 9.69239L17.5514 9.45648L17.8002 8.69126V9.69239Z" fill="#F9F9F9"/>
<path d="M17.8002 9.69239L17.3978 9.92929L16.7466 9.45648L17.8002 9.69239Z" fill="#F9F9F9"/>
<path d="M17.8002 9.69239L18.048 9.45648H18.8529L17.8002 9.69239Z" fill="#F9F9F9"/>
<path d="M17.8002 9.69239L16.7466 9.45648H17.5514L17.8002 9.69239Z" fill="#F9F9F9"/>
<path d="M17.8002 9.69239L17.149 10.6935L17.8002 10.2207V9.69239Z" fill="#F9F9F9"/>
<path d="M18.8529 9.45648L17.8002 9.69239L18.2017 9.92929L18.8529 9.45648Z" fill="#F9F9F9"/>
<path d="M17.8002 9.69239L18.4505 10.6935L17.8002 10.2207V9.69239Z" fill="#F9F9F9"/>
<path d="M1.91005 13.8545L2.15884 14.6187L1.5086 14.1459L0.857375 14.6187L1.10617 13.8545L0.455933 13.3817H1.25981L1.5086 12.6165L1.75641 13.3817H2.56128L1.91005 13.8545Z" fill="#F9F9F9"/>
<path d="M1.5086 13.6176L1.25981 13.3817L1.5086 12.6165L1.5086 13.6176Z" fill="#F9F9F9"/>
<path d="M1.5086 13.6176L1.10617 13.8545L0.455933 13.3817L0.590738 13.4114L1.5086 13.6176Z" fill="#F9F9F9"/>
<path d="M1.5086 13.6176L1.75641 13.3817H2.56128L1.5086 13.6176Z" fill="#F9F9F9"/>
<path d="M1.5086 13.6176L0.590738 13.4114L0.455933 13.3817H1.25981L1.5086 13.6176Z" fill="#F9F9F9"/>
<path d="M1.5086 13.6176L0.857375 14.6187L1.5086 14.1459L1.5086 13.6176Z" fill="#F9F9F9"/>
<path d="M2.56128 13.3817L1.5086 13.6176L1.91005 13.8545L2.56128 13.3817Z" fill="#F9F9F9"/>
<path d="M1.5086 13.6176L2.15884 14.6187L1.5086 14.1459L1.5086 13.6176Z" fill="#F9F9F9"/>
<path d="M6.93849 12.6165L7.18729 13.3817H7.99116L7.34092 13.8535L7.58972 14.6187L6.93849 14.1459L6.28825 14.6187L6.53705 13.8535L5.88582 13.3817H6.69069L6.93849 12.6165Z" fill="#F9F9F9"/>
<path d="M6.93849 13.6176L6.69069 13.3817L6.93849 12.6165V13.6176Z" fill="#F9F9F9"/>
<path d="M6.93849 13.6176L6.53705 13.8535L5.88582 13.3817L6.93849 13.6176Z" fill="#F9F9F9"/>
<path d="M6.93849 13.6176L7.18729 13.3817H7.99116L6.93849 13.6176Z" fill="#F9F9F9"/>
<path d="M6.93849 13.6176L5.88582 13.3817H6.69069L6.93849 13.6176Z" fill="#F9F9F9"/>
<path d="M6.93849 13.6176L6.28825 14.6187L6.93849 14.1459V13.6176Z" fill="#F9F9F9"/>
<path d="M7.99116 13.3817L6.93849 13.6176L7.34092 13.8535L7.99116 13.3817Z" fill="#F9F9F9"/>
<path d="M6.93849 13.6176L7.58972 14.6187L6.93849 14.1459V13.6176Z" fill="#F9F9F9"/>
<path d="M12.3694 12.6165L12.6182 13.3817H13.422L12.7718 13.8535L13.0196 14.6187L12.3694 14.1459L11.7191 14.6187L11.9669 13.8535L11.3167 13.3817H12.1206L12.3694 12.6165Z" fill="#F9F9F9"/>
<path d="M12.3694 13.6176L12.1206 13.3817L12.3694 12.6165V13.6176Z" fill="#F9F9F9"/>
<path d="M12.3694 13.6176L11.9669 13.8535L11.3167 13.3817L12.3694 13.6176Z" fill="#F9F9F9"/>
<path d="M12.3694 13.6176L12.6182 13.3817H13.422L12.3694 13.6176Z" fill="#F9F9F9"/>
<path d="M12.3694 13.6176L11.3167 13.3817H12.1206L12.3694 13.6176Z" fill="#F9F9F9"/>
<path d="M12.3694 13.6176L11.7191 14.6187L12.3694 14.1459V13.6176Z" fill="#F9F9F9"/>
<path d="M13.422 13.3817L12.3694 13.6176L12.7718 13.8535L13.422 13.3817Z" fill="#F9F9F9"/>
<path d="M12.3694 13.6176L13.0196 14.6187L12.3694 14.1459V13.6176Z" fill="#F9F9F9"/>
<path d="M17.8002 12.6165L18.048 13.3817H18.8529L18.2017 13.8535L18.4505 14.6187L17.8002 14.1459L17.149 14.6187L17.3978 13.8535L16.7466 13.3817H17.5514L17.8002 12.6165Z" fill="#F9F9F9"/>
<path d="M17.8002 13.6176L17.5514 13.3817L17.8002 12.6165V13.6176Z" fill="#F9F9F9"/>
<path d="M17.8002 13.6176L17.3978 13.8535L16.7466 13.3817L17.8002 13.6176Z" fill="#F9F9F9"/>
<path d="M17.8002 13.6176L18.048 13.3817H18.8529L17.8002 13.6176Z" fill="#F9F9F9"/>
<path d="M17.8002 13.6176L16.7466 13.3817H17.5514L17.8002 13.6176Z" fill="#F9F9F9"/>
<path d="M17.8002 13.6176L17.149 14.6187L17.8002 14.1459V13.6176Z" fill="#F9F9F9"/>
<path d="M18.8529 13.3817L17.8002 13.6176L18.2017 13.8535L18.8529 13.3817Z" fill="#F9F9F9"/>
<path d="M17.8002 13.6176L18.4505 14.6187L17.8002 14.1459V13.6176Z" fill="#F9F9F9"/>
<path d="M1.5086 16.5417L1.75641 17.3069H2.56128L1.91005 17.7787L2.15884 18.544L1.5086 18.0711L0.857375 18.544L1.10617 17.7787L0.455933 17.3069H1.25981L1.5086 16.5417Z" fill="#F9F9F9"/>
<path d="M1.5086 17.5428L1.25981 17.3069L1.5086 16.5417L1.5086 17.5428Z" fill="#F9F9F9"/>
<path d="M1.5086 17.5428L1.10617 17.7787L0.455933 17.3069L1.5086 17.5428Z" fill="#F9F9F9"/>
<path d="M1.5086 17.5428L1.75641 17.3069H2.56128L1.5086 17.5428Z" fill="#F9F9F9"/>
<path d="M1.5086 17.5428L0.455933 17.3069H1.25981L1.5086 17.5428Z" fill="#F9F9F9"/>
<path d="M1.5086 17.5428L0.857375 18.544L1.5086 18.0711L1.5086 17.5428Z" fill="#F9F9F9"/>
<path d="M2.56128 17.3069L1.5086 17.5428L1.91005 17.7787L2.56128 17.3069Z" fill="#F9F9F9"/>
<path d="M1.5086 17.5428L2.15884 18.544L1.5086 18.0711L1.5086 17.5428Z" fill="#F9F9F9"/>
<path d="M6.93849 16.5417L7.18729 17.3069H7.99116L7.34092 17.7787L7.58972 18.544L6.93849 18.0711L6.28825 18.544L6.53705 17.7787L5.88582 17.3069H6.69069L6.93849 16.5417Z" fill="#F9F9F9"/>
<path d="M6.93849 17.5428L6.69069 17.3069L6.93849 16.5417V17.5428Z" fill="#F9F9F9"/>
<path d="M6.93849 17.5428L6.53705 17.7787L5.88582 17.3069L6.93849 17.5428Z" fill="#F9F9F9"/>
<path d="M6.93849 17.5428L7.18729 17.3069H7.99116L6.93849 17.5428Z" fill="#F9F9F9"/>
<path d="M6.93849 17.5428L5.88582 17.3069H6.69069L6.93849 17.5428Z" fill="#F9F9F9"/>
<path d="M6.93849 17.5428L6.28825 18.544L6.93849 18.0711V17.5428Z" fill="#F9F9F9"/>
<path d="M7.99116 17.3069L6.93849 17.5428L7.34092 17.7787L7.99116 17.3069Z" fill="#F9F9F9"/>
<path d="M6.93849 17.5428L7.58972 18.544L6.93849 18.0711V17.5428Z" fill="#F9F9F9"/>
<path d="M12.3694 16.5417L12.6182 17.3069H13.422L12.7718 17.7787L13.0196 18.544L12.3694 18.0711L11.7191 18.544L11.9669 17.7787L11.3167 17.3069H12.1206L12.3694 16.5417Z" fill="#F9F9F9"/>
<path d="M12.3694 17.5428L12.1206 17.3069L12.3694 16.5417V17.5428Z" fill="#F9F9F9"/>
<path d="M12.3694 17.5428L11.9669 17.7787L11.3167 17.3069L12.3694 17.5428Z" fill="#F9F9F9"/>
<path d="M12.3694 17.5428L12.6182 17.3069H13.422L12.3694 17.5428Z" fill="#F9F9F9"/>
<path d="M12.3694 17.5428L11.3167 17.3069H12.1206L12.3694 17.5428Z" fill="#F9F9F9"/>
<path d="M12.3694 17.5428L11.7191 18.544L12.3694 18.0711V17.5428Z" fill="#F9F9F9"/>
<path d="M13.422 17.3069L12.3694 17.5428L12.7718 17.7787L13.422 17.3069Z" fill="#F9F9F9"/>
<path d="M12.3694 17.5428L13.0196 18.544L12.3694 18.0711V17.5428Z" fill="#F9F9F9"/>
<path d="M17.8002 16.5417L18.048 17.3069H18.8529L18.2017 17.7787L18.4505 18.544L17.8002 18.0711L17.149 18.544L17.3978 17.7787L16.7466 17.3069H17.5514L17.8002 16.5417Z" fill="#F9F9F9"/>
<path d="M17.8002 17.5428L17.5514 17.3069L17.8002 16.5417V17.5428Z" fill="#F9F9F9"/>
<path d="M17.8002 17.5428L17.3978 17.7787L16.7466 17.3069L17.8002 17.5428Z" fill="#F9F9F9"/>
<path d="M17.8002 17.5428L18.048 17.3069H18.8529L17.8002 17.5428Z" fill="#F9F9F9"/>
<path d="M17.8002 17.5428L16.7466 17.3069H17.5514L17.8002 17.5428Z" fill="#F9F9F9"/>
<path d="M17.8002 17.5428L17.149 18.544L17.8002 18.0711V17.5428Z" fill="#F9F9F9"/>
<path d="M18.8529 17.3069L17.8002 17.5428L18.2017 17.7787L18.8529 17.3069Z" fill="#F9F9F9"/>
<path d="M17.8002 17.5428L18.4505 18.544L17.8002 18.0711V17.5428Z" fill="#F9F9F9"/>
<path d="M9.65442 2.80343L9.90223 3.56865H10.7071L10.0559 4.04146L10.3047 4.80569L9.65442 4.33288L9.00319 4.80569L9.25199 4.04146L8.60076 3.56865H9.40563L9.65442 2.80343Z" fill="#F9F9F9"/>
<path d="M9.65442 3.80456L9.40563 3.56865L9.65442 2.80343V3.80456Z" fill="#F9F9F9"/>
<path d="M9.65442 3.80456L9.25199 4.04146L8.60076 3.56865L9.65442 3.80456Z" fill="#F9F9F9"/>
<path d="M9.65442 3.80456L9.90223 3.56865H10.7071L9.65442 3.80456Z" fill="#F9F9F9"/>
<path d="M9.65442 3.80456L8.60076 3.56865H9.40563L9.65442 3.80456Z" fill="#F9F9F9"/>
<path d="M9.65442 3.80456L9.00319 4.80569L9.65442 4.33288V3.80456Z" fill="#F9F9F9"/>
<path d="M10.7071 3.56865L9.65442 3.80456L10.0559 4.04146L10.7071 3.56865Z" fill="#F9F9F9"/>
<path d="M9.65442 3.80456L10.3047 4.80569L9.65442 4.33288V3.80456Z" fill="#F9F9F9"/>
<path d="M15.0843 2.80343L15.3331 3.56865H16.137L15.4867 4.04146L15.7355 4.80569L15.0843 4.33288L14.4341 4.80569L14.6829 4.04146L14.0316 3.56865H14.8365L15.0843 2.80343Z" fill="#F9F9F9"/>
<path d="M15.0843 3.80456L14.8365 3.56865L15.0843 2.80343L15.0843 3.80456Z" fill="#F9F9F9"/>
<path d="M15.0843 3.80456L14.6829 4.04146L14.0316 3.56865L15.0843 3.80456Z" fill="#F9F9F9"/>
<path d="M15.0843 3.80456L15.3331 3.56865H16.137L15.0843 3.80456Z" fill="#F9F9F9"/>
<path d="M15.0843 3.80456L14.0316 3.56865H14.8365L15.0843 3.80456Z" fill="#F9F9F9"/>
<path d="M15.0843 3.80456L14.4341 4.80569L15.0843 4.33288L15.0843 3.80456Z" fill="#F9F9F9"/>
<path d="M16.137 3.56865L15.0843 3.80456L15.4867 4.04146L16.137 3.56865Z" fill="#F9F9F9"/>
<path d="M15.0843 3.80456L15.7355 4.80569L15.0843 4.33288L15.0843 3.80456Z" fill="#F9F9F9"/>
<path d="M4.62598 7.96668L4.87379 8.73091L4.22355 8.25809L3.57331 8.73091L3.82111 7.96668L3.31064 7.59596L3.17088 7.49387H3.97475L4.22355 6.72865L4.47234 7.49387H5.27622L4.62598 7.96668Z" fill="#F9F9F9"/>
<path d="M4.22355 7.72978L3.97475 7.49387L4.22355 6.72865V7.72978Z" fill="#F9F9F9"/>
<path d="M4.22355 7.72978L3.82111 7.96668L3.31064 7.59596L3.17088 7.49387L3.35425 7.53451L4.22355 7.72978Z" fill="#F9F9F9"/>
<path d="M4.22355 7.72978L4.47234 7.49387H5.27622L4.22355 7.72978Z" fill="#F9F9F9"/>
<path d="M4.22355 7.72978L3.35425 7.53451L3.17088 7.49387H3.97475L4.22355 7.72978Z" fill="#F9F9F9"/>
<path d="M4.22355 7.72978L3.57331 8.73091L4.22355 8.25809V7.72978Z" fill="#F9F9F9"/>
<path d="M5.27622 7.49387L4.22355 7.72978L4.62598 7.96668L5.27622 7.49387Z" fill="#F9F9F9"/>
<path d="M4.22355 7.72978L4.87379 8.73091L4.22355 8.25809V7.72978Z" fill="#F9F9F9"/>
<path d="M9.65442 6.72865L9.90223 7.49387H10.7071L10.0559 7.96668L10.3047 8.73091L9.65442 8.25809L9.00319 8.73091L9.25199 7.96668L8.60076 7.49387H9.40563L9.65442 6.72865Z" fill="#F9F9F9"/>
<path d="M9.65442 7.72978L9.40563 7.49387L9.65442 6.72865V7.72978Z" fill="#F9F9F9"/>
<path d="M9.65442 7.72978L9.25199 7.96668L8.60076 7.49387L9.65442 7.72978Z" fill="#F9F9F9"/>
<path d="M9.65442 7.72978L9.90223 7.49387H10.7071L9.65442 7.72978Z" fill="#F9F9F9"/>
<path d="M9.65442 7.72978L8.60076 7.49387H9.40563L9.65442 7.72978Z" fill="#F9F9F9"/>
<path d="M9.65442 7.72978L9.00319 8.73091L9.65442 8.25809V7.72978Z" fill="#F9F9F9"/>
<path d="M10.7071 7.49387L9.65442 7.72978L10.0559 7.96668L10.7071 7.49387Z" fill="#F9F9F9"/>
<path d="M9.65442 7.72978L10.3047 8.73091L9.65442 8.25809V7.72978Z" fill="#F9F9F9"/>
<path d="M15.0843 6.72865L15.3331 7.49387H16.137L15.4867 7.96668L15.7355 8.73091L15.0843 8.25809L14.4341 8.73091L14.6829 7.96668L14.0316 7.49387H14.8365L15.0843 6.72865Z" fill="#F9F9F9"/>
<path d="M15.0843 7.72978L14.8365 7.49387L15.0843 6.72865L15.0843 7.72978Z" fill="#F9F9F9"/>
<path d="M15.0843 7.72978L14.6829 7.96668L14.0316 7.49387L15.0843 7.72978Z" fill="#F9F9F9"/>
<path d="M15.0843 7.72978L15.3331 7.49387H16.137L15.0843 7.72978Z" fill="#F9F9F9"/>
<path d="M15.0843 7.72978L14.0316 7.49387H14.8365L15.0843 7.72978Z" fill="#F9F9F9"/>
<path d="M15.0843 7.72978L14.4341 8.73091L15.0843 8.25809L15.0843 7.72978Z" fill="#F9F9F9"/>
<path d="M16.137 7.49387L15.0843 7.72978L15.4867 7.96668L16.137 7.49387Z" fill="#F9F9F9"/>
<path d="M15.0843 7.72978L15.7355 8.73091L15.0843 8.25809L15.0843 7.72978Z" fill="#F9F9F9"/>
<path d="M4.22355 10.6539L4.47234 11.4191H5.27622L4.62598 11.8919L4.87379 12.6561L4.22355 12.1833L3.57331 12.6561L3.82111 11.8919L3.17088 11.4191H3.97475L4.22355 10.6539Z" fill="#F9F9F9"/>
<path d="M4.22355 11.655L3.97475 11.4191L4.22355 10.6539V11.655Z" fill="#F9F9F9"/>
<path d="M4.22355 11.655L3.82111 11.8919L3.17088 11.4191L4.22355 11.655Z" fill="#F9F9F9"/>
<path d="M4.22355 11.655L4.47234 11.4191H5.27622L4.22355 11.655Z" fill="#F9F9F9"/>
<path d="M4.22355 11.655L3.17088 11.4191H3.97475L4.22355 11.655Z" fill="#F9F9F9"/>
<path d="M4.22355 11.655L3.57331 12.6561L4.22355 12.1833V11.655Z" fill="#F9F9F9"/>
<path d="M5.27622 11.4191L4.22355 11.655L4.62598 11.8919L5.27622 11.4191Z" fill="#F9F9F9"/>
<path d="M4.22355 11.655L4.87379 12.6561L4.22355 12.1833V11.655Z" fill="#F9F9F9"/>
<path d="M9.65442 10.6539L9.90223 11.4191H10.7071L10.0559 11.8919L10.3047 12.6561L9.65442 12.1833L9.00319 12.6561L9.25199 11.8919L8.60076 11.4191H9.40563L9.65442 10.6539Z" fill="#F9F9F9"/>
<path d="M9.65442 11.655L9.40563 11.4191L9.65442 10.6539V11.655Z" fill="#F9F9F9"/>
<path d="M9.65442 11.655L9.25199 11.8919L8.60076 11.4191L9.65442 11.655Z" fill="#F9F9F9"/>
<path d="M9.65442 11.655L9.90223 11.4191H10.7071L9.65442 11.655Z" fill="#F9F9F9"/>
<path d="M9.65442 11.655L8.60076 11.4191H9.40563L9.65442 11.655Z" fill="#F9F9F9"/>
<path d="M9.65442 11.655L9.00319 12.6561L9.65442 12.1833V11.655Z" fill="#F9F9F9"/>
<path d="M10.7071 11.4191L9.65442 11.655L10.0559 11.8919L10.7071 11.4191Z" fill="#F9F9F9"/>
<path d="M9.65442 11.655L10.3047 12.6561L9.65442 12.1833V11.655Z" fill="#F9F9F9"/>
<path d="M15.0843 10.6539L15.3331 11.4191H16.137L15.4867 11.8919L15.7355 12.6561L15.0843 12.1833L14.4341 12.6561L14.6829 11.8919L14.0316 11.4191H14.8365L15.0843 10.6539Z" fill="#F9F9F9"/>
<path d="M15.0843 11.655L14.8365 11.4191L15.0843 10.6539L15.0843 11.655Z" fill="#F9F9F9"/>
<path d="M15.0843 11.655L14.6829 11.8919L14.0316 11.4191L15.0843 11.655Z" fill="#F9F9F9"/>
<path d="M15.0843 11.655L15.3331 11.4191H16.137L15.0843 11.655Z" fill="#F9F9F9"/>
<path d="M15.0843 11.655L14.0316 11.4191H14.8365L15.0843 11.655Z" fill="#F9F9F9"/>
<path d="M15.0843 11.655L14.4341 12.6561L15.0843 12.1833L15.0843 11.655Z" fill="#F9F9F9"/>
<path d="M16.137 11.4191L15.0843 11.655L15.4867 11.8919L16.137 11.4191Z" fill="#F9F9F9"/>
<path d="M15.0843 11.655L15.7355 12.6561L15.0843 12.1833L15.0843 11.655Z" fill="#F9F9F9"/>
<path d="M4.22355 14.5791L4.47234 15.3443H5.27622L4.62598 15.8161L4.87379 16.5813L4.22355 16.1085L3.57331 16.5813L3.82111 15.8161L3.17088 15.3443H3.97475L4.22355 14.5791Z" fill="#F9F9F9"/>
<path d="M4.22355 15.5802L3.97475 15.3443L4.22355 14.5791V15.5802Z" fill="#F9F9F9"/>
<path d="M4.22355 15.5802L3.82111 15.8161L3.17088 15.3443L4.22355 15.5802Z" fill="#F9F9F9"/>
<path d="M4.22355 15.5802L4.47234 15.3443H5.27622L4.22355 15.5802Z" fill="#F9F9F9"/>
<path d="M4.22355 15.5802L3.17088 15.3443H3.97475L4.22355 15.5802Z" fill="#F9F9F9"/>
<path d="M4.22355 15.5802L3.57331 16.5813L4.22355 16.1085V15.5802Z" fill="#F9F9F9"/>
<path d="M5.27622 15.3443L4.22355 15.5802L4.62598 15.8161L5.27622 15.3443Z" fill="#F9F9F9"/>
<path d="M4.22355 15.5802L4.87379 16.5813L4.22355 16.1085V15.5802Z" fill="#F9F9F9"/>
<path d="M9.65442 14.5791L9.90223 15.3443H10.7071L10.0559 15.8161L10.3047 16.5813L9.65442 16.1085L9.00319 16.5813L9.25199 15.8161L8.60076 15.3443H9.40563L9.65442 14.5791Z" fill="#F9F9F9"/>
<path d="M9.65442 15.5802L9.40563 15.3443L9.65442 14.5791V15.5802Z" fill="#F9F9F9"/>
<path d="M9.65442 15.5802L9.25199 15.8161L8.60076 15.3443L9.65442 15.5802Z" fill="#F9F9F9"/>
<path d="M9.65442 15.5802L9.90223 15.3443H10.7071L9.65442 15.5802Z" fill="#F9F9F9"/>
<path d="M9.65442 15.5802L8.60076 15.3443H9.40563L9.65442 15.5802Z" fill="#F9F9F9"/>
<path d="M9.65442 15.5802L9.00319 16.5813L9.65442 16.1085V15.5802Z" fill="#F9F9F9"/>
<path d="M10.7071 15.3443L9.65442 15.5802L10.0559 15.8161L10.7071 15.3443Z" fill="#F9F9F9"/>
<path d="M9.65442 15.5802L10.3047 16.5813L9.65442 16.1085V15.5802Z" fill="#F9F9F9"/>
<path d="M15.0843 14.5791L15.3331 15.3443H16.137L15.4867 15.8161L15.7355 16.5813L15.0843 16.1085L14.4341 16.5813L14.6829 15.8161L14.0316 15.3443H14.8365L15.0843 14.5791Z" fill="#F9F9F9"/>
<path d="M15.0843 15.5802L14.8365 15.3443L15.0843 14.5791L15.0843 15.5802Z" fill="#F9F9F9"/>
<path d="M15.0843 15.5802L14.6829 15.8161L14.0316 15.3443L15.0843 15.5802Z" fill="#F9F9F9"/>
<path d="M15.0843 15.5802L15.3331 15.3443H16.137L15.0843 15.5802Z" fill="#F9F9F9"/>
<path d="M15.0843 15.5802L14.0316 15.3443H14.8365L15.0843 15.5802Z" fill="#F9F9F9"/>
<path d="M15.0843 15.5802L14.4341 16.5813L15.0843 16.1085L15.0843 15.5802Z" fill="#F9F9F9"/>
<path d="M16.137 15.3443L15.0843 15.5802L15.4867 15.8161L16.137 15.3443Z" fill="#F9F9F9"/>
<path d="M15.0843 15.5802L15.7355 16.5813L15.0843 16.1085L15.0843 15.5802Z" fill="#F9F9F9"/>
<path d="M27.5964 2.76913H19.7876V0.0878906C22.6374 0.368405 25.2928 1.31403 27.5964 2.76913Z" fill="#DE0A09"/>
<path d="M33.17 8.30706H19.7876V5.5376H30.9874C31.8012 6.38509 32.5327 7.31287 33.17 8.30706Z" fill="#DE0A09"/>
<path d="M35.5182 13.846H19.7876V11.0765H34.6202C34.9909 11.9656 35.2932 12.8904 35.5182 13.846Z" fill="#DE0A09"/>
<path d="M36 17.9992C36 18.465 35.9821 18.927 35.9474 19.3839H19.7876V16.6154H35.9474C35.9821 17.0724 36 17.5333 36 17.9992Z" fill="#DE0A09"/>
<path d="M35.5182 22.1534C35.2922 23.1079 34.9909 24.0337 34.6202 24.9228H1.37973C1.00902 24.0337 0.707687 23.1079 0.481689 22.1534H35.5182Z" fill="#DE0A09"/>
<path d="M33.17 27.6923C32.5337 28.6865 31.8022 29.6133 30.9884 30.4608H5.01155C4.19776 29.6133 3.46624 28.6865 2.82988 27.6923H33.17Z" fill="#DE0A09"/>
<path d="M27.5964 33.2302C24.818 34.9847 21.5272 35.9997 17.9995 35.9997C14.4717 35.9997 11.1809 34.9847 8.40349 33.2302H27.5964Z" fill="#DE0A09"/>
</g>
</svg>
