<svg width="36" height="36" viewBox="0 0 36 36" fill="none" xmlns="http://www.w3.org/2000/svg">
<mask id="mask0_364_620" style="mask-type:alpha" maskUnits="userSpaceOnUse" x="0" y="0" width="36" height="36">
<circle cx="18" cy="18" r="18" fill="#D9D9D9"/>
</mask>
<g mask="url(#mask0_364_620)">
<circle cx="18" cy="18" r="18" fill="#DE2810"/>
<path d="M16.8458 10.3299H12.2525L10.833 5.91504L9.41361 10.3299H4.82031L8.53638 13.0577L7.11696 17.4716L10.833 14.7438L14.5491 17.4716L13.1297 13.0577L16.8458 10.3299Z" fill="#FFFF00"/>
<path d="M21.6363 18.7322L20.4994 18.6202L20.2555 17.4922L19.7956 18.5508L18.6587 18.4378L19.5121 19.205L19.0532 20.2626L20.0395 19.6778L20.8929 20.445L20.6491 19.317L21.6363 18.7322Z" fill="#FFFF00"/>
<path d="M24.1193 13.7563L23.0121 14.0398L22.3966 13.0635L22.3272 14.2153L21.22 14.4988L22.2846 14.927L22.2152 16.0788L22.9417 15.1916L24.0063 15.6198L23.3918 14.6435L24.1193 13.7563Z" fill="#FFFF00"/>
<path d="M23.698 7.83594L22.8268 8.57638L21.8464 7.96777L22.2885 9.03333L21.4182 9.77377L22.5621 9.69249L23.0042 10.758L23.2688 9.64193L24.4137 9.56065L23.4334 8.95205L23.698 7.83594Z" fill="#FFFF00"/>
<path d="M21.7305 4.22997L20.5975 4.07733L20.3933 2.94238L19.8977 3.98415L18.7647 3.8325L19.5914 4.62745L19.0948 5.66922L20.1019 5.11909L20.9276 5.91504L20.7234 4.7801L21.7305 4.22997Z" fill="#FFFF00"/>
</g>
</svg>
