<svg width="228" height="61" viewBox="0 0 228 61" fill="none" xmlns="http://www.w3.org/2000/svg">
<path d="M2.26525 31.8887C-0.0516127 31.8887 -0.45976 28.5801 1.78771 28.0176L113.522 0.0595654C113.835 -0.0187923 114.163 -0.0187924 114.476 0.0595653L226.211 28.0176C228.458 28.5799 228.051 31.8883 225.734 31.8887L207.326 31.8887C207.525 32.2578 207.637 32.6802 207.637 33.1289L207.637 58.1299C207.637 59.5767 206.465 60.7498 205.018 60.75L22.982 60.75C21.5353 60.7498 20.3629 59.5767 20.3629 58.1299L20.3629 33.1289C20.3629 32.6804 20.4748 32.2577 20.6734 31.8887L2.26525 31.8887Z" fill="url(#paint0_linear_580_40303)"/>
<defs>
<linearGradient id="paint0_linear_580_40303" x1="113.999" y1="60.75" x2="113.999" y2="0.000796116" gradientUnits="userSpaceOnUse">
<stop stop-color="white"/>
<stop offset="1" stop-color="#D9D9D9"/>
</linearGradient>
</defs>
</svg>
