<svg width="52" height="89" viewBox="0 0 52 89" fill="none" xmlns="http://www.w3.org/2000/svg">
<path d="M17.0887 1.13859C18.4438 -0.45855 21.0546 0.500066 21.0546 2.59465V5.46867H46.7528C48.4095 5.46891 49.7528 6.81196 49.7528 8.46867V30.4999C49.7526 32.1565 48.4093 33.4997 46.7528 33.4999H21.0546V36.3271C21.0546 38.4217 18.4437 39.3804 17.0887 37.7831L2.78211 20.9159C2.07006 20.0763 2.07 18.8453 2.78211 18.0058L17.0887 1.13859Z" fill="#E5E5E5"/>
<path d="M32.2344 52.8368C32.2344 50.7422 34.8452 49.7837 36.2002 51.3808L50.5068 68.2479C51.219 69.0875 51.219 70.3185 50.5068 71.1581L36.2002 88.0253C34.8452 89.6224 32.2344 88.6638 32.2344 86.5692V83.7167H3.95898C2.30213 83.7167 0.958984 82.3735 0.958984 80.7167V58.6854C0.959017 57.0286 2.30215 55.6854 3.95898 55.6854H32.2344V52.8368Z" fill="#E5E5E5"/>
</svg>
