<svg width="228" height="62" viewBox="0 0 228 62" fill="none" xmlns="http://www.w3.org/2000/svg">
<path d="M2.26465 29.6113C-0.0520262 29.6116 -0.459436 32.92 1.78809 33.4824L113.522 61.4404C113.836 61.5188 114.163 61.5188 114.477 61.4404L226.211 33.4824C228.458 32.9199 228.05 29.6113 225.733 29.6113L207.325 29.6113C207.524 29.2421 207.638 28.8199 207.638 28.3711L207.638 3.37013C207.638 1.9232 206.465 0.750009 205.018 0.750009L22.9824 0.750001C21.5355 0.750011 20.3623 1.9232 20.3623 3.37012L20.3623 28.3711C20.3623 28.8196 20.4752 29.2422 20.6738 29.6113L2.26465 29.6113Z" fill="url(#paint0_linear_580_40427)"/>
<defs>
<linearGradient id="paint0_linear_580_40427" x1="113.999" y1="0.750005" x2="113.999" y2="61.4992" gradientUnits="userSpaceOnUse">
<stop stop-color="white"/>
<stop offset="1" stop-color="#D9D9D9"/>
</linearGradient>
</defs>
</svg>
