<svg width="89" height="51" viewBox="0 0 89 51" fill="none" xmlns="http://www.w3.org/2000/svg">
<path d="M1.03516 34.4521C-0.561989 33.0971 0.396627 30.4863 2.49121 30.4863L5.36523 30.4863L5.36523 4.78809C5.36547 3.13143 6.70852 1.78809 8.36523 1.78809L30.3965 1.78808C32.053 1.78828 33.3962 3.13155 33.3965 4.78808L33.3965 30.4863L36.2236 30.4863C38.3183 30.4863 39.277 33.0972 37.6797 34.4521L20.8125 48.7588C19.9729 49.4708 18.7419 49.4709 17.9023 48.7588L1.03516 34.4521Z" fill="#E5E5E5"/>
<path d="M52.7334 19.3066C50.6389 19.3066 49.6804 16.6959 51.2773 15.3408L68.1445 1.03418C68.9841 0.321983 70.216 0.321982 71.0557 1.03418L87.9219 15.3408C89.5191 16.6957 88.5611 19.3063 86.4668 19.3066L83.6133 19.3066L83.6133 47.582C83.6133 49.2389 82.2701 50.582 80.6133 50.582L58.582 50.582C56.9253 50.5819 55.582 49.2388 55.582 47.582L55.582 19.3066L52.7334 19.3066Z" fill="#E5E5E5"/>
</svg>
