<svg width="24" height="25" viewBox="0 0 24 25" fill="none" xmlns="http://www.w3.org/2000/svg">
<mask id="mask0_550_33158" style="mask-type:alpha" maskUnits="userSpaceOnUse" x="0" y="0" width="24" height="25">
<rect y="0.765625" width="24" height="24" fill="#D9D9D9"/>
</mask>
<g mask="url(#mask0_550_33158)">
<path d="M19.962 21.9683C17.8547 21.9683 15.7724 21.5091 13.7152 20.5908C11.6579 19.6725 9.78398 18.3701 8.09348 16.6836C6.40282 14.9929 5.0984 13.118 4.18023 11.0588C3.2619 8.99965 2.80273 6.9164 2.80273 4.80906C2.80273 4.45323 2.92065 4.1564 3.15648 3.91856C3.39232 3.68073 3.68815 3.56181 4.04398 3.56181H8.08798C8.41298 3.56181 8.69107 3.6579 8.92224 3.85006C9.1534 4.04223 9.29765 4.28856 9.35499 4.58906L9.99898 7.96331C10.0482 8.28981 10.0408 8.56665 9.97698 8.79381C9.91298 9.02098 9.7904 9.21915 9.60923 9.38831L7.14823 11.7906C7.46573 12.3634 7.84165 12.9214 8.27598 13.4646C8.71048 14.0077 9.19473 14.538 9.72873 15.0553C10.2256 15.552 10.7374 16.0072 11.2642 16.4211C11.7909 16.8349 12.3431 17.2091 12.9207 17.5438L15.3125 15.1701C15.5063 14.9801 15.744 14.8436 16.0255 14.7608C16.307 14.6778 16.5943 14.6609 16.8875 14.7101L20.176 15.3923C20.4932 15.4828 20.7437 15.6365 20.9275 15.8533C21.1113 16.0701 21.2032 16.3288 21.2032 16.6293V20.7211C21.2032 21.0769 21.0843 21.3737 20.8465 21.6116C20.6087 21.8494 20.3138 21.9683 19.962 21.9683ZM16.7167 9.52006H18.2152C18.5106 9.52006 18.758 9.61981 18.9575 9.81931C19.1572 10.019 19.257 10.2665 19.257 10.5618C19.257 10.8571 19.1572 11.1056 18.9575 11.3071C18.758 11.5087 18.5106 11.6096 18.2152 11.6096H14.299C13.9797 11.6096 13.7102 11.4998 13.4907 11.2803C13.2712 11.0606 13.1615 10.7912 13.1615 10.4721V6.56781C13.1615 6.27248 13.2622 6.02398 13.4637 5.82231C13.6654 5.62081 13.9139 5.52006 14.2092 5.52006C14.5046 5.52006 14.753 5.62081 14.9545 5.82231C15.1562 6.02398 15.257 6.27248 15.257 6.56781V8.05406L19.4792 3.83181C19.6746 3.63664 19.9179 3.53906 20.2092 3.53906C20.5006 3.53906 20.7439 3.63664 20.9392 3.83181C21.1344 4.02714 21.232 4.27148 21.232 4.56481C21.232 4.85815 21.1344 5.1024 20.9392 5.29756L16.7167 9.52006Z" fill="#DB0032"/>
</g>
</svg>
