<svg width="24" height="25" viewBox="0 0 24 25" fill="none" xmlns="http://www.w3.org/2000/svg">
<mask id="mask0_550_33166" style="mask-type:alpha" maskUnits="userSpaceOnUse" x="0" y="0" width="24" height="25">
<rect y="0.765625" width="24" height="24" fill="#D9D9D9"/>
</mask>
<g mask="url(#mask0_550_33166)">
<path d="M11.9995 23.1375C10.5643 23.1375 9.21652 22.866 7.95602 22.323C6.69552 21.78 5.59835 21.0416 4.66452 20.1078C3.73052 19.1739 2.9921 18.0768 2.44927 16.8163C1.90627 15.5558 1.63477 14.2079 1.63477 12.7728C1.63477 10.7931 2.15452 8.9662 3.19402 7.29203C4.23352 5.61787 5.64118 4.34387 7.41702 3.47003C7.40968 3.81453 7.42602 4.1712 7.46602 4.54003C7.50618 4.90903 7.58652 5.33212 7.70702 5.80928C6.49518 6.56245 5.54343 7.5532 4.85177 8.78153C4.1601 10.0097 3.81427 11.3401 3.81427 12.7728C3.81427 15.0539 4.60818 16.9874 6.19602 18.5733C7.78385 20.1591 9.71835 20.952 11.9995 20.952C14.2807 20.952 16.2152 20.1591 17.803 18.5733C19.3908 16.9874 20.1848 15.0539 20.1848 12.7728C20.1848 11.3401 19.8379 10.0055 19.1443 8.76903C18.4506 7.53237 17.4915 6.53745 16.267 5.78428C16.3875 5.30312 16.4689 4.88003 16.511 4.51503C16.553 4.1502 16.5767 3.80187 16.582 3.47003C18.3578 4.34387 19.7655 5.6147 20.805 7.28253C21.8445 8.95037 22.3643 10.7804 22.3643 12.7728C22.3643 14.2079 22.0928 15.5558 21.5498 16.8163C21.0069 18.0768 20.2685 19.1739 19.3345 20.1078C18.4007 21.0416 17.3035 21.78 16.043 22.323C14.7825 22.866 13.4347 23.1375 11.9995 23.1375ZM11.9995 18.988C10.273 18.988 8.80552 18.3838 7.59702 17.1753C6.38852 15.9668 5.78427 14.4993 5.78427 12.7728C5.78427 11.7821 5.99977 10.8519 6.43077 9.98203C6.86177 9.11203 7.47493 8.38178 8.27027 7.79128C8.3576 8.06911 8.45818 8.38745 8.57202 8.74628C8.68602 9.10528 8.83435 9.55037 9.01702 10.0815C8.67418 10.4569 8.41393 10.8719 8.23627 11.3265C8.05843 11.7812 7.96952 12.2633 7.96952 12.7728C7.96952 13.8848 8.36318 14.8344 9.15052 15.6218C9.93785 16.4089 10.8875 16.8025 11.9995 16.8025C13.1115 16.8025 14.0612 16.4089 14.8485 15.6218C15.6359 14.8344 16.0295 13.8848 16.0295 12.7728C16.0295 12.2633 15.9406 11.7812 15.7628 11.3265C15.5851 10.8719 15.3249 10.4569 14.982 10.0815C15.1354 9.6257 15.2722 9.21003 15.3925 8.83453C15.5127 8.45887 15.6184 8.11111 15.7098 7.79128C16.5051 8.38178 17.1214 9.11203 17.5588 9.98203C17.9961 10.8519 18.2148 11.7821 18.2148 12.7728C18.2148 14.4993 17.6105 15.9668 16.402 17.1753C15.1935 18.3838 13.726 18.988 11.9995 18.988ZM11.6638 9.23678C11.4351 9.23678 11.2336 9.17037 11.0593 9.03753C10.8849 8.90453 10.7625 8.73203 10.692 8.52003L9.69202 5.36578C9.57535 4.93645 9.49618 4.5622 9.45452 4.24303C9.41285 3.92403 9.39202 3.61453 9.39202 3.31453C9.39202 2.5867 9.6446 1.97011 10.1498 1.46478C10.6551 0.959615 11.2717 0.707031 11.9995 0.707031C12.7273 0.707031 13.3439 0.959615 13.8493 1.46478C14.3544 1.97011 14.607 2.5867 14.607 3.31453C14.607 3.61453 14.5862 3.92112 14.5445 4.23428C14.5028 4.54728 14.4237 4.91845 14.307 5.34778L13.3013 8.52003C13.2306 8.73203 13.1081 8.90453 12.9338 9.03753C12.7594 9.17037 12.558 9.23678 12.3295 9.23678H11.6638ZM11.9995 14.8325C11.4295 14.8325 10.9428 14.6307 10.5393 14.227C10.1356 13.8235 9.93377 13.3368 9.93377 12.7668C9.93377 12.1968 10.1356 11.71 10.5393 11.3065C10.9428 10.9029 11.4295 10.701 11.9995 10.701C12.5695 10.701 13.0563 10.9029 13.4598 11.3065C13.8634 11.71 14.0653 12.1968 14.0653 12.7668C14.0653 13.3368 13.8634 13.8235 13.4598 14.227C13.0563 14.6307 12.5695 14.8325 11.9995 14.8325Z" fill="#DB0032"/>
</g>
</svg>
