<svg width="24" height="25" viewBox="0 0 24 25" fill="none" xmlns="http://www.w3.org/2000/svg">
<mask id="mask0_550_33150" style="mask-type:alpha" maskUnits="userSpaceOnUse" x="0" y="0" width="24" height="25">
<rect y="0.765625" width="24" height="24" fill="#D9D9D9"/>
</mask>
<g mask="url(#mask0_550_33150)">
<path d="M12.0346 22.0932C11.7512 22.0932 11.5107 21.9954 11.3131 21.7997C11.1154 21.604 11.0166 21.3645 11.0166 21.0812C11.0166 20.9447 11.0446 20.8079 11.1006 20.6709C11.1566 20.5339 11.2406 20.4095 11.3526 20.2977L15.5438 16.1122C15.6438 16.0122 15.6938 15.8924 15.6938 15.7527C15.6938 15.613 15.6438 15.4932 15.5438 15.3932C15.4438 15.2932 15.324 15.2454 15.1843 15.2497C15.0447 15.254 14.9248 15.3062 14.8248 15.4062L10.6526 19.5787C10.5406 19.6905 10.4202 19.7714 10.2916 19.8214C10.1629 19.8714 10.024 19.8964 9.87482 19.8964C9.59149 19.8964 9.35199 19.7986 9.15632 19.6029C8.96065 19.4073 8.86282 19.1678 8.86282 18.8844C8.86282 18.7059 8.88882 18.5565 8.94082 18.4362C8.99282 18.3159 9.06849 18.2061 9.16782 18.1069L13.3531 13.9214C13.4531 13.8214 13.5031 13.7048 13.5031 13.5714C13.5031 13.4381 13.4531 13.3214 13.3531 13.2214C13.2531 13.1214 13.1364 13.0714 13.0031 13.0714C12.8697 13.0714 12.7531 13.1214 12.6531 13.2214L8.50957 17.3399C8.40157 17.4479 8.28224 17.5289 8.15157 17.5829C8.02107 17.6369 7.87282 17.6639 7.70682 17.6639C7.43615 17.6639 7.20082 17.5629 7.00082 17.3609C6.80082 17.1589 6.70082 16.9226 6.70082 16.6519C6.70082 16.5026 6.72782 16.3637 6.78182 16.2352C6.83582 16.1065 6.91682 15.9882 7.02482 15.8802L11.1553 11.7437C11.2553 11.6437 11.3053 11.5239 11.3053 11.3842C11.3053 11.2445 11.2553 11.1247 11.1553 11.0247C11.0553 10.9247 10.9387 10.8747 10.8053 10.8747C10.672 10.8747 10.5553 10.9247 10.4553 11.0247L6.32482 15.1802C6.22949 15.2755 6.11649 15.3492 5.98582 15.4012C5.85532 15.4532 5.70074 15.4792 5.52207 15.4792C5.23874 15.4792 4.99924 15.3814 4.80357 15.1857C4.6079 14.99 4.51007 14.7505 4.51007 14.4672C4.51007 14.3179 4.54007 14.1749 4.60007 14.0384C4.66007 13.9018 4.74599 13.7774 4.85782 13.6654L9.52482 8.99269C9.75999 8.75752 10.0519 8.65227 10.4006 8.67694C10.7492 8.7016 11.0452 8.83552 11.2883 9.07869L13.8901 11.6802C14.1052 11.8954 14.3438 12.0631 14.6058 12.1834C14.8677 12.3038 15.1455 12.3639 15.4393 12.3639C16.0087 12.3639 16.4983 12.1684 16.9083 11.7774C17.3182 11.3866 17.5231 10.8875 17.5231 10.2802C17.5231 9.99902 17.4735 9.73044 17.3743 9.47444C17.275 9.21844 17.105 8.97019 16.8643 8.72969L13.8281 5.69319C13.6089 5.47402 13.4712 5.22919 13.4148 4.95869C13.3585 4.68819 13.4106 4.43702 13.5711 4.20519C13.7369 3.95919 13.9405 3.77885 14.1818 3.66419C14.4232 3.54952 14.6875 3.49219 14.9748 3.49219C15.3447 3.49219 15.7209 3.57952 16.1036 3.75419C16.4862 3.92886 16.8335 4.17211 17.1453 4.48394L21.2091 8.56669C21.5409 8.89852 21.7907 9.26969 21.9583 9.68019C22.1258 10.0907 22.2096 10.5615 22.2096 11.0927C22.2096 11.5017 22.1207 11.9039 21.9428 12.2994C21.7648 12.6949 21.5202 13.0483 21.2091 13.3594L12.8243 21.7694C12.687 21.9068 12.5583 21.995 12.4383 22.0342C12.3185 22.0735 12.1839 22.0932 12.0346 22.0932ZM2.78082 12.7339C2.43615 12.5006 2.17774 12.2115 2.00557 11.8667C1.83324 11.5217 1.74707 11.1519 1.74707 10.7574C1.74707 10.3581 1.82924 9.9651 1.99357 9.57844C2.1579 9.19194 2.39799 8.84069 2.71382 8.52469L6.73557 4.48394C7.0309 4.18877 7.3584 3.96119 7.71807 3.80119C8.07757 3.64119 8.45899 3.56119 8.86232 3.56119C9.30282 3.56119 9.7279 3.63919 10.1376 3.79519C10.5472 3.95119 10.9037 4.18077 11.2068 4.48394L16.1643 9.42969C16.2717 9.53685 16.3615 9.66294 16.4338 9.80794C16.506 9.95277 16.5421 10.1039 16.5421 10.2612C16.5421 10.5684 16.4383 10.8258 16.2308 11.0334C16.0232 11.2411 15.7657 11.3449 15.4586 11.3449C15.3012 11.3449 15.1502 11.3088 15.0053 11.2364C14.8603 11.1641 14.7342 11.0744 14.6268 10.9672L11.9763 8.33569C11.5373 7.89652 11.0017 7.67694 10.3696 7.67694C9.73757 7.67694 9.20199 7.89652 8.76282 8.33569L4.48732 12.6112C4.25465 12.8439 3.98057 12.9683 3.66507 12.9844C3.3494 13.0008 3.05465 12.9173 2.78082 12.7339Z" fill="#DB0032"/>
</g>
</svg>
