<svg width="56" height="48" viewBox="0 0 56 48" fill="none" xmlns="http://www.w3.org/2000/svg">
<path d="M47.8464 14.779C46.348 10.5022 42.3918 7.6651 37.8429 7.6651C36.3026 7.6651 34.789 8.00056 33.4095 8.64452C31.7536 3.50467 27.0256 0 21.5642 0C14.6931 0 9.10285 5.62871 9.10285 12.547C9.10285 13.2365 9.1581 13.9226 9.2686 14.602C4.07343 15.1094 0 19.5294 0 24.8901C0 30.5896 4.60584 35.2254 10.2648 35.2254C10.7269 35.2254 11.1019 34.8478 11.1019 34.3825C11.1019 33.9173 10.7269 33.5396 10.2648 33.5396C5.52834 33.5396 1.67424 29.6591 1.67424 24.8901C1.67424 20.1211 5.52834 16.2405 10.2648 16.2405H10.2832C10.541 16.2405 10.7838 16.1208 10.9428 15.9168C11.1019 15.7129 11.1588 15.4465 11.0969 15.1953C10.8842 14.3322 10.7771 13.4405 10.7771 12.5487C10.7771 6.55925 15.6156 1.68743 21.5642 1.68743C26.6037 1.68743 30.9232 5.13479 32.0667 10.0707C32.127 10.332 32.3078 10.5494 32.5539 10.6556C32.8 10.7601 33.0813 10.7416 33.3107 10.6034C34.6718 9.78577 36.2389 9.35422 37.8429 9.35422C41.7589 9.35422 45.2798 11.989 46.4049 15.7634C46.497 16.0753 46.7599 16.3046 47.078 16.3534C51.2786 17.0075 54.3258 20.5982 54.3258 24.8918C54.3258 29.6607 50.4717 33.5413 45.7352 33.5413C45.2731 33.5413 44.8981 33.9189 44.8981 34.3842C44.8981 34.8495 45.2731 35.2271 45.7352 35.2271C51.3958 35.2271 56 30.5913 56 24.8918C56 22.4103 55.116 20.0132 53.5104 18.1403C52.0354 16.4192 50.0397 15.2392 47.8464 14.7806V14.779Z" fill="black"/>
<path d="M24.9566 25.2016L26.174 21.6016H29.8262L30.4349 24.0016L31.6523 25.8016L35.3044 24.6016C36.116 25.2016 37.7392 26.5216 37.7392 27.0016C37.7392 27.4816 37.3334 27.6016 37.1305 27.6016V30.0016L38.3479 31.2016L40.174 32.4016V35.4016C40.174 35.8816 39.7682 36.4016 39.5653 36.6016H37.7392V39.0016C37.7392 39.4816 38.5508 40.8016 38.9566 41.4016L35.9131 45.0016L34.087 43.8016L31.6523 43.2016L29.8262 45.6016L25.5653 47.4016V45.0016C24.7537 44.4016 23.0088 43.3216 22.5218 43.8016C22.0349 44.2816 20.6957 44.4016 20.087 44.4016L18.261 42.0016L18.8696 39.0016L16.4349 36.6016C16.232 35.6016 15.8262 33.4816 15.8262 33.0016C15.8262 32.5216 16.6378 32.4016 17.0436 32.4016L18.8696 31.8016L18.261 28.2016L18.8696 25.8016C19.6812 25.4016 21.4262 24.6016 21.9131 24.6016C22.4001 24.6016 24.145 25.0016 24.9566 25.2016Z" fill="white"/>
<path d="M16.9568 31.2038H15.3127C14.8506 31.2038 14.4756 31.5814 14.4756 32.0467V36.7145C14.4756 37.1798 14.8506 37.5574 15.3127 37.5574H16.9568C17.5327 37.5574 18.0484 37.9029 18.2677 38.439C18.4887 38.9751 18.3682 39.587 17.9597 39.9966L16.7961 41.1682C16.6387 41.3267 16.5516 41.5408 16.5516 41.765C16.5516 41.9892 16.6404 42.2033 16.7961 42.3617L20.0742 45.6624C20.4007 45.9912 20.9315 45.9912 21.2579 45.6624L22.4199 44.4925C22.8267 44.0829 23.4344 43.9615 23.9669 44.1824C24.4993 44.4049 24.8425 44.9224 24.8425 45.5023V47.1577C24.8425 47.623 25.2175 48.0006 25.6796 48.0006H30.3156C30.7777 48.0006 31.1527 47.623 31.1527 47.1577V45.5023C31.1527 44.9224 31.4959 44.4032 32.0283 44.1824C32.5607 43.9598 33.1685 44.0829 33.5753 44.4925L34.7372 45.6641C34.8946 45.8226 35.1073 45.9102 35.3299 45.9102C35.5526 45.9102 35.7652 45.8209 35.9226 45.6641L39.2008 42.3634C39.5272 42.0347 39.5272 41.5003 39.2008 41.1716L38.0372 40C37.6303 39.5904 37.5081 38.9784 37.7291 38.4424C37.9501 37.9063 38.4641 37.5607 39.04 37.5607H40.6842C41.1462 37.5607 41.5213 37.1831 41.5213 36.7179V32.05C41.5213 31.5848 41.1462 31.2071 40.6842 31.2071H39.04C38.4641 31.2071 37.9484 30.8616 37.7291 30.3255C37.5081 29.7894 37.6287 29.1775 38.0372 28.7679L39.2008 27.5963C39.5272 27.2676 39.5272 26.7332 39.2008 26.4045L35.9226 23.1038C35.5961 22.775 35.0654 22.775 34.7389 23.1038L33.577 24.2737C33.1702 24.6833 32.5624 24.8064 32.03 24.5838C31.4976 24.3613 31.1544 23.8438 31.1544 23.2639V21.6085C31.1544 21.1432 30.7793 20.7656 30.3173 20.7656H25.6813C25.2192 20.7656 24.8442 21.1432 24.8442 21.6085V23.2639C24.8442 23.8438 24.5009 24.363 23.9685 24.5838C23.4361 24.8064 22.8284 24.685 22.4215 24.2737L21.2579 23.1038C20.9315 22.775 20.4007 22.775 20.0742 23.1038L16.7961 26.4045C16.6387 26.5629 16.5516 26.777 16.5516 27.0012C16.5516 27.2254 16.6404 27.4395 16.7961 27.598L17.9597 28.7696C18.3665 29.1792 18.4887 29.7911 18.2677 30.3272C18.0467 30.8633 17.5327 31.2088 16.9568 31.2088V31.2038ZM19.145 27.571L18.5741 26.9962L20.6686 24.8873L21.2395 25.4621C22.1269 26.3556 23.4512 26.6219 24.6114 26.1381C25.7717 25.6543 26.5217 24.5248 26.5217 23.2605V22.448H29.4835V23.2605C29.4835 24.5248 30.2335 25.6543 31.3938 26.1381C32.554 26.6219 33.8767 26.3573 34.7657 25.4621L35.3366 24.8873L37.4311 26.9962L36.8602 27.571C35.9728 28.4644 35.7083 29.7979 36.1888 30.9661C36.6693 32.1343 37.7911 32.8895 39.0467 32.8895H39.8537V35.8716H39.0467C37.7911 35.8716 36.6693 36.6268 36.1888 37.7951C35.7083 38.9633 35.9712 40.295 36.8602 41.1902L37.4311 41.765L35.3366 43.8722L34.7657 43.2973C33.8784 42.4039 32.554 42.1392 31.3938 42.623C30.2335 43.1068 29.4835 44.2363 29.4835 45.5006V46.3131H26.5217V45.5006C26.5217 44.2363 25.7717 43.1068 24.6114 42.623C23.4512 42.1392 22.1285 42.4039 21.2395 43.299L20.6686 43.8739L18.5741 41.7667L19.145 41.1918C20.0324 40.2984 20.2969 38.965 19.8164 37.7967C19.3359 36.6285 18.2142 35.8733 16.9585 35.8733H16.1515V32.8912H16.9585C18.2142 32.8912 19.3359 32.136 19.8164 30.9678C20.2969 29.7996 20.0341 28.4661 19.145 27.5727V27.571Z" fill="black"/>
<path d="M28.0005 40.2609C31.2184 40.2609 33.8369 37.6243 33.8369 34.3843C33.8369 31.1443 31.2184 28.5078 28.0005 28.5078C24.7826 28.5078 22.1641 31.1443 22.1641 34.3843C22.1641 37.6243 24.7826 40.2609 28.0005 40.2609ZM28.0005 30.1936C30.2958 30.1936 32.1626 32.0732 32.1626 34.3843C32.1626 36.6955 30.2958 38.5751 28.0005 38.5751C25.7051 38.5751 23.8383 36.6955 23.8383 34.3843C23.8383 32.0732 25.7051 30.1936 28.0005 30.1936Z" fill="#DB0032"/>
</svg>
