<svg width="100" height="101" viewBox="0 0 100 101" fill="none" xmlns="http://www.w3.org/2000/svg">
<rect y="0.765625" width="100" height="100" rx="50" fill="#F9F2ED"/>
<rect x="23" y="31.7656" width="54" height="38" rx="3" fill="white" stroke="black" stroke-width="2"/>
<path d="M43.6963 59.2969H56.3037C56.856 59.2969 57.3037 59.7446 57.3037 60.2969V74.7119C57.3037 75.545 56.345 76.0129 55.6885 75.5L51.8467 72.499C50.8292 71.7044 49.4268 71.655 48.3613 72.3506L48.1533 72.499L44.3115 75.5C43.655 76.0128 42.6963 75.545 42.6963 74.7119V60.2969C42.6963 59.7446 43.144 59.2969 43.6963 59.2969Z" fill="white" stroke="black" stroke-width="2"/>
<mask id="mask0_550_31640" style="mask-type:alpha" maskUnits="userSpaceOnUse" x="34" y="35" width="32" height="32">
<rect x="34.4541" y="35.2266" width="31.0916" height="31.0916" fill="#D9D9D9"/>
</mask>
<g mask="url(#mask0_550_31640)">
<path d="M50 53.9798L52.7098 55.6208C52.9041 55.743 53.0966 55.7339 53.2873 55.5936C53.4779 55.4533 53.5481 55.2643 53.4978 55.0268L52.7853 51.9718L55.1819 49.8883C55.3691 49.7227 55.4231 49.5301 55.3439 49.3105C55.2646 49.0911 55.1027 48.9707 54.8581 48.9491L51.7165 48.7007L50.4965 45.7965C50.403 45.5806 50.2375 45.4727 50 45.4727C49.7625 45.4727 49.597 45.5806 49.5035 45.7965L48.2835 48.7007L45.1419 48.9491C44.8973 48.9707 44.7354 49.0911 44.6561 49.3105C44.5769 49.5301 44.6309 49.7227 44.8181 49.8883L47.2147 51.9718L46.5022 55.0268C46.4519 55.2643 46.5221 55.4533 46.7127 55.5936C46.9034 55.7339 47.0959 55.743 47.2902 55.6208L50 53.9798ZM45.6601 61.1373H41.7954C41.198 61.1373 40.6887 60.9268 40.2677 60.5057C39.8467 60.0847 39.6362 59.5755 39.6362 58.978V55.1133L36.8185 52.2849C36.6097 52.069 36.455 51.8297 36.3544 51.5669C36.2535 51.3042 36.2031 51.0397 36.2031 50.7734C36.2031 50.5072 36.2535 50.2427 36.3544 49.98C36.455 49.7172 36.6097 49.4779 36.8185 49.2619L39.6362 46.4336V42.5688C39.6362 41.9714 39.8467 41.4622 40.2677 41.0411C40.6887 40.6201 41.198 40.4096 41.7954 40.4096H45.6601L48.4885 37.5919C48.7044 37.3831 48.9473 37.2284 49.2172 37.1278C49.4871 37.027 49.7553 36.9766 50.0217 36.9766C50.2879 36.9766 50.5524 37.0305 50.8152 37.1385C51.0777 37.2465 51.317 37.4048 51.5329 37.6136L54.3399 40.4096H58.2046C58.802 40.4096 59.3113 40.6201 59.7323 41.0411C60.1533 41.4622 60.3639 41.9714 60.3639 42.5688V46.4336L63.1815 49.2619C63.3903 49.4779 63.545 49.7172 63.6456 49.98C63.7465 50.2427 63.7969 50.5072 63.7969 50.7734C63.7969 51.0397 63.7465 51.3042 63.6456 51.5669C63.545 51.8297 63.3903 52.069 63.1815 52.2849L60.3639 55.1133V58.978C60.3639 59.5755 60.1533 60.0847 59.7323 60.5057C59.3113 60.9268 58.802 61.1373 58.2046 61.1373H54.3399L51.5329 63.9119C51.317 64.1062 51.0777 64.2573 50.8152 64.3653C50.5524 64.4733 50.2879 64.5272 50.0217 64.5272C49.7553 64.5272 49.4908 64.4733 49.2282 64.3653C48.9655 64.2573 48.7261 64.1062 48.5102 63.9119L45.6601 61.1373Z" fill="#DB0032"/>
</g>
</svg>
