<svg width="100" height="101" viewBox="0 0 100 101" fill="none" xmlns="http://www.w3.org/2000/svg">
<rect y="0.765625" width="100" height="100" rx="50" fill="#F9F2ED"/>
<g clip-path="url(#clip0_550_31641)">
<path d="M49.9575 23.2578C62.1526 23.2356 72.0005 32.8536 72.0005 44.666C72.0005 52.9806 67.1266 60.2031 59.981 63.75L59.2817 64.0811C56.7297 65.2387 54.7115 67.3345 53.7114 69.9551C53.4464 70.0521 53.209 70.1824 53.0151 70.2998C52.6286 70.5339 52.2098 70.8479 51.8521 71.1045C51.4688 71.3794 51.1191 71.6168 50.7837 71.7871C50.4468 71.9581 50.1929 72.0243 50.0005 72.0244C49.398 72.0244 48.7002 71.6563 47.9097 71.0996C47.5938 70.8772 47.1292 70.5245 46.8384 70.3271C46.6753 70.2165 46.4937 70.1034 46.3091 70.0127C45.3934 67.5659 43.5815 65.5433 41.2329 64.3291L40.7241 64.083C33.4789 60.799 28.3913 53.8004 28.021 45.624L28.0005 44.8291C27.9123 33.212 37.4739 23.5849 49.3882 23.2656L49.9575 23.2578Z" fill="white" stroke="black" stroke-width="2"/>
<path d="M57.6664 68.8242C59.4314 68.8242 60.8609 70.2169 60.8609 71.9365C60.8609 73.656 59.4314 75.0487 57.6664 75.0487H52.7214C51.8478 75.0487 50.923 77.1183 49.9998 77.1183C49.1341 77.1183 48.2684 75.0487 47.4442 75.0487H42.3331C40.5698 75.0487 39.1387 73.656 39.1387 71.9365C39.1387 70.2169 40.565 68.8242 42.3331 68.8242H57.6664Z" fill="#DB0032"/>
<path d="M52.5556 75.043C54.3205 75.043 55.75 76.4357 55.75 78.1552C55.75 79.8747 54.3205 81.2675 52.5556 81.2675H47.4444C45.6811 81.2675 44.25 79.8747 44.25 78.1552C44.25 76.4357 45.6763 75.043 47.4444 75.043H52.5556Z" fill="#DB0032"/>
<rect x="48.9995" y="34.7578" width="2" height="36" rx="1" fill="#DB0032"/>
<path d="M44.2198 39.8227C42.2646 38.6939 39.8746 38.842 38.3158 39.1263C37.3541 39.3017 36.8082 40.2471 37.1372 41.1677C37.6704 42.6598 38.7371 44.8037 40.6923 45.9325C42.6474 47.0613 45.0374 46.9132 46.5962 46.6289C47.558 46.4535 48.1038 45.5081 47.7748 44.5874C47.2417 43.0954 46.1749 40.9515 44.2198 39.8227Z" fill="#DB0032"/>
<path d="M55.7797 39.8227C57.7349 38.6939 60.1249 38.842 61.6837 39.1263C62.6454 39.3017 63.1913 40.2471 62.8623 41.1677C62.3291 42.6598 61.2624 44.8037 59.3072 45.9325C57.3521 47.0613 54.9621 46.9132 53.4033 46.6289C52.4415 46.4535 51.8957 45.5081 52.2247 44.5874C52.7579 43.0954 53.8246 40.9515 55.7797 39.8227Z" fill="#DB0032"/>
<path d="M44.2198 49.7055C42.2646 48.5767 39.8746 48.7248 38.3158 49.0091C37.3541 49.1845 36.8082 50.1299 37.1372 51.0506C37.6704 52.5426 38.7371 54.6865 40.6923 55.8153C42.6474 56.9441 45.0374 56.796 46.5962 56.5117C47.558 56.3363 48.1038 55.3909 47.7748 54.4703C47.2417 52.9782 46.1749 50.8343 44.2198 49.7055Z" fill="#DB0032"/>
<path d="M55.7797 49.7055C57.7349 48.5767 60.1249 48.7248 61.6837 49.0091C62.6454 49.1845 63.1913 50.1299 62.8623 51.0506C62.3291 52.5426 61.2624 54.6865 59.3072 55.8153C57.3521 56.9441 54.9621 56.796 53.4033 56.5117C52.4415 56.3363 51.8957 55.3909 52.2247 54.4703C52.7579 52.9782 53.8246 50.8343 55.7797 49.7055Z" fill="#DB0032"/>
</g>
<defs>
<clipPath id="clip0_550_31641">
<rect width="46" height="61" fill="white" transform="translate(27 22.2578)"/>
</clipPath>
</defs>
</svg>
