<svg width="100" height="101" viewBox="0 0 100 101" fill="none" xmlns="http://www.w3.org/2000/svg">
<rect y="0.765625" width="100" height="100" rx="50" fill="#F9F2ED"/>
<circle cx="50.3008" cy="29.6797" r="2.45312" fill="white"/>
<path d="M75.3433 45.582C76.6903 44.2352 78.8594 44.1815 80.1997 45.458V45.459C81.5508 46.7484 81.6203 48.8708 80.3833 50.2412L80.2593 50.3711L80.2573 50.373L63.6772 67.0137C63.1526 67.5389 62.4389 67.8358 61.6948 67.8359H40.2231C39.4927 67.836 38.7737 68.0017 38.1187 68.3213L37.8413 68.4678L34.7329 70.2432L30.8091 61.7246L34.9038 51.8984C39.1196 50.422 43.6639 50.5156 47.7241 52.0449L47.895 52.1094H60.105C60.9935 52.1094 61.8019 52.4465 62.4126 53.001L62.5327 53.1152C63.0615 53.6445 63.4169 54.3448 63.5112 55.124L63.5532 55.4668L63.7974 55.7109L63.7983 55.7129L64.5054 56.4189L65.2124 55.7119L75.3433 45.582Z" fill="white" stroke="black" stroke-width="2"/>
<path d="M59.6078 60.7533H51.7828C51.1173 60.7533 50.5785 60.2673 50.5785 59.6669C50.5785 59.0666 51.1173 58.5806 51.7828 58.5806H59.6078C61.2668 58.5806 62.618 57.3628 62.618 55.8651C62.618 54.3675 61.287 53.1497 59.6078 53.1497H48.1711C47.5056 53.1497 46.9668 52.6637 46.9668 52.0633C46.9668 51.432 47.5636 50.9203 48.28 50.9769H59.6078C62.6239 50.9769 65.0254 53.186 65.0254 55.8641C65.0254 58.5421 62.5955 60.7512 59.6078 60.7512V60.7533Z" fill="black"/>
<path d="M36.682 51.1071V71.3652C36.682 73.4812 34.9645 75.1637 32.8834 75.1637H22.7544V47.3086H32.8834C34.982 47.3086 36.682 49.0086 36.682 51.1071Z" fill="#DB0032"/>
<path d="M31.6172 71.3737C30.9185 71.3737 30.3506 70.8071 30.3506 70.1071V67.5752C30.3506 66.8753 30.9173 66.3086 31.6172 66.3086C32.3171 66.3086 32.8838 66.8753 32.8838 67.5752V70.1071C32.8838 70.8071 32.3171 71.3737 31.6172 71.3737Z" fill="#EEF5FF"/>
<path d="M43.563 37.7481C43.1185 38.9296 42.2295 41.3347 42.2295 41.5059L54.4416 41.9956L58.2666 41.5059C58.3251 41.1545 58.407 40.3182 58.2666 39.7848C58.0912 39.1181 57.1086 38.0959 55.4592 37.2186C53.8099 36.3413 49.6339 36.6246 47.6688 36.7299C46.0966 36.8141 44.2765 37.4438 43.563 37.7481Z" fill="white"/>
<mask id="mask0_550_31643" style="mask-type:alpha" maskUnits="userSpaceOnUse" x="30" y="13" width="41" height="41">
<rect x="30.2598" y="13.2188" width="40.1809" height="40.1809" fill="#D9D9D9"/>
</mask>
<g mask="url(#mask0_550_31643)">
<path d="M32.3415 43C31.9957 43 31.7019 42.8789 31.46 42.6367C31.2178 42.3948 31.0967 42.1009 31.0967 41.7549V41.1626C31.0967 40.1095 31.6605 39.2438 32.788 38.5655C33.9156 37.8872 35.3854 37.548 37.1975 37.548C37.491 37.548 37.791 37.5578 38.0974 37.5773C38.4035 37.5965 38.7118 37.6309 39.0224 37.6803C38.7863 38.1552 38.6083 38.6376 38.4883 39.1276C38.3686 39.6176 38.3087 40.1196 38.3087 40.6336V43H32.3415ZM42.4578 43C42.0797 43 41.7658 42.8746 41.5161 42.6238C41.2666 42.3729 41.1419 42.0619 41.1419 41.6908V40.698C41.1419 39.9142 41.3619 39.1978 41.802 38.5488C42.242 37.8994 42.8762 37.3334 43.7047 36.8507C44.5331 36.3677 45.512 36.0055 46.6413 35.7641C47.7702 35.5225 49.0044 35.4017 50.3438 35.4017C51.7088 35.4017 52.9558 35.5225 54.0848 35.7641C55.2137 36.0055 56.1924 36.3677 57.0209 36.8507C57.8496 37.3334 58.4797 37.8994 58.9111 38.5488C59.3425 39.1978 59.5582 39.9142 59.5582 40.698V41.6908C59.5582 42.0619 59.4327 42.3729 59.1819 42.6238C58.931 42.8746 58.62 43 58.2489 43H42.4578ZM62.3913 43V40.6356C62.3913 40.091 62.3375 39.575 62.2298 39.0878C62.1221 38.6009 61.9513 38.1324 61.7175 37.6824C62.0459 37.6316 62.3585 37.5965 62.6554 37.5773C62.9523 37.5578 63.2435 37.548 63.5289 37.548C65.3435 37.548 66.8096 37.8816 67.9271 38.5488C69.0446 39.2159 69.6034 40.0872 69.6034 41.1626V41.7549C69.6034 42.1009 69.4823 42.3948 69.2401 42.6367C68.9982 42.8789 68.7043 43 68.3586 43H62.3913ZM43.2778 40.8964H57.4311V40.595C57.3954 39.6885 56.7186 38.9468 55.4007 38.37C54.0828 37.7935 52.3993 37.5053 50.35 37.5053C48.3081 37.5053 46.6263 37.7935 45.3048 38.37C43.9833 38.9468 43.3076 39.6942 43.2778 40.6122V40.8964ZM37.1707 36.1262C36.4427 36.1262 35.8199 35.8657 35.3023 35.3447C34.7844 34.8241 34.5255 34.1974 34.5255 33.4646C34.5255 32.7305 34.7859 32.106 35.3069 31.5912C35.8276 31.0766 36.4543 30.8194 37.187 30.8194C37.9212 30.8194 38.5483 31.0766 39.0684 31.5912C39.5885 32.106 39.8486 32.7361 39.8486 33.4814C39.8486 34.1985 39.5915 34.8186 39.0772 35.3418C38.5629 35.8647 37.9274 36.1262 37.1707 36.1262ZM63.5168 36.1262C62.7966 36.1262 62.1751 35.864 61.6522 35.3397C61.129 34.8157 60.8674 34.1922 60.8674 33.4692C60.8674 32.732 61.1295 32.106 61.6538 31.5912C62.1779 31.0766 62.804 30.8194 63.5323 30.8194C64.2748 30.8194 64.9035 31.0766 65.4183 31.5912C65.9331 32.106 66.1905 32.7345 66.1905 33.4768C66.1905 34.2036 65.9338 34.827 65.4204 35.3468C64.907 35.8664 64.2724 36.1262 63.5168 36.1262ZM50.3559 34.146C49.1499 34.146 48.1231 33.7234 47.2754 32.8782C46.4277 32.0333 46.0038 31.0072 46.0038 29.7998C46.0038 28.5681 46.4263 27.5358 47.2712 26.7029C48.1164 25.8697 49.1427 25.4531 50.35 25.4531C51.5814 25.4531 52.6137 25.8692 53.4469 26.7012C54.2798 27.533 54.6963 28.5639 54.6963 29.7939C54.6963 30.9996 54.2804 32.0265 53.4486 32.8745C52.6165 33.7222 51.5856 34.146 50.3559 34.146ZM50.368 32.0428C50.9978 32.0428 51.5262 31.8251 51.9531 31.3899C52.3797 30.9548 52.593 30.4188 52.593 29.7818C52.593 29.152 52.3789 28.6236 51.9506 28.1967C51.5225 27.7701 50.9922 27.5568 50.3597 27.5568C49.7335 27.5568 49.2015 27.7708 48.7637 28.1988C48.3259 28.6271 48.107 29.1574 48.107 29.7897C48.107 30.4159 48.3245 30.9479 48.7595 31.3857C49.1948 31.8238 49.731 32.0428 50.368 32.0428Z" fill="#1C1B1F"/>
</g>
</svg>
