<svg width="20" height="20" viewBox="0 0 20 20" fill="none" xmlns="http://www.w3.org/2000/svg">
<g clip-path="url(#clip0_583_33241)">
<path d="M18.9323 8.62362L17.399 7.39028C17.276 7.29214 17.1806 7.16374 17.1222 7.01766C17.0637 6.87158 17.0443 6.71283 17.0656 6.55695L17.274 4.60695C17.3029 4.34784 17.2733 4.08554 17.1873 3.8394C17.1013 3.59327 16.9612 3.36957 16.7773 3.18481C16.5933 3.00006 16.3702 2.85896 16.1245 2.77192C15.8787 2.68489 15.6165 2.65414 15.3573 2.68195L13.399 2.89028C13.2431 2.91165 13.0843 2.89216 12.9382 2.83373C12.7922 2.7753 12.6638 2.67992 12.5656 2.55695L11.3573 1.04862C11.1883 0.854292 10.9796 0.698484 10.7453 0.591712C10.511 0.484939 10.2565 0.429687 9.99896 0.429688C9.74145 0.429688 9.48694 0.484939 9.25261 0.591712C9.01828 0.698484 8.80959 0.854292 8.64062 1.04862L7.40729 2.58195C7.30915 2.70492 7.18075 2.8003 7.03467 2.85873C6.88859 2.91716 6.72983 2.93665 6.57396 2.91528L4.64062 2.70695C4.38139 2.67914 4.11922 2.70989 3.87346 2.79692C3.6277 2.88396 3.40461 3.02506 3.22065 3.20981C3.0367 3.39457 2.89657 3.61827 2.8106 3.8644C2.72463 4.11054 2.69502 4.37284 2.72396 4.63195L2.93229 6.58195C2.95366 6.73783 2.93417 6.89658 2.87574 7.04266C2.81731 7.18874 2.72193 7.31714 2.59896 7.41528L1.06562 8.62362C0.862266 8.78681 0.698148 8.99359 0.585378 9.22869C0.472608 9.46379 0.414063 9.7212 0.414062 9.98195C0.414062 10.2427 0.472608 10.5001 0.585378 10.7352C0.698148 10.9703 0.862266 11.1771 1.06562 11.3403L2.59896 12.5736C2.7213 12.6723 2.81622 12.8008 2.87459 12.9467C2.93296 13.0926 2.95283 13.2511 2.93229 13.4069L2.72396 15.3653C2.69507 15.6238 2.72505 15.8856 2.81163 16.1309C2.89822 16.3762 3.03918 16.5988 3.22396 16.7819C3.40447 16.9704 3.6267 17.1138 3.87276 17.2006C4.11882 17.2875 4.38183 17.3153 4.64062 17.2819L6.59896 17.0736C6.75483 17.0522 6.91359 17.0717 7.05967 17.1302C7.20575 17.1886 7.33415 17.284 7.43229 17.4069L8.66562 18.9403C8.82882 19.1436 9.0356 19.3078 9.2707 19.4205C9.50579 19.5333 9.76321 19.5918 10.024 19.5918C10.2847 19.5918 10.5421 19.5333 10.7772 19.4205C11.0123 19.3078 11.2191 19.1436 11.3823 18.9403L12.6156 17.4069C12.7138 17.284 12.8422 17.1886 12.9882 17.1302C13.1343 17.0717 13.2931 17.0522 13.449 17.0736L15.4073 17.2819C15.6661 17.3153 15.9291 17.2875 16.1752 17.2006C16.4212 17.1138 16.6434 16.9704 16.824 16.7819C17.0087 16.5988 17.1497 16.3762 17.2363 16.1309C17.3229 15.8856 17.3528 15.6238 17.324 15.3653L17.1156 13.4069C17.0951 13.2511 17.1149 13.0926 17.1733 12.9467C17.2317 12.8008 17.3266 12.6723 17.449 12.5736L18.9823 11.3403C19.1856 11.1771 19.3498 10.9703 19.4625 10.7352C19.5753 10.5001 19.6338 10.2427 19.6338 9.98195C19.6338 9.7212 19.5753 9.46379 19.4625 9.22869C19.3498 8.99359 19.1856 8.78681 18.9823 8.62362H18.9323ZM10.3323 12.5403C10.2039 12.7074 10.0415 12.8454 9.85588 12.9452C9.67025 13.045 9.46559 13.1044 9.25536 13.1193C9.04514 13.1343 8.83413 13.1045 8.63624 13.032C8.43835 12.9595 8.25807 12.8459 8.10729 12.6986L6.07396 10.6653C5.99626 10.5876 5.93462 10.4953 5.89257 10.3938C5.85052 10.2923 5.82888 10.1835 5.82888 10.0736C5.82888 9.8517 5.91704 9.63887 6.07396 9.48195C6.23088 9.32503 6.4437 9.23687 6.66562 9.23687C6.88754 9.23687 7.10037 9.32503 7.25729 9.48195L9.16562 11.3569L12.424 7.01528C12.5566 6.83847 12.754 6.72158 12.9728 6.69032C13.1916 6.65907 13.4138 6.71601 13.5906 6.84862C13.7674 6.98122 13.8843 7.17864 13.9156 7.39743C13.9468 7.61622 13.8899 7.83847 13.7573 8.01528L10.3323 12.5403Z" fill="#DB0032"/>
</g>
<defs>
<clipPath id="clip0_583_33241">
<rect width="20" height="20" fill="white"/>
</clipPath>
</defs>
</svg>
