<svg width="22" height="23" viewBox="0 0 22 23" fill="none" xmlns="http://www.w3.org/2000/svg">
<path d="M11.0015 22.3719C9.5663 22.3719 8.21847 22.1004 6.95797 21.5574C5.69747 21.0144 4.6003 20.276 3.66647 19.3422C2.73247 18.4083 1.99405 17.3112 1.45122 16.0507C0.908219 14.7902 0.636719 13.4423 0.636719 12.0072C0.636719 10.0275 1.15647 8.20057 2.19597 6.52641C3.23547 4.85224 4.64314 3.57824 6.41897 2.70441C6.41164 3.04891 6.42797 3.40557 6.46797 3.77441C6.50814 4.14341 6.58847 4.56649 6.70897 5.04366C5.49714 5.79682 4.54539 6.78757 3.85372 8.01591C3.16205 9.24407 2.81622 10.5745 2.81622 12.0072C2.81622 14.2883 3.61014 16.2218 5.19797 17.8077C6.7858 19.3935 8.7203 20.1864 11.0015 20.1864C13.2826 20.1864 15.2171 19.3935 16.805 17.8077C18.3928 16.2218 19.1867 14.2883 19.1867 12.0072C19.1867 10.5745 18.8399 9.23991 18.1462 8.00341C17.4526 6.76674 16.4935 5.77182 15.269 5.01866C15.3895 4.53749 15.4708 4.11441 15.513 3.74941C15.555 3.38457 15.5786 3.03624 15.584 2.70441C17.3598 3.57824 18.7675 4.84907 19.807 6.51691C20.8465 8.18474 21.3662 10.0148 21.3662 12.0072C21.3662 13.4423 21.0947 14.7902 20.5517 16.0507C20.0089 17.3112 19.2705 18.4083 18.3365 19.3422C17.4026 20.276 16.3055 21.0144 15.045 21.5574C13.7845 22.1004 12.4366 22.3719 11.0015 22.3719ZM11.0015 18.2224C9.27497 18.2224 7.80747 17.6182 6.59897 16.4097C5.39047 15.2012 4.78622 13.7337 4.78622 12.0072C4.78622 11.0165 5.00172 10.0862 5.43272 9.21641C5.86372 8.34641 6.47688 7.61616 7.27222 7.02566C7.35955 7.30349 7.46013 7.62182 7.57397 7.98066C7.68797 8.33966 7.8363 8.78474 8.01897 9.31591C7.67614 9.69124 7.41589 10.1062 7.23822 10.5609C7.06039 11.0156 6.97147 11.4977 6.97147 12.0072C6.97147 13.1192 7.36514 14.0688 8.15247 14.8562C8.9398 15.6433 9.88947 16.0369 11.0015 16.0369C12.1135 16.0369 13.0631 15.6433 13.8505 14.8562C14.6378 14.0688 15.0315 13.1192 15.0315 12.0072C15.0315 11.4977 14.9426 11.0156 14.7647 10.5609C14.5871 10.1062 14.3268 9.69124 13.984 9.31591C14.1373 8.86007 14.2741 8.44441 14.3945 8.06891C14.5146 7.69324 14.6204 7.34549 14.7117 7.02566C15.5071 7.61616 16.1234 8.34641 16.5607 9.21641C16.9981 10.0862 17.2167 11.0165 17.2167 12.0072C17.2167 13.7337 16.6125 15.2012 15.404 16.4097C14.1955 17.6182 12.728 18.2224 11.0015 18.2224ZM10.6657 8.47116C10.4371 8.47116 10.2356 8.40474 10.0612 8.27191C9.88689 8.13891 9.76447 7.96641 9.69397 7.75441L8.69397 4.60016C8.5773 4.17082 8.49814 3.79657 8.45647 3.47741C8.4148 3.15841 8.39397 2.84891 8.39397 2.54891C8.39397 1.82107 8.64655 1.20449 9.15172 0.699156C9.65705 0.19399 10.2736 -0.0585938 11.0015 -0.0585938C11.7293 -0.0585938 12.3459 0.19399 12.8512 0.699156C13.3564 1.20449 13.609 1.82107 13.609 2.54891C13.609 2.84891 13.5881 3.15549 13.5465 3.46866C13.5048 3.78166 13.4256 4.15282 13.309 4.58216L12.3032 7.75441C12.2326 7.96641 12.1101 8.13891 11.9357 8.27191C11.7614 8.40474 11.56 8.47116 11.3315 8.47116H10.6657ZM11.0015 14.0669C10.4315 14.0669 9.94472 13.8651 9.54122 13.4614C9.13755 13.0579 8.93572 12.5712 8.93572 12.0012C8.93572 11.4312 9.13755 10.9444 9.54122 10.5409C9.94472 10.1372 10.4315 9.93541 11.0015 9.93541C11.5715 9.93541 12.0582 10.1372 12.4617 10.5409C12.8654 10.9444 13.0672 11.4312 13.0672 12.0012C13.0672 12.5712 12.8654 13.0579 12.4617 13.4614C12.0582 13.8651 11.5715 14.0669 11.0015 14.0669Z" fill="#DB0032"/>
</svg>
