<svg width="20" height="20" viewBox="0 0 20 20" fill="none" xmlns="http://www.w3.org/2000/svg">
<g clip-path="url(#clip0_584_33215)">
<path d="M18.75 7.91667H17.2C17.0431 7.38481 16.8308 6.87088 16.5667 6.38333L17.6583 5.28333C17.776 5.1685 17.8691 5.03103 17.9321 4.87921C17.9951 4.72739 18.0267 4.56437 18.025 4.4C18.0262 4.2357 17.9944 4.07282 17.9314 3.92107C17.8684 3.76932 17.7756 3.63179 17.6583 3.51667L16.4833 2.34167C16.3678 2.22476 16.2303 2.13194 16.0787 2.06859C15.927 2.00524 15.7643 1.97262 15.6 1.97262C15.4357 1.97262 15.273 2.00524 15.1213 2.06859C14.9697 2.13194 14.8322 2.22476 14.7167 2.34167L13.6167 3.44167C13.1309 3.17163 12.6166 2.95642 12.0833 2.8V1.25C12.0833 0.918479 11.9516 0.600537 11.7172 0.366117C11.4828 0.131696 11.1649 0 10.8333 0L9.16667 0C8.83515 0 8.5172 0.131696 8.28278 0.366117C8.04836 0.600537 7.91667 0.918479 7.91667 1.25V2.8C7.38336 2.95642 6.86909 3.17163 6.38333 3.44167L5.28333 2.34167C5.16784 2.22476 5.0303 2.13194 4.87866 2.06859C4.72703 2.00524 4.56433 1.97262 4.4 1.97262C4.23567 1.97262 4.07297 2.00524 3.92134 2.06859C3.7697 2.13194 3.63216 2.22476 3.51667 2.34167L2.34167 3.51667C2.22443 3.63179 2.13156 3.76932 2.06856 3.92107C2.00557 4.07282 1.97375 4.2357 1.975 4.4C1.9723 4.56451 2.00345 4.72782 2.06653 4.87977C2.12961 5.03173 2.22326 5.1691 2.34167 5.28333L3.43333 6.38333C3.16916 6.87088 2.95689 7.38481 2.8 7.91667H1.25C0.918479 7.91667 0.600537 8.04836 0.366117 8.28278C0.131696 8.5172 0 8.83515 0 9.16667L0 10.8333C0 11.1649 0.131696 11.4828 0.366117 11.7172C0.600537 11.9516 0.918479 12.0833 1.25 12.0833H2.8C2.9554 12.6157 3.16773 13.1298 3.43333 13.6167L2.34167 14.7167C2.10758 14.951 1.9761 15.2687 1.9761 15.6C1.9761 15.9313 2.10758 16.249 2.34167 16.4833L3.51667 17.6583C3.75414 17.8865 4.07068 18.0139 4.4 18.0139C4.72932 18.0139 5.04586 17.8865 5.28333 17.6583L6.38333 16.5667C6.8702 16.8323 7.38428 17.0446 7.91667 17.2V18.75C7.91667 19.0815 8.04836 19.3995 8.28278 19.6339C8.5172 19.8683 8.83515 20 9.16667 20H10.8333C11.1649 20 11.4828 19.8683 11.7172 19.6339C11.9516 19.3995 12.0833 19.0815 12.0833 18.75V17.2C12.6157 17.0446 13.1298 16.8323 13.6167 16.5667L14.7167 17.6583C14.8322 17.7752 14.9697 17.8681 15.1213 17.9314C15.273 17.9948 15.4357 18.0274 15.6 18.0274C15.7643 18.0274 15.927 17.9948 16.0787 17.9314C16.2303 17.8681 16.3678 17.7752 16.4833 17.6583L17.6583 16.4833C17.8924 16.249 18.0239 15.9313 18.0239 15.6C18.0239 15.2687 17.8924 14.951 17.6583 14.7167L16.5667 13.6167C16.8323 13.1298 17.0446 12.6157 17.2 12.0833H18.75C19.0815 12.0833 19.3995 11.9516 19.6339 11.7172C19.8683 11.4828 20 11.1649 20 10.8333V9.16667C20 8.83515 19.8683 8.5172 19.6339 8.28278C19.3995 8.04836 19.0815 7.91667 18.75 7.91667ZM10 14.1667C9.17591 14.1667 8.37033 13.9223 7.68512 13.4645C6.99992 13.0066 6.46587 12.3559 6.1505 11.5945C5.83514 10.8332 5.75262 9.99538 5.91339 9.18712C6.07417 8.37887 6.471 7.63644 7.05372 7.05372C7.63644 6.471 8.37887 6.07417 9.18712 5.91339C9.99538 5.75262 10.8332 5.83514 11.5945 6.1505C12.3559 6.46587 13.0066 6.99992 13.4645 7.68512C13.9223 8.37033 14.1667 9.17591 14.1667 10C14.1667 10.5472 14.0589 11.089 13.8495 11.5945C13.6401 12.1 13.3332 12.5594 12.9463 12.9463C12.5594 13.3332 12.1 13.6401 11.5945 13.8495C11.089 14.0589 10.5472 14.1667 10 14.1667Z" fill="#DB0032"/>
</g>
<defs>
<clipPath id="clip0_584_33215">
<rect width="20" height="20" fill="white"/>
</clipPath>
</defs>
</svg>
